<svg width="730" height="420" fill="none" xmlns="http://www.w3.org/2000/svg"><path fill="#fff" d="M0 0h730v420H0z"/><path d="M674.8 167.705c-.1-23.1-21.9-39.7-44.4-34.1-10.5 2.6-19.7 3.1-27 3.1-84.9.6-142-102.5-262.4-101.7-105.4.7-132.8 69.8-140.3 81.3-7.6 11.5-36.6 84.1-56.7 100-20.1 15.9-91.1 58.4-122.3 115.3-.1.1-.1.3-.2.5-12.8 23.8 4.7 52.7 31.7 52.5l587.4-4c19.7-.2 35.6-16.3 35.5-35.9l-1.3-177z" fill="#F8FAFB"/><path d="M374.906 203.1c-.8-6.2-2.6-12-5.2-17.4l6.6-11c.7-1.2-.5-1.3-9.7-13.2-.9-1.1-1.4 0-13 4.2-4.7-3.7-10-6.6-15.7-8.6l-2.9-12.6c-.1-.4-.5-.8-.9-.8l-15.1-1.5c-.4 0-.9.2-1 .6l-5.3 11.8c-6 .8-11.8 2.7-17.1 5.4l-10.8-6.7c-.4-.2-.9-.2-1.2.1l-11.7 9.9c-.4.3-.5.8-.3 1.2l4.4 12.1c-3.6 4.8-6.5 10.2-8.4 16.1l-12.3 3c-.4.1-.8.5-.8.9l-1.5 15.4c-.1 1.4 1 1 12.1 6.4.8 6.2 2.6 12 5.2 17.4l-6.6 11c-.7 1.2.5 1.3 9.7 13.2.9 1.1 1.4-.1 13-4.2 4.7 3.6 10 6.6 15.7 8.5l2.9 12.6c.3 1.4 1.1.6 16 2.3 1.4.1 1.1-1.3 6.3-12.4 6-.9 11.8-2.7 17.1-5.4l10.8 6.7c1.2.7 1.2-.4 12.9-10 1.1-.9-.1-1.5-4.1-13.3 3.6-4.8 6.4-10.2 8.4-16.1l12.3-3c1.3-.3.5-1.1 2.3-16.4.1-1.1-1.1-.7-12.1-6.2zm2.1 6.6c-1.5 13-.8 13.7-1.9 13.9l-10.4 2.6c-1.7 5-4.1 9.6-7.2 13.7 3.4 10 4.4 10.5 3.5 11.3-10 8.2-10 9.1-11 8.5l-9.2-5.7c-4.5 2.3-9.4 3.8-14.5 4.6-4.5 9.5-4.2 10.6-5.4 10.5-12.7-1.5-13.3-.8-13.6-1.9l-2.5-10.7c-4.9-1.7-9.4-4.2-13.4-7.3-9.9 3.6-10.3 4.5-11.1 3.6-7.9-10.1-8.9-10.2-8.3-11.2l5.6-9.4c-2.2-4.6-3.7-9.6-4.4-14.8-9.4-4.6-10.4-4.3-10.3-5.5l1.3-13.1c0-.4.3-.7.7-.8l10.5-2.6c1.7-5 4.1-9.6 7.1-13.7l-3.7-10.3c-.1-.4 0-.8.3-1l9.9-8.4c.3-.2.7-.3 1-.1l9.2 5.7c4.5-2.3 9.4-3.9 14.5-4.6l4.5-10c.2-.4.5-.6.9-.5l12.8 1.3c.4 0 .7.3.8.7l2.5 10.7c4.9 1.7 9.4 4.2 13.4 7.3 9.9-3.6 10.3-4.5 11.1-3.6 7.9 10.1 8.9 10.2 8.3 11.2l-5.6 9.4c2.2 4.6 3.7 9.6 4.4 14.8 9.3 4.6 10.3 4.3 10.2 5.4z" fill="#08C"/><path d="M297.006 192.8h7.9l7.5 24.5h-6.9l-2.8-11.9c-.6-2.3-1.2-5.3-1.8-7.8h-.2c-.5 2.5-1.1 5.4-1.7 7.8l-2.8 11.9h-6.6l7.4-24.5zm-2.1 14.3h12v5h-12v-5zm19.7-14.3h9c5.4 0 10 2 10 8.2 0 6-4.7 8.6-9.8 8.6h-2.6v7.8h-6.5v-24.6h-.1zm8.9 11.6c2.6 0 3.8-1.3 3.8-3.5s-1.4-3-3.9-3h-2.2v6.5h2.3zm14.1-11.6h6.5v24.5h-6.5v-24.5zm-42.7 33.6c0-2.9 1.6-4.8 3.9-4.8 1.1 0 1.9.5 2.4 1.1l-.4.4c-.5-.6-1.2-.9-2-.9-2 0-3.3 1.6-3.3 4.2s1.2 4.2 3.2 4.2c1 0 1.7-.4 2.3-1.1l.4.4c-.7.8-1.5 1.3-2.7 1.3-2.2 0-3.8-1.9-3.8-4.8zm8.4-5.5h.6v4.4c.7-.7 1.4-1.2 2.3-1.2 1.4 0 2 .8 2 2.6v4.3h-.6v-4.2c0-1.4-.5-2.1-1.5-2.1-.8 0-1.4.4-2.2 1.3v5.1h-.6v-10.2zm7 8.5c0-1.5 1.3-2.2 4.3-2.5 0-1-.3-2.1-1.6-2.1-.9 0-1.7.4-2.1.8l-.3-.5c.5-.3 1.4-.9 2.5-.9 1.6 0 2.1 1.2 2.1 2.6v4.3h-.5l-.1-.9c-.7.6-1.5 1-2.4 1-1.1 0-1.9-.6-1.9-1.8zm4.3.2v-2.3c-2.8.3-3.7 1-3.7 2s.7 1.3 1.4 1.3c.8.1 1.5-.3 2.3-1zm3.2-.4v-4.3h-1.1v-.5l1.1-.1.1-1.9h.5v1.9h2v.5h-2v4.4c0 .9.2 1.4 1.1 1.4.2 0 .6-.1.8-.2l.2.5c-.4.1-.8.3-1.1.3-1.2 0-1.6-.8-1.6-2zm6.3-7.4h.6l3.3 9.2h-.7l-1.8-5.4c-.4-1.1-.7-2.1-1-3.2h-.2c-.3 1.1-.6 2.1-1 3.2l-1.9 5.4h-.6l3.3-9.2zm-1.8 5.5h4.1v.5h-4.1v-.5zm7-3h.5l.1.8c.7-.5 1.5-1 2.3-1 1.8 0 2.7 1.4 2.7 3.4 0 2.3-1.4 3.6-3 3.6-.6 0-1.3-.3-2-.8v3.7h-.6v-9.7zm5 3.3c0-1.7-.6-2.9-2.1-2.9-.7 0-1.4.4-2.2 1.1v4c.8.6 1.5.9 2 .9 1.3-.1 2.3-1.3 2.3-3.1zm2.7-3.3h.5l.1.8c.7-.5 1.5-1 2.3-1 1.8 0 2.7 1.4 2.7 3.4 0 2.3-1.4 3.6-3 3.6-.6 0-1.3-.3-2-.8v3.7h-.6v-9.7zm4.9 3.3c0-1.7-.6-2.9-2.1-2.9-.7 0-1.4.4-2.2 1.1v4c.8.6 1.5.9 2 .9 1.3-.1 2.3-1.3 2.3-3.1z" fill="#08C"/><g clip-path="url(#a)"><path opacity=".09" d="M612.606 84.521h-6.198a.035.035 0 0 0-.037.037v14.405c0 .022.015.037.037.037h6.198a.035.035 0 0 0 .037-.037V84.558a.035.035 0 0 0-.037-.037zm19.574 4.407h-6.198a.035.035 0 0 0-.037.037v9.998c0 .022.015.037.037.037h6.198a.035.035 0 0 0 .037-.037v-9.998a.035.035 0 0 0-.037-.037zm-9.783-12.815h-6.198a.035.035 0 0 0-.037.037v22.813c0 .022.015.037.037.037h6.198a.035.035 0 0 0 .037-.037V76.15c0-.022-.022-.037-.037-.037zm19.566-5.693h-6.198c-.022 0-.037.014-.037.036v28.507c0 .022.015.037.037.037h6.198a.035.035 0 0 0 .037-.037V70.456a.035.035 0 0 0-.037-.037z" fill="#000"/><path opacity=".26" d="M639.024 60.584a1.698 1.698 0 0 0-1.21 2.891l-7.705 9.407a1.729 1.729 0 0 0-.928-.274c-.512 0-.972.222-1.284.584l-7.141-4.962a1.696 1.696 0 0 0-1.492-2.507 1.7 1.7 0 0 0-1.699 1.694c0 .333.096.65.267.91l-7.274 5.827a1.724 1.724 0 0 0-1.203-.496c-.943 0-1.7.762-1.7 1.694 0 .939.765 1.693 1.7 1.693.935 0 1.7-.762 1.7-1.694 0-.332-.097-.65-.267-.909l7.274-5.827c.312.303.735.495 1.202.495.513 0 .973-.222 1.284-.584l7.141 4.962a1.697 1.697 0 0 0 1.492 2.507c.943 0 1.7-.762 1.7-1.694 0-.465-.186-.887-.49-1.19l7.705-9.406c.267.17.586.273.928.273a1.696 1.696 0 1 0 0-3.394z" fill="#000"/><path d="M612.272 84.144h-6.198a.035.035 0 0 0-.037.037v14.405c0 .022.015.037.037.037h6.198a.035.035 0 0 0 .037-.037V84.18a.035.035 0 0 0-.037-.037z" fill="#665CAC"/><path d="M631.846 88.551h-6.198a.035.035 0 0 0-.037.037v9.998c0 .022.015.037.037.037h6.198a.035.035 0 0 0 .037-.037v-9.998a.035.035 0 0 0-.037-.037z" fill="#EE2E79"/><path d="M622.063 75.736h-6.198c-.023 0-.037.015-.037.037v22.813c0 .022.014.037.037.037h6.198a.035.035 0 0 0 .037-.037V75.773c0-.022-.022-.037-.037-.037z" fill="#43D854"/><path d="M641.629 70.042h-6.198a.035.035 0 0 0-.037.037v28.507c0 .022.015.037.037.037h6.198a.035.035 0 0 0 .037-.037V70.079a.035.035 0 0 0-.037-.037z" fill="#08C"/><g opacity=".1" fill="#000"><path opacity=".1" d="M606 91.383v7.203c0 .022.015.037.037.037h6.198a.035.035 0 0 0 .037-.037V92.7c-2.093-.4-4.186-.836-6.272-1.317z"/><path opacity=".3" d="M628.751 95.495a475.17 475.17 0 0 1-3.185-.518v3.602c0 .022.015.037.037.037h6.198c.023 0 .037-.015.037-.037v-2.566c-1.024-.178-2.056-.348-3.087-.518z"/><path opacity=".1" d="M615.783 93.35v5.236c0 .022.015.037.037.037h6.198a.035.035 0 0 0 .037-.037v-4.17c-2.086-.34-4.179-.696-6.272-1.066z"/><path opacity=".3" d="M635.357 96.604v1.982c0 .022.015.037.037.037h6.198a.035.035 0 0 0 .037-.037v-.917c-2.086-.348-4.179-.71-6.272-1.065z"/></g><path d="M608.984 74.96a.2.2 0 0 1-.149-.067.18.18 0 0 1 .03-.259l10.021-8.023 9.887 6.87 9.738-11.899a.188.188 0 0 1 .26-.03.186.186 0 0 1 .03.26l-9.954 12.164-9.946-6.914-9.806 7.853a.162.162 0 0 1-.111.045z" fill="#527275"/><path d="M618.893 68.526c.939 0 1.7-.758 1.7-1.693 0-.936-.761-1.694-1.7-1.694s-1.7.758-1.7 1.694c0 .935.761 1.693 1.7 1.693z" fill="#43D854"/><path d="M628.81 75.418c.939 0 1.7-.758 1.7-1.693 0-.936-.761-1.694-1.7-1.694s-1.7.758-1.7 1.694c0 .935.761 1.693 1.7 1.693z" fill="#EE2E79"/><path d="M638.652 63.387c.939 0 1.7-.758 1.7-1.694 0-.935-.761-1.693-1.7-1.693-.938 0-1.699.758-1.699 1.693 0 .936.761 1.694 1.699 1.694z" fill="#08C"/><path d="M610.636 75.163a1.7 1.7 0 0 0-3.307-.786 1.7 1.7 0 0 0 3.307.786z" fill="#665CAC"/></g><path d="m675.238 127.401-23.974-23.942c5.478-6.496 8.217-13.972 8.217-22.429 0-4.76-.932-9.296-2.796-13.609-1.863-4.312-4.362-8.036-7.497-11.172-3.134-3.137-6.875-5.629-11.224-7.477-4.349-1.848-8.923-2.772-13.723-2.772-6.382 0-12.284 1.554-17.705 4.662-5.422 3.108-9.7 7.35-12.834 12.727C590.567 68.765 589 74.632 589 80.988s1.567 12.223 4.702 17.6c3.134 5.375 7.412 9.618 12.834 12.726 5.421 3.108 11.323 4.662 17.705 4.662 8.81 0 16.547-2.884 23.211-8.652l23.889 23.857c.226.224.466.406.72.546.254.14.522.224.805.252.282.028.564.028.847 0 .282-.028.55-.112.805-.252a3.26 3.26 0 0 0 .72-.546c.508-.504.762-1.134.762-1.89s-.254-1.386-.762-1.89zm-50.997-16.885c-5.422 0-10.42-1.33-14.995-3.99-4.574-2.661-8.189-6.259-10.843-10.795s-3.981-9.465-3.981-14.785 1.327-10.249 3.981-14.785 6.269-8.134 10.843-10.794c4.575-2.66 9.559-3.99 14.952-3.99 5.394 0 10.377 1.33 14.952 3.99 4.574 2.66 8.203 6.258 10.886 10.794 2.682 4.536 4.023 9.465 4.023 14.785 0 7.897-2.767 14.7-8.301 20.413-5.479 5.657-12.143 8.709-19.993 9.157h-1.524z" fill="#00080C"/><g clip-path="url(#b)"><path d="m627.038 252.84-1.42 12.717h16.459l-2.145-12.717h-12.894z" fill="url(#c)"/><path d="M598.396 220.596v29.97a4.549 4.549 0 0 0 4.43 4.547c10.951.282 49.255.965 59.682.811a3.346 3.346 0 0 0 3.296-3.25c.202-6.962.526-23.705-.681-31.479a3.44 3.44 0 0 0-3.293-2.914c-9.175-.291-49.781-1.224-60.199-.988a3.305 3.305 0 0 0-3.235 3.303z" fill="url(#d)"/><path d="M600.278 220.45v28.476a2.636 2.636 0 0 0 2.596 2.634l58.135.717a2.564 2.564 0 0 0 2.605-2.553l.098-28.221a1.874 1.874 0 0 0-1.829-1.881l-59.521-1.201a2.03 2.03 0 0 0-2.084 2.029z" fill="url(#e)"/><path d="M664.051 253.458s-.003 0 0 0l-63.773-1.086a.096.096 0 0 1-.093-.095c0-.051.042-.093.096-.093l63.773 1.087c.05 0 .092.044.092.095a.098.098 0 0 1-.095.092z" fill="#7D97F4"/><path d="M645.623 268.158h-24.088c-.656 0-1.146-.465-1.02-.966l.308-1.22c.093-.367.499-.639.978-.653l23.222-.725c.502-.017.947.252 1.056.633l.557 1.946c.143.506-.35.985-1.013.985z" fill="url(#f)"/><path d="M600.278 220.45v28.476a2.636 2.636 0 0 0 2.596 2.634l58.135.717a2.564 2.564 0 0 0 2.605-2.553l.098-28.221a1.874 1.874 0 0 0-1.829-1.881l-59.521-1.201a2.03 2.03 0 0 0-2.084 2.029z" fill="#91B3FA"/><path d="m663.698 224.803.011-3.306a1.872 1.872 0 0 0-1.829-1.878l-59.504-1.201a2.019 2.019 0 0 0-2.067 2.032v4.353h63.389z" fill="url(#g)"/><path d="M604.769 222.45a.68.68 0 1 0-1.324-.312.68.68 0 0 0 1.324.312zm2.361.001a.681.681 0 1 0-1.326-.312.681.681 0 0 0 1.326.312zm2.299-.049a.681.681 0 1 0-1.344-.218.681.681 0 0 0 1.344.218z" fill="#91B3FA"/><path d="m660.166 250.72-55.88-.806a1.552 1.552 0 0 1-1.532-1.553v-5.591a1.42 1.42 0 0 1 1.436-1.419l56.013.635a1.174 1.174 0 0 1 1.159 1.173v6.383c0 .658-.538 1.187-1.196 1.178zm-20.117-10.066-35.721-.513a1.596 1.596 0 0 1-1.574-1.595v-11.055c0-.624.507-1.131 1.131-1.131h35.926a1.3 1.3 0 0 1 1.3 1.299v11.951a1.049 1.049 0 0 1-1.062 1.044zm20.134.017h-17.019a1.09 1.09 0 0 1-1.09-1.089v-11.864c0-.748.608-1.355 1.356-1.355h17.112c.45 0 .817.367.817.817v12.312a1.175 1.175 0 0 1-1.176 1.179z" fill="#BDD0FB"/><path d="M589.896 270.904c0 .454.37.823.823.823h44.578a.824.824 0 0 0 .823-.823l.37-25.606c0-.454-.535-1.335-1.512-1.271l-43.561-1.125a2.082 2.082 0 0 0-1.521.604 2.07 2.07 0 0 0-.611 1.518l.611 25.88z" fill="url(#h)"/><path d="M590.711 270.115c0 .428.35.778.779.778h42.731a.78.78 0 0 0 .779-.778l.35-23.247c-.042-1.399-1.269-1.9-2.011-1.872l-41.754-1.12a1.458 1.458 0 0 0-1.499 1.492l.625 24.747z" fill="#91B3FA"/><path d="m635.316 249.214.034-2.329c-.042-1.399-1.269-1.909-2.011-1.878l-41.754-1.123a1.452 1.452 0 0 0-1.07.423c-.283.283-.44.683-.429 1.083l.096 3.827h45.134v-.003z" fill="url(#i)"/><path d="M634.541 259.071a.115.115 0 0 1-.115-.115l.028-1.884c0-.061.053-.112.115-.112.064 0 .114.053.112.115l-.028 1.884a.112.112 0 0 1-.112.112z" fill="#fff"/><path d="M634.608 254.452a.115.115 0 0 1-.115-.115l.106-7.22c-.002-.428-.131-.772-.386-1.016-.476-.456-1.232-.431-1.263-.431l-13.345-.358a.116.116 0 0 1-.112-.118c.003-.064.05-.117.118-.112l13.336.359c.084-.006.888-.02 1.423.495.302.288.456.686.456 1.181l-.106 7.223c.003.062-.051.112-.112.112zm-18.168 6.604h-23.404a1.053 1.053 0 0 1-1.054-1.053v-8.6c0-.582.471-1.052 1.054-1.052h23.404c.583 0 1.053.47 1.053 1.052v8.6c0 .58-.47 1.053-1.053 1.053z" fill="#BDD0FB"/><path d="M633.325 261.056H619.58a.756.756 0 0 1-.756-.756v-9.196c0-.417.338-.756.756-.756h13.745c.418 0 .756.339.756.756v9.196a.756.756 0 0 1-.756.756zm-.173 8.824h-40.243a.927.927 0 0 1-.927-.927v-5.411c0-.513.415-.927.927-.927h40.243c.512 0 .927.414.927.927v5.411a.926.926 0 0 1-.927.927z" fill="#BDD0FB"/><path d="M592.84 246.557a.535.535 0 1 0-1.057-.171.535.535 0 0 0 1.057.171zm1.638.344a.534.534 0 1 0-.755-.756.534.534 0 0 0 .755.756zm1.666.1a.534.534 0 1 0-.755-.756.534.534 0 0 0 .755.756z" fill="#91B3FA"/><path d="M635.532 233.563c4.065 0 7.36-3.335 7.36-7.449 0-4.115-3.295-7.45-7.36-7.45s-7.36 3.335-7.36 7.45c0 4.114 3.295 7.449 7.36 7.449z" fill="#fff"/><path d="M635.272 230.128a.907.907 0 0 1-.782-.448l-2.77-4.667a.928.928 0 0 1 .311-1.265.903.903 0 0 1 1.249.316l1.922 3.239 2.54-5.053a.905.905 0 0 1 1.224-.403.926.926 0 0 1 .397 1.24l-3.288 6.534a.906.906 0 0 1-.778.504c-.003.003-.014.003-.025.003z" fill="url(#j)"/><path d="M600.659 265.893c4.065 0 7.36-3.335 7.36-7.449s-3.295-7.449-7.36-7.449-7.36 3.335-7.36 7.449 3.295 7.449 7.36 7.449z" fill="#fff"/><path d="M600.401 262.458a.906.906 0 0 1-.781-.448l-2.77-4.663a.928.928 0 0 1 .311-1.266.903.903 0 0 1 1.249.317l1.921 3.239 2.54-5.053a.904.904 0 0 1 1.224-.404.929.929 0 0 1 .398 1.241l-3.288 6.533a.907.907 0 0 1-.779.504h-.025z" fill="url(#k)"/><path d="M643.435 236.348c-.095 4.485-.403 19.96-.257 25.441.017.583.414 1.047.91 1.067 2.456.095 11.463.333 15.482.134.837-.042 1.504-.834 1.521-1.814.084-4.708.268-17.95-.171-24.019-.054-.728-.541-1.304-1.163-1.377-2.674-.314-11.72-1.078-15.193-.815-.624.051-1.115.65-1.129 1.383z" fill="url(#l)"/><path d="M644.53 237.725c-.131 3.62-.548 15.666-.417 20.12.02.652.459 1.178 1.014 1.215 2.291.157 10.102.501 13.46.187.605-.056 1.078-.63 1.112-1.338.17-3.692.658-14.909.532-19.313-.02-.703-.485-1.276-1.084-1.338-2.476-.26-10.777-.879-13.631-.697-.537.034-.963.537-.986 1.164z" fill="#91B3FA"/><path opacity=".5" d="M649.507 235.752c0 .137.093.252.21.257.58.037 2.215.138 2.946.185.143.009.258-.143.23-.308l-.006-.028c-.019-.112-.098-.198-.196-.21-.492-.053-1.982-.198-2.971-.159-.12.008-.213.123-.213.263z" fill="#fff"/><path d="M660.253 239.968a60.425 60.425 0 0 0-.02-1.366c-.019-.703-.484-1.28-1.083-1.341-2.476-.261-10.777-.879-13.631-.697-.535.033-.961.54-.986 1.167-.019.563-.036 1.005-.067 1.881l15.787.356z" fill="url(#m)"/><path opacity=".42" d="M652.246 247.683h-6.455a.703.703 0 0 1-.692-.711v-5.666a.63.63 0 0 1 .636-.638l6.517.159a.671.671 0 0 1 .644.68v5.51a.657.657 0 0 1-.65.666zm6.996 0h-5.523a.251.251 0 0 1-.252-.252v-6.394c0-.109.087-.196.196-.196h5.593a.2.2 0 0 1 .199.199v6.433a.214.214 0 0 1-.213.21zm.008 5.554h-14.157a.225.225 0 0 1-.224-.224v-4.249c0-.101.082-.182.182-.182h14.191c.118 0 .213.095.213.212v4.242a.205.205 0 0 1-.205.201zm-1.31 5.257-12.415-.173c-.367-.006-.664-.275-.664-.602v-3.004c0-.291.263-.523.585-.523h13.06c.31 0 .56.224.562.501l.009 2.796c.005.56-.51 1.014-1.137 1.005z" fill="#fff"/><path opacity=".74" d="M645.994 238.896a.436.436 0 1 0-.334-.807.436.436 0 0 0 .334.807zm1.601-.054a.436.436 0 1 0-.616-.617.436.436 0 0 0 .616.617zm1.222.177a.437.437 0 1 0-.335-.807.437.437 0 0 0 .335.807z" fill="#fff"/><path d="M652.801 252.613c3.144 0 5.693-2.581 5.693-5.764 0-3.184-2.549-5.764-5.693-5.764-3.145 0-5.694 2.58-5.694 5.764 0 3.183 2.549 5.764 5.694 5.764z" fill="#fff"/><path d="M652.602 249.956a.705.705 0 0 1-.605-.347l-2.143-3.611a.72.72 0 0 1 .241-.98.703.703 0 0 1 .967.244l1.487 2.505 1.966-3.908a.705.705 0 0 1 .949-.313.717.717 0 0 1 .308.96l-2.543 5.056a.702.702 0 0 1-.602.389c-.008.005-.017.005-.025.005z" fill="url(#n)"/></g><path d="M517.805 351h-28.61c-4.522 0-8.195-3.695-8.195-8.242v-50.516c0-4.547 3.673-8.242 8.195-8.242h28.61c4.521 0 8.194 3.695 8.194 8.242v50.516c.071 4.547-3.603 8.242-8.194 8.242z" fill="url(#o)"/><path d="M515.626 347h-24.253c-4.62 0-8.373-3.657-8.373-8.157v-42.686c0-4.5 3.753-8.157 8.373-8.157h24.253c4.62 0 8.373 3.657 8.373 8.157v42.686c.072 4.5-3.681 8.157-8.373 8.157z" fill="#78D5E4"/><path d="M495.127 309.737c5.255 0 9.515-4.261 9.515-9.516a9.515 9.515 0 0 0-9.515-9.515 9.516 9.516 0 0 0 0 19.031z" fill="#fff"/><mask id="p" style="mask-type:alpha" maskUnits="userSpaceOnUse" x="485" y="290" width="20" height="20"><path d="M495.127 309.737c5.255 0 9.515-4.261 9.515-9.516a9.515 9.515 0 0 0-9.515-9.515 9.516 9.516 0 0 0 0 19.031z" fill="#fff"/></mask><g mask="url(#p)"><path d="M495.197 302.477a3.736 3.736 0 1 0 0-7.473 3.736 3.736 0 0 0 0 7.473z" fill="url(#q)"/><path d="M489.558 309.878h11.771c.705 0 1.128-.917.776-1.622-.987-1.832-3.102-4.511-6.767-4.44-3.524.141-5.568 2.537-6.626 4.299-.352.776.071 1.763.846 1.763z" fill="url(#r)"/></g><path opacity=".8" d="m518.457 297.049-9.515-.141c-.564 0-.987-.493-.987-1.057v-.282c0-.564.493-.987 1.057-.987l9.516.141c.563 0 .986.494.986 1.058v.282c-.07.563-.493.986-1.057.986zm.564 4.793-10.855-.141c-.211 0-.352-.141-.352-.352v-1.621c0-.212.141-.353.352-.353l10.925.141c.212 0 .353.141.353.353v1.621c-.071.211-.212.352-.423.352zm-.705 4.723-9.515-.141c-.564 0-.987-.493-.987-1.057v-.282c0-.564.493-.987 1.057-.987l9.516.141c.563 0 .986.493.986 1.057v.282c-.07.493-.493.987-1.057.987zm-1.269 15.295h-25.092a1.113 1.113 0 0 1-1.128-1.128v-.352c0-.634.493-1.128 1.128-1.128h25.092c.635 0 1.128.494 1.128 1.128v.352c0 .635-.493 1.128-1.128 1.128zm-29.815.282a1.62 1.62 0 1 0 0-3.241 1.62 1.62 0 0 0 0 3.241zm29.815 4.652h-25.092a1.113 1.113 0 0 1-1.128-1.128v-.352c0-.634.493-1.128 1.128-1.128h25.092c.635 0 1.128.494 1.128 1.128v.352c0 .635-.493 1.128-1.128 1.128zm-29.815.282a1.62 1.62 0 1 0 0-3.241 1.62 1.62 0 0 0 0 3.241zm29.815 4.652h-25.092a1.113 1.113 0 0 1-1.128-1.128v-.352c0-.634.493-1.128 1.128-1.128h25.092c.635 0 1.128.494 1.128 1.128v.352c0 .564-.493 1.128-1.128 1.128zm-29.815.282a1.62 1.62 0 1 0 0-3.241 1.62 1.62 0 0 0 0 3.241zm29.815 4.652h-25.092a1.113 1.113 0 0 1-1.128-1.128v-.352c0-.635.493-1.128 1.128-1.128h25.092c.635 0 1.128.493 1.128 1.128v.352c0 .564-.493 1.128-1.128 1.128zm-29.815.282a1.62 1.62 0 1 0 0-3.241 1.62 1.62 0 0 0 0 3.241z" fill="#fff"/><path d="M505.896 317h-18.798c-.618 0-1.098-.568-1.098-1.297v-.406c0-.729.48-1.297 1.098-1.297h18.798c.618 0 1.098.568 1.098 1.297v.406c.069.729-.48 1.297-1.098 1.297z" fill="#fff"/><path d="M507.97 345h-8.944c-1.118 0-2.026-.97-2.026-2.164v-.672c0-1.194.908-2.164 2.026-2.164h8.944c1.118 0 2.026.97 2.026 2.164v.672c.07 1.119-.838 2.164-2.026 2.164z" fill="url(#s)"/><g clip-path="url(#t)"><path d="M79 261.8h-.9v1.4h.9v-1.4z" fill="#604D3F"/><path d="M78.1 262.1v.2s.4.4.9 0v-.4l-.9.2z" fill="#00080C"/><path d="M78.6 253.1c-1.4.1-1.6 4.4-1.6 6.8 0 2.4 1.6 2.4 1.6 2.4s1.6 0 1.6-2.4c0-2.5-.2-6.8-1.6-6.8z" fill="#D3CA53"/><path d="M80 258.5c-.4 1.4-1 2.3-1.8 2.5-.4.1-.9 0-1.2-.5.3 1.8 1.5 1.7 1.5 1.7s1.6 0 1.6-2.4V258c0 .2 0 .4-.1.5z" fill="#C6B044"/><path d="M78.2 254.7c-.2.4-.4.6-.5.5-.1-.2 0-.7.2-1.1.2-.4.4-.6.5-.5.1.2 0 .7-.2 1.1z" fill="#E8DB64"/><path d="M152.8 208.5h1.2c-.1 2-.1 4.3-.2 6.9v-.5h-1.2c.1-2.4.2-4.5.2-6.4zm-.2 7.2h1.2c0 1.9-.1 4-.1 6.2v-.3h-1.3c.1-2.1.1-4.1.2-5.9zm-.2 6.7h1.3c0 2.3-.1 4.8-.1 7.4v-.3h-1.3c0-2.6.1-4.9.1-7.1zm-.1 7.8h1.3c0 2.3-.1 4.8-.1 7.4h-1.3c0-2.6.1-5.1.1-7.4zm1.2 33h-1c-.1-2.6-.1-5.2-.2-7.7h1.1c.1 2.5.1 5.1.1 7.7zm-1.3-24.8h1.3v8.5h-1.2c-.1-3-.1-5.8-.1-8.5zm1.3 16.3h-1.1c0-2.4-.1-4.8-.1-7.1h1.2v7.1zm-7 .8v7.7h-.7v-7.7h.7zm0-7.9v7.1h-.7v-7.1h.7zm0-9.2v8.5h-.7v-8.5h.7zm0-8.2v7.4h-.7v-7.4h.7zm-.1-7.8v7h-.7v-7h.7zm0-6.7v5.9h-.7v-5.9h.7zm0-7.2v6.4h-.7v-6.4h.7zm0-11.4v10.6h-.6V197s.2.1.6.1zm8 2s-.2 3.1-.4 8.9v-.3h-1.2c.2-4.2.3-7.3.4-9 .6.1.9.3 1.2.4z" fill="#00080C"/><path d="M152.5 263.2h-5.4s0-3 .1-7.7h5.1c.1 2.5.2 5.1.2 7.7zm-.2-8.5h-5.1c0-2.1.1-4.5.1-7.1h4.9c.1 2.3.1 4.7.1 7.1zm0-7.8h-4.9c0-2.7.1-5.5.1-8.5h4.8c-.1 2.7-.1 5.5 0 8.5zm-4.8-16.7h4.7c0 2.4 0 4.8-.1 7.4h-4.8c.2-2.4.2-4.9.2-7.4zm.1-7.8h4.8c0 2.2-.1 4.6-.1 7h-4.7v-7zm.1-6.7h4.9c-.1 1.9-.1 3.8-.2 5.9h-4.8c.1-2 .1-4 .1-5.9zm.1-7.2h5c-.1 1.9-.1 4.1-.2 6.4h-4.9c0-2.2.1-4.4.1-6.4zm5.5-9.8c-.1 1.7-.3 4.8-.4 9h-5.1c0-4.1.1-7.7.1-10.3 1.6.3 3.9.8 5.4 1.3z" fill="#00080C"/><path d="M153.4 197s0 .6-.1 1.7c-1.5-.5-3.7-.9-5.4-1.3v-2.1s2.3.2 5.5 1.7zm-7-1.7h1.5v2.1c-.6-.1-1.1-.2-1.5-.3v-1.8z" fill="#00080C"/><path d="M147.9 197.4c0 2.6 0 6.2-.1 10.3h-1.4v-10.6c.4.1.9.2 1.5.3zm-2.1 58.1v7.7h-32.5s.1-2.7.1-7c1.8-.2 18.6-2.1 32.4-.7z" fill="#00080C"/><path d="M145.8 247.6v7.1c-14-1.4-31.1.6-32.3.7 0-2.1.1-4.6.1-7.4 1.3-.1 20.2-2.5 32.2-.4z" fill="#00080C"/><path d="M145.8 238.4v8.5c-12-2.1-30.8.3-32.2.4 0-2.6.1-5.5.1-8.4 1.4-.2 16.7-2.4 32.1-.5z" fill="#00080C"/><path d="M145.8 230.2v7.4c-15.4-1.9-30.6.3-32.1.5v-7.2c1.2-.1 18.6-2.5 32.1-.7z" fill="#00080C"/><path d="M145.8 222.4v7c-13.2-1.7-29.9.5-32 .8v-6.9c1.1-.2 20.6-2.2 32-.9zm0-25.4v10.7c-14.5-.5-30.7 2.9-32.2 3.2-.1-3.1-.1-6.1-.3-8.9 0 .1 12.1-5.3 32.5-5z" fill="#00080C"/><path d="M145.8 208.5v6.4c-13.3-.8-31 1.1-32.1 1.3 0-1.5 0-3-.1-4.4 1.6-.4 17.8-3.8 32.2-3.3zm0 7.2v5.9c-11.5-1.2-30.9.8-32 .9v-5.6c1.1-.1 18.7-2 32-1.2z" fill="#00080C"/><path d="M154 207.7v.8h-1.2v-.8h1.2zm-.2 7.2v.8h-1.2v-.8h1.2zm-.1 6.7v.8h-1.3v-.8h1.3zm-.1 7.8v.7h-1.3v-.8h1.3v.1zm-.1 8.2v.8h-1.3v-.8h1.3zm0 17.9h-1.1v-.8h1.1v.8zm0-8.6v.8h-1.2v-.8h1.2z" fill="#9B693B"/><path d="M147.8 207.7h5.1v.8h-5c-.1-.3-.1-.5-.1-.8zm-.1 7.2h4.9v.8h-4.9v-.8zm4.7 6.7v.8h-4.8v-.8h4.8zm-.1 33.1v.8h-5.1v-.8h5.1zm-4.7-25.3h4.7v.8h-4.7c-.1-.3 0-.5 0-.8zm4.7 18.2h-4.9v-.8h4.9v.8zm-.1-10v.8h-4.8v-.8h4.8z" fill="#00080C"/><path d="M146.4 208.5h1.4c0 2 0 4.2-.1 6.4h-1.3v-6.4zm0 7.2h1.3c0 1.9 0 3.9-.1 5.9h-1.2v-5.9zm0 6.7h1.2c0 2.3-.1 4.7-.1 7h-1.1v-7zm.1 7.8h1.1c0 2.5-.1 5-.1 7.4h-1v-7.4zm0 8.2h1c0 3-.1 5.8-.1 8.5h-.8l-.1-8.5zm0 9.2h.8c0 2.6-.1 5-.1 7.1h-.7v-7.1zm0 7.9h.7c-.1 4.7-.1 7.7-.1 7.7h-.6v-7.7zm-.1-47.8h1.4v.8h-1.4v-.8z" fill="#C1915E"/><path d="M146.4 214.9h1.3v.8h-1.3v-.8zm0 6.7h1.2v.8h-1.2v-.8zm.1 7.8h1.1v.8h-1.1v-.8zm0 8.2h1v.8h-1v-.8zm0 9.3h.8v.8h-.8v-.8zm0 7.8h.7v.8h-.7v-.8z" fill="#C1915E"/><path d="M146.5 254.7v.8h-.7v-.8h.7zm0-7.8v.8h-.7v-.8h.7zm0-9.3v.8h-.7v-.8h.7zm0-8.2v.8h-.7v-.8h.7zm-.1-7.8v.8h-.7v-.8h.7zm0-6.7v.8h-.7v-.8h.7zm0-7.2v.8h-.7v-.8h.7z" fill="#9B693B"/><path d="M113.7 230.1v.8h-.1l-.1-.8c0 .1.1.1.2 0zm0-7.6v.8h-.1l.1-.8zm0 15.6v.8h-.1v-.8h.1zm0-21.9v.8h-.1l.1-.8c-.1 0-.1 0 0 0zm-.1 31.1v.8h-.1l.1-.8c-.1 0-.1 0 0 0zm0-36.4v.8h-.1v-.7l.1-.1zm-.1 44.5v.8h-.1l.1-.8c-.1 0-.1 0 0 0z" fill="#C1915E"/><mask id="v" style="mask-type:alpha" maskUnits="userSpaceOnUse" x="113" y="196" width="33" height="68"><path d="M113.3 263.2s.9-37.7 0-61.2c0 0 12.1-5.4 32.4-5v66.2h-32.4z" fill="url(#u)"/></mask><g mask="url(#v)"><path opacity=".3" d="M113.3 263.2s.9-37.7 0-61.2c0 0 12.1-5.4 32.4-5v66.2h-32.4z" fill="url(#w)"/><path d="M145.8 214.9v.8c-13.2-.8-30.9 1.1-32.1 1.3v-.8c1.1-.2 18.7-2.1 32.1-1.3zm0-7.2v.8c-14.4-.5-30.6 2.9-32.2 3.2v-.8c1.4-.3 17.6-3.7 32.2-3.2zm-.1 47.8c-13.7-1.3-30.5.5-32.2.7v-.8c1.2-.1 18.3-2.1 32.3-.7l-.1.8zm0-33.1c-11.3-1.2-30.8.8-32 .9v-.8c1.2-.1 20.6-2.2 32-.9v.8zm-32 15.7c1.4-.2 16.7-2.4 32.1-.5v.8h-.1c-15.3-1.8-30.6.3-32 .5v-.8zm0-8c2.1-.3 18.9-2.4 32-.8v.8h-.1c-13.4-1.7-30.8.6-32 .8.1-.2.1-.5.1-.8zm-.1 17.2c1.3-.2 20.2-2.6 32.2-.4v.8h-.1c-11.8-2.1-30.8.3-32.1.4v-.8z" fill="#C1915E"/><path opacity=".4" d="M139 235c-2.4 3.8-5.6 7-9.7 9.5-4.2 2.6-9.3 3.7-14.4 4-.5 0-.9 0-1.4-.1-.1 8.8-.3 14.9-.3 14.9h32.4v-49.4c-.8 7.3-2.6 14.6-6.6 21.1z" fill="#00080C"/></g><mask id="y" style="mask-type:alpha" maskUnits="userSpaceOnUse" x="113" y="196" width="33" height="68"><path d="M113.3 263.2s.9-37.7 0-61.2c0 0 12.1-5.4 32.4-5v66.2h-32.4z" fill="url(#x)"/></mask><g mask="url(#y)"><path opacity=".6" d="M113.3 263.2s.9-37.7 0-61.2c0 0 12.1-5.4 32.4-5v66.2h-32.4z" fill="url(#z)"/></g><path d="M124.1 176h1.4c-.1 3.2-.1 6.8-.2 10.9v-.7h-1.4c0-3.7.1-7.1.2-10.2zm-.3 11.5h1.4c-.1 3-.1 6.3-.2 9.9v-.4h-1.4c.1-3.4.2-6.6.2-9.5zm-.2 10.6h1.4c0 3.7-.1 7.6-.1 11.7v-.5h-1.4c0-3.9.1-7.6.1-11.2zm-.1 12.5h1.4c0 3.7-.1 7.7-.1 11.8h-1.4c0-4.1 0-8.1.1-11.8zm1.4 52.6h-1.2c-.1-4.2-.1-8.3-.2-12.3h1.3c.1 4 .1 8.1.1 12.3zm-1.5-39.6h1.4v13.6h-1.4v-13.6zm1.4 26.1h-1.3c0-3.8-.1-7.6-.1-11.3h1.4v11.3zm-7.9 1.2v12.3h-.9v-12.3h.9zm0-12.5v11.3h-.8v-11.3h.8zm-.1-14.8v13.6h-.9v-13.6h.9zm0-13v11.8h-.8v-11.8h.8zm0-12.5v11.2h-.8v-11.2h.8zm0-10.6v9.4h-.8v-9.4h.8zm0-11.5v10.2h-.8V176h.8zm0-18.1v16.8h-.7v-17c-.1 0 .2.1.7.2zm9.1 3.2s-.2 4.9-.4 14.2v-.5h-1.3c.2-6.7.4-11.6.5-14.4.5.2.9.4 1.2.7z" fill="#00080C"/><path d="M123.8 263.2h-6.2s0-4.8.1-12.3h5.9c0 4 .1 8.1.2 12.3zm-.3-13.5h-5.8c0-3.3.1-7.1.1-11.3h5.6c.1 3.7.1 7.4.1 11.3zm-.1-12.5h-5.6c0-4.2.1-8.8.1-13.6h5.5v13.6zm-5.3-26.6h5.4c0 3.8-.1 7.7-.1 11.8H118c0-3.9 0-7.9.1-11.8zm.1-12.5h5.4c-.1 3.5-.1 7.3-.1 11.2h-5.4c0-3.7 0-7.5.1-11.2zm.1-10.6h5.5c-.1 3-.1 6.1-.2 9.4h-5.5c.1-3.2.1-6.4.2-9.4zm0-11.5h5.7c-.1 3.1-.2 6.5-.2 10.2h-5.6c.1-3.5.1-7 .1-10.2zm6.3-15.6c-.1 2.8-.3 7.7-.5 14.4h-5.8c0-6.6.1-12.3.1-16.4 1.9.5 4.5 1.2 6.2 2z" fill="#00080C"/><path d="M124.7 157.7s0 .9-.1 2.6c-1.7-.7-4.3-1.5-6.2-2v-3.4c.1.1 2.7.4 6.3 2.8z" fill="#00080C"/><path d="M116.8 155h1.7v3.4c-.7-.2-1.3-.3-1.7-.4v-3z" fill="#00080C"/><path d="M118.4 158.4c0 4.1 0 9.8-.1 16.4h-1.6V158c.5 0 1.1.2 1.7.4zm-2.4 92.5v12.3H79s.1-4.2.2-11.2c1.9-.3 21.2-3.2 36.8-1.1z" fill="#00080C"/><path d="M116 238.4v11.3c-15.9-2.2-35.4.9-36.8 1.1 0-3.4.1-7.4.1-11.7 1.5-.3 23.1-4.1 36.6-.7h.1z" fill="#00080C"/><path d="M116 223.6v13.6c-13.7-3.4-35.1.4-36.7.7 0-4.2.1-8.7.1-13.4 1.7-.4 19.1-3.8 36.6-.9z" fill="#00080C"/><path d="M116 210.6v11.8c-17.5-3-34.9.5-36.6.8v-11.4c1.5-.3 21.2-4 36.6-1.2z" fill="#00080C"/><path d="M116 198.1v11.2c-15-2.7-34.2.8-36.5 1.2v-10.9c1.4-.2 23.5-3.5 36.5-1.5zm0-40.4v17c-16.6-.7-35 4.7-36.7 5.2-.1-4.9-.2-9.7-.3-14.1 0 0 13.9-8.6 37-8.1z" fill="#00080C"/><path d="M116 176v10.2c-15.2-1.3-35.4 1.8-36.6 2 0-2.4 0-4.8-.1-7.1 1.8-.5 20.4-5.8 36.7-5.1zm0 11.5v9.4c-13.1-2-35.2 1.2-36.6 1.5 0-3 0-5.9-.1-8.9 1.5-.2 21.7-3.3 36.7-2z" fill="#00080C"/><path d="M125.5 174.8v1.2h-1.4v-1.2h1.4zm-.3 11.4v1.3h-1.4v-1.2h1.4v-.1zm-.1 10.7v1.2h-1.4v-1.2h1.4zm-.2 12.4v1.2h-1.4v-1.2h1.4zm-.1 13.1v1.2h-1.4v-1.2h1.4zm0 28.5h-1.3v-1.2h1.3v1.2zm0-13.7v1.2h-1.4v-1.2h1.4z" fill="#9B693B"/><path d="M118.4 174.8h5.8v1.2h-5.7c-.1-.4-.1-.8-.1-1.2zm-.1 11.4h5.6v1.2h-5.5c-.1-.4-.1-.8-.1-1.2zm5.3 10.7v1.2h-5.4v-1.2h5.4zm-.1 52.8v1.2h-5.9v-1.2h5.9zm-5.4-40.4h5.4v1.2h-5.4v-1.2zm5.3 29.1h-5.6v-1.2h5.6v1.2zm0-16v1.2h-5.5v-1.2h5.5z" fill="#00080C"/><path d="M116.8 176h1.6c0 3.2 0 6.7-.1 10.2h-1.5V176zm0 11.5h1.5c0 3.1-.1 6.2-.1 9.4h-1.4v-9.4zm0 10.6h1.4c0 3.7-.1 7.5-.1 11.2h-1.3v-11.2zm0 12.5h1.2c0 4-.1 7.9-.1 11.8h-1.1v-11.8zm0 13h1.2c0 4.7-.1 9.3-.1 13.6h-1l-.1-13.6zm.1 14.8h1c0 4.1-.1 7.9-.1 11.3h-.8l-.1-11.3zm0 12.5h.8c-.1 7.6-.1 12.3-.1 12.3h-.7v-12.3zm-.1-76.1h1.6v1.2h-1.6v-1.2zm0 11.4h1.5v1.2h-1.5v-1.2zm0 10.7h1.4v1.2h-1.4v-1.2zm0 12.4h1.3v1.2h-1.2l-.1-1.2zm0 13.1h1.2v1.2h-1.1v-1.2h-.1zm.1 14.8h1v1.2h-1v-1.2z" fill="#C1915E"/><path d="M116.9 249.7h.8v1.2h-.8v-1.2z" fill="#C1915E"/><path d="M116.9 249.7v1.2h-.9v-1.2h.9zm0-12.5v1.2h-.9v-1.2h.9zm-.1-14.8v1.2h-.8v-1.2h.8zm0-13.1v1.2h-.8v-1.2h.8zm0-12.4v1.2h-.8v-1.2h.8zm0-10.7v1.2h-.8v-1.2h.8zm0-11.4v1.2h-.8v-1.2h.8z" fill="#9B693B"/><path d="M79.5 210.5v1.3h-.1l-.2-1.2c.1 0 .1-.1.3-.1zm0-12.2v1.2h-.1l.1-1.2c-.1 0-.1 0 0 0zm0 24.9v1.2h-.1v-1.2h.1zm-.1-35v1.2h-.1l.1-1.2c0 .1 0 0 0 0zm0 49.6v1.2h-.1l.1-1.2c-.1.1-.1.1 0 0zm-.1-57.9v1.2h-.1V180s.1 0 .1-.1zm-.1 70.9v1.2H79l.2-1.2c-.1 0 0 0 0 0z" fill="#C1915E"/><mask id="B" style="mask-type:alpha" maskUnits="userSpaceOnUse" x="79" y="157" width="37" height="107"><path d="M79 263.2s1-60.1 0-97.4c0 0 13.8-8.6 37-8v105.5H79v-.1z" fill="url(#A)"/></mask><g mask="url(#B)"><path opacity=".3" d="M79 263.2s1-60.1 0-97.4c0 0 13.8-8.6 37-8v105.5H79v-.1z" fill="url(#C)"/><path d="M116 186.2v1.2c-15-1.3-35.2 1.8-36.6 2v-1.2c1.3-.2 21.5-3.3 36.6-2zm0-11.4v1.2c-16.4-.7-34.9 4.6-36.7 5.2V180c1.7-.6 20.2-6 36.7-5.2zm0 76.1c-15.6-2.1-34.8.8-36.8 1.1v-1.2c1.4-.2 20.9-3.3 36.8-1.1v1.2zm0-52.8c-12.9-2-35.1 1.2-36.5 1.4v-1.2c1.3-.2 23.5-3.4 36.6-1.5l-.1 1.3zm-36.5 25.1c1.6-.3 19-3.8 36.6-.8v1.2h-.1c-17.4-2.9-34.9.5-36.5.8v-1.2zm0-12.7c2.4-.4 21.5-3.9 36.5-1.2v1.2c-15.3-2.8-35.1.9-36.5 1.2v-1.2zm-.1 27.3c1.5-.3 23-4.1 36.7-.7v1.2h-.1c-13.5-3.4-35.1.4-36.6.7-.1-.3-.1-.7 0-1.2z" fill="#C1915E"/><path opacity=".4" d="M108.3 218.3c-2.7 6-6.4 11.1-11 15.1-4.8 4.1-10.6 5.9-16.4 6.3-.5 0-1.1 0-1.5-.1-.1 14-.3 23.7-.3 23.7h37v-78.7c-1.1 11.7-3.2 23.3-7.8 33.7z" fill="#00080C"/></g><path d="M164 263.2H68v1.6h96v-1.6z" fill="#342F33"/><path d="M123.8 262.2h-.9v1h.9v-1z" fill="#604D3F"/><path d="M122.9 262.5v.2s.4.3.9 0v-.3l-.9.1z" fill="#00080C"/><path d="M123.4 255.8c-1.4 0-1.6 3.2-1.6 5 0 1.8 1.6 1.7 1.6 1.7s1.6 0 1.6-1.7c0-1.8-.2-4.9-1.6-5z" fill="#D3CA53"/><path d="M124.9 259.8c-.4 1-1 1.7-1.8 1.8-.4.1-.9 0-1.2-.3.3 1.3 1.5 1.3 1.5 1.3s1.6 0 1.6-1.7v-1.3c-.1 0-.1.1-.1.2z" fill="#C6B044"/><path d="M123 257c-.2.3-.4.5-.5.3-.1-.1 0-.5.2-.8.2-.3.4-.5.5-.3.1.2 0 .5-.2.8z" fill="#E8DB64"/><path d="M120.3 262.2h-.9v1h.9v-1z" fill="#604D3F"/><path d="M119.4 262.5v.2s.4.3.9 0v-.3l-.9.1z" fill="#00080C"/><path d="M119.8 255.8c-1.4 0-1.6 3.2-1.6 5 0 1.8 1.6 1.7 1.6 1.7s1.6 0 1.6-1.7c0-1.8-.2-4.9-1.6-5z" fill="#D3CA53"/><path d="M121.3 259.8c-.4 1-1 1.7-1.8 1.8-.4.1-.9 0-1.2-.3.3 1.3 1.5 1.3 1.5 1.3s1.6 0 1.6-1.7v-1.3c-.1 0-.1.1-.1.2z" fill="#C6B044"/><path d="M119.4 257c-.2.3-.4.5-.5.3-.1-.1 0-.5.2-.8.2-.3.4-.5.5-.3.1.2 0 .5-.2.8z" fill="#E8DB64"/><path d="M152.9 262.2h-.9v1h.9v-1z" fill="#604D3F"/><path d="M152 262.5v.2s.4.3.9 0v-.3l-.9.1z" fill="#00080C"/><path d="M152.4 255.8c-1.4 0-1.6 3.2-1.6 5 0 1.8 1.6 1.7 1.6 1.7s1.6 0 1.6-1.7c0-1.8-.2-4.9-1.6-5z" fill="#D3CA53"/><path d="M153.9 259.8c-.4 1-1 1.7-1.8 1.8-.4.1-.9 0-1.2-.3.3 1.3 1.5 1.3 1.5 1.3s1.6 0 1.6-1.7v-1.3c-.1 0-.1.1-.1.2z" fill="#C6B044"/><path d="M152 257c-.2.3-.4.5-.5.3-.1-.1 0-.5.2-.8.2-.3.4-.5.5-.3.1.2 0 .5-.2.8z" fill="#E8DB64"/><path d="M156.5 262.2h-.9v1h.9v-1z" fill="#604D3F"/><path d="M155.6 262.4v.2s.4.3.9 0v-.3l-.9.1z" fill="#00080C"/><path d="M156 255.8c-1.4 0-1.6 3.2-1.6 5 0 1.8 1.6 1.7 1.6 1.7s1.6 0 1.6-1.7c0-1.8-.2-5-1.6-5z" fill="#D3CA53"/><path d="M157.5 259.8c-.4 1-1 1.7-1.8 1.8-.4.1-.9 0-1.2-.3.3 1.3 1.5 1.3 1.5 1.3s1.6 0 1.6-1.7v-1.3c-.1 0-.1.1-.1.2z" fill="#C6B044"/><path d="M155.6 257c-.2.3-.4.5-.5.3-.1-.1 0-.5.2-.8.2-.3.4-.5.5-.3.1.2 0 .5-.2.8z" fill="#E8DB64"/><path d="M149.3 262.2h-.9v1h.9v-1z" fill="#604D3F"/><path d="M148.4 262.5v.2s.4.3.9 0v-.3l-.9.1z" fill="#00080C"/><path d="M148.8 255.8c-1.4 0-1.6 3.2-1.6 5 0 1.8 1.6 1.7 1.6 1.7s1.6 0 1.6-1.7c0-1.8-.2-4.9-1.6-5z" fill="#D3CA53"/><path d="M150.3 259.8c-.4 1-1 1.7-1.8 1.8-.4.1-.9 0-1.2-.3.3 1.3 1.5 1.3 1.5 1.3s1.6 0 1.6-1.7v-1.3c-.1 0-.1.1-.1.2z" fill="#C6B044"/><path d="M148.5 257c-.2.3-.4.5-.5.3-.1-.1 0-.5.2-.8.2-.3.4-.5.5-.3.1.2-.1.5-.2.8z" fill="#E8DB64"/></g><path fill="#08C" d="M164 215h75v6h-75z"/><path d="m243.8 217.5-8.5 8.8-.3-17.3 8.8 8.5z" fill="#08C"/><path fill-rule="evenodd" clip-rule="evenodd" d="m354.09 148.316-3.898-9.354a1.499 1.499 0 1 0-2.769 1.153l5.192 12.462a1.501 1.501 0 0 0 1.962.808l12.461-5.193a1.499 1.499 0 1 0-1.153-2.769l-8.823 3.676c.122-.235.252-.481.389-.737 1.447-2.703 3.704-6.56 6.931-11.138 6.454-9.156 16.783-21.19 32.26-32.643 30.467-22.546 81.025-42.944 161.571-34.488l-7.716 6.131a1.5 1.5 0 0 0 1.867 2.349l10.569-8.399a1.5 1.5 0 0 0 .241-2.107l-8.398-10.57a1.5 1.5 0 0 0-2.349 1.867l6.16 7.752c-81.268-8.545-132.605 12.021-163.729 35.053-15.773 11.672-26.319 23.951-32.928 33.326-3.304 4.688-5.625 8.651-7.124 11.452-.264.493-.502.95-.716 1.369z" fill="#08C"/><path d="M576.77 149.946c.644.14 1.139.42 1.484.84.355.411.532.943.532 1.596 0 .84-.313 1.489-.938 1.946-.616.448-1.531.672-2.744.672h-4.508v-9.8h4.228c1.092 0 1.937.219 2.534.658.607.439.91 1.059.91 1.862 0 .541-.135 1.003-.406 1.386a2.367 2.367 0 0 1-1.092.84zm-5.138-3.892v3.556h3.122c.793 0 1.405-.149 1.834-.448.429-.308.644-.751.644-1.33 0-.579-.215-1.017-.644-1.316-.429-.308-1.041-.462-1.834-.462h-3.122zm3.458 8.092c.877 0 1.54-.149 1.988-.448.448-.299.672-.765.672-1.4 0-1.223-.887-1.834-2.66-1.834h-3.458v3.682h3.458zm6.061-8.946h1.036v9.8h-1.036v-9.8zm10.562-1.988h.91l-4.62 13.188h-.91l4.62-13.188zm11.826 9.17h-5.46L596.903 155h-1.078l4.48-9.8h1.022l4.48 9.8h-1.092l-1.176-2.618zm-.378-.84-2.352-5.264-2.352 5.264h4.704zm7.809-3.962c.924 0 1.657.271 2.198.812.551.532.826 1.311.826 2.338V155H613v-4.172c0-.765-.191-1.349-.574-1.75-.383-.401-.929-.602-1.638-.602-.793 0-1.423.238-1.89.714-.457.467-.686 1.115-.686 1.946V155h-.994v-7.364h.952v1.358a2.733 2.733 0 0 1 1.12-1.036c.485-.252 1.045-.378 1.68-.378zm8.299 0c.961 0 1.698.243 2.212.728.513.476.77 1.185.77 2.128V155h-.952v-1.148a2.276 2.276 0 0 1-.994.896c-.43.215-.943.322-1.54.322-.822 0-1.475-.196-1.96-.588-.486-.392-.728-.91-.728-1.554 0-.625.224-1.129.672-1.512.457-.383 1.18-.574 2.17-.574h2.338v-.448c0-.635-.178-1.115-.532-1.442-.355-.336-.873-.504-1.554-.504-.467 0-.915.079-1.344.238-.43.149-.798.359-1.106.63l-.448-.742c.373-.317.821-.56 1.344-.728a5.111 5.111 0 0 1 1.652-.266zm-.35 6.706c.56 0 1.04-.126 1.442-.378.401-.261.7-.635.896-1.12v-1.204h-2.31c-1.26 0-1.89.439-1.89 1.316 0 .429.163.77.49 1.022.326.243.784.364 1.372.364zm6.031-9.674h.994V155h-.994v-10.388zm9.948 3.024-3.682 8.246c-.298.691-.644 1.181-1.036 1.47-.392.289-.863.434-1.414.434a2.89 2.89 0 0 1-.994-.168 2.154 2.154 0 0 1-.798-.504l.462-.742c.374.373.822.56 1.344.56.336 0 .621-.093.854-.28.243-.187.467-.504.672-.952l.322-.714-3.29-7.35h1.036l2.772 6.258 2.772-6.258h.98zm5.483 6.916c-.186.168-.42.299-.7.392a2.86 2.86 0 0 1-.854.126c-.69 0-1.222-.187-1.596-.56-.373-.373-.56-.901-.56-1.582v-4.452h-1.316v-.84h1.316v-1.61h.994v1.61h2.24v.84h-2.24v4.396c0 .439.108.775.322 1.008.224.224.542.336.952.336.206 0 .402-.033.588-.098.196-.065.364-.159.504-.28l.35.714zm1.81-6.916h.994V155h-.994v-7.364zm.504-1.61a.703.703 0 0 1-.518-.21.687.687 0 0 1-.21-.504c0-.187.07-.35.21-.49.14-.14.312-.21.518-.21.205 0 .378.07.518.21.14.131.21.289.21.476 0 .205-.07.378-.21.518a.704.704 0 0 1-.518.21zm6.307 9.044c-.728 0-1.381-.159-1.96-.476a3.477 3.477 0 0 1-1.344-1.33 3.896 3.896 0 0 1-.49-1.946c0-.719.164-1.363.49-1.932a3.477 3.477 0 0 1 1.344-1.33c.579-.317 1.232-.476 1.96-.476.635 0 1.2.126 1.694.378a2.77 2.77 0 0 1 1.19 1.078l-.742.504a2.258 2.258 0 0 0-.924-.812 2.679 2.679 0 0 0-1.218-.28c-.532 0-1.012.121-1.442.364-.42.233-.751.569-.994 1.008-.233.439-.35.938-.35 1.498 0 .569.117 1.073.35 1.512.243.429.574.765.994 1.008.43.233.91.35 1.442.35.439 0 .845-.089 1.218-.266.374-.177.682-.448.924-.812l.742.504a2.86 2.86 0 0 1-1.19 1.092 3.848 3.848 0 0 1-1.694.364zm7.413-7.49c.961 0 1.699.243 2.212.728.513.476.77 1.185.77 2.128V155h-.952v-1.148a2.27 2.27 0 0 1-.994.896c-.429.215-.943.322-1.54.322-.821 0-1.475-.196-1.96-.588-.485-.392-.728-.91-.728-1.554 0-.625.224-1.129.672-1.512.457-.383 1.181-.574 2.17-.574h2.338v-.448c0-.635-.177-1.115-.532-1.442-.355-.336-.873-.504-1.554-.504-.467 0-.915.079-1.344.238a3.284 3.284 0 0 0-1.106.63l-.448-.742c.373-.317.821-.56 1.344-.728a5.116 5.116 0 0 1 1.652-.266zm-.35 6.706c.56 0 1.041-.126 1.442-.378.401-.261.7-.635.896-1.12v-1.204h-2.31c-1.26 0-1.89.439-1.89 1.316 0 .429.163.77.49 1.022.327.243.784.364 1.372.364zm6.032-9.674h.994V155h-.994v-10.388zm11.302 9.94c-.187.168-.42.299-.7.392a2.87 2.87 0 0 1-.854.126c-.691 0-1.223-.187-1.596-.56-.374-.373-.56-.901-.56-1.582v-4.452h-1.316v-.84h1.316v-1.61h.994v1.61h2.24v.84h-2.24v4.396c0 .439.107.775.322 1.008.224.224.541.336.952.336.205 0 .401-.033.588-.098.196-.065.364-.159.504-.28l.35.714zm4.56.518c-.71 0-1.349-.159-1.918-.476a3.569 3.569 0 0 1-1.344-1.344c-.327-.569-.49-1.213-.49-1.932 0-.719.163-1.363.49-1.932a3.463 3.463 0 0 1 1.344-1.33c.569-.317 1.208-.476 1.918-.476.709 0 1.348.159 1.918.476a3.382 3.382 0 0 1 1.33 1.33c.326.569.49 1.213.49 1.932 0 .719-.164 1.363-.49 1.932a3.484 3.484 0 0 1-1.33 1.344 3.878 3.878 0 0 1-1.918.476zm0-.882a2.79 2.79 0 0 0 1.4-.35c.42-.243.746-.583.98-1.022.233-.439.35-.938.35-1.498s-.117-1.059-.35-1.498a2.43 2.43 0 0 0-.98-1.008 2.699 2.699 0 0 0-1.4-.364 2.77 2.77 0 0 0-1.414.364 2.537 2.537 0 0 0-.98 1.008c-.234.439-.35.938-.35 1.498s.116 1.059.35 1.498c.242.439.569.779.98 1.022.42.233.891.35 1.414.35zm8.777.882c-.709 0-1.349-.159-1.918-.476a3.583 3.583 0 0 1-1.344-1.344c-.327-.569-.49-1.213-.49-1.932 0-.719.163-1.363.49-1.932a3.477 3.477 0 0 1 1.344-1.33c.569-.317 1.209-.476 1.918-.476.709 0 1.349.159 1.918.476a3.376 3.376 0 0 1 1.33 1.33c.327.569.49 1.213.49 1.932 0 .719-.163 1.363-.49 1.932a3.477 3.477 0 0 1-1.33 1.344c-.569.317-1.209.476-1.918.476zm0-.882c.523 0 .989-.117 1.4-.35a2.52 2.52 0 0 0 .98-1.022c.233-.439.35-.938.35-1.498s-.117-1.059-.35-1.498a2.424 2.424 0 0 0-.98-1.008 2.696 2.696 0 0 0-1.4-.364 2.77 2.77 0 0 0-1.414.364 2.544 2.544 0 0 0-.98 1.008c-.233.439-.35.938-.35 1.498s.117 1.059.35 1.498c.243.439.569.779.98 1.022.42.233.891.35 1.414.35zm5.767-9.576h.994V155h-.994v-10.388zm5.734 10.458a5.871 5.871 0 0 1-1.722-.252c-.541-.177-.966-.397-1.274-.658l.448-.784c.308.243.695.443 1.162.602a4.76 4.76 0 0 0 1.456.224c.672 0 1.167-.103 1.484-.308.327-.215.49-.513.49-.896 0-.271-.089-.481-.266-.63a1.642 1.642 0 0 0-.672-.35 8.546 8.546 0 0 0-1.078-.238 13.648 13.648 0 0 1-1.442-.336 2.221 2.221 0 0 1-.938-.602c-.252-.28-.378-.667-.378-1.162 0-.616.257-1.12.77-1.512.513-.392 1.227-.588 2.142-.588.476 0 .952.065 1.428.196.476.121.868.285 1.176.49l-.434.798c-.607-.42-1.33-.63-2.17-.63-.635 0-1.115.112-1.442.336-.317.224-.476.518-.476.882 0 .28.089.504.266.672.187.168.415.294.686.378.271.075.644.154 1.12.238.588.112 1.059.224 1.414.336.355.112.658.303.91.574.252.271.378.644.378 1.12 0 .644-.271 1.157-.812 1.54-.532.373-1.274.56-2.226.56zM564.774 286.2v9.8h-.994v-7.84l-3.85 6.594h-.49l-3.85-6.552V296h-.994v-9.8h.854l4.256 7.266 4.214-7.266h.854zm5.993 9.87c-.709 0-1.349-.159-1.918-.476a3.583 3.583 0 0 1-1.344-1.344c-.327-.569-.49-1.213-.49-1.932 0-.719.163-1.363.49-1.932a3.477 3.477 0 0 1 1.344-1.33c.569-.317 1.209-.476 1.918-.476.709 0 1.349.159 1.918.476a3.376 3.376 0 0 1 1.33 1.33c.327.569.49 1.213.49 1.932 0 .719-.163 1.363-.49 1.932a3.477 3.477 0 0 1-1.33 1.344c-.569.317-1.209.476-1.918.476zm0-.882c.523 0 .989-.117 1.4-.35a2.52 2.52 0 0 0 .98-1.022c.233-.439.35-.938.35-1.498s-.117-1.059-.35-1.498a2.424 2.424 0 0 0-.98-1.008 2.696 2.696 0 0 0-1.4-.364 2.77 2.77 0 0 0-1.414.364 2.544 2.544 0 0 0-.98 1.008c-.233.439-.35.938-.35 1.498s.117 1.059.35 1.498c.243.439.569.779.98 1.022.42.233.891.35 1.414.35zm9.561-6.608a3.74 3.74 0 0 1 1.876.476c.56.308.999.747 1.316 1.316.318.569.476 1.218.476 1.946s-.158 1.377-.476 1.946a3.4 3.4 0 0 1-1.316 1.33 3.74 3.74 0 0 1-1.876.476 3.516 3.516 0 0 1-1.666-.392 3.045 3.045 0 0 1-1.176-1.134V296h-.952v-10.388h.994v4.424c.308-.476.7-.835 1.176-1.078a3.474 3.474 0 0 1 1.624-.378zm-.07 6.608c.514 0 .98-.117 1.4-.35a2.52 2.52 0 0 0 .98-1.022c.243-.439.364-.938.364-1.498s-.121-1.059-.364-1.498a2.424 2.424 0 0 0-.98-1.008 2.743 2.743 0 0 0-1.4-.364c-.522 0-.994.121-1.414.364a2.55 2.55 0 0 0-.98 1.008c-.233.439-.35.938-.35 1.498s.117 1.059.35 1.498c.243.439.57.779.98 1.022.42.233.892.35 1.414.35zm5.765-6.552h.994V296h-.994v-7.364zm.504-1.61a.703.703 0 0 1-.518-.21.687.687 0 0 1-.21-.504c0-.187.07-.35.21-.49.14-.14.312-.21.518-.21.205 0 .378.07.518.21.14.131.21.289.21.476 0 .205-.07.378-.21.518a.704.704 0 0 1-.518.21zm3.255-1.414h.994V296h-.994v-10.388zm10.172 7.014h-6.16c.056.765.35 1.386.882 1.862.532.467 1.204.7 2.016.7.458 0 .878-.079 1.26-.238.383-.168.714-.411.994-.728l.56.644a3.133 3.133 0 0 1-1.232.896 4.096 4.096 0 0 1-1.61.308c-.756 0-1.428-.159-2.016-.476a3.556 3.556 0 0 1-1.358-1.344c-.326-.569-.49-1.213-.49-1.932 0-.719.154-1.363.462-1.932a3.468 3.468 0 0 1 1.288-1.33 3.639 3.639 0 0 1 1.848-.476c.682 0 1.293.159 1.834.476.542.317.966.761 1.274 1.33.308.56.462 1.204.462 1.932l-.014.308zm-3.556-3.192c-.709 0-1.306.229-1.792.686-.476.448-.746 1.036-.812 1.764h5.222c-.065-.728-.34-1.316-.826-1.764-.476-.457-1.073-.686-1.792-.686zm15.978-3.822V296h-.952v-1.456a3.02 3.02 0 0 1-1.19 1.134c-.486.261-1.036.392-1.652.392a3.74 3.74 0 0 1-1.876-.476 3.4 3.4 0 0 1-1.316-1.33c-.318-.569-.476-1.218-.476-1.946s.158-1.377.476-1.946a3.306 3.306 0 0 1 1.316-1.316 3.74 3.74 0 0 1 1.876-.476c.597 0 1.134.126 1.61.378.485.243.882.602 1.19 1.078v-4.424h.994zm-3.71 9.576a2.76 2.76 0 0 0 1.386-.35c.42-.243.746-.583.98-1.022a3.05 3.05 0 0 0 .364-1.498 3.05 3.05 0 0 0-.364-1.498 2.43 2.43 0 0 0-.98-1.008 2.671 2.671 0 0 0-1.386-.364 2.77 2.77 0 0 0-1.414.364 2.537 2.537 0 0 0-.98 1.008c-.234.439-.35.938-.35 1.498s.116 1.059.35 1.498c.242.439.569.779.98 1.022.42.233.891.35 1.414.35zm12.89-2.562h-6.16c.056.765.35 1.386.882 1.862.532.467 1.204.7 2.016.7.457 0 .877-.079 1.26-.238.382-.168.714-.411.994-.728l.56.644a3.147 3.147 0 0 1-1.232.896 4.1 4.1 0 0 1-1.61.308c-.756 0-1.428-.159-2.016-.476a3.543 3.543 0 0 1-1.358-1.344c-.327-.569-.49-1.213-.49-1.932 0-.719.154-1.363.462-1.932a3.454 3.454 0 0 1 1.288-1.33 3.634 3.634 0 0 1 1.848-.476c.681 0 1.292.159 1.834.476.541.317.966.761 1.274 1.33.308.56.462 1.204.462 1.932l-.014.308zM618 289.434c-.71 0-1.307.229-1.792.686-.476.448-.747 1.036-.812 1.764h5.222c-.066-.728-.341-1.316-.826-1.764-.476-.457-1.074-.686-1.792-.686zm11.644-.798L626.368 296h-1.022l-3.262-7.364h1.036l2.758 6.272 2.786-6.272h.98zm1.4 0h.994V296h-.994v-7.364zm.504-1.61a.704.704 0 0 1-.518-.21.687.687 0 0 1-.21-.504c0-.187.07-.35.21-.49.14-.14.313-.21.518-.21.206 0 .378.07.518.21.14.131.21.289.21.476 0 .205-.07.378-.21.518a.703.703 0 0 1-.518.21zm6.308 9.044c-.728 0-1.381-.159-1.96-.476a3.477 3.477 0 0 1-1.344-1.33 3.885 3.885 0 0 1-.49-1.946c0-.719.163-1.363.49-1.932a3.477 3.477 0 0 1 1.344-1.33c.579-.317 1.232-.476 1.96-.476.635 0 1.199.126 1.694.378a2.77 2.77 0 0 1 1.19 1.078l-.742.504a2.27 2.27 0 0 0-.924-.812 2.679 2.679 0 0 0-1.218-.28c-.532 0-1.013.121-1.442.364-.42.233-.751.569-.994 1.008-.233.439-.35.938-.35 1.498 0 .569.117 1.073.35 1.512.243.429.574.765.994 1.008.429.233.91.35 1.442.35.439 0 .845-.089 1.218-.266a2.27 2.27 0 0 0 .924-.812l.742.504a2.86 2.86 0 0 1-1.19 1.092 3.851 3.851 0 0 1-1.694.364zm11.126-3.444h-6.16c.056.765.35 1.386.882 1.862.532.467 1.204.7 2.016.7.457 0 .877-.079 1.26-.238.382-.168.714-.411.994-.728l.56.644a3.147 3.147 0 0 1-1.232.896 4.1 4.1 0 0 1-1.61.308c-.756 0-1.428-.159-2.016-.476a3.543 3.543 0 0 1-1.358-1.344c-.327-.569-.49-1.213-.49-1.932 0-.719.154-1.363.462-1.932a3.454 3.454 0 0 1 1.288-1.33 3.634 3.634 0 0 1 1.848-.476c.681 0 1.292.159 1.834.476.541.317.966.761 1.274 1.33.308.56.462 1.204.462 1.932l-.014.308zm-3.556-3.192c-.71 0-1.307.229-1.792.686-.476.448-.747 1.036-.812 1.764h5.222c-.066-.728-.341-1.316-.826-1.764-.476-.457-1.074-.686-1.792-.686zm7.567 6.636a5.862 5.862 0 0 1-1.722-.252c-.542-.177-.966-.397-1.274-.658l.448-.784c.308.243.695.443 1.162.602.466.149.952.224 1.456.224.672 0 1.166-.103 1.484-.308.326-.215.49-.513.49-.896 0-.271-.089-.481-.266-.63a1.655 1.655 0 0 0-.672-.35 8.546 8.546 0 0 0-1.078-.238 13.588 13.588 0 0 1-1.442-.336 2.221 2.221 0 0 1-.938-.602c-.252-.28-.378-.667-.378-1.162 0-.616.256-1.12.77-1.512.513-.392 1.227-.588 2.142-.588.476 0 .952.065 1.428.196.476.121.868.285 1.176.49l-.434.798c-.607-.42-1.33-.63-2.17-.63-.635 0-1.116.112-1.442.336-.318.224-.476.518-.476.882 0 .28.088.504.266.672.186.168.415.294.686.378.27.075.644.154 1.12.238.588.112 1.059.224 1.414.336.354.112.658.303.91.574.252.271.378.644.378 1.12 0 .644-.271 1.157-.812 1.54-.532.373-1.274.56-2.226.56zm11.423-11.858h.91l-4.62 13.188h-.91l4.62-13.188zm7.584 2.884h-3.444v-.896h7.924v.896h-3.444V296H672v-8.904zm8.091 1.484c.961 0 1.699.243 2.212.728.513.476.77 1.185.77 2.128V296h-.952v-1.148a2.27 2.27 0 0 1-.994.896c-.429.215-.943.322-1.54.322-.821 0-1.475-.196-1.96-.588-.485-.392-.728-.91-.728-1.554 0-.625.224-1.129.672-1.512.457-.383 1.181-.574 2.17-.574h2.338v-.448c0-.635-.177-1.115-.532-1.442-.355-.336-.873-.504-1.554-.504-.467 0-.915.079-1.344.238a3.284 3.284 0 0 0-1.106.63l-.448-.742c.373-.317.821-.56 1.344-.728a5.116 5.116 0 0 1 1.652-.266zm-.35 6.706c.56 0 1.041-.126 1.442-.378.401-.261.7-.635.896-1.12v-1.204h-2.31c-1.26 0-1.89.439-1.89 1.316 0 .429.163.77.49 1.022.327.243.784.364 1.372.364zm9.826-6.706c.69 0 1.316.159 1.876.476.56.308.998.747 1.316 1.316.317.569.476 1.218.476 1.946s-.159 1.377-.476 1.946a3.406 3.406 0 0 1-1.316 1.33 3.743 3.743 0 0 1-1.876.476 3.513 3.513 0 0 1-1.666-.392 3.032 3.032 0 0 1-1.176-1.134V296h-.952v-10.388h.994v4.424c.308-.476.7-.835 1.176-1.078a3.468 3.468 0 0 1 1.624-.378zm-.07 6.608c.513 0 .98-.117 1.4-.35.42-.243.746-.583.98-1.022a3.05 3.05 0 0 0 .364-1.498 3.05 3.05 0 0 0-.364-1.498 2.43 2.43 0 0 0-.98-1.008 2.745 2.745 0 0 0-1.4-.364 2.77 2.77 0 0 0-1.414.364 2.537 2.537 0 0 0-.98 1.008c-.234.439-.35.938-.35 1.498s.116 1.059.35 1.498c.242.439.569.779.98 1.022.42.233.891.35 1.414.35zm5.764-9.576h.994V296h-.994v-10.388zm10.172 7.014h-6.16c.056.765.35 1.386.882 1.862.532.467 1.204.7 2.016.7.457 0 .877-.079 1.26-.238.382-.168.714-.411.994-.728l.56.644a3.147 3.147 0 0 1-1.232.896 4.1 4.1 0 0 1-1.61.308c-.756 0-1.428-.159-2.016-.476a3.543 3.543 0 0 1-1.358-1.344c-.327-.569-.49-1.213-.49-1.932 0-.719.154-1.363.462-1.932a3.454 3.454 0 0 1 1.288-1.33 3.634 3.634 0 0 1 1.848-.476c.681 0 1.292.159 1.834.476.541.317.966.761 1.274 1.33.308.56.462 1.204.462 1.932l-.014.308zm-3.556-3.192c-.71 0-1.307.229-1.792.686-.476.448-.747 1.036-.812 1.764h5.222c-.066-.728-.341-1.316-.826-1.764-.476-.457-1.074-.686-1.792-.686zm9.471 6.118c-.187.168-.42.299-.7.392a2.865 2.865 0 0 1-.854.126c-.691 0-1.223-.187-1.596-.56-.373-.373-.56-.901-.56-1.582v-4.452h-1.316v-.84h1.316v-1.61h.994v1.61h2.24v.84h-2.24v4.396c0 .439.107.775.322 1.008.224.224.541.336.952.336.205 0 .401-.033.588-.098.196-.065.364-.159.504-.28l.35.714zm-270.496 75.532c-.971 0-1.848-.215-2.632-.644a4.79 4.79 0 0 1-1.834-1.778c-.439-.765-.658-1.619-.658-2.562 0-.943.219-1.792.658-2.548a4.738 4.738 0 0 1 1.848-1.792c.784-.429 1.661-.644 2.632-.644.728 0 1.4.121 2.016.364a4.176 4.176 0 0 1 1.568 1.064l-.658.658c-.765-.775-1.731-1.162-2.898-1.162-.775 0-1.479.177-2.114.532a3.939 3.939 0 0 0-1.498 1.456c-.355.616-.532 1.307-.532 2.072 0 .765.177 1.456.532 2.072a3.939 3.939 0 0 0 1.498 1.456 4.256 4.256 0 0 0 2.114.532c1.176 0 2.142-.392 2.898-1.176l.658.658a4.294 4.294 0 0 1-1.582 1.078 5.446 5.446 0 0 1-2.016.364zm11.986-7.448V371h-.952v-1.344c-.261.448-.62.798-1.078 1.05-.457.243-.98.364-1.568.364-.961 0-1.722-.266-2.282-.798-.55-.541-.826-1.33-.826-2.366v-4.27h.994v4.172c0 .775.192 1.363.574 1.764.383.401.929.602 1.638.602.775 0 1.386-.233 1.834-.7.448-.476.672-1.134.672-1.974v-3.864h.994zm4.758 7.434a5.871 5.871 0 0 1-1.722-.252c-.541-.177-.966-.397-1.274-.658l.448-.784c.308.243.696.443 1.162.602a4.76 4.76 0 0 0 1.456.224c.672 0 1.167-.103 1.484-.308.327-.215.49-.513.49-.896 0-.271-.088-.481-.266-.63a1.642 1.642 0 0 0-.672-.35 8.505 8.505 0 0 0-1.078-.238 13.648 13.648 0 0 1-1.442-.336 2.227 2.227 0 0 1-.938-.602c-.252-.28-.378-.667-.378-1.162 0-.616.257-1.12.77-1.512.514-.392 1.228-.588 2.142-.588.476 0 .952.065 1.428.196.476.121.868.285 1.176.49l-.434.798c-.606-.42-1.33-.63-2.17-.63-.634 0-1.115.112-1.442.336-.317.224-.476.518-.476.882 0 .28.089.504.266.672.187.168.416.294.686.378.271.075.644.154 1.12.238.588.112 1.06.224 1.414.336.355.112.658.303.91.574.252.271.378.644.378 1.12 0 .644-.27 1.157-.812 1.54-.532.373-1.274.56-2.226.56zm8.754-.518c-.187.168-.42.299-.7.392a2.865 2.865 0 0 1-.854.126c-.691 0-1.223-.187-1.596-.56-.373-.373-.56-.901-.56-1.582v-4.452h-1.316v-.84h1.316v-1.61h.994v1.61h2.24v.84h-2.24v4.396c0 .439.107.775.322 1.008.224.224.541.336.952.336.205 0 .401-.033.588-.098.196-.065.364-.159.504-.28l.35.714zm4.56.518c-.71 0-1.349-.159-1.918-.476a3.569 3.569 0 0 1-1.344-1.344c-.327-.569-.49-1.213-.49-1.932 0-.719.163-1.363.49-1.932a3.463 3.463 0 0 1 1.344-1.33c.569-.317 1.208-.476 1.918-.476.709 0 1.348.159 1.918.476a3.382 3.382 0 0 1 1.33 1.33c.326.569.49 1.213.49 1.932 0 .719-.164 1.363-.49 1.932a3.484 3.484 0 0 1-1.33 1.344 3.878 3.878 0 0 1-1.918.476zm0-.882a2.79 2.79 0 0 0 1.4-.35c.42-.243.746-.583.98-1.022.233-.439.35-.938.35-1.498s-.117-1.059-.35-1.498a2.43 2.43 0 0 0-.98-1.008 2.699 2.699 0 0 0-1.4-.364 2.77 2.77 0 0 0-1.414.364 2.537 2.537 0 0 0-.98 1.008c-.234.439-.35.938-.35 1.498s.116 1.059.35 1.498c.242.439.569.779.98 1.022.42.233.891.35 1.414.35zm14.951-6.608c.924 0 1.647.266 2.17.798.532.532.798 1.316.798 2.352V371h-.994v-4.172c0-.765-.187-1.349-.56-1.75-.364-.401-.882-.602-1.554-.602-.765 0-1.367.238-1.806.714-.439.467-.658 1.115-.658 1.946V371h-.994v-4.172c0-.765-.187-1.349-.56-1.75-.364-.401-.887-.602-1.568-.602-.756 0-1.358.238-1.806.714-.439.467-.658 1.115-.658 1.946V371h-.994v-7.364h.952v1.344a2.654 2.654 0 0 1 1.092-1.036c.467-.243 1.003-.364 1.61-.364.616 0 1.148.131 1.596.392.457.261.798.649 1.022 1.162a2.84 2.84 0 0 1 1.162-1.134c.513-.28 1.097-.42 1.75-.42zm11.904 0c.961 0 1.698.243 2.212.728.513.476.77 1.185.77 2.128V371h-.952v-1.148a2.276 2.276 0 0 1-.994.896c-.43.215-.943.322-1.54.322-.822 0-1.475-.196-1.96-.588-.486-.392-.728-.91-.728-1.554 0-.625.224-1.129.672-1.512.457-.383 1.18-.574 2.17-.574h2.338v-.448c0-.635-.178-1.115-.532-1.442-.355-.336-.873-.504-1.554-.504-.467 0-.915.079-1.344.238-.43.149-.798.359-1.106.63l-.448-.742c.373-.317.821-.56 1.344-.728a5.111 5.111 0 0 1 1.652-.266zm-.35 6.706c.56 0 1.04-.126 1.442-.378.401-.261.7-.635.896-1.12v-1.204h-2.31c-1.26 0-1.89.439-1.89 1.316 0 .429.163.77.49 1.022.326.243.784.364 1.372.364zm9.826-6.706c.69 0 1.316.159 1.876.476.56.308.998.747 1.316 1.316.317.569.476 1.218.476 1.946 0 .737-.159 1.391-.476 1.96a3.406 3.406 0 0 1-1.316 1.33c-.551.308-1.176.462-1.876.462a3.573 3.573 0 0 1-1.624-.364 3.135 3.135 0 0 1-1.176-1.092v4.102h-.994v-10.08h.952v1.456c.298-.485.69-.859 1.176-1.12a3.513 3.513 0 0 1 1.666-.392zm-.07 6.608c.513 0 .98-.117 1.4-.35.42-.243.746-.583.98-1.022a3.05 3.05 0 0 0 .364-1.498c0-.56-.122-1.055-.364-1.484a2.527 2.527 0 0 0-.98-1.022 2.745 2.745 0 0 0-1.4-.364 2.77 2.77 0 0 0-1.414.364 2.642 2.642 0 0 0-.98 1.022c-.234.429-.35.924-.35 1.484 0 .56.116 1.059.35 1.498.242.439.569.779.98 1.022.42.233.891.35 1.414.35zm9.558-6.608c.69 0 1.316.159 1.876.476.56.308.998.747 1.316 1.316.317.569.476 1.218.476 1.946 0 .737-.159 1.391-.476 1.96a3.406 3.406 0 0 1-1.316 1.33c-.551.308-1.176.462-1.876.462a3.573 3.573 0 0 1-1.624-.364 3.135 3.135 0 0 1-1.176-1.092v4.102h-.994v-10.08h.952v1.456c.298-.485.69-.859 1.176-1.12a3.513 3.513 0 0 1 1.666-.392zm-.07 6.608c.513 0 .98-.117 1.4-.35.42-.243.746-.583.98-1.022a3.05 3.05 0 0 0 .364-1.498c0-.56-.122-1.055-.364-1.484a2.527 2.527 0 0 0-.98-1.022 2.745 2.745 0 0 0-1.4-.364 2.77 2.77 0 0 0-1.414.364 2.642 2.642 0 0 0-.98 1.022c-.234.429-.35.924-.35 1.484 0 .56.116 1.059.35 1.498.242.439.569.779.98 1.022.42.233.891.35 1.414.35zm5.764-9.576h.994V371h-.994v-10.388zm3.76 3.024h.994V371h-.994v-7.364zm.504-1.61a.704.704 0 0 1-.518-.21.687.687 0 0 1-.21-.504c0-.187.07-.35.21-.49.14-.14.313-.21.518-.21.205 0 .378.07.518.21.14.131.21.289.21.476 0 .205-.07.378-.21.518a.704.704 0 0 1-.518.21zm6.308 9.044c-.728 0-1.382-.159-1.96-.476a3.463 3.463 0 0 1-1.344-1.33 3.885 3.885 0 0 1-.49-1.946c0-.719.163-1.363.49-1.932a3.463 3.463 0 0 1 1.344-1.33c.578-.317 1.232-.476 1.96-.476.634 0 1.199.126 1.694.378.504.243.9.602 1.19 1.078l-.742.504a2.27 2.27 0 0 0-.924-.812 2.685 2.685 0 0 0-1.218-.28c-.532 0-1.013.121-1.442.364-.42.233-.752.569-.994 1.008-.234.439-.35.938-.35 1.498 0 .569.116 1.073.35 1.512.242.429.574.765.994 1.008.429.233.91.35 1.442.35.438 0 .844-.089 1.218-.266a2.27 2.27 0 0 0 .924-.812l.742.504c-.29.476-.686.84-1.19 1.092a3.851 3.851 0 0 1-1.694.364zm7.412-7.49c.962 0 1.699.243 2.212.728.514.476.77 1.185.77 2.128V371h-.952v-1.148a2.27 2.27 0 0 1-.994.896c-.429.215-.942.322-1.54.322-.821 0-1.474-.196-1.96-.588-.485-.392-.728-.91-.728-1.554 0-.625.224-1.129.672-1.512.458-.383 1.181-.574 2.17-.574h2.338v-.448c0-.635-.177-1.115-.532-1.442-.354-.336-.872-.504-1.554-.504-.466 0-.914.079-1.344.238a3.284 3.284 0 0 0-1.106.63l-.448-.742a3.9 3.9 0 0 1 1.344-.728 5.12 5.12 0 0 1 1.652-.266zm-.35 6.706c.56 0 1.041-.126 1.442-.378.402-.261.7-.635.896-1.12v-1.204h-2.31c-1.26 0-1.89.439-1.89 1.316 0 .429.164.77.49 1.022.327.243.784.364 1.372.364zm9.91.266c-.187.168-.42.299-.7.392a2.865 2.865 0 0 1-.854.126c-.691 0-1.223-.187-1.596-.56-.373-.373-.56-.901-.56-1.582v-4.452h-1.316v-.84h1.316v-1.61h.994v1.61h2.24v.84h-2.24v4.396c0 .439.107.775.322 1.008.224.224.541.336.952.336.205 0 .401-.033.588-.098.196-.065.364-.159.504-.28l.35.714zm1.81-6.916h.994V371h-.994v-7.364zm.504-1.61a.703.703 0 0 1-.518-.21.687.687 0 0 1-.21-.504c0-.187.07-.35.21-.49.14-.14.312-.21.518-.21.205 0 .378.07.518.21.14.131.21.289.21.476 0 .205-.07.378-.21.518a.704.704 0 0 1-.518.21zm6.265 9.044a3.878 3.878 0 0 1-1.918-.476 3.583 3.583 0 0 1-1.344-1.344c-.326-.569-.49-1.213-.49-1.932 0-.719.164-1.363.49-1.932a3.477 3.477 0 0 1 1.344-1.33 3.878 3.878 0 0 1 1.918-.476c.71 0 1.349.159 1.918.476a3.37 3.37 0 0 1 1.33 1.33c.327.569.49 1.213.49 1.932 0 .719-.163 1.363-.49 1.932a3.47 3.47 0 0 1-1.33 1.344c-.569.317-1.208.476-1.918.476zm0-.882c.523 0 .99-.117 1.4-.35a2.52 2.52 0 0 0 .98-1.022c.234-.439.35-.938.35-1.498s-.116-1.059-.35-1.498a2.424 2.424 0 0 0-.98-1.008 2.694 2.694 0 0 0-1.4-.364c-.522 0-.994.121-1.414.364a2.55 2.55 0 0 0-.98 1.008c-.233.439-.35.938-.35 1.498s.117 1.059.35 1.498c.243.439.57.779.98 1.022.42.233.892.35 1.414.35zm9.52-6.608c.924 0 1.656.271 2.198.812.55.532.826 1.311.826 2.338V371h-.994v-4.172c0-.765-.192-1.349-.574-1.75-.383-.401-.929-.602-1.638-.602-.794 0-1.424.238-1.89.714-.458.467-.686 1.115-.686 1.946V371h-.994v-7.364h.952v1.358c.27-.448.644-.793 1.12-1.036.485-.252 1.045-.378 1.68-.378zM73.88 289.084c-.97 0-1.853-.215-2.646-.644a4.873 4.873 0 0 1-1.848-1.792c-.439-.756-.658-1.605-.658-2.548 0-.943.22-1.792.658-2.548a4.766 4.766 0 0 1 1.848-1.778c.793-.439 1.675-.658 2.646-.658.97 0 1.843.215 2.618.644a4.738 4.738 0 0 1 1.848 1.792c.448.756.672 1.605.672 2.548 0 .943-.224 1.797-.672 2.562a4.766 4.766 0 0 1-1.848 1.778c-.775.429-1.647.644-2.618.644zm0-.924c.775 0 1.475-.173 2.1-.518a3.867 3.867 0 0 0 1.47-1.456 4.153 4.153 0 0 0 .532-2.086c0-.765-.177-1.456-.532-2.072a3.738 3.738 0 0 0-1.47-1.456c-.625-.355-1.325-.532-2.1-.532-.775 0-1.48.177-2.114.532a3.835 3.835 0 0 0-1.484 1.456c-.355.616-.532 1.307-.532 2.072 0 .765.177 1.461.532 2.086a3.97 3.97 0 0 0 1.484 1.456c.635.345 1.34.518 2.114.518zm8.202-5.082a2.417 2.417 0 0 1 1.036-1.12c.467-.252 1.04-.378 1.722-.378v.966l-.238-.014c-.775 0-1.381.238-1.82.714-.438.476-.658 1.143-.658 2.002V289h-.994v-7.364h.952v1.442zm11.308-1.442v6.468c0 1.251-.308 2.175-.924 2.772-.607.607-1.526.91-2.758.91a6.13 6.13 0 0 1-1.947-.308c-.606-.196-1.1-.471-1.483-.826l.503-.756c.355.317.784.565 1.288.742.514.177 1.05.266 1.61.266.934 0 1.62-.219 2.058-.658.44-.429.659-1.101.659-2.016v-.938a2.985 2.985 0 0 1-1.219 1.064 3.695 3.695 0 0 1-1.652.364c-.69 0-1.32-.149-1.89-.448a3.492 3.492 0 0 1-1.33-1.274 3.665 3.665 0 0 1-.476-1.862c0-.691.16-1.307.477-1.848.326-.541.77-.961 1.33-1.26.56-.299 1.19-.448 1.89-.448.625 0 1.19.126 1.694.378s.91.616 1.218 1.092v-1.414h.951zm-3.766 6.202a3.07 3.07 0 0 0 1.442-.336 2.47 2.47 0 0 0 .993-.966 2.7 2.7 0 0 0 .365-1.4c0-.523-.122-.985-.365-1.386a2.383 2.383 0 0 0-.993-.952c-.42-.233-.901-.35-1.442-.35a3.07 3.07 0 0 0-1.442.336c-.42.224-.752.541-.995.952-.233.411-.35.877-.35 1.4 0 .523.117.989.35 1.4.243.411.575.733.995.966.429.224.91.336 1.442.336zm9.121-6.258c.962 0 1.699.243 2.212.728.514.476.77 1.185.77 2.128V289h-.952v-1.148a2.27 2.27 0 0 1-.994.896c-.43.215-.943.322-1.54.322-.821 0-1.475-.196-1.96-.588-.485-.392-.728-.91-.728-1.554 0-.625.224-1.129.672-1.512.458-.383 1.18-.574 2.17-.574h2.338v-.448c0-.635-.177-1.115-.532-1.442-.354-.336-.872-.504-1.554-.504-.467 0-.915.079-1.344.238-.43.149-.798.359-1.106.63l-.448-.742a3.9 3.9 0 0 1 1.344-.728 5.116 5.116 0 0 1 1.652-.266zm-.35 6.706c.56 0 1.04-.126 1.442-.378.402-.261.7-.635.896-1.12v-1.204h-2.31c-1.26 0-1.89.439-1.89 1.316 0 .429.163.77.49 1.022.327.243.784.364 1.372.364zm9.784-6.706c.924 0 1.657.271 2.198.812.551.532.826 1.311.826 2.338V289h-.994v-4.172c0-.765-.191-1.349-.574-1.75-.383-.401-.929-.602-1.638-.602-.793 0-1.423.238-1.89.714-.457.467-.686 1.115-.686 1.946V289h-.994v-7.364h.952v1.358a2.733 2.733 0 0 1 1.12-1.036c.485-.252 1.045-.378 1.68-.378zm5.723.056h.994V289h-.994v-7.364zm.504-1.61a.703.703 0 0 1-.518-.21.687.687 0 0 1-.21-.504c0-.187.07-.35.21-.49.14-.14.312-.21.518-.21.205 0 .378.07.518.21.14.131.21.289.21.476 0 .205-.07.378-.21.518a.704.704 0 0 1-.518.21zm8.449 8.148V289h-5.992v-.658l4.634-5.866h-4.55v-.84h5.824v.658l-4.634 5.88h4.718zm4.533-6.594c.961 0 1.698.243 2.212.728.513.476.77 1.185.77 2.128V289h-.952v-1.148a2.276 2.276 0 0 1-.994.896c-.43.215-.943.322-1.54.322-.822 0-1.475-.196-1.96-.588-.486-.392-.728-.91-.728-1.554 0-.625.224-1.129.672-1.512.457-.383 1.18-.574 2.17-.574h2.338v-.448c0-.635-.178-1.115-.532-1.442-.355-.336-.873-.504-1.554-.504-.467 0-.915.079-1.344.238-.43.149-.798.359-1.106.63l-.448-.742c.373-.317.821-.56 1.344-.728a5.111 5.111 0 0 1 1.652-.266zm-.35 6.706c.56 0 1.04-.126 1.442-.378.401-.261.7-.635.896-1.12v-1.204h-2.31c-1.26 0-1.89.439-1.89 1.316 0 .429.163.77.49 1.022.326.243.784.364 1.372.364zm9.91.266c-.187.168-.42.299-.7.392a2.87 2.87 0 0 1-.854.126c-.691 0-1.223-.187-1.596-.56-.374-.373-.56-.901-.56-1.582v-4.452h-1.316v-.84h1.316v-1.61h.994v1.61h2.24v.84h-2.24v4.396c0 .439.107.775.322 1.008.224.224.541.336.952.336.205 0 .401-.033.588-.098.196-.065.364-.159.504-.28l.35.714zm1.809-6.916h.994V289h-.994v-7.364zm.504-1.61a.704.704 0 0 1-.518-.21.687.687 0 0 1-.21-.504c0-.187.07-.35.21-.49.14-.14.313-.21.518-.21.205 0 .378.07.518.21.14.131.21.289.21.476 0 .205-.07.378-.21.518a.704.704 0 0 1-.518.21zm6.266 9.044c-.709 0-1.349-.159-1.918-.476a3.583 3.583 0 0 1-1.344-1.344c-.327-.569-.49-1.213-.49-1.932 0-.719.163-1.363.49-1.932a3.477 3.477 0 0 1 1.344-1.33c.569-.317 1.209-.476 1.918-.476.709 0 1.349.159 1.918.476a3.376 3.376 0 0 1 1.33 1.33c.327.569.49 1.213.49 1.932 0 .719-.163 1.363-.49 1.932a3.477 3.477 0 0 1-1.33 1.344c-.569.317-1.209.476-1.918.476zm0-.882c.523 0 .989-.117 1.4-.35a2.52 2.52 0 0 0 .98-1.022c.233-.439.35-.938.35-1.498s-.117-1.059-.35-1.498a2.424 2.424 0 0 0-.98-1.008 2.696 2.696 0 0 0-1.4-.364 2.77 2.77 0 0 0-1.414.364 2.544 2.544 0 0 0-.98 1.008c-.233.439-.35.938-.35 1.498s.117 1.059.35 1.498c.243.439.569.779.98 1.022.42.233.891.35 1.414.35zm9.519-6.608c.924 0 1.657.271 2.198.812.551.532.826 1.311.826 2.338V289h-.994v-4.172c0-.765-.191-1.349-.574-1.75-.382-.401-.928-.602-1.638-.602-.793 0-1.423.238-1.89.714-.457.467-.686 1.115-.686 1.946V289h-.994v-7.364h.952v1.358a2.733 2.733 0 0 1 1.12-1.036c.486-.252 1.046-.378 1.68-.378zm295.398-70.38v9.8h-1.008v-8.904h-2.31v-.896h3.318zm7.467 9.884c-.971 0-1.848-.215-2.632-.644a4.79 4.79 0 0 1-1.834-1.778c-.439-.765-.658-1.619-.658-2.562 0-.943.219-1.792.658-2.548a4.738 4.738 0 0 1 1.848-1.792c.784-.429 1.661-.644 2.632-.644.728 0 1.4.121 2.016.364a4.184 4.184 0 0 1 1.568 1.064l-.658.658c-.766-.775-1.732-1.162-2.898-1.162-.775 0-1.48.177-2.114.532a3.939 3.939 0 0 0-1.498 1.456c-.355.616-.532 1.307-.532 2.072 0 .765.177 1.456.532 2.072a3.939 3.939 0 0 0 1.498 1.456 4.253 4.253 0 0 0 2.114.532c1.176 0 2.142-.392 2.898-1.176l.658.658c-.43.467-.957.826-1.582 1.078a5.446 5.446 0 0 1-2.016.364zm26.941 0c-.971 0-1.848-.215-2.632-.644a4.79 4.79 0 0 1-1.834-1.778c-.439-.765-.658-1.619-.658-2.562 0-.943.219-1.792.658-2.548a4.738 4.738 0 0 1 1.848-1.792c.784-.429 1.661-.644 2.632-.644.728 0 1.4.121 2.016.364a4.176 4.176 0 0 1 1.568 1.064l-.658.658c-.765-.775-1.731-1.162-2.898-1.162-.775 0-1.479.177-2.114.532a3.939 3.939 0 0 0-1.498 1.456c-.355.616-.532 1.307-.532 2.072 0 .765.177 1.456.532 2.072a3.939 3.939 0 0 0 1.498 1.456 4.256 4.256 0 0 0 2.114.532c1.176 0 2.142-.392 2.898-1.176l.658.658a4.294 4.294 0 0 1-1.582 1.078 5.446 5.446 0 0 1-2.016.364zm12.499-.084-2.24-3.15a7.108 7.108 0 0 1-.784.042h-2.632V221h-1.036v-9.8h3.668c1.25 0 2.23.299 2.94.896.709.597 1.064 1.419 1.064 2.464 0 .765-.196 1.414-.588 1.946-.383.523-.934.901-1.652 1.134l2.394 3.36h-1.134zm-3.052-3.99c.97 0 1.712-.215 2.226-.644.513-.429.769-1.031.769-1.806 0-.793-.256-1.4-.769-1.82-.514-.429-1.256-.644-2.226-.644h-2.604v4.914h2.604zm16.655-5.81v9.8h-.994v-7.84l-3.85 6.594h-.49l-3.85-6.552V221h-.994v-9.8h.854l4.256 7.266 4.214-7.266h.854zm26.572 8.904V221h-6.93v-9.8h6.72v.896h-5.684v3.486h5.068v.882h-5.068v3.64h5.894zm9.127.896-2.24-3.15a7.095 7.095 0 0 1-.784.042h-2.632V221h-1.036v-9.8h3.668c1.251 0 2.231.299 2.94.896.71.597 1.064 1.419 1.064 2.464 0 .765-.196 1.414-.588 1.946-.382.523-.933.901-1.652 1.134l2.394 3.36h-1.134zm-3.052-3.99c.971 0 1.713-.215 2.226-.644.514-.429.77-1.031.77-1.806 0-.793-.256-1.4-.77-1.82-.513-.429-1.255-.644-2.226-.644h-2.604v4.914h2.604zm10.145-5.81c1.251 0 2.231.299 2.94.896.71.597 1.064 1.419 1.064 2.464s-.354 1.867-1.064 2.464c-.709.588-1.689.882-2.94.882h-2.632V221h-1.036v-9.8h3.668zm-.028 5.796c.971 0 1.713-.21 2.226-.63.514-.429.77-1.031.77-1.806 0-.793-.256-1.4-.77-1.82-.513-.429-1.255-.644-2.226-.644h-2.604v4.9h2.604z" fill="#000"/><path fill-rule="evenodd" clip-rule="evenodd" d="M457.921 163.816a1.5 1.5 0 0 1 .263 2.105l-8.288 10.656a1.5 1.5 0 1 1-2.368-1.842l5.933-7.628c-10.325 2.057-26.523 7.608-40.937 12.986a936.117 936.117 0 0 0-26.581 10.403l9.116 3.74a1.5 1.5 0 1 1-1.139 2.776l-12.489-5.124a1.5 1.5 0 0 1-.819-1.957l5.124-12.49a1.5 1.5 0 1 1 2.776 1.139l-3.759 9.162a940.313 940.313 0 0 1 26.723-10.46c14.521-5.417 31.226-11.158 41.886-13.211l-7.939-6.175a1.5 1.5 0 0 1 1.841-2.368l10.657 8.288zm-83.161 80.028a1.5 1.5 0 0 1 .396-2.084l11.162-7.594a1.5 1.5 0 0 1 1.688 2.481l-8.124 5.526a613.688 613.688 0 0 0 15.243 2.431 773.142 773.142 0 0 0 47.5 5.483c37.069 3.107 83.424 4.161 122.48-3.657l-8.272-5.324a1.5 1.5 0 1 1 1.623-2.523l11.353 7.306a1.5 1.5 0 0 1 .449 2.073l-7.306 11.353a1.5 1.5 0 0 1-2.522-1.624l5.367-8.341c-39.501 7.926-86.24 6.843-123.423 3.726a775.913 775.913 0 0 1-47.686-5.504 628.763 628.763 0 0 1-13.929-2.203l-1.511-.261 5.586 8.21a1.5 1.5 0 0 1-2.481 1.688l-7.593-11.162zm88.607 74.932a1.5 1.5 0 0 1 .357 2.091l-7.802 11.017a1.5 1.5 0 1 1-2.448-1.734l5.732-8.095c-48.064 7.422-78.57-4.171-97.163-17.976-9.501-7.054-15.847-14.654-19.823-20.501-1.904-2.802-3.266-5.203-4.171-6.953l-4.093 9.342a1.5 1.5 0 0 1-2.748-1.204l5.418-12.365a1.5 1.5 0 0 1 1.976-.772l12.365 5.418a1.5 1.5 0 0 1-1.204 2.748l-8.652-3.791a66.779 66.779 0 0 0 3.59 5.89c3.822 5.621 9.945 12.959 19.131 19.78 17.879 13.274 47.531 24.713 94.811 17.436l-8.027-5.685a1.5 1.5 0 1 1 1.734-2.448l11.017 7.802z" fill="#08C"/><path d="M520 190.86 484 199v-46l36-4v41.86z" fill="#67BAFD"/><path d="m484 199-8-5.157v-45.108l8 4.265v46z" fill="#DCEAD1"/><path d="M476 148.733 509 145v5.333L484 153l-8-4.267z" fill="#818ADA"/><path d="m520 149-11-4v6l11-2z" fill="#E9EDEC"/><path d="M488.632 158 484 153l36-4 8 4.235L488.632 158z" fill="#CACFCF"/><path d="M513.273 136 509 145l11 4 2-9.571-8.727-3.429z" fill="#E1E6E0"/><path d="m507.279 136 1.721 9-32.131 4-2.869-9.455L507.279 136z" fill="#B5CBFE"/><path d="m473 143 3 6 8 4-1-4-10-6z" fill="#E1E6E0"/><path d="M489 169.15V191l20-4.6-.571-18.4L489 169.15z" fill="#F2A94D"/><path d="M505 187.571c-.948-8.228-11.654-11.809-16-12.571v16l16-3.429z" fill="#2CB30E"/><path d="M518.5 178.5c0-1.732-1.189-3-2.5-3s-2.5 1.268-2.5 3 1.189 3 2.5 3 2.5-1.268 2.5-3z" stroke="#D1D2D4"/><path d="M506.761 165.124c7.437-7.076 19.205-6.785 26.282.652 7.078 7.439 6.785 19.206-.651 26.283-7.44 7.079-19.206 6.786-26.284-.653-7.077-7.437-6.786-19.203.653-26.282zm8.403 9.528a5.896 5.896 0 1 0 8.127 8.544 5.896 5.896 0 0 0-8.127-8.544z" fill="#CACFCF" stroke="#B8B7B7" stroke-width=".2"/><path d="M523.841 182.497c-.903 1.17-2.169 1.876-3.513 2.129a269.038 269.038 0 0 0 3.075 12.226 18.612 18.612 0 0 0 14.111-13.162c-4.181-1.299-8.404-2.356-12.626-3.453a5.735 5.735 0 0 1-1.048 2.261m-7.953-8.359c-1.213.843-1.981 2.073-2.3 3.402a268.02 268.02 0 0 1-12.059-3.677 18.619 18.619 0 0 1 13.846-13.441c1.09 4.241 1.936 8.51 2.823 12.782a5.736 5.736 0 0 0-2.31.934" fill="#E3E4E5"/><path d="M521.538 176.726a3.185 3.185 0 0 1-.113 4.538m.113-4.538a3.18 3.18 0 0 0-2.245-1.006 3.198 3.198 0 0 0-2.292.894m4.537.112-.073.069.072-.07.001.001zm-.113 4.538a3.19 3.19 0 0 1-3.516.615 3.198 3.198 0 0 1-1.021-.729m4.537.114.001-.001-.07-.072.069.073zm-4.537-.114a3.176 3.176 0 0 1-.893-2.291 3.173 3.173 0 0 1 1.006-2.245m-.113 4.536.001.001.072-.07-.073.069zm.113-4.536-.001.001.07.072-.068-.073h-.001zm-2.078-2.183c2.476-2.355 6.442-2.259 8.798.217s2.257 6.442-.219 8.798c-2.476 2.355-6.441 2.258-8.797-.218-2.355-2.476-2.258-6.441.218-8.797z" fill="#CACFCF" stroke="#B8B7B7" stroke-width=".2"/><defs><linearGradient id="c" x1="634.174" y1="272.03" x2="633.321" y2="255.125" gradientUnits="userSpaceOnUse"><stop stop-color="#09005D"/><stop offset="1" stop-color="#1A0F91"/></linearGradient><linearGradient id="d" x1="598.397" y1="236.602" x2="666.001" y2="236.602" gradientUnits="userSpaceOnUse"><stop stop-color="#09005D"/><stop offset="1" stop-color="#1A0F91"/></linearGradient><linearGradient id="e" x1="634.871" y1="197.348" x2="629.715" y2="263.924" gradientUnits="userSpaceOnUse"><stop stop-color="#53D8FF"/><stop offset="1" stop-color="#3840F7"/></linearGradient><linearGradient id="f" x1="634.227" y1="265.651" x2="626.375" y2="282.9" gradientUnits="userSpaceOnUse"><stop stop-color="#09005D"/><stop offset="1" stop-color="#1A0F91"/></linearGradient><linearGradient id="g" x1="600.309" y1="221.611" x2="663.71" y2="221.611" gradientUnits="userSpaceOnUse"><stop stop-color="#4F52FF"/><stop offset="1" stop-color="#4042E2"/></linearGradient><linearGradient id="h" x1="613.026" y1="243.02" x2="612.248" y2="278.904" gradientUnits="userSpaceOnUse"><stop stop-color="#09005D"/><stop offset="1" stop-color="#1A0F91"/></linearGradient><linearGradient id="i" x1="608.117" y1="303.713" x2="613.662" y2="235.389" gradientUnits="userSpaceOnUse"><stop stop-color="#4F52FF"/><stop offset="1" stop-color="#4042E2"/></linearGradient><linearGradient id="j" x1="635.532" y1="201.028" x2="635.532" y2="215.368" gradientUnits="userSpaceOnUse"><stop stop-color="#FEBBBA"/><stop offset="1" stop-color="#FF928E"/></linearGradient><linearGradient id="k" x1="600.659" y1="204.77" x2="600.659" y2="219.109" gradientUnits="userSpaceOnUse"><stop stop-color="#FEBBBA"/><stop offset="1" stop-color="#FF928E"/></linearGradient><linearGradient id="l" x1="643.139" y1="248.991" x2="661.202" y2="248.991" gradientUnits="userSpaceOnUse"><stop stop-color="#09005D"/><stop offset="1" stop-color="#1A0F91"/></linearGradient><linearGradient id="m" x1="650.824" y1="262.021" x2="652.77" y2="233.21" gradientUnits="userSpaceOnUse"><stop stop-color="#4F52FF"/><stop offset="1" stop-color="#4042E2"/></linearGradient><linearGradient id="n" x1="652.802" y1="186.375" x2="652.802" y2="200.715" gradientUnits="userSpaceOnUse"><stop stop-color="#FEBBBA"/><stop offset="1" stop-color="#FF928E"/></linearGradient><linearGradient id="o" x1="513.918" y1="352.573" x2="492.868" y2="282.541" gradientUnits="userSpaceOnUse"><stop stop-color="#09005D"/><stop offset="1" stop-color="#1A0F91"/></linearGradient><linearGradient id="q" x1="508.322" y1="331.425" x2="516.021" y2="350.562" gradientUnits="userSpaceOnUse"><stop stop-color="#FF928E"/><stop offset="1" stop-color="#FE7062"/></linearGradient><linearGradient id="r" x1="487.525" y1="294.61" x2="507.831" y2="331.049" gradientUnits="userSpaceOnUse"><stop stop-color="#FF928E"/><stop offset="1" stop-color="#FE7062"/></linearGradient><linearGradient id="s" x1="497.897" y1="338.353" x2="526.293" y2="356.547" gradientUnits="userSpaceOnUse"><stop stop-color="#E1473D"/><stop offset="1" stop-color="#E9605A"/></linearGradient><linearGradient id="u" x1="132.816" y1="257.858" x2="129.422" y2="229.142" gradientUnits="userSpaceOnUse"><stop stop-color="#fff"/><stop offset="1" stop-color="#1A1A1A"/></linearGradient><linearGradient id="w" x1="132.816" y1="257.858" x2="129.422" y2="229.142" gradientUnits="userSpaceOnUse"><stop stop-color="#FC826B"/><stop offset="1" stop-color="#FFB183"/></linearGradient><linearGradient id="x" x1="121.996" y1="230.108" x2="140.018" y2="230.108" gradientUnits="userSpaceOnUse"><stop stop-color="#fff"/><stop offset="1"/></linearGradient><linearGradient id="z" x1="121.996" y1="230.108" x2="140.018" y2="230.108" gradientUnits="userSpaceOnUse"><stop/><stop offset="1"/></linearGradient><linearGradient id="A" x1="102.666" y1="253.89" x2="97.291" y2="208.417" gradientUnits="userSpaceOnUse"><stop stop-color="#fff"/><stop offset="1" stop-color="#1A1A1A"/></linearGradient><linearGradient id="C" x1="102.666" y1="253.89" x2="97.291" y2="208.417" gradientUnits="userSpaceOnUse"><stop stop-color="#FC826B"/><stop offset="1" stop-color="#FFB183"/></linearGradient><clipPath id="a"><path fill="#fff" transform="translate(606 60)" d="M0 0h36v39H0z"/></clipPath><clipPath id="b"><path fill="#fff" transform="translate(588 201)" d="M0 0h78v78H0z"/></clipPath><clipPath id="t"><path fill="#fff" transform="translate(68 155)" d="M0 0h96v109.8H0z"/></clipPath></defs></svg>