<svg xmlns="http://www.w3.org/2000/svg" fill="none" height="1002" width="660"><path opacity=".5" fill="#EFF0F0" d="M660 1.65A379.457 379.457 0 0 0 624.513 0C447.465 0 388.448 104.677 368.361 140.305c-2.106 3.735-3.784 6.712-5.126 8.729-4.106 6.179-11.656 21.913-21.218 41.842-23.33 48.624-58.644 122.221-85.174 142.951-6.8 5.313-16.745 12.24-28.82 20.65h-.001l-.001.001c-54.348 37.851-151.83 105.743-199.76 191.818C13.243 573.268 0 622.034 0 645c0 12.711 8.498 39.703 18.135 54.632 30.758 47.641 93.313 85.219 128.188 106.169 7.749 4.655 14.131 8.489 18.495 11.43 17.025 11.473 39.685 52.209 54.657 79.121 6.136 11.031 10.98 19.739 13.616 23.159.86 1.117 1.937 2.764 3.289 4.832 12.89 19.72 50.762 77.657 164.375 77.657 77.905 0 133.321-31.412 183.901-60.083 25.59-14.506 49.943-28.311 75.344-36.99V1.649z" clip-rule="evenodd" fill-rule="evenodd"></path></svg>