<svg xmlns="http://www.w3.org/2000/svg" fill="none" height="655" width="323"><path fill="#EFF0F0" d="M293.887 360.195c-.021 71.62-96.976 98.709-153.317 142.926C96.118 538.007 54.023 573.262.255 590.638c-58.385 18.868-123.235 41.475-178.888 15.637-55.283-25.666-80.983-89.042-102.252-146.161-18.276-49.084-11.732-100.698-9.147-153.011 2.72-55.03-4.887-112.81 24.587-159.361 32.018-50.57 84.556-84.994 141.601-103.114 60.68-19.275 132.231-34.626 186.328-1.052 53.061 32.93 41.32 114.784 78.169 165.203 43.434 59.429 153.254 77.806 153.234 151.416z" clip-rule="evenodd" fill-rule="evenodd" opacity=".5"></path></svg>