<svg width="65" height="65" viewBox="0 0 65 65" fill="none" xmlns="http://www.w3.org/2000/svg">
    <circle cx="32.5" cy="32.5" r="32.5" fill="white"/>
    <path d="M52.1666 18.0784C52.0738 17.4198 51.5063 16.9125 50.815 16.9125C50.1258 16.9125 49.5563 17.4198 49.4635 18.0784H45.2828V17.2132C45.2828 17.203 45.2766 17.1927 45.2684 17.1886C45.2601 17.1846 45.2498 17.1846 45.2395 17.1886L43.7847 18.0518L42.33 17.1886C42.3217 17.1825 42.3114 17.1825 42.3011 17.1886C42.2928 17.1927 42.2866 17.203 42.2866 17.2132V18.0784H37.7614C37.7181 17.7082 37.5922 17.3871 37.3817 17.1211C37.0804 16.7407 36.6554 16.5464 36.1147 16.5464C35.572 16.5464 35.1428 16.7407 34.8416 17.1211C34.5836 17.4525 34.4536 17.8718 34.4536 18.3709C34.4536 18.8638 34.5836 19.2811 34.8416 19.6084C35.1408 19.9888 35.5679 20.1831 36.1147 20.1831C36.6533 20.1831 37.0804 19.9888 37.3817 19.6084C37.6458 19.277 37.78 18.8598 37.78 18.3709C37.78 18.3689 37.78 18.3689 37.78 18.3668H42.2866V19.4693C42.2866 19.4795 42.2928 19.4877 42.3011 19.4938C42.3093 19.4979 42.3217 19.4979 42.33 19.4938L43.7847 18.6307L45.2395 19.4938C45.2436 19.4959 45.2498 19.4979 45.2539 19.4979C45.2581 19.4979 45.2642 19.4959 45.2684 19.4938C45.2766 19.4897 45.2828 19.4795 45.2828 19.4693V18.3668H49.4531C49.5047 19.0663 50.0949 19.6207 50.815 19.6207C51.5352 19.6207 52.1233 19.0684 52.1769 18.3668H53.7184V25.1167H54.0114V18.0784H52.1666ZM36.1147 19.86C35.6814 19.86 35.3471 19.7066 35.1181 19.4018C34.9179 19.1359 34.8147 18.7902 34.8147 18.3729C34.8147 17.9475 34.9158 17.5957 35.1181 17.3298C35.3471 17.025 35.6814 16.8696 36.1147 16.8696C36.5439 16.8696 36.8803 17.025 37.1114 17.3298C37.3157 17.5998 37.4189 17.9495 37.4189 18.3729C37.4189 18.7882 37.3157 19.1338 37.1114 19.4018C36.8782 19.7045 36.5439 19.86 36.1147 19.86ZM43.7311 18.3423L42.5652 19.0336V17.6509L43.7311 18.3423ZM43.8404 18.3423L45.0063 17.6509V19.0336L43.8404 18.3423ZM50.815 17.1334C51.3825 17.1334 51.853 17.5425 51.9438 18.0805H51.9396V18.1684H51.562L51.1555 18.7145L50.4395 17.3564L49.9484 18.1704H49.6781C49.7276 17.5855 50.2166 17.1334 50.815 17.1334ZM50.815 19.3997C50.2166 19.3997 49.7276 18.9457 49.676 18.3668H50.0619L50.425 17.7675L51.1225 19.0909L51.6631 18.3668H51.9376H51.9541C51.9025 18.9477 51.4135 19.3997 50.815 19.3997Z"
          fill="#808080"/>
    <path d="M11.6367 20.9953C11.7977 20.9258 11.9442 20.8297 12.0659 20.709C11.9421 20.8276 11.7977 20.9258 11.6367 20.9953Z"
          fill="#808080"/>
    <path d="M29.5909 16.5424C29.5414 16.5424 29.4981 16.5587 29.463 16.5894C29.4279 16.6242 29.4114 16.6712 29.4114 16.7305V18.0641H27.352V16.7305C27.352 16.6712 27.3314 16.6221 27.2922 16.5894C27.2592 16.5587 27.2179 16.5424 27.1725 16.5424C27.1209 16.5424 27.0796 16.5567 27.0446 16.5894C27.0095 16.6242 26.9909 16.6712 26.9909 16.7305V18.0805H22.8557C22.8227 17.7778 22.6906 17.5058 22.4904 17.2971L23.192 16.6017L23.0476 16.4585L22.3398 17.1601C22.1066 16.9801 21.8157 16.8696 21.4958 16.8696C20.7406 16.8696 20.1298 17.4751 20.1298 18.2237C20.1298 18.5387 20.2392 18.8291 20.4228 19.0603L19.9792 19.5L19.8471 19.3712L19.4922 20.1055L20.2206 19.7312L20.1277 19.6412L20.5631 19.2096C20.8087 19.4387 21.1368 19.5798 21.5 19.5798C22.2057 19.5798 22.7855 19.05 22.8577 18.3689H26.995V19.9991C26.995 20.0564 27.0136 20.1014 27.0487 20.1382C27.0858 20.1689 27.1271 20.1832 27.1746 20.1832C27.22 20.1832 27.2592 20.1668 27.2943 20.1362C27.3335 20.1014 27.3541 20.0543 27.3541 19.9971V18.3853H29.4135V19.9971C29.4135 20.0523 29.432 20.0993 29.4671 20.1362C29.5022 20.1668 29.5435 20.1832 29.593 20.1832C29.6384 20.1832 29.6817 20.1668 29.7147 20.1362C29.7539 20.0993 29.7725 20.0543 29.7725 19.9971V16.7285C29.7725 16.6712 29.7519 16.6221 29.7147 16.5874C29.6817 16.5567 29.6404 16.5424 29.5909 16.5424ZM20.3527 18.2237C20.3527 17.5957 20.8644 17.0885 21.4958 17.0885C21.7538 17.0885 21.989 17.1744 22.1809 17.3155L20.5817 18.9007C20.4393 18.7125 20.3527 18.4773 20.3527 18.2237ZM21.4958 19.3569C21.1946 19.3569 20.9222 19.2403 20.7179 19.0521L22.3336 17.4505C22.5235 17.653 22.6411 17.9251 22.6411 18.2237C22.6411 18.8496 22.1273 19.3569 21.4958 19.3569Z"
          fill="#808080"/>
    <path d="M33.1926 16.6201H31.3602C31.1559 16.6201 31.0094 16.659 30.9103 16.7388C30.8175 16.8226 30.77 16.9556 30.77 17.1335V19.993C30.77 20.0482 30.7886 20.0932 30.8237 20.1301C30.8588 20.1648 30.9 20.1812 30.9495 20.1812C30.997 20.1853 31.0383 20.171 31.0692 20.1403C31.1084 20.1096 31.1291 20.0687 31.1291 20.0176V17.1662C31.1291 17.0844 31.1435 17.0231 31.1724 16.9883C31.1992 16.9576 31.2549 16.9412 31.3375 16.9412H33.1595C33.2441 16.9412 33.3019 16.9576 33.3308 16.9862C33.3597 17.0169 33.3762 17.0762 33.3762 17.1662V19.9971C33.3762 20.0523 33.3948 20.0973 33.4299 20.1341C33.4649 20.1648 33.5083 20.1791 33.5537 20.1791C33.5578 20.1791 33.564 20.1791 33.5681 20.1791C33.6094 20.1791 33.6465 20.1648 33.6754 20.1382C33.7146 20.1076 33.7353 20.0646 33.7353 20.0155V17.1622C33.7353 16.974 33.6899 16.8328 33.6011 16.7449C33.5124 16.661 33.3762 16.6201 33.1926 16.6201Z"
          fill="#808080"/>
    <path d="M11.3105 18.0786V18.1072C11.2362 18.097 11.1599 18.0888 11.0815 18.0888C10.1797 18.0888 9.44719 18.815 9.44719 19.7088C9.44719 20.0668 9.56687 20.3981 9.76497 20.6661L9.34814 21.8054H10.9535V23.4049H11.2466V21.8054H12.821L12.3877 20.6824C12.594 20.4104 12.7178 20.0749 12.7178 19.7109C12.7178 19.1525 12.4331 18.6616 11.9997 18.3691H20.132V18.2238V18.0786H11.3105ZM9.66386 21.5845L9.93005 20.8583C10.1962 21.1202 10.5553 21.292 10.9515 21.3226V21.5845H9.66386ZM11.2445 21.5845V21.3206C11.6221 21.2838 11.9626 21.1181 12.2205 20.8686L12.497 21.5845H11.2445ZM12.4929 19.7088C12.4929 19.9727 12.4186 20.2202 12.2886 20.4308C12.2267 20.5311 12.1545 20.6231 12.0699 20.7049C12.0823 20.6947 12.0926 20.6824 12.1029 20.6722C11.8821 20.9033 11.5808 21.0588 11.2445 21.0977V19.8949C11.2981 19.8479 11.3332 19.7824 11.3332 19.7068C11.3332 19.5697 11.2197 19.4572 11.0794 19.4572C10.9391 19.4572 10.8256 19.5697 10.8256 19.7068C10.8256 19.7988 10.8772 19.8745 10.9515 19.9174V21.0997C10.5821 21.067 10.254 20.8931 10.0229 20.6313C10.0353 20.6436 10.0477 20.6558 10.06 20.6702C9.9837 20.5904 9.91561 20.5024 9.85783 20.4063C9.73814 20.1997 9.66799 19.9624 9.66799 19.7068C9.66799 18.9336 10.2994 18.3077 11.0794 18.3077C11.1578 18.3077 11.2342 18.3159 11.3085 18.3282V18.365H11.4777C12.0658 18.5388 12.4929 19.0747 12.4929 19.7088Z"
          fill="#808080"/>
    <path fill-rule="evenodd" clip-rule="evenodd"
          d="M11.9782 34.256V40.5354H10.2305V23.1289H11.9782V23.495C11.9782 25.2091 11.9782 26.9252 11.9782 28.6413C11.97 29.9913 12.4302 30.6397 13.8581 30.6315C14.9394 30.6315 16.0227 30.6335 17.104 30.6335C17.7478 30.6335 18.4163 30.6663 19.0581 30.6295C19.3841 30.611 19.8195 30.566 20.0857 30.3574C20.517 30.0179 20.5397 29.1588 20.5397 28.6679V23.1289H22.2854V40.5375H20.5397V40.1713C20.5397 38.2323 20.5397 36.2932 20.5397 34.3562C20.5397 33.8367 20.5108 32.994 20.0651 32.6299C19.7989 32.411 19.3882 32.3456 19.056 32.3128C18.4452 32.2556 17.7952 32.276 17.1803 32.276C16.0784 32.276 14.9765 32.276 13.8746 32.276H13.8684H13.8622C12.5333 32.2351 12.0278 33.0144 11.9782 34.256Z"
          fill="url(#paint0_linear)"/>
    <path fill-rule="evenodd" clip-rule="evenodd"
          d="M25.537 23.129H27.099V23.4951C27.099 25.2644 27.0639 27.2382 28.2174 28.7069C29.2347 30.0037 30.5244 30.8218 32.2082 30.8218C33.8982 30.8218 35.1941 30.0077 36.2197 28.7069C37.3876 27.2219 37.5939 25.3196 37.5939 23.4931V23.127H39.156V23.4931C39.156 25.291 39.1416 27.363 38.0912 28.9094C37.662 29.5393 37.1751 30.0916 36.7004 30.6868C36.49 30.9527 36.1124 31.4293 36.1062 31.7791C36.102 32.1472 36.4693 32.5952 36.6901 32.8631C37.1812 33.4584 37.6744 33.9984 38.1036 34.6447C39.1374 36.2054 39.2901 38.2262 39.2901 40.0426V40.5232H37.7281V40.0426C37.7281 38.1915 37.3814 36.3649 36.2093 34.8738C35.1879 33.575 33.8962 32.7425 32.2082 32.7425C30.5244 32.7425 29.2347 33.5627 28.2174 34.8595C27.066 36.326 27.099 38.2856 27.099 40.0507V40.5335H25.537V40.0507C25.537 38.259 25.3801 36.2831 26.3335 34.6754C26.7751 33.9309 27.2909 33.3459 27.8708 32.7138C28.04 32.5318 28.5228 32.0368 28.5187 31.7729C28.5146 31.505 28.0214 31.008 27.8481 30.8218C27.2724 30.2061 26.7585 29.6314 26.3252 28.9012C25.3739 27.2976 25.539 25.2787 25.539 23.491V23.129H25.537Z"
          fill="url(#paint1_linear)"/>
    <path fill-rule="evenodd" clip-rule="evenodd"
          d="M44.3923 26.8148V40.517H42.6445V40.0363C42.6445 35.6264 42.6445 31.2124 42.6445 26.8025C42.6445 24.4012 43.8104 23.1289 46.301 23.1289C47.9023 23.1289 49.5036 23.1289 51.109 23.1289C51.8333 23.1371 52.6421 23.1514 53.2963 23.5032C54.458 24.1312 54.6644 25.61 54.7056 26.7943V26.8004V40.517H52.9579V40.0363C52.9579 35.6285 53.0136 31.2185 52.9558 26.8086C52.9496 26.2993 52.9022 25.5036 52.4647 25.1518C52.1242 24.8757 51.5299 24.8511 51.111 24.8491L46.2845 24.8368C44.9474 24.798 44.4418 25.5732 44.3923 26.8148Z"
          fill="url(#paint2_linear)"/>
    <path d="M11.4644 48.0748C11.4644 48.1873 11.4521 48.2916 11.4252 48.3898C11.4005 48.4879 11.3613 48.5697 11.3117 48.6413C11.2602 48.7129 11.1982 48.7682 11.1219 48.807C11.0455 48.8479 10.9589 48.8684 10.8578 48.8684C10.7443 48.8684 10.6473 48.85 10.5689 48.8132C10.4905 48.7763 10.4244 48.7232 10.3749 48.6557C10.3233 48.5882 10.2882 48.5043 10.2655 48.4082C10.2428 48.312 10.2305 48.2057 10.2305 48.085C10.2305 47.9766 10.2408 47.8743 10.2635 47.7761C10.2862 47.6779 10.3213 47.59 10.3708 47.5164C10.4203 47.4407 10.4843 47.3834 10.5648 47.3384C10.6452 47.2955 10.7443 47.2729 10.8598 47.2729C10.9775 47.2729 11.0744 47.2954 11.1528 47.3404C11.2313 47.3854 11.2932 47.4448 11.3406 47.5184C11.3881 47.592 11.419 47.68 11.4397 47.7761C11.4541 47.8682 11.4644 47.9684 11.4644 48.0748ZM11.2746 48.0829C11.2746 48.0052 11.2684 47.9275 11.2581 47.8477C11.2478 47.77 11.2271 47.6984 11.1962 47.6329C11.1673 47.5695 11.124 47.5164 11.0703 47.4754C11.0167 47.4345 10.9444 47.4141 10.8557 47.4141C10.767 47.4141 10.6948 47.4325 10.637 47.4714C10.5792 47.5102 10.5338 47.5593 10.5028 47.6227C10.4698 47.6861 10.4471 47.7557 10.4348 47.8375C10.4224 47.9173 10.4162 47.9991 10.4162 48.085C10.4162 48.2916 10.4513 48.4491 10.5194 48.5575C10.5875 48.6659 10.7009 48.7191 10.8578 48.7191C10.93 48.7191 10.9919 48.7027 11.0435 48.6679C11.0971 48.6352 11.1405 48.5902 11.1735 48.5329C11.2086 48.4757 11.2333 48.4082 11.2498 48.3304C11.2663 48.2527 11.2746 48.1709 11.2746 48.0829Z"
          fill="#13017C"/>
    <path d="M12.9582 48.0748C12.9582 48.1873 12.9458 48.2916 12.919 48.3898C12.8942 48.4879 12.855 48.5697 12.8055 48.6413C12.7539 48.7129 12.692 48.7682 12.6157 48.807C12.5393 48.8479 12.4506 48.8684 12.3515 48.8684C12.238 48.8684 12.1411 48.85 12.0606 48.8132C11.9822 48.7763 11.9161 48.7232 11.8666 48.6557C11.8171 48.5882 11.7799 48.5043 11.7572 48.4082C11.7345 48.312 11.7222 48.2057 11.7222 48.085C11.7222 47.9766 11.7325 47.8743 11.7552 47.7761C11.7779 47.6779 11.813 47.59 11.8625 47.5164C11.912 47.4407 11.976 47.3834 12.0565 47.3384C12.1369 47.2955 12.2339 47.2729 12.3515 47.2729C12.4692 47.2729 12.5661 47.2954 12.6445 47.3404C12.723 47.3854 12.7849 47.4448 12.8323 47.5184C12.8777 47.592 12.9107 47.68 12.9314 47.7761C12.9479 47.8682 12.9582 47.9684 12.9582 48.0748ZM12.7663 48.0829C12.7663 48.0052 12.7601 47.9275 12.7498 47.8477C12.7395 47.77 12.7188 47.6984 12.6899 47.6329C12.659 47.5695 12.6177 47.5164 12.5641 47.4754C12.5104 47.4345 12.4382 47.4141 12.3495 47.4141C12.2607 47.4141 12.1885 47.4325 12.1307 47.4714C12.073 47.5102 12.0296 47.5593 11.9966 47.6227C11.9636 47.6861 11.9409 47.7557 11.9285 47.8375C11.9161 47.9173 11.9099 47.9991 11.9099 48.085C11.9099 48.2916 11.945 48.4491 12.0131 48.5575C12.0812 48.6659 12.1947 48.7191 12.3515 48.7191C12.4238 48.7191 12.4857 48.7027 12.5372 48.6679C12.5909 48.6352 12.6342 48.5902 12.6672 48.5329C12.7023 48.4757 12.7271 48.4082 12.7436 48.3304C12.758 48.2527 12.7663 48.1709 12.7663 48.0829Z"
          fill="#13017C"/>
    <path d="M14.4509 48.0748C14.4509 48.1873 14.4385 48.2916 14.4117 48.3898C14.3869 48.4879 14.3477 48.5697 14.2982 48.6413C14.2466 48.7129 14.1847 48.7682 14.1063 48.807C14.0299 48.8479 13.9412 48.8684 13.8421 48.8684C13.7287 48.8684 13.6317 48.85 13.5533 48.8132C13.4748 48.7763 13.4088 48.7232 13.3593 48.6557C13.3098 48.5882 13.2726 48.5043 13.2499 48.4082C13.2272 48.312 13.2148 48.2057 13.2148 48.085C13.2148 47.9766 13.2252 47.8743 13.2479 47.7761C13.2706 47.6779 13.3056 47.59 13.3552 47.5164C13.4047 47.4407 13.4687 47.3834 13.5491 47.3384C13.6296 47.2955 13.7287 47.2729 13.8442 47.2729C13.9618 47.2729 14.0588 47.2954 14.1372 47.3404C14.2156 47.3854 14.2775 47.4448 14.325 47.5184C14.3704 47.592 14.4034 47.68 14.424 47.7761C14.4406 47.8682 14.4509 47.9684 14.4509 48.0748ZM14.261 48.0829C14.261 48.0052 14.2548 47.9275 14.2445 47.8477C14.2342 47.77 14.2136 47.6984 14.1826 47.6329C14.1537 47.5695 14.1104 47.5164 14.0567 47.4754C14.0031 47.4345 13.9309 47.4141 13.8442 47.4141C13.7555 47.4141 13.6833 47.4325 13.6255 47.4714C13.5677 47.5102 13.5244 47.5593 13.4914 47.6227C13.4583 47.6861 13.4356 47.7557 13.4233 47.8375C13.4109 47.9173 13.4047 47.9991 13.4047 48.085C13.4047 48.2916 13.4398 48.4491 13.5079 48.5575C13.576 48.6659 13.6894 48.7191 13.8463 48.7191C13.9164 48.7191 13.9804 48.7027 14.032 48.6679C14.0856 48.6352 14.129 48.5902 14.1641 48.5329C14.1991 48.4757 14.2239 48.4082 14.2404 48.3304C14.2528 48.2527 14.261 48.1709 14.261 48.0829Z"
          fill="#13017C"/>
    <path d="M15.2852 48.3733L15.5967 48.0112L15.669 48.0705L15.4523 48.4183L15.669 48.7639L15.5988 48.8212L15.2852 48.4633V48.3733ZM15.6009 48.3733L15.9145 48.0112L15.9867 48.0705L15.7701 48.4183L15.9867 48.7639L15.9166 48.8212L15.6009 48.4633V48.3733Z"
          fill="#13017C"/>
    <path d="M17.1286 48.8459V48.1034H16.4435C16.4435 48.2282 16.4435 48.3509 16.4435 48.4757C16.4435 48.5984 16.4435 48.7232 16.4435 48.848H16.2578V47.2935H16.4435C16.4435 47.4039 16.4435 47.5144 16.4435 47.6207C16.4435 47.7271 16.4435 47.8375 16.4435 47.948H17.1286V47.2935H17.3143V48.848H17.1286V48.8459Z"
          fill="#13017C"/>
    <path d="M18.4037 48.7086H18.5441L18.5544 48.817C18.5276 48.8314 18.4987 48.8416 18.4656 48.8498C18.4326 48.858 18.4017 48.862 18.3728 48.862C18.3315 48.862 18.2985 48.8518 18.2779 48.8334C18.2552 48.815 18.2428 48.7761 18.2387 48.7209L18.2366 48.7189C18.1974 48.7557 18.1582 48.7843 18.121 48.8027C18.0839 48.8232 18.0509 48.8375 18.0199 48.8457C17.989 48.8539 17.9622 48.86 17.9374 48.862C17.9126 48.8641 17.892 48.8641 17.8776 48.8641C17.8177 48.8641 17.7682 48.8518 17.729 48.8314C17.6898 48.8109 17.6588 48.7843 17.6361 48.7516C17.6134 48.7189 17.5969 48.6861 17.5887 48.6493C17.5783 48.6125 17.5742 48.5777 17.5742 48.5471C17.5742 48.4509 17.6072 48.3732 17.6712 48.3139C17.7372 48.2566 17.8363 48.2218 17.9704 48.2137L18.2387 48.1952V48.1257C18.2387 48.0337 18.2222 47.9682 18.1912 47.9293C18.1603 47.8925 18.1004 47.8721 18.0137 47.8721C17.9622 47.8721 17.9085 47.8762 17.8528 47.8884C17.7971 47.8987 17.7434 47.915 17.6898 47.9334L17.6526 47.8087C17.7125 47.78 17.7785 47.7575 17.8487 47.7432C17.9209 47.7268 17.989 47.7207 18.055 47.7207C18.1644 47.7207 18.251 47.7473 18.3129 47.8025C18.3749 47.8577 18.4079 47.9518 18.4079 48.0889V48.7086H18.4037ZM17.9663 48.3343C17.8961 48.3384 17.8425 48.3568 17.8074 48.3916C17.7723 48.4264 17.7558 48.4714 17.7558 48.5266C17.7558 48.5921 17.7703 48.6391 17.7991 48.6718C17.828 48.7046 17.8796 48.7209 17.9477 48.7209C17.9931 48.7209 18.0406 48.7086 18.088 48.6821C18.1355 48.6575 18.1829 48.6227 18.2325 48.5736V48.3139L17.9663 48.3343Z"
          fill="#13017C"/>
    <path d="M19.1751 48.4941C19.1895 48.445 19.206 48.3877 19.2246 48.3264C19.2432 48.263 19.2617 48.1996 19.2803 48.1341C19.2989 48.0687 19.3195 48.0012 19.3401 47.9337C19.3608 47.8662 19.3794 47.8007 19.4 47.7373H19.5775C19.5444 47.8416 19.5114 47.95 19.4784 48.0625C19.4433 48.173 19.4082 48.2834 19.3732 48.3959C19.3381 48.5064 19.303 48.6168 19.2679 48.7273C19.2328 48.8377 19.1998 48.9441 19.1668 49.0484C19.14 49.1364 19.1049 49.2059 19.0575 49.257C19.01 49.3082 18.946 49.3348 18.8655 49.3348C18.849 49.3327 18.8243 49.3307 18.7892 49.3286C18.7541 49.3266 18.7046 49.3164 18.6406 49.2959L18.6675 49.1671C18.7067 49.1752 18.7376 49.1814 18.7624 49.1855C18.7871 49.1896 18.8119 49.1916 18.8367 49.1916C18.8779 49.1916 18.913 49.1814 18.9398 49.1589C18.9667 49.1384 18.9894 49.0975 19.0079 49.0361L19.0678 48.8398H18.9832L18.6571 47.7373H18.8263L19.0409 48.4982C19.0554 48.5473 19.0657 48.5902 19.076 48.6312C19.0843 48.6721 19.0925 48.7007 19.0987 48.7232H19.109L19.1751 48.4941Z"
          fill="#13017C"/>
    <path d="M20.3437 48.8457V48.3487C20.2921 48.3794 20.2343 48.3998 20.1704 48.4121C20.1064 48.4244 20.0486 48.4305 19.997 48.4305C19.9269 48.4305 19.8732 48.4203 19.8319 48.3998C19.7907 48.3794 19.7597 48.3528 19.7391 48.318C19.7185 48.2853 19.704 48.2464 19.6978 48.2034C19.6916 48.1625 19.6875 48.1196 19.6875 48.0766V47.733H19.8608V48.0337C19.8608 48.0746 19.8629 48.1114 19.867 48.14C19.8712 48.1707 19.8794 48.1953 19.8938 48.2157C19.9062 48.2362 19.9248 48.2525 19.9496 48.2628C19.9723 48.273 20.0032 48.2791 20.0424 48.2791C20.0919 48.2791 20.1435 48.273 20.1972 48.2628C20.2508 48.2525 20.3004 48.2321 20.3437 48.2075V47.731H20.517V48.8416H20.3437V48.8457Z"
          fill="#13017C"/>
    <path d="M21.4484 48.8459V48.3264H20.9429V48.8459H20.7695V47.7373H20.9449V48.1771H21.4484V47.7373H21.6218V48.8459H21.4484Z"
          fill="#13017C"/>
    <path d="M22.7698 48.2957C22.7698 48.3673 22.7615 48.4369 22.7471 48.5044C22.7326 48.5719 22.7058 48.6332 22.6687 48.6885C22.6336 48.7416 22.5841 48.7846 22.5222 48.8173C22.4602 48.8501 22.3839 48.8664 22.2931 48.8664C22.2064 48.8664 22.1363 48.8501 22.0785 48.8194C22.0207 48.7887 21.9753 48.7478 21.9402 48.6946C21.9052 48.6435 21.8804 48.5841 21.866 48.5166C21.8515 48.4471 21.8433 48.3776 21.8433 48.2998C21.8433 48.2262 21.8515 48.1546 21.868 48.0851C21.8845 48.0155 21.9134 47.9521 21.9485 47.8989C21.9856 47.8437 22.0352 47.7987 22.095 47.766C22.1548 47.7333 22.2271 47.7148 22.3137 47.7148C22.4004 47.7148 22.4726 47.7312 22.5325 47.766C22.5902 47.7987 22.6377 47.8437 22.6728 47.8969C22.7079 47.9501 22.7326 48.0114 22.7471 48.083C22.7615 48.1505 22.7698 48.2221 22.7698 48.2957ZM22.5882 48.2998C22.5882 48.2507 22.5841 48.1996 22.5779 48.1485C22.5717 48.0973 22.5593 48.0503 22.5387 48.0053C22.5201 47.9623 22.4912 47.9276 22.4561 47.901C22.421 47.8744 22.3736 47.8601 22.3179 47.8601C22.258 47.8601 22.2126 47.8744 22.1734 47.901C22.1363 47.9276 22.1074 47.9623 22.0868 48.0032C22.0661 48.0462 22.0496 48.0932 22.0414 48.1464C22.0331 48.1996 22.029 48.2507 22.029 48.3039C22.029 48.3571 22.0331 48.4123 22.0393 48.4635C22.0475 48.5146 22.0599 48.5596 22.0806 48.5985C22.1012 48.6373 22.1301 48.6701 22.1693 48.6926C22.2064 48.7171 22.256 48.7273 22.3179 48.7273C22.3756 48.7273 22.421 48.7151 22.4561 48.6885C22.4912 48.6639 22.518 48.6312 22.5387 48.5903C22.5593 48.5494 22.5717 48.5044 22.5799 48.4532C22.5841 48.398 22.5882 48.3489 22.5882 48.2998Z"
          fill="#13017C"/>
    <path d="M22.9883 48.3244V48.1689H23.5413V48.3244H22.9883Z" fill="#13017C"/>
    <path d="M24.4542 48.8458V47.8763H23.9507V48.8458H23.7773V47.7393H24.6296C24.6296 47.9254 24.6296 48.1074 24.6296 48.2915C24.6296 48.4756 24.6296 48.6597 24.6296 48.8458H24.4542Z"
          fill="#13017C"/>
    <path d="M25.0623 47.8458C25.1057 47.809 25.1531 47.7803 25.2088 47.7578C25.2646 47.7353 25.3203 47.7251 25.376 47.7251C25.4503 47.7251 25.5122 47.7394 25.5638 47.768C25.6154 47.7967 25.6546 47.8376 25.6855 47.8887C25.7165 47.9399 25.7371 47.9992 25.7495 48.0667C25.7619 48.1342 25.768 48.2037 25.768 48.2794C25.768 48.3612 25.7598 48.4369 25.7454 48.5085C25.7309 48.5801 25.7061 48.6414 25.6731 48.6946C25.6401 48.7478 25.5968 48.7908 25.5431 48.8214C25.4895 48.8521 25.4234 48.8685 25.3471 48.8685C25.3285 48.8685 25.3058 48.8685 25.279 48.8664C25.2542 48.8623 25.2274 48.8603 25.2027 48.8542C25.1758 48.848 25.1511 48.8419 25.1242 48.8317C25.0974 48.8214 25.0747 48.8092 25.0541 48.7928V49.3226H24.8828V47.7415H25.05L25.052 47.8376L25.0623 47.8458ZM25.0561 48.6517C25.0665 48.6619 25.083 48.6701 25.1036 48.6783C25.1242 48.6864 25.1449 48.6967 25.1696 48.7049C25.1944 48.713 25.2171 48.7192 25.2439 48.7253C25.2707 48.7294 25.2955 48.7314 25.3182 48.7314C25.3554 48.7314 25.3904 48.7233 25.4234 48.7089C25.4565 48.6946 25.4854 48.6701 25.5101 48.6333C25.5349 48.5964 25.5555 48.5514 25.57 48.4921C25.5844 48.4328 25.5906 48.3612 25.5906 48.2753C25.5906 48.1976 25.5844 48.1342 25.572 48.083C25.5596 48.0319 25.5411 47.991 25.5184 47.9624C25.4957 47.9317 25.4668 47.9092 25.4358 47.8969C25.4049 47.8846 25.3677 47.8785 25.3306 47.8785C25.3079 47.8785 25.2831 47.8805 25.2584 47.8887C25.2315 47.8949 25.2068 47.9051 25.18 47.9153C25.1552 47.9276 25.1304 47.9399 25.1098 47.9521C25.0871 47.9644 25.0706 47.9787 25.0582 47.993V48.6517H25.0561Z"
          fill="#13017C"/>
    <path d="M26.8953 48.2957C26.8953 48.3673 26.887 48.4369 26.8726 48.5044C26.8581 48.5719 26.8313 48.6332 26.7941 48.6885C26.7591 48.7416 26.7095 48.7846 26.6476 48.8173C26.5857 48.8501 26.5094 48.8664 26.4186 48.8664C26.334 48.8664 26.2618 48.8501 26.204 48.8194C26.1462 48.7887 26.0988 48.7478 26.0657 48.6946C26.0307 48.6435 26.008 48.5841 25.9914 48.5166C25.977 48.4471 25.9688 48.3776 25.9688 48.2998C25.9688 48.2262 25.977 48.1546 25.9956 48.0851C26.0121 48.0155 26.0389 47.9521 26.0761 47.8989C26.1132 47.8437 26.1607 47.7987 26.2226 47.766C26.2824 47.7333 26.3546 47.7148 26.4413 47.7148C26.528 47.7148 26.6002 47.7312 26.66 47.766C26.7178 47.7987 26.7653 47.8437 26.8003 47.8969C26.8354 47.9501 26.8602 48.0114 26.8746 48.083C26.8891 48.1505 26.8953 48.2221 26.8953 48.2957ZM26.7137 48.2998C26.7137 48.2507 26.7116 48.1996 26.7034 48.1485C26.6972 48.0973 26.6827 48.0503 26.6641 48.0053C26.6435 47.9623 26.6167 47.9276 26.5816 47.901C26.5465 47.8744 26.4991 47.8601 26.4434 47.8601C26.3856 47.8601 26.3381 47.8744 26.2989 47.901C26.2618 47.9276 26.2329 47.9623 26.2122 48.0032C26.1916 48.0462 26.1751 48.0932 26.1668 48.1464C26.1586 48.1996 26.1545 48.2507 26.1545 48.3039C26.1545 48.3571 26.1586 48.4123 26.1648 48.4635C26.173 48.5146 26.1854 48.5596 26.2081 48.5985C26.2288 48.6373 26.2576 48.6701 26.2948 48.6926C26.3319 48.7171 26.3814 48.7273 26.4434 48.7273C26.5011 48.7273 26.5465 48.7151 26.5816 48.6885C26.6167 48.6639 26.6435 48.6312 26.6641 48.5903C26.6827 48.5494 26.6972 48.5044 26.7054 48.4532C26.7116 48.398 26.7137 48.3489 26.7137 48.2998Z"
          fill="#13017C"/>
    <path d="M27.8052 48.846V47.991H27.7991C27.7949 47.9972 27.7805 48.0238 27.7537 48.0728C27.7268 48.1219 27.6918 48.1772 27.6546 48.2406C27.6195 48.2999 27.5803 48.3633 27.5411 48.4308C27.4998 48.4983 27.4627 48.5617 27.4276 48.621C27.3925 48.6803 27.3616 48.7294 27.3368 48.7724C27.3121 48.8133 27.2976 48.8378 27.2914 48.846H27.1284V47.7374H27.3018V48.5801H27.31C27.3265 48.5535 27.343 48.5249 27.3595 48.4962C27.374 48.4676 27.3905 48.439 27.4091 48.4103C27.4792 48.2917 27.5391 48.1956 27.5844 48.1199C27.6298 48.0442 27.667 47.9828 27.6959 47.9338C27.7248 47.8847 27.7495 47.8458 27.7681 47.8172C27.7846 47.7885 27.8011 47.7599 27.8176 47.7354H27.9806C27.9806 47.8049 27.9806 47.8888 27.9806 47.9869C27.9806 48.0851 27.9806 48.1853 27.9827 48.2897C27.9827 48.394 27.9827 48.4962 27.9827 48.5924C27.9827 48.6906 27.9827 48.7744 27.9827 48.844H27.8052V48.846Z"
          fill="#13017C"/>
    <path d="M28.5199 48.8665C28.4497 48.8665 28.3816 48.8583 28.3115 48.842C28.2434 48.8256 28.1876 48.8072 28.1484 48.7867L28.1876 48.6681C28.2413 48.6886 28.2929 48.7029 28.3424 48.7131C28.3919 48.7233 28.4394 48.7295 28.491 48.7295C28.5859 48.7295 28.6622 48.7111 28.7159 48.6783C28.7695 48.6436 28.7964 48.5863 28.7964 48.5045C28.7964 48.4656 28.7902 48.4349 28.7737 48.4104C28.7572 48.3858 28.7386 48.3654 28.7159 48.3511C28.6932 48.3367 28.6664 48.3265 28.6375 48.3224C28.6086 48.3183 28.5818 48.3142 28.5591 48.3142H28.3981V48.1895H28.5322C28.557 48.1895 28.5838 48.1874 28.6127 48.1813C28.6416 48.1752 28.6664 48.167 28.6891 48.1547C28.7118 48.1424 28.7324 48.1261 28.7448 48.1015C28.7592 48.079 28.7675 48.0504 28.7675 48.0136C28.7675 47.9645 28.751 47.9256 28.7159 47.8949C28.6829 47.8643 28.6272 47.8499 28.5529 47.8499C28.5157 47.8499 28.4745 47.852 28.427 47.8581C28.3775 47.8642 28.3156 47.8827 28.2351 47.9133L28.2 47.7968C28.2475 47.7722 28.3073 47.7518 28.3754 47.7374C28.4435 47.7211 28.5075 47.7129 28.5715 47.7129C28.687 47.7129 28.7778 47.7374 28.8438 47.7865C28.9099 47.8356 28.9429 47.9031 28.9429 47.9931C28.9429 48.0565 28.9264 48.1097 28.8892 48.1527C28.8521 48.1956 28.8129 48.2242 28.7675 48.2386V48.2447C28.8273 48.2611 28.8769 48.2938 28.914 48.3408C28.9532 48.3879 28.9718 48.4451 28.9718 48.5126C28.9718 48.574 28.9594 48.6251 28.9367 48.6701C28.9119 48.7151 28.8789 48.752 28.8397 48.7806C28.7984 48.8092 28.751 48.8317 28.6953 48.846C28.6395 48.8583 28.5818 48.8665 28.5199 48.8665Z"
          fill="#13017C"/>
    <path d="M29.6777 47.7393C29.7933 47.7393 29.88 47.7658 29.9357 47.817C29.9914 47.8702 30.0203 47.9377 30.0203 48.0256C30.0203 48.0665 30.012 48.1054 29.9934 48.1504C29.9769 48.1933 29.9419 48.2322 29.8923 48.2629C29.9253 48.2772 29.9501 48.2936 29.9728 48.3161C29.9934 48.3386 30.0099 48.3611 30.0223 48.3877C30.0347 48.4122 30.043 48.4388 30.0471 48.4633C30.0512 48.4899 30.0553 48.5145 30.0553 48.539C30.0553 48.5861 30.0471 48.629 30.0285 48.6679C30.0099 48.7067 29.9873 48.7395 29.9563 48.7661C29.9274 48.7947 29.8923 48.8151 29.8531 48.8295C29.8139 48.8438 29.7706 48.8499 29.7273 48.8499H29.2031V47.7413H29.6777V47.7393ZM29.3744 47.8783V48.2077H29.653C29.7128 48.2077 29.7603 48.1933 29.7953 48.1627C29.8304 48.1299 29.8469 48.0911 29.8469 48.042C29.8469 47.9929 29.8304 47.952 29.7995 47.9233C29.7665 47.8947 29.7128 47.8783 29.6385 47.8783H29.3744ZM29.3744 48.3345V48.7047H29.6653C29.7046 48.7047 29.7376 48.7006 29.7665 48.6883C29.7933 48.6781 29.816 48.6638 29.8325 48.6474C29.849 48.6311 29.8614 48.6106 29.8696 48.5881C29.8779 48.5656 29.882 48.5431 29.882 48.5186C29.882 48.4695 29.8634 48.4286 29.8284 48.3897C29.7933 48.3529 29.7396 48.3324 29.6674 48.3324H29.3744V48.3345Z"
          fill="#13017C"/>
    <path d="M31.1687 48.2957C31.1687 48.3673 31.1604 48.4369 31.146 48.5044C31.1295 48.5719 31.1047 48.6332 31.0676 48.6885C31.0325 48.7416 30.983 48.7846 30.9211 48.8173C30.8592 48.8501 30.7828 48.8664 30.692 48.8664C30.6054 48.8664 30.5352 48.8501 30.4774 48.8194C30.4196 48.7887 30.3743 48.7478 30.3392 48.6946C30.3041 48.6435 30.2793 48.5841 30.2649 48.5166C30.2504 48.4471 30.2422 48.3776 30.2422 48.2998C30.2422 48.2262 30.2504 48.1546 30.2669 48.0851C30.2835 48.0155 30.3123 47.9521 30.3495 47.8989C30.3866 47.8437 30.4341 47.7987 30.4939 47.766C30.5538 47.7333 30.626 47.7148 30.7106 47.7148C30.7993 47.7148 30.8716 47.7312 30.9293 47.766C30.9892 47.7987 31.0346 47.8437 31.0697 47.8969C31.1047 47.9501 31.1295 48.0114 31.1439 48.083C31.1625 48.1505 31.1687 48.2221 31.1687 48.2957ZM30.9871 48.2998C30.9871 48.2507 30.985 48.1996 30.9789 48.1485C30.9727 48.0973 30.9582 48.0503 30.9396 48.0053C30.9211 47.9623 30.8922 47.9276 30.8571 47.901C30.822 47.8744 30.7746 47.8601 30.7189 47.8601C30.6611 47.8601 30.6136 47.8744 30.5765 47.901C30.5393 47.9276 30.5104 47.9623 30.4877 48.0032C30.4671 48.0462 30.4527 48.0932 30.4423 48.1464C30.4341 48.1996 30.43 48.2507 30.43 48.3039C30.43 48.3571 30.4341 48.4123 30.4403 48.4635C30.4485 48.5146 30.4609 48.5596 30.4816 48.5985C30.5043 48.6373 30.5311 48.6701 30.5703 48.6926C30.6074 48.7171 30.6569 48.7273 30.7189 48.7273C30.7766 48.7273 30.822 48.7151 30.8571 48.6885C30.8922 48.6639 30.9211 48.6312 30.9396 48.5903C30.9603 48.5494 30.9747 48.5044 30.9809 48.4532C30.983 48.398 30.9871 48.3489 30.9871 48.2998Z"
          fill="#13017C"/>
    <path d="M32.2768 48.7049H32.382V49.1549H32.2438V48.846H31.439V49.1549H31.3008V48.7049H31.404C31.4411 48.6701 31.47 48.6292 31.4906 48.5822C31.5113 48.5351 31.5278 48.4799 31.5381 48.4185C31.5484 48.3572 31.5567 48.2856 31.5608 48.2058C31.5649 48.1281 31.569 48.0381 31.5752 47.9399L31.5855 47.7354H32.2809L32.2768 48.7049ZM31.7362 47.8785L31.732 47.9808C31.7279 48.0769 31.7217 48.1649 31.7176 48.2406C31.7114 48.3162 31.7052 48.3837 31.6949 48.441C31.6846 48.5003 31.6722 48.5494 31.6557 48.5924C31.6392 48.6353 31.6186 48.6722 31.5897 48.7049H32.1035V47.8785H31.7362Z"
          fill="#13017C"/>
    <path d="M32.7376 48.2855C32.7376 48.3469 32.7418 48.4041 32.7541 48.4553C32.7624 48.5064 32.781 48.5535 32.8037 48.5903C32.8264 48.6291 32.8573 48.6578 32.8945 48.6803C32.9337 48.7007 32.9811 48.713 33.041 48.713C33.0946 48.713 33.1462 48.7069 33.1937 48.6946C33.2411 48.6823 33.2906 48.666 33.3443 48.6435L33.3897 48.7682C33.3443 48.7948 33.2906 48.8173 33.2267 48.8357C33.1627 48.8541 33.0967 48.8644 33.0265 48.8644C32.9399 48.8644 32.8656 48.8501 32.8057 48.8214C32.7459 48.7928 32.6984 48.756 32.6613 48.7048C32.6262 48.6537 32.5994 48.5964 32.5829 48.5289C32.5684 48.4614 32.5581 48.3878 32.5581 48.3101C32.5581 48.2507 32.5664 48.1873 32.5787 48.1178C32.5911 48.0482 32.6159 47.9848 32.651 47.9235C32.686 47.8642 32.7335 47.8151 32.7954 47.7742C32.8573 47.7353 32.9378 47.7148 33.0368 47.7148C33.0843 47.7148 33.1318 47.7189 33.1813 47.7251C33.2308 47.7312 33.2845 47.7455 33.3381 47.7701L33.2968 47.903C33.2473 47.8846 33.2019 47.8744 33.1627 47.8683C33.1214 47.8642 33.0843 47.8621 33.0513 47.8621C32.9502 47.8621 32.8738 47.901 32.8202 47.9787C32.7645 48.0544 32.7376 48.1567 32.7376 48.2855Z"
          fill="#13017C"/>
    <path d="M33.8175 47.8805H33.4502V47.7373H34.3561V47.8805H33.9908V48.8459H33.8175V47.8805Z" fill="#13017C"/>
    <path d="M34.9782 47.7393C35.0938 47.7393 35.1805 47.7658 35.2362 47.817C35.2919 47.8702 35.3187 47.9377 35.3187 48.0256C35.3187 48.0665 35.3105 48.1054 35.294 48.1504C35.2774 48.1933 35.2444 48.2322 35.1928 48.2629C35.2238 48.2772 35.2506 48.2936 35.2713 48.3161C35.294 48.3386 35.3105 48.3611 35.3208 48.3877C35.3332 48.4122 35.3414 48.4388 35.3455 48.4633C35.3497 48.4899 35.3517 48.5145 35.3517 48.539C35.3517 48.5861 35.3435 48.629 35.3249 48.6679C35.3063 48.7067 35.2836 48.7395 35.2547 48.7661C35.2238 48.7947 35.1887 48.8151 35.1495 48.8295C35.1082 48.8438 35.067 48.8499 35.0236 48.8499H34.4995V47.7413H34.9782V47.7393ZM34.6749 47.8783V48.2077H34.9535C35.0133 48.2077 35.0608 48.1933 35.0959 48.1627C35.1309 48.1299 35.1474 48.0911 35.1474 48.042C35.1474 47.9929 35.1309 47.952 35.1 47.9233C35.067 47.8947 35.0133 47.8783 34.939 47.8783H34.6749ZM34.6749 48.3345V48.7047H34.9659C35.0051 48.7047 35.0381 48.7006 35.067 48.6883C35.0938 48.6781 35.1165 48.6638 35.133 48.6474C35.1495 48.6311 35.1619 48.6106 35.1701 48.5881C35.1784 48.5656 35.1825 48.5431 35.1825 48.5186C35.1825 48.4695 35.166 48.4286 35.1289 48.3897C35.0938 48.3529 35.0381 48.3324 34.9659 48.3324H34.6749V48.3345Z"
          fill="#13017C"/>
    <path d="M36.0029 47.7129C36.0731 47.7129 36.1308 47.7231 36.1783 47.7436C36.2278 47.762 36.267 47.7886 36.2959 47.8213C36.3289 47.854 36.3516 47.8888 36.3702 47.9277C36.3867 47.9665 36.3991 48.0054 36.4074 48.0463C36.4156 48.0872 36.4197 48.124 36.4218 48.1588C36.4239 48.1936 36.4239 48.2222 36.4239 48.2447V48.3327H35.7243C35.7243 48.3838 35.7285 48.4349 35.7367 48.4799C35.745 48.527 35.7615 48.5679 35.7842 48.6047C35.8069 48.6395 35.8378 48.6681 35.877 48.6906C35.9162 48.7111 35.9637 48.7233 36.0235 48.7233C36.0854 48.7233 36.1412 48.7172 36.1907 48.7029C36.2423 48.6886 36.2959 48.6701 36.3578 48.6436L36.4012 48.7622C36.3372 48.797 36.2753 48.8215 36.2113 48.8399C36.1474 48.8563 36.0813 48.8645 36.0112 48.8645C35.9183 48.8645 35.842 48.8501 35.7821 48.8195C35.7223 48.7888 35.6748 48.7479 35.6397 48.6988C35.6047 48.6476 35.5799 48.5883 35.5675 48.5188C35.5551 48.4513 35.5469 48.3777 35.5469 48.2999C35.5469 48.2672 35.5489 48.2283 35.5531 48.1874C35.5572 48.1465 35.5654 48.1036 35.5778 48.0606C35.5902 48.0197 35.6067 47.9767 35.6274 47.9358C35.648 47.8929 35.6769 47.8561 35.712 47.8254C35.745 47.7947 35.7862 47.7681 35.8337 47.7477C35.8812 47.7231 35.9369 47.7129 36.0029 47.7129ZM36.007 47.8499C35.9575 47.8499 35.9142 47.8602 35.8812 47.8806C35.8481 47.9011 35.8193 47.9277 35.7966 47.9604C35.7739 47.9931 35.7574 48.032 35.747 48.0749C35.7367 48.1199 35.7305 48.1649 35.7264 48.212H36.2588C36.2588 48.1588 36.2547 48.1097 36.2464 48.0647C36.2381 48.0197 36.2237 47.9808 36.2051 47.9502C36.1866 47.9195 36.1597 47.8929 36.1288 47.8765C36.0958 47.8581 36.0566 47.8499 36.007 47.8499Z"
          fill="#13017C"/>
    <path d="M37.3234 48.8459V48.3264H36.8179V48.8459H36.6445V47.7373H36.8199V48.1771H37.3234V47.7373H37.4967V48.8459H37.3234Z"
          fill="#13017C"/>
    <path d="M38.4231 48.8459V48.3264H37.9176V48.8459H37.7422V47.7373H37.9176V48.1771H38.4211V47.7373H38.5944V48.8459H38.4231Z"
          fill="#13017C"/>
    <path d="M39.7466 48.2957C39.7466 48.3673 39.7404 48.4369 39.7239 48.5044C39.7095 48.5719 39.6826 48.6332 39.6476 48.6885C39.6104 48.7416 39.5609 48.7846 39.501 48.8173C39.4391 48.8501 39.3628 48.8664 39.272 48.8664C39.1853 48.8664 39.1152 48.8501 39.0574 48.8194C38.9996 48.7887 38.9542 48.7478 38.9191 48.6946C38.8841 48.6435 38.8593 48.5841 38.8469 48.5166C38.8304 48.4471 38.8242 48.3776 38.8242 48.2998C38.8242 48.2262 38.8325 48.1546 38.851 48.0851C38.8676 48.0155 38.8944 47.9521 38.9315 47.8989C38.9687 47.8437 39.0161 47.7987 39.076 47.766C39.1358 47.7333 39.208 47.7148 39.2926 47.7148C39.3793 47.7148 39.4536 47.7312 39.5114 47.766C39.5691 47.7987 39.6166 47.8437 39.6517 47.8969C39.6868 47.9501 39.7115 48.0114 39.726 48.083C39.7404 48.1505 39.7466 48.2221 39.7466 48.2957ZM39.5671 48.2998C39.5671 48.2507 39.563 48.1996 39.5568 48.1485C39.5506 48.0973 39.5382 48.0503 39.5176 48.0053C39.499 47.9623 39.4701 47.9276 39.435 47.901C39.3979 47.8744 39.3525 47.8601 39.2947 47.8601C39.2369 47.8601 39.1895 47.8744 39.1523 47.901C39.1152 47.9276 39.0863 47.9623 39.0656 48.0032C39.045 48.0462 39.0306 48.0932 39.0223 48.1464C39.012 48.1996 39.0079 48.2507 39.0079 48.3039C39.0079 48.3571 39.012 48.4123 39.0182 48.4635C39.0264 48.5146 39.0388 48.5596 39.0595 48.5985C39.0801 48.6373 39.109 48.6701 39.1461 48.6926C39.1833 48.7171 39.2328 48.7273 39.2947 48.7273C39.3525 48.7273 39.3979 48.7151 39.4329 48.6885C39.468 48.6639 39.4949 48.6312 39.5155 48.5903C39.5361 48.5494 39.5485 48.5044 39.5568 48.4532C39.563 48.398 39.5671 48.3489 39.5671 48.2998Z"
          fill="#13017C"/>
    <path d="M40.4075 47.7129C40.4777 47.7129 40.5355 47.7231 40.5829 47.7436C40.6304 47.762 40.6696 47.7886 40.7005 47.8213C40.7315 47.854 40.7563 47.8888 40.7728 47.9277C40.7893 47.9665 40.8017 48.0054 40.8099 48.0463C40.8182 48.0872 40.8223 48.124 40.8244 48.1588C40.8264 48.1936 40.8264 48.2222 40.8264 48.2447V48.3327H40.1269C40.1269 48.3838 40.131 48.4349 40.1393 48.4799C40.1475 48.527 40.164 48.5679 40.1867 48.6047C40.2094 48.6395 40.2404 48.6681 40.2775 48.6906C40.3167 48.7111 40.3642 48.7233 40.424 48.7233C40.4859 48.7233 40.5417 48.7172 40.5912 48.7029C40.6407 48.6886 40.6964 48.6701 40.7563 48.6436L40.7996 48.7622C40.7356 48.797 40.6737 48.8215 40.6098 48.8399C40.5458 48.8563 40.4777 48.8645 40.4096 48.8645C40.3167 48.8645 40.2404 48.8501 40.1805 48.8195C40.1207 48.7888 40.0733 48.7479 40.0382 48.6988C40.0031 48.6476 39.9783 48.5883 39.9659 48.5188C39.9536 48.4513 39.9453 48.3777 39.9453 48.2999C39.9453 48.2672 39.9474 48.2283 39.9515 48.1874C39.9577 48.1465 39.9639 48.1036 39.9763 48.0606C39.9886 48.0197 40.0052 47.9767 40.0258 47.9358C40.0485 47.8929 40.0753 47.8561 40.1104 47.8254C40.1455 47.7947 40.1867 47.7681 40.2342 47.7477C40.2837 47.7231 40.3415 47.7129 40.4075 47.7129ZM40.4117 47.8499C40.3621 47.8499 40.3209 47.8602 40.2858 47.8806C40.2507 47.9011 40.2218 47.9277 40.2012 47.9604C40.1785 47.9931 40.162 48.032 40.1517 48.0749C40.1413 48.1199 40.1331 48.1649 40.131 48.212H40.6634C40.6634 48.1588 40.6593 48.1097 40.651 48.0647C40.6428 48.0197 40.6283 47.9808 40.6098 47.9502C40.5891 47.9195 40.5644 47.8929 40.5313 47.8765C40.5004 47.8581 40.4612 47.8499 40.4117 47.8499Z"
          fill="#13017C"/>
    <path d="M42.5364 48.2957C42.5364 48.3673 42.5302 48.4369 42.5137 48.5044C42.4972 48.5719 42.4724 48.6332 42.4353 48.6885C42.3981 48.7416 42.3507 48.7846 42.2888 48.8173C42.2268 48.8501 42.1505 48.8664 42.0597 48.8664C41.9751 48.8664 41.9029 48.8501 41.8451 48.8194C41.7873 48.7887 41.7419 48.7478 41.7068 48.6946C41.6718 48.6435 41.647 48.5841 41.6326 48.5166C41.6181 48.4471 41.6099 48.3776 41.6099 48.2998C41.6099 48.2262 41.6181 48.1546 41.6367 48.0851C41.6532 48.0155 41.68 47.9521 41.7172 47.8989C41.7543 47.8437 41.8038 47.7987 41.8616 47.766C41.9214 47.7333 41.9937 47.7148 42.0803 47.7148C42.167 47.7148 42.2413 47.7312 42.2991 47.766C42.3589 47.7987 42.4043 47.8437 42.4394 47.8969C42.4745 47.9501 42.4992 48.0114 42.5137 48.083C42.5302 48.1505 42.5364 48.2221 42.5364 48.2957ZM42.3548 48.2998C42.3548 48.2507 42.3507 48.1996 42.3445 48.1485C42.3383 48.0973 42.3259 48.0503 42.3053 48.0053C42.2867 47.9623 42.2578 47.9276 42.2227 47.901C42.1856 47.8744 42.1402 47.8601 42.0824 47.8601C42.0246 47.8601 41.9772 47.8744 41.94 47.901C41.9029 47.9276 41.874 47.9623 41.8513 48.0032C41.8307 48.0462 41.8141 48.0932 41.8059 48.1464C41.7976 48.1996 41.7935 48.2507 41.7935 48.3039C41.7935 48.3571 41.7976 48.4123 41.8038 48.4635C41.81 48.5146 41.8245 48.5596 41.8451 48.5985C41.8657 48.6373 41.8946 48.6701 41.9318 48.6926C41.971 48.7171 42.0205 48.7273 42.0803 48.7273C42.1381 48.7273 42.1835 48.7151 42.2186 48.6885C42.2537 48.6639 42.2805 48.6312 42.3011 48.5903C42.3218 48.5494 42.3341 48.5044 42.3424 48.4532C42.3507 48.398 42.3548 48.3489 42.3548 48.2998Z"
          fill="#13017C"/>
    <path d="M43.186 47.2995C43.2087 47.2893 43.2355 47.2791 43.2664 47.2668C43.2974 47.2545 43.3283 47.2423 43.3593 47.2279C43.3903 47.2136 43.4212 47.2013 43.4501 47.1891C43.479 47.1768 43.5037 47.1666 43.5264 47.1543L43.5801 47.2729C43.5306 47.3016 43.4831 47.3261 43.4398 47.3445C43.3964 47.3629 43.3634 47.3772 43.3449 47.3854C43.2726 47.4161 43.2087 47.4468 43.155 47.4775C43.1014 47.5082 43.056 47.5429 43.0168 47.5838C42.9796 47.6247 42.9507 47.6738 42.928 47.7311C42.9053 47.7884 42.8909 47.86 42.8826 47.9418C42.8847 47.9418 42.8847 47.9418 42.8868 47.9438C42.9218 47.8845 42.9714 47.8395 43.0291 47.8027C43.089 47.7679 43.1571 47.7495 43.2334 47.7495C43.3077 47.7495 43.3717 47.7638 43.4253 47.7925C43.479 47.8211 43.5203 47.86 43.5512 47.9091C43.5842 47.9602 43.6069 48.0195 43.6214 48.085C43.6358 48.1525 43.642 48.2241 43.642 48.3018C43.642 48.3693 43.6337 48.4347 43.6193 48.5022C43.6049 48.5677 43.578 48.629 43.543 48.6822C43.5079 48.7375 43.4583 48.7804 43.3964 48.8131C43.3345 48.8479 43.2582 48.8643 43.1674 48.8643C43.0787 48.8643 43.0064 48.8479 42.9487 48.8131C42.8909 48.7804 42.8455 48.7375 42.8125 48.6863C42.7795 48.6352 42.7547 48.5779 42.7423 48.5145C42.7279 48.4511 42.7217 48.3897 42.7217 48.3284C42.7217 48.2404 42.7217 48.1668 42.7237 48.1075C42.7258 48.0481 42.7279 47.9991 42.7299 47.9581C42.732 47.9193 42.7341 47.8886 42.7382 47.8641C42.7402 47.8416 42.7444 47.8232 42.7464 47.8068C42.7712 47.6861 42.8207 47.5818 42.8929 47.4979C42.9693 47.4182 43.0663 47.3507 43.186 47.2995ZM43.2025 47.8886C43.1488 47.8886 43.1014 47.9029 43.0642 47.9316C43.0271 47.9602 42.9961 47.997 42.9734 48.04C42.9487 48.0829 42.9322 48.13 42.9218 48.1831C42.9095 48.2343 42.9053 48.2834 42.9053 48.3304C42.9053 48.3754 42.9095 48.4225 42.9156 48.4695C42.9239 48.5165 42.9363 48.5575 42.9569 48.5943C42.9776 48.6311 43.0064 48.6618 43.0436 48.6863C43.0807 48.7109 43.1282 48.7231 43.1901 48.7231C43.2458 48.7231 43.2912 48.7109 43.3283 48.6863C43.3655 48.6618 43.3944 48.6311 43.4129 48.5922C43.4336 48.5534 43.446 48.5104 43.4542 48.4613C43.4625 48.4122 43.4666 48.3631 43.4666 48.3141C43.4666 48.2629 43.4625 48.2118 43.4583 48.1586C43.4522 48.1075 43.4377 48.0625 43.4191 48.0236C43.4006 47.9847 43.3737 47.952 43.3407 47.9275C43.3015 47.9009 43.2561 47.8886 43.2025 47.8886Z"
          fill="#13017C"/>
    <path d="M44.3276 48.1362H44.6495C44.7114 48.1362 44.7651 48.1464 44.8125 48.1668C44.8579 48.1873 44.8951 48.2139 44.924 48.2466C44.9528 48.2793 44.9735 48.3182 44.99 48.3612C45.0044 48.4041 45.0106 48.4471 45.0106 48.49C45.0106 48.5452 45.0024 48.5943 44.9838 48.6373C44.9652 48.6823 44.9405 48.7191 44.9116 48.7498C44.8806 48.7805 44.8435 48.805 44.8022 48.8214C44.7609 48.8377 44.7155 48.8459 44.6681 48.8459H44.1543V47.8784H43.7622V47.7373H44.3276V48.1362ZM44.3276 48.2671V48.7109H44.6392C44.7011 48.7109 44.7486 48.6925 44.7857 48.6516C44.8228 48.6127 44.8414 48.5596 44.8414 48.4921C44.8414 48.4184 44.8208 48.3632 44.7795 48.3243C44.7382 48.2855 44.6846 48.265 44.6206 48.265H44.3276V48.2671Z"
          fill="#13017C"/>
    <path d="M45.632 47.7129C45.7022 47.7129 45.76 47.7231 45.8095 47.7436C45.8569 47.762 45.8962 47.7886 45.9271 47.8213C45.9581 47.854 45.9828 47.8888 45.9993 47.9277C46.0158 47.9665 46.0282 48.0054 46.0365 48.0463C46.0447 48.0872 46.0489 48.124 46.0509 48.1588C46.053 48.1936 46.053 48.2222 46.053 48.2447V48.3327H45.3535C45.3535 48.3838 45.3576 48.4349 45.3658 48.4799C45.3741 48.527 45.3906 48.5679 45.4133 48.6047C45.436 48.6395 45.467 48.6681 45.5041 48.6906C45.5433 48.7111 45.5908 48.7233 45.6506 48.7233C45.7104 48.7233 45.7682 48.7172 45.8177 48.7029C45.8693 48.6886 45.923 48.6701 45.9828 48.6436L46.0262 48.7622C45.9643 48.797 45.9003 48.8215 45.8363 48.8399C45.7723 48.8563 45.7063 48.8645 45.6362 48.8645C45.5433 48.8645 45.467 48.8501 45.4071 48.8195C45.3473 48.7888 45.2998 48.7479 45.2647 48.6988C45.2297 48.6476 45.2049 48.5883 45.1925 48.5188C45.1801 48.4513 45.1719 48.3777 45.1719 48.2999C45.1719 48.2672 45.1739 48.2283 45.1781 48.1874C45.1822 48.1465 45.1904 48.1036 45.2028 48.0606C45.2152 48.0197 45.2317 47.9767 45.2544 47.9358C45.2751 47.8929 45.3039 47.8561 45.337 47.8254C45.372 47.7947 45.4133 47.7681 45.4608 47.7477C45.5103 47.7231 45.566 47.7129 45.632 47.7129ZM45.6362 47.8499C45.5866 47.8499 45.5433 47.8602 45.5103 47.8806C45.4752 47.9011 45.4463 47.9277 45.4257 47.9604C45.403 47.9931 45.3865 48.032 45.3762 48.0749C45.3658 48.1199 45.3576 48.1649 45.3555 48.212H45.8879C45.8879 48.1588 45.8838 48.1097 45.8755 48.0647C45.8652 48.0197 45.8528 47.9808 45.8322 47.9502C45.8136 47.9195 45.7868 47.8929 45.7558 47.8765C45.7249 47.8581 45.6857 47.8499 45.6362 47.8499Z"
          fill="#13017C"/>
    <path d="M47.163 48.7049H47.2683V49.1549H47.13V48.846H46.3253V49.1549H46.187V48.7049H46.2902C46.3273 48.6701 46.3562 48.6292 46.3769 48.5822C46.3975 48.5351 46.414 48.4799 46.4243 48.4185C46.4346 48.3572 46.4429 48.2856 46.447 48.2058C46.4511 48.1281 46.4573 48.0381 46.4635 47.9399L46.4738 47.7354H47.1692L47.163 48.7049ZM46.6224 47.8785L46.6183 47.9808C46.6142 48.0769 46.61 48.1649 46.6038 48.2406C46.5997 48.3162 46.5915 48.3837 46.5811 48.441C46.5729 48.5003 46.5584 48.5494 46.5419 48.5924C46.5254 48.6353 46.5048 48.6722 46.4759 48.7049H46.9897V47.8785H46.6224Z"
          fill="#13017C"/>
    <path d="M48.1456 48.846V47.991H48.1394C48.1353 47.9972 48.1208 48.0238 48.094 48.0728C48.0672 48.1219 48.0321 48.1772 47.9949 48.2406C47.9599 48.2999 47.9207 48.3633 47.8814 48.4308C47.8402 48.4983 47.803 48.5617 47.768 48.621C47.7329 48.6803 47.7019 48.7294 47.6772 48.7724C47.6524 48.8133 47.6359 48.8378 47.6318 48.846H47.4688V47.7374H47.6421V48.5801H47.6503C47.6668 48.5535 47.6834 48.5249 47.6999 48.4962C47.7164 48.4676 47.7329 48.439 47.7494 48.4103C47.8195 48.2917 47.8794 48.1956 47.9248 48.1199C47.9702 48.0442 48.0073 47.9828 48.0362 47.9338C48.0651 47.8847 48.0899 47.8458 48.1064 47.8172C48.1229 47.7885 48.1415 47.7599 48.1559 47.7354H48.321C48.321 47.8049 48.321 47.8888 48.321 47.9869C48.321 48.0851 48.321 48.1853 48.321 48.2897C48.321 48.394 48.321 48.4962 48.321 48.5924C48.321 48.6906 48.321 48.7744 48.321 48.844H48.1456V48.846Z"
          fill="#13017C"/>
    <path d="M49.2453 48.8459V48.3264H48.7397V48.8459H48.5664V47.7373H48.7418V48.1771H49.2453V47.7373H49.4186V48.8459H49.2453Z"
          fill="#13017C"/>
    <path d="M50.1026 47.7129C50.1728 47.7129 50.2326 47.7231 50.2801 47.7436C50.3275 47.762 50.3668 47.7886 50.3998 47.8213C50.4307 47.854 50.4555 47.8888 50.472 47.9277C50.4885 47.9665 50.5029 48.0054 50.5091 48.0463C50.5174 48.0872 50.5215 48.124 50.5236 48.1588C50.5236 48.1936 50.5236 48.2222 50.5236 48.2447V48.3327H49.8241C49.8241 48.3838 49.8282 48.4349 49.8364 48.4799C49.8447 48.527 49.8612 48.5679 49.8818 48.6047C49.9045 48.6395 49.9355 48.6681 49.9747 48.6906C50.0139 48.7111 50.0614 48.7233 50.1212 48.7233C50.1831 48.7233 50.2388 48.7172 50.2904 48.7029C50.3399 48.6886 50.3956 48.6701 50.4555 48.6436L50.4988 48.7622C50.4348 48.797 50.3729 48.8215 50.309 48.8399C50.245 48.8563 50.179 48.8645 50.1088 48.8645C50.016 48.8645 49.9396 48.8501 49.8798 48.8195C49.8199 48.7888 49.7725 48.7479 49.7374 48.6988C49.7023 48.6476 49.6775 48.5883 49.6652 48.5188C49.6507 48.4513 49.6445 48.3777 49.6445 48.2999C49.6445 48.2672 49.6466 48.2283 49.6507 48.1874C49.6548 48.1465 49.6631 48.1036 49.6755 48.0606C49.6879 48.0197 49.7044 47.9767 49.725 47.9358C49.7456 47.8929 49.7745 47.8561 49.8075 47.8254C49.8426 47.7947 49.8818 47.7681 49.9293 47.7477C49.9809 47.7231 50.0366 47.7129 50.1026 47.7129ZM50.1068 47.8499C50.0572 47.8499 50.0139 47.8602 49.9809 47.8806C49.9458 47.9011 49.919 47.9277 49.8963 47.9604C49.8736 47.9931 49.8571 48.032 49.8468 48.0749C49.8364 48.1199 49.8302 48.1649 49.8261 48.212H50.3585C50.3585 48.1588 50.3544 48.1097 50.3461 48.0647C50.3358 48.0197 50.3234 47.9808 50.3028 47.9502C50.2842 47.9195 50.2574 47.8929 50.2264 47.8765C50.1975 47.8581 50.1563 47.8499 50.1068 47.8499Z"
          fill="#13017C"/>
    <path d="M51.4229 48.8459V48.3264H50.9194V48.8459H50.7461V47.7373H50.9215V48.1771H51.425V47.7373H51.5983V48.8459H51.4229Z"
          fill="#13017C"/>
    <path d="M52.525 48.846V47.991H52.5188C52.5167 47.9972 52.5002 48.0238 52.4734 48.0728C52.4445 48.1219 52.4115 48.1772 52.3743 48.2406C52.3393 48.2999 52.3 48.3633 52.2608 48.4308C52.2196 48.4983 52.1824 48.5617 52.1473 48.621C52.1102 48.6803 52.0813 48.7294 52.0566 48.7724C52.0318 48.8133 52.0173 48.8378 52.0112 48.846H51.8481V47.7374H52.0215V48.5801H52.0297C52.0462 48.5535 52.0627 48.5249 52.0793 48.4962C52.0937 48.4676 52.1102 48.439 52.1288 48.4103C52.201 48.2917 52.2588 48.1956 52.3042 48.1199C52.3496 48.0442 52.3867 47.9828 52.4156 47.9338C52.4445 47.8847 52.4672 47.8458 52.4858 47.8172C52.5043 47.7885 52.5208 47.7599 52.5353 47.7354H52.7004C52.7004 47.8049 52.7004 47.8888 52.7004 47.9869C52.7004 48.0851 52.7004 48.1853 52.7024 48.2897C52.7024 48.394 52.7024 48.4962 52.7024 48.5924C52.7024 48.6906 52.7024 48.7744 52.7024 48.844H52.525V48.846Z"
          fill="#13017C"/>
    <path d="M53.3862 47.7129C53.4563 47.7129 53.5141 47.7231 53.5616 47.7436C53.609 47.762 53.6503 47.7886 53.6812 47.8213C53.7122 47.854 53.737 47.8888 53.7535 47.9277C53.77 47.9665 53.7823 48.0054 53.7906 48.0463C53.7968 48.0872 53.803 48.124 53.803 48.1588C53.805 48.1936 53.805 48.2222 53.805 48.2447V48.3327H53.1055C53.1055 48.3838 53.1097 48.4349 53.1179 48.4799C53.1262 48.527 53.1406 48.5679 53.1633 48.6047C53.1881 48.6395 53.217 48.6681 53.2562 48.6906C53.2933 48.7111 53.3428 48.7233 53.4006 48.7233C53.4604 48.7233 53.5162 48.7172 53.5677 48.7029C53.6193 48.6886 53.673 48.6701 53.7328 48.6436L53.7762 48.7622C53.7122 48.797 53.6503 48.8215 53.5863 48.8399C53.5223 48.8563 53.4563 48.8645 53.3862 48.8645C53.2933 48.8645 53.217 48.8501 53.1571 48.8195C53.0973 48.7888 53.0498 48.7479 53.0147 48.6988C52.9797 48.6476 52.9549 48.5883 52.9425 48.5188C52.9281 48.4513 52.9219 48.3777 52.9219 48.2999C52.9219 48.2672 52.9239 48.2283 52.9281 48.1874C52.9322 48.1465 52.9404 48.1036 52.9528 48.0606C52.9652 48.0197 52.9817 47.9767 53.0024 47.9358C53.025 47.8929 53.0519 47.8561 53.087 47.8254C53.12 47.7947 53.1612 47.7681 53.2087 47.7477C53.2644 47.7231 53.3201 47.7129 53.3862 47.7129ZM53.3903 47.8499C53.3408 47.8499 53.2974 47.8602 53.2644 47.8806C53.2314 47.9011 53.2025 47.9277 53.1798 47.9604C53.1571 47.9931 53.1406 48.032 53.1303 48.0749C53.12 48.1199 53.1117 48.1649 53.1096 48.212H53.642C53.642 48.1588 53.6379 48.1097 53.6296 48.0647C53.6193 48.0197 53.607 47.9808 53.5884 47.9502C53.5677 47.9195 53.543 47.8929 53.51 47.8765C53.479 47.8581 53.4398 47.8499 53.3903 47.8499Z"
          fill="#13017C"/>
    <path d="M54.3985 48.4633L54.0848 48.8212L54.0146 48.7639L54.2293 48.4183L54.0146 48.0705L54.0869 48.0112L54.4005 48.3733V48.4633H54.3985ZM54.7142 48.4633L54.4005 48.8212L54.3304 48.7639L54.545 48.4183L54.3304 48.0705L54.4046 48.0112L54.7162 48.3733V48.4633H54.7142Z"
          fill="#13017C"/>
    <path d="M13.0967 46.285C13.0863 46.3014 13.0533 46.3075 12.9976 46.3075H12.3167C12.2424 46.3075 12.2052 46.2748 12.2052 46.2073V44.9494H11.1384V46.2073C11.1384 46.2462 11.1322 46.2728 11.1219 46.285C11.1116 46.3014 11.0786 46.3075 11.0228 46.3075H10.3398C10.2655 46.3075 10.2305 46.2748 10.2305 46.2073V43.0717C10.2305 43.0042 10.2676 42.9715 10.3398 42.9715H11.0228C11.0765 42.9715 11.1095 42.9796 11.1219 42.994C11.1322 43.0083 11.1384 43.0349 11.1384 43.0737V44.1987H12.2052V43.0737C12.2052 43.0062 12.2424 42.9735 12.3167 42.9735H12.9997C13.0533 42.9735 13.0863 42.9817 13.0987 42.996C13.109 43.0103 13.1152 43.0369 13.1152 43.0758V46.2114C13.1152 46.2462 13.109 46.2728 13.0967 46.285ZM15.9649 46.3075H14.4792C14.2873 46.3075 14.1305 46.2809 14.0108 46.2257C13.8911 46.1705 13.7962 46.1009 13.726 46.015C13.6579 45.9271 13.6105 45.8289 13.5836 45.7205C13.5589 45.6121 13.5444 45.5057 13.5444 45.4014V43.8755C13.5444 43.761 13.5609 43.6485 13.5919 43.5401C13.6249 43.4296 13.6765 43.3335 13.7487 43.2496C13.8209 43.1658 13.9159 43.0983 14.0355 43.0471C14.1532 42.996 14.2976 42.9694 14.4668 42.9694H15.8844C15.9236 42.9694 15.9484 42.9755 15.9587 42.9858C15.9711 42.998 15.9752 43.0308 15.9752 43.084V43.6219C15.9752 43.6628 15.969 43.6914 15.9567 43.7058C15.9443 43.7201 15.9195 43.7262 15.8844 43.7262H14.7413C14.6773 43.7262 14.6257 43.7364 14.5865 43.7528C14.5494 43.7712 14.5184 43.7917 14.4998 43.8183C14.4813 43.8428 14.4668 43.8735 14.4606 43.9042C14.4544 43.9348 14.4503 43.9676 14.4503 43.9983V44.1987H15.7379C15.7771 44.1987 15.8019 44.2048 15.8122 44.2171C15.8225 44.2294 15.8287 44.2642 15.8287 44.3173V44.8123C15.8287 44.886 15.7978 44.9228 15.7379 44.9228H14.4503V45.2807C14.4503 45.3401 14.4586 45.3891 14.473 45.4239C14.4875 45.4587 14.5081 45.4853 14.5328 45.5016C14.5576 45.518 14.5886 45.5303 14.6236 45.5344C14.6587 45.5385 14.6979 45.5405 14.7392 45.5405H15.9608C15.9979 45.5405 16.0248 45.5466 16.0351 45.5569C16.0454 45.5691 16.0516 45.5998 16.0516 45.655V46.193C16.0578 46.2707 16.0268 46.3075 15.9649 46.3075ZM18.6144 46.2073C18.6144 46.2462 18.6082 46.2728 18.5979 46.285C18.5876 46.3014 18.5546 46.3075 18.4989 46.3075H17.8159C17.7416 46.3075 17.7065 46.2748 17.7065 46.2073V46.06C17.2381 46.0089 16.8852 45.8616 16.6459 45.6162C16.4086 45.3728 16.2889 45.0455 16.2889 44.6385C16.2889 44.4503 16.3219 44.2744 16.3879 44.1087C16.454 43.943 16.5468 43.7958 16.6686 43.6669C16.7903 43.538 16.9389 43.4296 17.1163 43.3458C17.2917 43.2599 17.4898 43.2005 17.7086 43.1678V43.0696C17.7086 43.0021 17.7457 42.9694 17.8179 42.9694H18.5009C18.5546 42.9694 18.5876 42.9776 18.6 42.9919C18.6124 43.0062 18.6165 43.0328 18.6165 43.0717V43.1658C19.0746 43.2292 19.4295 43.3826 19.6833 43.628C19.9371 43.8735 20.063 44.1987 20.063 44.6057C20.063 44.8082 20.03 44.9944 19.9619 45.1601C19.8959 45.3278 19.7989 45.473 19.673 45.5998C19.5471 45.7246 19.3965 45.8269 19.219 45.9066C19.0416 45.9864 18.8394 46.0375 18.6165 46.0641V46.2073H18.6144ZM17.7065 43.8633C17.6136 43.8858 17.5332 43.9226 17.4692 43.9778C17.4032 44.033 17.3495 44.0944 17.3062 44.166C17.2628 44.2376 17.2319 44.3133 17.2133 44.3889C17.1927 44.4667 17.1844 44.5403 17.1844 44.6057C17.1844 44.6998 17.1927 44.7898 17.2113 44.8757C17.2298 44.9596 17.2587 45.0353 17.2979 45.1048C17.3371 45.1723 17.3908 45.2296 17.4589 45.2787C17.527 45.3257 17.6095 45.3585 17.7086 45.3769V43.8633H17.7065ZM19.1757 44.6017C19.1757 44.5321 19.1675 44.4585 19.1489 44.3807C19.1324 44.303 19.1014 44.2294 19.0581 44.1619C19.0148 44.0944 18.957 44.033 18.8827 43.9778C18.8084 43.9246 18.7155 43.8837 18.6041 43.8592V45.3748C18.7135 45.3462 18.8043 45.3032 18.8786 45.248C18.9529 45.1928 19.0106 45.1294 19.056 45.0598C19.1014 44.9903 19.1324 44.9146 19.1489 44.8369C19.1675 44.7551 19.1757 44.6794 19.1757 44.6017ZM22.7579 43.7303H21.9367V46.2094C21.9367 46.2482 21.9305 46.2748 21.9202 46.2871C21.9098 46.3034 21.8768 46.3096 21.8211 46.3096H21.1381C21.0638 46.3096 21.0267 46.2769 21.0267 46.2094V43.7303H20.224C20.1559 43.7303 20.1229 43.6935 20.1229 43.6219V43.088C20.1229 43.0349 20.1311 43.0021 20.1455 42.9899C20.16 42.9796 20.1868 42.9735 20.224 42.9735H22.7579C22.7971 42.9735 22.8219 42.9796 22.8363 42.9899C22.8508 43.0021 22.859 43.0349 22.859 43.088V43.6219C22.859 43.6935 22.826 43.7303 22.7579 43.7303ZM25.4941 46.3075H24.0084C23.8165 46.3075 23.6597 46.2809 23.54 46.2257C23.4203 46.1705 23.3254 46.1009 23.2573 46.015C23.1871 45.9271 23.1417 45.8289 23.1149 45.7205C23.0881 45.6121 23.0757 45.5057 23.0757 45.4014V43.8755C23.0757 43.761 23.0922 43.6485 23.1232 43.5401C23.1541 43.4296 23.2078 43.3335 23.28 43.2496C23.3522 43.1658 23.4471 43.0983 23.5668 43.0471C23.6865 42.996 23.8289 42.9694 24.0002 42.9694H25.4178C25.457 42.9694 25.4817 42.9755 25.4921 42.9858C25.5024 42.998 25.5086 43.0308 25.5086 43.084V43.6219C25.5086 43.6628 25.5024 43.6914 25.49 43.7058C25.4776 43.7201 25.4528 43.7262 25.4178 43.7262H24.2746C24.2106 43.7262 24.159 43.7364 24.1198 43.7528C24.0806 43.7712 24.0517 43.7917 24.0332 43.8183C24.0146 43.8428 24.0022 43.8735 23.996 43.9042C23.9898 43.9348 23.9857 43.9676 23.9857 43.9983V44.1987H25.2733C25.3125 44.1987 25.3373 44.2048 25.3476 44.2171C25.3579 44.2294 25.3641 44.2642 25.3641 44.3173V44.8123C25.3641 44.886 25.3332 44.9228 25.2733 44.9228H23.9857V45.2807C23.9857 45.3401 23.9919 45.3891 24.0063 45.4239C24.0208 45.4587 24.0414 45.4853 24.0682 45.5016C24.093 45.518 24.124 45.5303 24.159 45.5344C24.1941 45.5385 24.2333 45.5405 24.2746 45.5405H25.4962C25.5354 45.5405 25.5602 45.5466 25.5705 45.5569C25.5808 45.5691 25.587 45.5998 25.587 45.655V46.193C25.5849 46.2707 25.554 46.3075 25.4941 46.3075ZM27.3244 45.2971L26.8581 46.1644C26.823 46.2196 26.7879 46.2584 26.757 46.2789C26.724 46.2994 26.6724 46.3075 26.6022 46.3075H25.8429C25.814 46.3075 25.7933 46.2953 25.783 46.2687C25.7727 46.2441 25.7748 46.2175 25.7913 46.193L26.8106 44.5567L25.9027 43.0799C25.8821 43.0533 25.8779 43.0287 25.8862 43.0021C25.8944 42.9776 25.9213 42.9653 25.9646 42.9653H26.6621C26.7425 42.9653 26.7962 42.9735 26.8271 42.9878C26.8581 43.0042 26.887 43.039 26.9159 43.0921L27.3244 43.853L27.7289 43.0921C27.7578 43.0369 27.7867 43.0021 27.8176 42.9878C27.8486 42.9735 27.9043 42.9653 27.9827 42.9653H28.6802C28.7235 42.9653 28.7503 42.9776 28.7586 43.0021C28.7668 43.0267 28.7606 43.0533 28.7421 43.0799L27.8341 44.5567L28.8535 46.193C28.87 46.2175 28.8721 46.2441 28.8597 46.2687C28.8494 46.2932 28.8287 46.3075 28.7998 46.3075H28.0405C27.9703 46.3075 27.9187 46.2973 27.8857 46.2789C27.8527 46.2605 27.8197 46.2216 27.7846 46.1644L27.3244 45.2971ZM31.1378 44.4053L30.7065 45.111L30.0524 46.0928C30.0214 46.1398 29.9925 46.1787 29.9657 46.2073C29.9389 46.2359 29.9121 46.2564 29.8832 46.2728C29.8543 46.2871 29.8213 46.2973 29.7821 46.3014C29.7428 46.3055 29.6975 46.3075 29.6417 46.3075H29.4148C29.2703 46.3075 29.1754 46.2707 29.1321 46.1991C29.0867 46.1275 29.064 46.0375 29.064 45.9291V43.0717C29.064 43.0042 29.1011 42.9715 29.1733 42.9715H29.8316C29.8852 42.9715 29.9182 42.9796 29.9306 42.994C29.943 43.0083 29.9471 43.0349 29.9471 43.0737V44.8839H29.9802L30.4032 44.2273L31.0655 43.1883C31.0986 43.1371 31.1275 43.0983 31.1522 43.0696C31.177 43.041 31.2038 43.0205 31.2327 43.0042C31.2616 42.9899 31.2967 42.9817 31.3338 42.9776C31.3709 42.9755 31.4184 42.9735 31.4741 42.9735H31.699C31.8332 42.9735 31.926 43.0001 31.9755 43.0512C32.0251 43.1024 32.0498 43.2026 32.0498 43.3519V46.2114C32.0498 46.2789 32.0127 46.3116 31.9405 46.3116H31.2822C31.2286 46.3116 31.1935 46.3055 31.1852 46.2891C31.1728 46.2748 31.1667 46.2482 31.1667 46.2114V44.4094H31.1378V44.4053ZM35.2813 44.6364H35.2524L35.0068 45.1805L34.7571 45.7103C34.7221 45.79 34.6849 45.8432 34.6478 45.8739C34.6106 45.9046 34.557 45.9189 34.4868 45.9189H34.1649C34.0844 45.9189 34.0308 45.9046 33.9998 45.8739C33.9689 45.8432 33.9359 45.788 33.8967 45.7103L33.6821 45.2828L33.4035 44.6957H33.3746V46.2216C33.3746 46.2666 33.3663 46.2932 33.3519 46.2994C33.3354 46.3075 33.3086 46.3116 33.2714 46.3116H32.6029C32.5678 46.3116 32.5409 46.3075 32.5224 46.2994C32.5038 46.2912 32.4935 46.2646 32.4935 46.2216V43.3539C32.4935 43.2046 32.5203 43.1044 32.576 43.0533C32.6297 43.0021 32.7184 42.9755 32.8402 42.9755H33.2095C33.3127 42.9755 33.3849 42.994 33.4303 43.0308C33.4757 43.0676 33.517 43.1269 33.5603 43.2087L33.9462 44.0003L34.3217 44.7817H34.3424L34.7159 44.0105L35.0997 43.2251C35.143 43.1433 35.1884 43.0799 35.24 43.039C35.2916 42.998 35.3762 42.9776 35.5 42.9776H35.7971C35.8487 42.9776 35.8941 42.9817 35.9375 42.9899C35.9787 42.998 36.0159 43.0144 36.0468 43.0369C36.0778 43.0615 36.1005 43.0962 36.1149 43.1433C36.1314 43.1883 36.1397 43.2476 36.1397 43.3212V46.2237C36.1397 46.2687 36.1314 46.2953 36.1149 46.3014C36.0984 46.3096 36.0716 46.3137 36.0282 46.3137H35.3948C35.3597 46.3137 35.3328 46.3096 35.3163 46.3014C35.2978 46.2932 35.2895 46.2666 35.2895 46.2237V44.6364H35.2813ZM39.4495 46.2073C39.4495 46.2462 39.4433 46.2728 39.433 46.285C39.4227 46.3014 39.3897 46.3075 39.334 46.3075H38.6509C38.5767 46.3075 38.5395 46.2748 38.5395 46.2073V43.7446H37.4727V46.2073C37.4727 46.2462 37.4665 46.2728 37.4562 46.285C37.4438 46.3014 37.4108 46.3075 37.3571 46.3075H36.6741C36.5998 46.3075 36.5627 46.2748 36.5627 46.2073V43.2865C36.5627 43.1821 36.5813 43.1044 36.6205 43.0512C36.6597 43.0001 36.7443 42.9735 36.8763 42.9735H39.1359C39.2679 42.9735 39.3525 43.0001 39.3917 43.0512C39.4289 43.1044 39.4495 43.1821 39.4495 43.2865V46.2073ZM40.7908 46.2134C40.7908 46.2523 40.7846 46.2769 40.7743 46.2891C40.764 46.3014 40.7289 46.3096 40.6752 46.3096H39.9922C39.9179 46.3096 39.8808 46.2769 39.8808 46.2134V43.2865C39.8808 43.2005 39.8994 43.1269 39.9386 43.0655C39.9778 43.0042 40.0624 42.9715 40.1944 42.9715H41.416C41.6038 42.9715 41.7709 42.998 41.9175 43.0533C42.064 43.1065 42.1857 43.1821 42.2868 43.2803C42.3859 43.3764 42.4601 43.491 42.5117 43.6219C42.5633 43.7508 42.5881 43.8919 42.5881 44.0453C42.5881 44.0964 42.584 44.1598 42.5736 44.2355C42.5633 44.3112 42.5427 44.391 42.5138 44.4728C42.4828 44.5567 42.4395 44.6405 42.3817 44.7244C42.324 44.8082 42.2455 44.8839 42.1486 44.9494C42.0495 45.0169 41.9298 45.0701 41.7833 45.113C41.6368 45.1539 41.4635 45.1764 41.2613 45.1764H40.7908V46.2134ZM41.6513 44.1067C41.6513 44.0739 41.6471 44.0371 41.6368 43.9942C41.6286 43.9512 41.61 43.9123 41.5852 43.8776C41.5625 43.8428 41.5275 43.8121 41.4821 43.7876C41.4387 43.763 41.3809 43.7487 41.3087 43.7487H40.7887V44.4687H41.3087C41.4202 44.4687 41.5068 44.4319 41.5646 44.3562C41.6224 44.2826 41.6513 44.1987 41.6513 44.1067ZM45.8484 44.6364C45.8484 44.9044 45.8195 45.1437 45.7617 45.3564C45.704 45.5691 45.6132 45.7512 45.4894 45.9005C45.3655 46.0498 45.2067 46.1644 45.0106 46.2421C44.8146 46.3219 44.5814 46.3607 44.309 46.3607C44.049 46.3607 43.8241 46.3219 43.6322 46.2441C43.4424 46.1664 43.2855 46.0539 43.1638 45.9066C43.0421 45.7573 42.9513 45.5794 42.8935 45.3646C42.8336 45.1519 42.8048 44.9126 42.8048 44.6446C42.8048 44.3848 42.8378 44.1476 42.9038 43.9348C42.9698 43.7221 43.0668 43.5401 43.1927 43.3908C43.3186 43.2394 43.4775 43.1249 43.6652 43.043C43.8551 42.9633 44.0738 42.9224 44.3235 42.9224C44.5835 42.9224 44.8063 42.9633 44.9982 43.043C45.1881 43.1249 45.347 43.2394 45.4749 43.3887C45.6008 43.538 45.6957 43.718 45.7555 43.9287C45.8175 44.1394 45.8484 44.3746 45.8484 44.6364ZM44.8909 44.6405C44.8868 44.5157 44.8765 44.3992 44.86 44.2846C44.8414 44.1721 44.8125 44.0739 44.7713 43.9921C44.7279 43.9103 44.6722 43.8428 44.5979 43.7937C44.5236 43.7446 44.4308 43.7201 44.3173 43.7201C44.2244 43.7201 44.1419 43.7426 44.0717 43.7917C44.0016 43.8387 43.9438 43.9042 43.9005 43.9839C43.8551 44.0658 43.8221 44.1598 43.7973 44.2683C43.7746 44.3767 43.7643 44.4892 43.7643 44.6057C43.7643 44.751 43.7746 44.8839 43.7932 45.0005C43.8117 45.1171 43.8448 45.2173 43.8902 45.2991C43.9355 45.3789 43.9933 45.4423 44.0676 45.4873C44.1419 45.5323 44.2327 45.5548 44.3421 45.5548C44.4473 45.5548 44.536 45.5303 44.6062 45.4812C44.6763 45.4321 44.7321 45.3666 44.7754 45.2807C44.8167 45.1969 44.8476 45.0987 44.8641 44.9882C44.8827 44.8778 44.8909 44.7612 44.8909 44.6405ZM48.5062 46.3075H47.0205C46.8286 46.3075 46.6717 46.2809 46.5521 46.2257C46.4324 46.1705 46.3375 46.1009 46.2673 46.015C46.1971 45.9271 46.1517 45.8289 46.1249 45.7205C46.1002 45.6121 46.0857 45.5057 46.0857 45.4014V43.8755C46.0857 43.761 46.1022 43.6485 46.1332 43.5401C46.1641 43.4296 46.2178 43.3335 46.29 43.2496C46.3622 43.1658 46.4571 43.0983 46.5748 43.0471C46.6944 42.996 46.8368 42.9694 47.006 42.9694H48.4257C48.4628 42.9694 48.4897 42.9755 48.5 42.9858C48.5124 42.998 48.5165 43.0308 48.5165 43.084V43.6219C48.5165 43.6628 48.5103 43.6914 48.4979 43.7058C48.4835 43.7201 48.4608 43.7262 48.4257 43.7262H47.2805C47.2165 43.7262 47.1649 43.7364 47.1278 43.7528C47.0886 43.7712 47.0597 43.7917 47.0411 43.8183C47.0205 43.8428 47.0102 43.8735 47.0019 43.9042C46.9957 43.9348 46.9916 43.9676 46.9916 43.9983V44.1987H48.2792C48.3184 44.1987 48.3432 44.2048 48.3535 44.2171C48.3638 44.2294 48.37 44.2642 48.37 44.3173V44.8123C48.37 44.886 48.339 44.9228 48.2792 44.9228H46.9916V45.2807C46.9916 45.3401 46.9978 45.3891 47.0122 45.4239C47.0267 45.4587 47.0473 45.4853 47.0721 45.5016C47.0968 45.518 47.1278 45.5303 47.1628 45.5344C47.1979 45.5385 47.2371 45.5405 47.2784 45.5405H48.5C48.5392 45.5405 48.564 45.5466 48.5763 45.5569C48.5867 45.5691 48.5928 45.5998 48.5928 45.655V46.193C48.599 46.2707 48.566 46.3075 48.5062 46.3075ZM50.9638 44.5342C51.0463 44.5628 51.1165 44.5955 51.1702 44.6323C51.2259 44.6692 51.2692 44.7101 51.3043 44.7571C51.3394 44.8042 51.3682 44.8553 51.3889 44.9146C51.4095 44.9719 51.4302 45.0373 51.4487 45.1069L51.7479 46.2134C51.7541 46.2298 51.7562 46.2482 51.75 46.2728C51.7459 46.2973 51.7232 46.3096 51.6798 46.3096H50.9576C50.9411 46.3096 50.9246 46.3055 50.906 46.2994C50.8875 46.2932 50.8709 46.2728 50.8627 46.2421L50.5594 45.2419C50.5367 45.1662 50.5078 45.1048 50.4748 45.0537C50.4417 45.0046 50.4005 44.9657 50.3551 44.9391C50.3076 44.9126 50.2519 44.8942 50.19 44.8839C50.126 44.8737 50.0517 44.8696 49.9671 44.8696H49.7505L49.7567 46.2319C49.7567 46.2666 49.7505 46.2891 49.736 46.2953C49.7236 46.3034 49.7009 46.3075 49.6679 46.3075H48.9292C48.8982 46.3075 48.8776 46.3034 48.8632 46.2953C48.8487 46.2871 48.8425 46.2666 48.8425 46.2319V43.0492C48.8425 43.0144 48.8487 42.9919 48.8632 42.9858C48.8776 42.9776 48.8982 42.9735 48.9292 42.9735H49.6741C49.7071 42.9735 49.7278 42.9776 49.7422 42.9858C49.7546 42.994 49.7587 43.0144 49.7525 43.0492V44.2314H49.9836C50.0311 44.2314 50.0827 44.2273 50.1343 44.2212C50.1879 44.2151 50.2375 44.1987 50.287 44.1721C50.3344 44.1455 50.3778 44.1046 50.419 44.0535C50.4603 44.0003 50.4913 43.9287 50.5181 43.8367L50.7389 43.0328C50.7451 43.0001 50.7575 42.9817 50.7802 42.9755C50.8008 42.9694 50.8194 42.9653 50.8359 42.9653H51.5478C51.589 42.9653 51.6117 42.9776 51.6179 43.0001C51.6221 43.0246 51.6221 43.043 51.6159 43.0594L51.3848 43.9144C51.3517 44.0473 51.3002 44.166 51.2279 44.2683C51.1557 44.3726 51.067 44.4544 50.9659 44.5137V44.5342H50.9638ZM54.579 43.7303H53.7578V46.2094C53.7578 46.2482 53.7516 46.2748 53.7413 46.2871C53.7289 46.3034 53.6959 46.3096 53.6422 46.3096H52.9592C52.8849 46.3096 52.8478 46.2769 52.8478 46.2094V43.7303H52.0451C51.977 43.7303 51.944 43.6935 51.944 43.6219V43.088C51.944 43.0349 51.9502 43.0021 51.9646 42.9899C51.979 42.9796 52.0059 42.9735 52.0451 42.9735H54.579C54.6182 42.9735 54.643 42.9796 54.6575 42.9899C54.6719 43.0021 54.6781 43.0349 54.6781 43.088V43.6219C54.6801 43.6935 54.6471 43.7303 54.579 43.7303Z"
          fill="url(#paint3_linear)"/>
    <defs>
        <linearGradient id="paint0_linear" x1="16.2592" y1="26.2496" x2="16.2592" y2="40.1953"
                        gradientUnits="userSpaceOnUse">
            <stop offset="0.2053" stop-color="#0C054F"/>
            <stop offset="1" stop-color="#01A0C6"/>
        </linearGradient>
        <linearGradient id="paint1_linear" x1="32.4078" y1="26.1423" x2="32.4078" y2="40.1812"
                        gradientUnits="userSpaceOnUse">
            <stop offset="0.2053" stop-color="#0C054F"/>
            <stop offset="1" stop-color="#01A0C6"/>
        </linearGradient>
        <linearGradient id="paint2_linear" x1="48.6727" y1="26.1526" x2="48.6727" y2="40.192"
                        gradientUnits="userSpaceOnUse">
            <stop offset="0.2053" stop-color="#0C054F"/>
            <stop offset="1" stop-color="#01A0C6"/>
        </linearGradient>
        <linearGradient id="paint3_linear" x1="10.2307" y1="44.6401" x2="54.6792" y2="44.6401"
                        gradientUnits="userSpaceOnUse">
            <stop offset="0.2053" stop-color="#0C054F"/>
            <stop offset="1" stop-color="#01A0C6"/>
        </linearGradient>
    </defs>
</svg>
