<svg width="635" height="586" fill="none" xmlns="http://www.w3.org/2000/svg"><path d="M40.1 343.091c55.9 13.177 77.401-18.888 109.753-57.082 36.059-42.569 70.504.685 131.958-21.307 61.454-21.992 52.184-61.227 54.328-80.779M1.068 56.201c20.937 7.777 72.418 19.915 110.845 6.258 48.033-17.07 83.717-21.157 77.156-49.779-1.854-8.089-11.636-12-18.562-12.06-21.34-.187-35.778 50.622 11.232 56.664 47.011 6.042 72.132-16.847 135.755-5.185 51.463 9.434 64.499 57.396 51.542 71.351" stroke="#00080C" stroke-linecap="square" stroke-dasharray="15 10"/><g clip-path="url(#a)"><path d="M342.74 155.519c1.942 6.179 5.486 13.418 9.496 15.379 4.547 2.224 6.344 5.128 6.344 5.128l3.869-1.988 4.618-2.373s-.081-.503-.26-1.324a38.53 38.53 0 0 0-.843-3.233s-1.285-1.838-.328-4.018c.957-2.175.964-5.613-.364-7.781-1.333-2.165-2.452-7.387-3.325-7.28-2.117.251.647 7.492-.319 8.762-.871 1.145-1.868.683-2.052.586a.117.117 0 0 0-.036-.02c-5.748-2.891-12.166-17.207-15.421-15.487-1.215.643-2.208 11.017-1.379 13.649z" fill="#FFB27D"/><path d="m362.658 165.017-7.637 4.798a1.163 1.163 0 0 1-1.596-.364l-17.492-27.843a1.162 1.162 0 0 1 .364-1.596l7.636-4.798a1.16 1.16 0 0 1 1.597.364l17.492 27.843a1.164 1.164 0 0 1-.364 1.596z" fill="#2B478B"/><path d="m355.664 169.41-4.479 2.814a.886.886 0 0 1-1.218-.28l-17.781-28.31a.878.878 0 0 1 .275-1.213l4.479-2.814a.884.884 0 0 1 1.218.275l17.786 28.31a.89.89 0 0 1-.28 1.218zm114.716-37.481s-40.885 63.472-55.113 74.805l-47.962-39.769s-7.355 1.844-10.898 8.949c0 0 27.106 63.284 56.797 67.445 29.69 4.156 75.512-70.271 75.512-70.271l-18.336-41.159zm61.871 449.284 21.67 1.12c2.806-1.341 5.411-4.608 6.441-9.622 1.42-6.928 9.441-10.33 11.43-15.95 1.984-5.62-6.272-14.105-6.272-14.105l-1.353-1.943-1.41-2.016-14.559 2.644s-.531 3.406-.973 7.758c-.319 3.141-.59 6.773-.58 9.971.03 7.635-2.948 15.701-9.786 16.833-5.06.833-4.988 3.809-4.608 5.31zm-125.754-6.5 49.554 2.561c2.534-2.786 2.21-13.565 2.032-17.086-.037-.708-.066-1.125-.066-1.125s-16.221-14.411-19.081-4.166c-.086.323-.19.636-.302.944-3.429 9.542-16.793 13.268-24.442 14.105-4.971.542-6.926 3.011-7.695 4.767z" fill="#233862"/><path d="M430.234 298.596s.912 32.191 1.94 70.882c1.399 52.56 3.01 117.116 2.868 129.32-.251 21.198 1.388 55.203 1.388 55.203s7.617 8.452 23.87 5.895c0 0 16.82-47.556 23.553-98.45.108-.834.216-1.673.32-2.517 6.495-51.828 18.077-161.069 18.077-161.069l-72.016.736z" fill="#F99746"/><path d="M430.234 298.596s.911 32.191 1.939 70.882l51.684 91.973c.107-.834.215-1.673.319-2.517 6.496-51.829 18.077-161.069 18.077-161.069l-72.019.731z" fill="#ED7D2B"/><path d="M441.774 303.009s40.312 118.495 67.944 174.63c27.632 56.136 36.364 71.854 36.364 71.854s17.81-6.076 19.639-10.754c0 0-6.201-105.936-25.269-132.665-10.775-15.104-22.061-59.346-21.905-74.604.152-15.259-1.779-45.574-1.779-45.574l-74.994 17.113z" fill="#F99746"/><path d="M462.053 134.351c17.803 6.648 49.913-7.149 49.913-7.149s-16.038-13.386-13.818-39.38l-14.575 10.554-9.901 7.168s-.196 4.518.435 12.484c.169 2.094.389 4.432.686 6.99-7.99 3.87-12.74 9.333-12.74 9.333z" fill="#FFB27D"/><path d="M473.668 105.549s-.196 4.517.435 12.483c10.625-1.265 23.453-17.668 23.453-17.668-5.282-1.824-9.962-2.347-13.987-1.983l-9.901 7.168z" fill="#ED975D"/><path d="M468.159 104.83s29.638 6.512 33.406-12.008c3.772-18.519 10.138-30.152-8.63-35.091-18.768-4.94-23.89 1.377-26.653 7.252-2.759 5.876-5.737 37.677 1.877 39.847z" fill="#FFB27D"/><path d="M428.104 301.163c.52.479 1.141.788 1.864.825 6.803.259 26.423 5.058 43.284 4.203 14.206-.627 26.937-4.169 40.684-9.495 1.827-.708 6.046-2.687 6.057-4.685.053-2.184.001-5.367-.065-9.367-.236-13.917-.66-37.859 2.378-65.301.555-5.108.97-10.186 1.247-15.188 2.066-37.294-3.635-70.485-17.923-82.355-1.224-.977-9.213 2.431-16.558 5.591-6.787 2.922-13.42 2.939-19.605 1.354l-6.537 5.205c-7.978 6.677-16.815 15.852-21.191 30.255-3.726 12.255-6.692 34.549-8.89 57.7-.995 10.49-1.911 21.076-2.523 31.132l-.019.36c-.139.994-.195 2.08-.247 3.079-1.698 25.798-2.393 46.299-1.956 46.687z" fill="#2B478B"/><path d="M519.924 282.635c-.236-13.918-.66-37.86 2.378-65.301.555-5.108.97-10.186 1.247-15.188-5.415-15.339-9.915-26.491-9.915-26.491l-15.603-.807c.004 0-15.477 77.555 21.893 107.787zm2.833 37.957 67.046-6.041c8.727-.786 16.509 5.708 17.295 14.434l2.619 29.054c.786 8.726-5.708 16.508-14.434 17.294l-67.047 6.046c-8.726.786-16.509-5.708-17.294-14.434l-2.62-29.054c-.786-8.726 5.709-16.513 14.435-17.299z" fill="#233862"/><path d="M518.557 328.996c2.111-4.589 6.338-8.076 11.526-9.063h.005c.004 0 .009 0 .014-.004a16.56 16.56 0 0 1 1.552-.22l13.349-1.202-.562-6.269c-.126-1.4.3-2.767 1.205-3.851a5.242 5.242 0 0 1 3.577-1.873l3.482-.314 14.017-1.265 2.527-.229c2.893-.261 5.469 1.884 5.725 4.782l.562 6.268 23.045-2.081c8.758-.788 16.567 5.73 17.36 14.489l2.648 29.392c.784 8.763-5.734 16.572-14.493 17.365l-66.927 6.039a15.738 15.738 0 0 1-3.471-.069h-.005l-.009-.001a15.877 15.877 0 0 1-5.12-1.575c-4.772-2.406-8.246-7.155-8.76-12.844l-2.653-29.388a15.983 15.983 0 0 1 1.406-8.087zm53.12-19.213a1.971 1.971 0 0 0-1.548-1.746 2.008 2.008 0 0 0-.593-.04l-2.977.267-11.031.999-6.014.542a1.973 1.973 0 0 0-1.785 2.137l.562 6.269 23.949-2.164-.563-6.264z" fill="#2B478B"/><path d="M552.422 294.638c0-.355 0-.72-.008-1.099-.042-1.866-3.299-6.705-3.299-6.705l8.999-4.095 3.174 5.915c5.022 4.441 5.115 4.519 3.749 12.456-1.186 6.88 3.339 7.197 2.973 12.13-.361 4.938-6.606 2.178-6.606 2.178-9.629-5.145-10.328-7.516-9.781-12.2-1.003 1.282-2.092 2.001-2.951 1.375-.756-.551.914-2.491 1.837-7.141.133-.695 1.022-1.826 1.913-2.814z" fill="#FFB27D"/><path d="M557.818 290.865c-5.676.805-11.743.048-11.743.048s-14.021-52.4-15.923-57.219c-1.906-4.82-46.43-62.991-46.43-62.991l22.301-48.405s46.848 88.299 51.431 100.605c7.575 20.333 8.258 65.075 8.258 65.075s-3.435 2.254-7.894 2.887zM501.681 91.028s-3.039-.67-2.328-4.869c.715-4.2.992-9.724-2.495-8.87-3.487.854-3.8 3.593-5.13 1.913s-1.003-8.447-11.201-9.444c-10.199-.998-14.535 2.345-19.181.01-4.647-2.336-4.524-9.543-4.524-9.543s1.221 2.639 3.217 3.563c0 0-7.369-11.258 2.198-18.222 9.567-6.963 18.677-1.61 23.972-1.013 11.668 1.314 19.194 2.409 22.622 10.298 3.427 7.884.749 29.16-7.15 36.177z" fill="#2B478B"/></g><defs><clipPath id="a"><path fill="#fff" transform="scale(-1 1) rotate(-2.959 657.47 12311.459)" d="M0 0h297.383v535.439H0z"/></clipPath></defs></svg>