<svg width="1258" height="1194" fill="none" xmlns="http://www.w3.org/2000/svg"><g clip-path="url(#a)"><path d="M624.033 261.49c4.214 13.405 11.903 29.113 20.605 33.368 9.864 4.825 13.764 11.125 13.764 11.125l8.394-4.312 10.019-5.15s-.174-1.09-.562-2.873a84.14 84.14 0 0 0-1.831-7.014s-2.787-3.989-.71-8.718c2.076-4.719 2.091-12.178-.79-16.883-2.892-4.696-5.32-16.026-7.214-15.794-4.595.544 1.402 16.254-.693 19.01-1.89 2.486-4.052 1.483-4.451 1.272a.28.28 0 0 0-.078-.044c-12.473-6.272-26.398-37.333-33.46-33.602-2.636 1.396-4.79 23.904-2.993 29.615z" fill="#FFB27D"/><path d="m667.249 282.098-16.57 10.409c-1.169.73-2.733.379-3.463-.79l-37.953-60.41c-.73-1.169-.379-2.733.79-3.464l16.569-10.408a2.513 2.513 0 0 1 3.464.79l37.953 60.409a2.526 2.526 0 0 1-.79 3.464z" fill="#2B478B"/><path d="m652.075 291.628-9.718 6.106a1.922 1.922 0 0 1-2.642-.607l-38.581-61.424a1.907 1.907 0 0 1 .596-2.632l9.719-6.107a1.92 1.92 0 0 1 2.642.597l38.591 61.424c.555.89.283 2.078-.607 2.643zM900.973 210.307s-88.707 137.715-119.577 162.304l-104.065-86.287s-15.958 4.002-23.644 19.416c0 0 58.811 137.308 123.231 146.336 64.42 9.017 163.838-152.466 163.838-152.466l-39.783-89.303zM1035.21 1185.12l47.02 2.43c6.09-2.91 11.74-10 13.98-20.88 3.08-15.03 20.48-22.41 24.8-34.61 4.3-12.19-13.61-30.6-13.61-30.6l-2.94-4.22-3.06-4.37-31.58 5.74s-1.16 7.39-2.12 16.83c-.69 6.81-1.28 14.69-1.25 21.63.06 16.57-6.4 34.07-21.24 36.53-10.98 1.8-10.82 8.26-10 11.52zM762.368 1171.01l107.516 5.56c5.499-6.04 4.796-29.43 4.41-37.07-.081-1.54-.145-2.44-.145-2.44s-35.192-31.27-41.398-9.04c-.187.7-.412 1.38-.657 2.05-7.438 20.7-36.434 28.79-53.03 30.6-10.785 1.18-15.027 6.53-16.696 10.34z" fill="#233862"/><path d="M813.87 571.923s1.978 69.845 4.207 153.792c3.038 114.039 6.532 254.106 6.225 280.585-.545 45.99 3.012 119.78 3.012 119.78s16.525 18.33 51.788 12.79c0 0 36.495-103.19 51.105-213.611.233-1.81.468-3.631.693-5.462 14.093-112.452 39.221-349.471 39.221-349.471l-156.251 1.597z" fill="#F99746"/><path d="M813.869 571.923s1.977 69.845 4.207 153.792l112.139 199.554c.233-1.81.468-3.63.692-5.461 14.094-112.452 39.222-349.471 39.222-349.471l-156.26 1.586z" fill="#ED7D2B"/><path d="M838.908 581.498s87.465 257.098 147.418 378.895c59.954 121.797 78.894 155.897 78.894 155.897s38.65-13.18 42.62-23.33c0 0-13.46-229.849-54.83-287.842-23.38-32.771-47.87-128.763-47.53-161.869.33-33.107-3.86-98.881-3.86-98.881l-162.712 37.13z" fill="#F99746"/><path d="M882.908 215.561c38.627 14.424 108.295-15.51 108.295-15.51s-34.797-29.045-29.98-85.442l-31.624 22.899-21.481 15.551s-.427 9.802.943 27.085c.366 4.545.845 9.617 1.489 15.167-17.337 8.397-27.642 20.25-27.642 20.25z" fill="#FFB27D"/><path d="M908.109 153.069s-.427 9.801.943 27.085c23.052-2.744 50.886-38.335 50.886-38.335-11.461-3.957-21.616-5.092-30.348-4.302l-21.481 15.552z" fill="#ED975D"/><path d="M896.154 151.51s64.307 14.128 72.482-26.054c8.185-40.18 21.996-65.422-18.725-76.138-40.721-10.716-51.833 2.989-57.829 15.736-5.986 12.748-12.446 81.747 4.072 86.456z" fill="#FFB27D"/><path d="M809.249 577.492c1.127 1.039 2.475 1.71 4.043 1.791 14.76.562 57.33 10.974 93.914 9.12 30.821-1.361 58.445-9.046 88.271-20.601 3.965-1.538 13.123-5.831 13.143-10.166.11-4.74 0-11.645-.14-20.324-.51-30.197-1.43-82.143 5.16-141.682 1.2-11.083 2.1-22.101 2.7-32.955 4.49-80.916-7.88-152.931-38.885-178.685-2.654-2.12-19.989 5.275-35.924 12.131-14.727 6.339-29.118 6.376-42.539 2.939l-14.181 11.293c-17.311 14.485-36.484 34.392-45.98 65.644-8.083 26.588-14.519 74.96-19.288 125.191-2.158 22.759-4.146 45.727-5.474 67.548l-.04.778c-.302 2.158-.424 4.515-.536 6.682-3.684 55.974-5.192 100.456-4.244 101.296z" fill="#2B478B"/><path d="M1008.47 537.292c-.51-30.197-1.43-82.144 5.16-141.683 1.2-11.082 2.1-22.101 2.7-32.954-11.74-33.281-21.507-57.477-21.507-57.477l-33.855-1.75c.01 0-33.581 168.271 47.502 233.864zM1014.62 619.649l145.47-13.109c18.93-1.705 35.82 12.386 37.52 31.319l5.68 63.037c1.71 18.934-12.38 35.819-31.31 37.524l-145.48 13.118c-18.93 1.705-35.814-12.385-37.519-31.318l-5.684-63.038c-1.705-18.933 12.386-35.828 31.323-37.533z" fill="#233862"/><path d="M1005.5 637.883c4.58-9.957 13.76-17.524 25.01-19.666l.01.001c.01 0 .02.001.03-.009 1.1-.203 2.22-.375 3.37-.476l28.96-2.609-1.22-13.601c-.27-3.038.66-6.004 2.62-8.356 1.96-2.342 4.72-3.801 7.76-4.065l7.55-.681 30.42-2.744 5.48-.497c6.28-.567 11.86 4.088 12.42 10.375l1.22 13.601 50-4.515c19-1.712 35.95 12.432 37.67 31.436l5.74 63.772c1.7 19.013-12.44 35.955-31.44 37.677l-145.21 13.101a34.12 34.12 0 0 1-7.54-.149h-.01l-.02-.001a34.415 34.415 0 0 1-11.1-3.418c-10.36-5.222-17.9-15.524-19.01-27.868l-5.76-63.762c-.54-6.237.6-12.226 3.05-17.546zm115.26-41.687a4.277 4.277 0 0 0-3.36-3.788 4.319 4.319 0 0 0-1.29-.087l-6.46.578-23.93 2.167-13.05 1.178a4.279 4.279 0 0 0-3.87 4.636l1.22 13.601 51.96-4.694-1.22-13.591z" fill="#2B478B"/><path d="M1078.98 563.336c0-.771 0-1.562-.02-2.384-.09-4.05-7.16-14.549-7.16-14.549l19.53-8.884 6.89 12.833c10.89 9.635 11.09 9.806 8.13 27.026-2.57 14.927 7.25 15.614 6.45 26.318-.78 10.713-14.33 4.726-14.33 4.726-20.89-11.163-22.41-16.308-21.22-26.471-2.18 2.782-4.54 4.342-6.41 2.984-1.64-1.196 1.99-5.405 3.99-15.495.29-1.507 2.22-3.961 4.15-6.104z" fill="#FFB27D"/><path d="M1090.69 555.149c-12.32 1.747-25.48.105-25.48.105s-30.42-113.692-34.55-124.149c-4.13-10.457-100.738-136.672-100.738-136.672l48.385-105.022S1079.95 380.993 1089.9 407.692c16.43 44.117 17.91 141.193 17.91 141.193s-7.45 4.892-17.12 6.264zM968.888 121.564s-6.594-1.452-5.052-10.565c1.553-9.112 2.152-21.097-5.414-19.245-7.565 1.852-8.243 7.795-11.129 4.151-2.885-3.644-2.177-18.326-24.304-20.492-22.128-2.165-31.535 5.09-41.617.022-10.082-5.067-9.814-20.704-9.814-20.704s2.648 5.724 6.98 7.73c0 0-15.99-24.427 4.767-39.536 20.758-15.109 40.524-3.493 52.013-2.198 25.317 2.85 41.646 5.227 49.082 22.343 7.437 17.107 1.626 63.269-15.512 78.494z" fill="#2B478B"/></g><path d="M1.5 274.5c40.333 2.333 135.8-4 195-48 74-55 133.538-81 107-127-7.5-13-26.49-14.57-38.5-11-37 11-35 106.5 49.5 92s115.792-67.401 232-81c94-11 142 65 127 96M198 705.5c84.5 13 111-50.5 152.5-127.5 46.254-85.82 104-13 191-66s67-123.5 67-160" stroke="#00080C" stroke-linecap="square" stroke-dasharray="20 10"/><defs><clipPath id="a"><path fill="#fff" transform="scale(-1 1) rotate(-2.959 16.13 24358.643)" d="M0 0h645.23v1161.74H0z"/></clipPath></defs></svg>