<svg width="28" height="28" viewBox="0 0 94 94" xmlns="http://www.w3.org/2000/svg" fill="none">
    <path stroke="null"
          d="M80.345 89.33c-3.832 0-12.267 3.108-31.428-4.578C32.63 77.066 19.215 64.577 9.634 50.165 3.886 43.44 1.01 34.793.054 26.145c0-7.686 2.873-14.41 7.665-19.215 1.915-1.92 3.831-2.88 5.748-2.88h4.791c1.915 0 3.832 0 4.79 3.843 1.917 4.804 6.027 16.08 6.705 17.293.367 1.384.733 2.14 1.103 4.456 1.376 5.674-3.976 7.073-4.934 8.035-1.915.96-2.874 2.881-1.915 4.803 3.831 5.764 8.623 11.529 13.412 16.333 5.749 4.803 11.497 8.646 18.205 11.53 1.916.96 3.831.96 4.791-.962.957-1.922 5.748-6.725 7.663-8.646 1.917-1.922 2.875-1.922 4.792-.962l15.33 7.686c1.916.962 3.832 1.922 4.79 2.883.957 2.882 1.911 4.326-.96 9.608l-11.685 9.38z"
          fill="#5b9ba2"/>
</svg>