<svg xmlns="http://www.w3.org/2000/svg" fill="none" viewBox="0 0 923 821"><path fill="#F7C29E" d="M803.446 810.63H593.071l-17.451-46.998c-6.182-16.647-18.832-30.032-35.008-37.356-15.237-6.894-35.74-19.411-55.621-41.732-38.681-43.433-59.208-90.029-59.208-90.029l130.378-.635s-11.734-72.954 53.065-169.845c6.936-10.368 10.09-22.813 9.009-35.247l-6.142-70.664s-44.034-49.221-17.017-110.292c0 0 25.834-35.779 36.083-22.683 0 0 78.036 185.886 85.14 213.526 7.106 27.639 16.579 45.014 7.106 131.88-2.509 22.993-3.409 42.171-3.378 57.939a205.665 205.665 0 0 0 19.761 87.517l63.658 134.619z"/><path fill="#9CE3EC" d="m593.072 810.63-17.451-46.998c-6.182-16.647-18.832-30.032-35.008-37.356-.027-.01-.053-.025-.08-.036.027.011.053.026.08.036 16.176 7.324 28.826 20.709 35.008 37.356l17.451 46.998zm-52.582-84.41-.039-.016a.64.64 0 0 1 .039.016zm-.084-.037-.038-.015.038.015zm-.083-.036-.033-.015.033.015zm-.091-.041h-.001.001zm179.796-137.793v-.005.005zm0-.175-.001-.088.001.088zm-.001-.124a430.37 430.37 0 0 1 .063-7.339l-.002.01-.001.005a428.417 428.417 0 0 0-.06 7.324z"/><path fill="#F5B992" d="M593.071 810.63h210.375l-63.658-134.619a205.665 205.665 0 0 1-19.761-87.517v-.356l-.001-.088v-.036c-.001-2.362.018-4.807.06-7.324-.09.698-9.291 71.362-37.675 81.207-28.527 9.892-55.652 6.465-75.179 28.151-10.839 12.036-26.706 19.396-48.594 19.396-17.545 0-38.96-4.729-64.74-15.572 16.798 16.43 33.418 26.342 46.333 32.234a.247.247 0 0 1 .058.026l.033.015c.015.005.03.01.045.021l.038.015c.016.005.029.016.045.021l.039.015c.014.011.029.016.043.021.027.01.053.026.08.036 16.176 7.324 28.826 20.709 35.008 37.356l17.451 46.998z"/><path fill="#292929" d="M297.063 288.728a203.437 203.437 0 0 1-8.07-2.987l.785-1.99a205.686 205.686 0 0 0 7.988 2.956l-.703 2.021z"/><path fill="#F19C61" d="M308.158 61.212s-44.555-29.835-54.733-10.176c-10.173 19.654 57.895 89.202 57.895 89.202l-3.162-79.026zm0 129.983s-44.555-29.83-54.733-10.176c-10.173 19.655 57.895 89.202 57.895 89.202l-3.162-79.026zm0 88.561s-44.555-29.83-54.733-10.176c-10.173 19.655 57.895 89.202 57.895 89.202l-3.162-79.026z"/><path fill="#292929" d="M338.934 27.78h244.627c18.215 0 32.986 14.77 32.986 32.998v500.103c0 18.373-14.927 32.999-32.986 32.999H338.934c-18.212 0-32.983-14.766-32.983-32.999V60.778c0-18.388 14.942-32.998 32.983-32.998z"/><path fill="#9CE3EC" d="m425.783 594.515 130.378-.636H425.773c.005.419.01.636.01.636z"/><path fill="#F5B992" d="M561.949 617.668c48.004-.005 68.557-22.858 72.266-40.559 2.098-10.016-7.406-41.035-17.668-70.121v53.893c0 18.373-14.927 32.999-32.986 32.999h-27.4l-130.378.635s45.532 12.213 111.412 21.345c8.962 1.24 17.195 1.808 24.754 1.808z"/><path fill="#292726" d="M425.773 593.88h157.788c18.059 0 32.986-14.626 32.986-32.999v-53.893a1285.186 1285.186 0 0 0-9.641-26.347h-6.349v68.266H433.843a9.998 9.998 0 0 1-.424.806c-2.051 3.54-4.831 8.331-8.142 14.042.232 15.711.444 27.344.496 30.125zm35.633-35.722c7.559 0 13.686 6.129 13.686 13.69s-6.127 13.69-13.686 13.69c-7.553 0-13.681-6.129-13.681-13.69s6.128-13.69 13.681-13.69z"/><path fill="#fff" d="M600.555 548.907H321.94V72.754h278.615v476.153z"/><path fill="url(#a)" d="M600.555 548.907H321.94V72.754h278.615v476.153z"/><path fill="url(#b)" d="M600.555 548.907H321.94V72.754h278.615v476.153z"/><path fill="#79CBF3" d="M616.545 407.91a55.114 55.114 0 0 0 1.689-19.122l-1.689-19.422v38.544z"/><path fill="#BFA596" d="M616.547 480.641h15.081c8.359 0 15.134-6.781 15.134-15.137v-99.89c0-8.362-6.775-15.137-15.134-15.137h-15.081v18.889l1.688 19.422a55.116 55.116 0 0 1-1.688 19.122v72.731z"/><path fill="#202327" d="M606.906 480.641h9.641V350.477h-15.99v113.636a1590.64 1590.64 0 0 1 6.349 16.528z"/><path fill="#202124" d="M600.557 480.641h6.349a1590.64 1590.64 0 0 0-6.349-16.528v16.528z"/><path fill="#C5D9F3" d="M418.202 510.673c1.235 0 15.21-19.272 22.919-30.032h159.434V350.477h-207.7c-5.414 9.008-11.562 18.615-18.336 28.662v7.809c10.483 1.308 32.492 4.956 33.495 12.564 1.265 9.654-1.385 26.414-33.495 30.652v35.34c0 8.356 6.779 15.137 15.138 15.137h31.18c-1.566 11.83-3.792 30.032-2.635 30.032z"/><path fill="#79CBF3" d="M303.043 261.802h.325a567.633 567.633 0 0 1-15.458-17.437v2.3c0 8.362 6.773 15.137 15.133 15.137z"/><path fill="#C5D9F3" d="M287.912 175.753a225.61 225.61 0 0 1 18.041-11.964v-29.195a576.696 576.696 0 0 1-8.55-9.338c-5.565 2.237-9.491 7.684-9.491 14.052v36.445z"/><path fill="#79CBF3" d="M305.953 189.779v-25.99a225.61 225.61 0 0 0-18.041 11.964v4.383c7.77 3.442 14.657 7.535 18.041 9.643z"/><path fill="#BA855C" d="M305.953 134.594V124.17h-2.909c-1.994 0-3.9.382-5.641 1.085a573.066 573.066 0 0 0 8.55 9.339zm-2.583 127.208h2.583v-72.023c-3.384-2.108-10.271-6.201-18.041-9.643v64.229a566.296 566.296 0 0 0 15.458 17.437z"/><path fill="#202327" d="M305.951 261.802h15.99V124.17h-15.99v137.632z"/><path fill="#C5D9F3" d="M536.357 290.573c1.115 0-.917-16.951-2.47-28.771h26.749c8.359 0 15.135-6.775 15.135-15.137V139.307c0-8.362-6.776-15.137-15.135-15.137H321.942v137.632H514.34c7.849 10.936 20.831 28.771 22.017 28.771z"/><path fill="#fff" d="M403.805 57.79h114.433a2.397 2.397 0 0 0 2.395-2.397V54.22a2.397 2.397 0 0 0-2.395-2.398H403.805a2.395 2.395 0 0 0-2.392 2.398v1.173a2.395 2.395 0 0 0 2.392 2.398z"/><path fill="#F7C29E" d="M622.092 360.767s-1.681 6.253-5.482 9.328l-4.517-51.971s-32.393-36.207-24.567-85.046c2.68-16.719 10.992-32.105 23.706-43.288 7.258-6.378 15.229-10.641 19.927-4.641 0 0 36.696 87.413 62.051 151.265l-71.118 24.353z"/><path fill="#F8FAFB" d="M399.647 324.569H641.62c8.358 0 15.134 6.775 15.134 15.137v99.885c0 8.362-6.776 15.137-15.134 15.137H451.116c-7.709 10.765-21.689 30.037-22.924 30.037-1.152 0 1.069-18.202 2.64-30.037h-31.185c-8.354 0-15.133-6.775-15.133-15.137v-99.885c0-8.362 6.779-15.137 15.133-15.137z"/><path fill="#2F425B" d="M461.408 585.538c7.558 0 13.686-6.129 13.686-13.69s-6.128-13.69-13.686-13.69c-7.554 0-13.681 6.129-13.681 13.69s6.127 13.69 13.681 13.69z"/><path fill="#3E82D7" d="M465.488 566.587c.651 0 1.183.527 1.183 1.178v8.166c0 .651-.532 1.178-1.183 1.178h-8.158a1.182 1.182 0 0 1-1.183-1.178v-8.166c0-.651.532-1.178 1.183-1.178h8.158zm-8.158 10.961h8.158a1.62 1.62 0 0 0 1.622-1.617v-8.166c0-.894-.729-1.618-1.622-1.618h-8.158c-.894 0-1.623.724-1.623 1.618v8.166a1.62 1.62 0 0 0 1.623 1.617z"/><path fill="#8ABBFA" d="M321.94 548.907h278.615V520.74H321.94v28.167zm0-450.883h278.615V72.752H321.94v25.272z"/><path fill="#F19C61" d="M624.561 236.494c-10.14-4.667-15.434-31.061-17.329-42.921 8.137-8.187 18.343-15.556 23.927-8.424 0 0 8.08 19.251 19.278 46.28-7.657 4.264-18.296 8.553-25.876 5.065z"/><path fill="#F3AA78" d="M369.065 386.354s37.633 3.158 38.951 13.158c1.312 10.005-1.581 27.639-37.106 31.065h-36.796s11.004-30.538 10.483-31.587c-.527-1.054 24.468-12.636 24.468-12.636z"/><path fill="#F7C29E" d="M429.447 535.567c5.094 2.708 6.866 9.153 3.973 14.145-17.313 29.872-86.175 148.599-92.376 158.259-7.104 11.054-24.474 37.117-82.105 50.539-57.632 13.427-81.315 52.12-81.315 52.12H.001s41.843-66.333 76.581-238.488c0 0 26.838-142.934 77.359-138.196 0 0 30.787-32.378 60.791-26.057 0 0 56.836-33.96 89.204-33.96l77.747-91.91c7.7-9.095 21.26-10.879 30.72-3.638 3.043 2.33 5.362 5.409 6.003 9.473 2.372 15.003-17.365 52.911-48.944 98.711-31.578 45.8-109.733 191.107-75.785 255.073 0 0 34.732-26.063 64.736-67.914 25.119-35.051 54.671-46.839 71.034-38.157z"/><path fill="#F19C61" d="M303.647 373.966c-10.312 8.832-19.984 18.414-29.113 28.481-12.332 13.427-27.904 33.33-37.049 48.699-11.526 19.009-19.137 35.676-22.733 56.602l.233.051c4.138-19.664 14.962-40.838 24.386-55.469 7.052-11.437 20.113-29.608 36.568-48.658 8.272-9.535 18.755-20.807 27.873-29.536l-.165-.17zm-88.409 33.676c-8.395 4.294-15.877 10.289-22.493 17.064-6.689 6.745-12.254 14.394-17.043 22.746a111.007 111.007 0 0 0-10.671 26.341c-2.038 8.59-3.358 14.414-3.574 28.007l.237.02c.782-9.308 2.482-18.543 5.122-27.5 2.666-8.666 6.41-17.979 10.945-25.705 4.541-8.15 10.074-15.748 16.357-22.647 5.945-6.507 13.723-13.536 21.241-18.12l-.121-.206zm-60.644 25.643c-7.424 5.613-14.938 15.556-18.584 22.275-4.584 7.886-8.213 17.044-10.608 27.071-1.759 6.413-2.201 12.641-2.476 19.163l.231.031c1.098-6.321 1.782-11.034 4.033-18.683 3.447-11.602 6.156-17.571 10.778-26.518 2.764-5.514 9.935-16.434 16.731-23.168l-.105-.171zm238.998 139.049c-1.576-7.995 7.74-20.673 16.192-30.239 5.275-5.974 13.603-8.207 20.935-5.711 4.092 3.034 5.342 8.781 2.702 13.329-4.65 8.026-13.03 22.471-22.909 39.489-7.398-3.767-15.463-9.473-16.92-16.868zm-7.465-254.241c-4.49-.899-24.867-7.679-23.616-11.395l20.097-23.758a22.87 22.87 0 0 1 15.319-8.006l.093-.01c.166-.015.532-.041 1.049-.041 2.692.005 9.331.77 10.788 8.067 1.441 7.21-10.488 24.73-15.748 32.011a7.914 7.914 0 0 1-7.982 3.132z"/><path fill="#292929" d="M742.833 686.456c-22.26 13.68-93.925 54.586-168.026 63.304-4.341.512-7.395 4.497-6.111 7.933l12.945 34.684c.857 2.294 3.436 3.633 6.332 3.281 21.838-2.651 111.944-16.217 175.342-65.278 2.158-1.669 3.068-4.202 2.261-6.362l-13.21-35.396c-1.245-3.334-5.909-4.393-9.533-2.166z"/><path fill="#141414" d="m749.336 719.62.245-.088a2.514 2.514 0 0 0 1.474-3.235l-3.985-10.678a2.509 2.509 0 0 0-3.231-1.473l-.245.088a2.516 2.516 0 0 0-1.475 3.236l3.985 10.677a2.509 2.509 0 0 0 3.232 1.473zm-13.332 8.217.245-.088a2.513 2.513 0 0 0 1.474-3.235l-3.985-10.677a2.513 2.513 0 0 0-3.232-1.473l-.245.088a2.516 2.516 0 0 0-1.475 3.235l3.986 10.677a2.508 2.508 0 0 0 3.232 1.473zm-13.349 8.166.245-.093a2.515 2.515 0 0 0 1.475-3.235l-3.985-10.678a2.513 2.513 0 0 0-3.232-1.473l-.245.093a2.51 2.51 0 0 0-1.475 3.23l3.985 10.678a2.512 2.512 0 0 0 3.232 1.478zm-13.737 6.636.245-.093a2.513 2.513 0 0 0 1.475-3.231l-3.986-10.677a2.511 2.511 0 0 0-3.232-1.478l-.245.093a2.51 2.51 0 0 0-1.474 3.23l3.985 10.683a2.513 2.513 0 0 0 3.232 1.473zm-13.519 7.716.244-.093a2.511 2.511 0 0 0 1.475-3.23l-3.985-10.678a2.512 2.512 0 0 0-3.232-1.478l-.245.093a2.51 2.51 0 0 0-1.474 3.23l3.984 10.683a2.514 2.514 0 0 0 3.233 1.473zm-14.114 6.119.245-.093a2.516 2.516 0 0 0 1.475-3.236l-3.986-10.677a2.512 2.512 0 0 0-3.231-1.473l-.245.093a2.51 2.51 0 0 0-1.475 3.23l3.985 10.678a2.512 2.512 0 0 0 3.232 1.478zm-14.391 5.374.245-.092a2.516 2.516 0 0 0 1.475-3.236l-3.985-10.677a2.513 2.513 0 0 0-3.232-1.473l-.245.088a2.517 2.517 0 0 0-1.475 3.235l3.986 10.677a2.513 2.513 0 0 0 3.231 1.478zm-14.668 4.631.245-.093a2.515 2.515 0 0 0 1.475-3.235l-3.985-10.678a2.512 2.512 0 0 0-3.232-1.472l-.245.087a2.514 2.514 0 0 0-1.474 3.236l3.985 10.677a2.514 2.514 0 0 0 3.231 1.478zm-15.261 3.029.245-.088a2.514 2.514 0 0 0 1.474-3.235l-3.985-10.678a2.512 2.512 0 0 0-3.232-1.472l-.245.087a2.515 2.515 0 0 0-1.474 3.236l3.985 10.677a2.508 2.508 0 0 0 3.232 1.473zm-14.863 4.113.245-.093a2.51 2.51 0 0 0 1.474-3.23l-3.985-10.682a2.512 2.512 0 0 0-3.231-1.473l-.246.093a2.513 2.513 0 0 0-1.475 3.23l3.986 10.678a2.511 2.511 0 0 0 3.232 1.477zm-15.431 2.585.245-.088a2.516 2.516 0 0 0 1.475-3.236l-3.985-10.677a2.51 2.51 0 0 0-3.233-1.473l-.245.088a2.515 2.515 0 0 0-1.474 3.235l3.985 10.678a2.51 2.51 0 0 0 3.232 1.473zm-15.452 2.532.246-.093a2.507 2.507 0 0 0 1.474-3.23l-3.985-10.678a2.512 2.512 0 0 0-3.232-1.478l-.245.093a2.516 2.516 0 0 0-1.475 3.236l3.986 10.677a2.512 2.512 0 0 0 3.231 1.473z"/><path fill="#7FBF43" d="m698.845 766.769-.061-.161c.236-.031.47-.087.701-.17l17.536-6.548c1.732-.651 2.572-2.698 1.874-4.569l-15.814-42.368c-.697-1.871-2.674-2.868-4.406-2.222l-17.537 6.553c-1.026.382-1.736 1.261-2.001 2.3-1.376.599-2.762 1.204-4.166 1.798-.469-3.561 1.359-7.023 4.623-8.238l17.536-6.553c3.844-1.432 8.231.78 9.781 4.93l15.813 42.369c1.55 4.155-.315 8.703-4.158 10.134l-17.537 6.554c-2.63.981-5.515.253-7.571-1.634a357.039 357.039 0 0 0 5.387-2.175z"/><path fill="#fff" d="m702.695 733.15 7.628-2.853c1.367-.506 2.923.274 3.475 1.752.551 1.478-.11 3.091-1.478 3.602l-7.628 2.848-1.997-5.349z"/><path fill="#9CE3EC" d="M177.622 810.63s23.684-38.693 81.315-52.12c.057-.01.113-.026.17-.036-.057.01-.107.026-.17.036-57.631 13.427-81.315 52.12-81.315 52.12zM0 810.63v-.005.005zm.006-.005v-.005.005zm0-.005c.006-.005.006-.01.006-.015 0 .005 0 .01-.006.015zm.013-.021c.796-1.276 27.847-45.071 56.296-151.405C27.859 765.533.815 809.328.019 810.599zm259.132-52.141zm.188-.041c.031-.005.062-.016.094-.021-.032.005-.063.016-.094.021zm.163-.042a.658.658 0 0 0 .094-.02c-.025.01-.063.015-.094.02zm.169-.036c.031-.01.063-.015.088-.02-.025.005-.057.01-.088.02zm.169-.041c.025-.005.057-.01.082-.021a.412.412 0 0 1-.082.021zm.163-.036c.025-.01.057-.016.082-.021-.025.005-.057.011-.082.021zm.163-.042zm.176-.041.063-.015-.063.015zm.15-.036c.032-.005.057-.016.088-.021-.025.005-.056.016-.088.021zm.17-.042.075-.015-.075.015zm.157-.036c.025-.005.056-.015.081-.02-.025.005-.056.015-.081.02zm.169-.041a1.3 1.3 0 0 0 .069-.015l-.069.015zm.157-.041.081-.016-.081.016zm.169-.036c.019-.006.044-.016.069-.021-.025.005-.05.015-.069.021zm.157-.042c.018-.005.05-.01.069-.015-.019.005-.051.01-.069.015zm.169-.041c.019-.005.038-.01.056-.01-.018 0-.037.005-.056.01zm.157-.036c.018-.006.044-.011.062-.016-.018.005-.044.01-.062.016zm.163-.042c.025-.005.05-.01.075-.02-.025.01-.05.015-.075.02zm.15-.036a.746.746 0 0 1 .088-.021c-.025.006-.063.011-.088.021zm.17-.041a.412.412 0 0 1 .062-.016c-.025.005-.044.011-.062.016zm.206-.052a.645.645 0 0 1 .107-.026c-.038.005-.069.016-.107.026zm.17-.041c.037-.011.069-.021.1-.026a.614.614 0 0 0-.1.026zm.188-.052.063-.015a.494.494 0 0 1-.063.015zm.163-.036c.019-.005.044-.016.063-.021-.025.005-.044.016-.063.021zm.157-.041zm.163-.042c.018-.005.044-.01.056-.015-.012.005-.044.01-.056.015zm.163-.041c.018-.005.031-.01.056-.016-.025.006-.038.011-.056.016zm.15-.041.063-.016c-.019.005-.038.016-.063.016zm.157-.037zm.157-.041.069-.015a1.3 1.3 0 0 0-.069.015zm.15-.041.075-.016-.075.016zm.169-.042.063-.015-.063.015zm.151-.036c.025-.005.044-.015.069-.021a.454.454 0 0 0-.069.021zm.157-.041c.019-.005.044-.01.069-.021l-.069.021zm.163-.042.05-.015-.05.015zm.157-.041a.347.347 0 0 0 .043-.015c-.018.005-.025.01-.043.015zm.156-.041.051-.016-.051.016zm.151-.042c.019-.005.037-.01.063-.015-.026.005-.044.01-.063.015zm.157-.041c.012-.005.031-.005.037-.01-.006.005-.025.005-.037.01zm.896-.238c.013 0 .013-.005.025-.005-.012 0-.012.005-.025.005zm.132-.036c.019 0 .031-.005.056-.01-.025.005-.044.01-.056.01zm.15-.041a.192.192 0 0 0 .057-.011c-.025.006-.032.006-.057.011zm.157-.041zm.157-.042c.012 0 .038-.01.044-.01-.013.005-.032.005-.044.01zm.144-.036c.019-.005.038-.01.063-.021a.385.385 0 0 1-.063.021zm.151-.041a.237.237 0 0 0 .062-.021c-.025.01-.037.015-.062.021zm.15-.042.069-.02c-.025.005-.05.015-.069.02zm.151-.041a.42.42 0 0 1 .075-.021c-.025.005-.05.016-.075.021zm.15-.042a.365.365 0 0 1 .082-.02c-.032.005-.057.015-.082.02zm.151-.041a.479.479 0 0 1 .081-.02c-.025.005-.05.01-.081.02zm.163-.041a.205.205 0 0 1 .062-.021c-.018.005-.044.011-.062.021zm.15-.047zm.144-.041zm.157-.041c.025-.006.05-.011.075-.021-.025.005-.05.015-.075.021zm.151-.042c.025-.005.05-.015.075-.02-.019.005-.05.015-.075.02zm.156-.041c.025-.01.051-.015.076-.021a.362.362 0 0 0-.076.021zm.151-.041zm.552-.161zm.125-.036zm.144-.036c.032-.01.057-.015.088-.026-.031.011-.056.016-.088.026zm.144-.041zm.151-.047zm.15-.041c.026-.01.057-.016.088-.026l-.088.026zm.151-.041a.489.489 0 0 1 .088-.026c-.032.005-.057.015-.088.026zm.15-.047c.032-.005.057-.016.082-.026-.025.01-.05.016-.082.026zm.157-.041a.316.316 0 0 1 .082-.026c-.032.01-.057.015-.082.026zm.151-.047c.025-.005.05-.015.075-.02-.025.005-.05.015-.075.02zm.144-.041c.031-.011.056-.016.088-.026-.032.01-.057.015-.088.026zm.15-.047c.032-.005.051-.015.082-.02a.467.467 0 0 1-.082.02zm.151-.041.088-.026a.586.586 0 0 1-.088.026zm.144-.041zm.151-.047c.031-.005.056-.015.087-.026-.031.011-.056.021-.087.026zm.144-.041c.031-.011.063-.016.088-.026-.025.01-.057.015-.088.026zm.15-.047c.025-.005.057-.015.088-.02-.031.005-.063.015-.088.02zm.145-.041.1-.031-.1.031zm.15-.047zm.615-.181c.037-.01.087-.025.119-.036-.038.011-.076.021-.119.036zm.169-.051c.037-.011.063-.021.1-.031-.037.01-.063.02-.1.031zm.15-.047c.032-.005.063-.02.094-.026-.031.011-.062.016-.094.026zm.145-.041.094-.031-.094.031zm.15-.047.094-.031-.094.031zm.144-.041.094-.031-.094.031zm.144-.047.101-.03c-.038.01-.063.02-.101.03zm.145-.046c.037-.01.069-.021.1-.031-.031.01-.063.021-.1.031zm.15-.046c.032-.006.063-.016.094-.026a.77.77 0 0 1-.094.026zm.151-.042.087-.031c-.031.011-.062.021-.087.031zm.144-.046c.031-.011.056-.016.088-.026a.69.69 0 0 0-.088.026zm.144-.047c.031-.01.057-.015.088-.026-.031.011-.057.021-.088.026zm.144-.041c.032-.011.069-.021.094-.031a5.13 5.13 0 0 0-.094.031zm.138-.047.107-.031-.107.031zm.151-.046c.031-.011.069-.021.1-.031a4.44 4.44 0 0 1-.1.031zm.138-.041a.89.89 0 0 0 .106-.037l-.106.037zm.144-.047c.044-.015.081-.026.125-.036-.044.01-.081.026-.125.036zm.144-.047c.038-.01.082-.025.119-.036a.664.664 0 0 1-.119.036zm.144-.046c.295-.088.577-.181.859-.274-.282.093-.564.186-.859.274zm.891-.279.119-.042-.119.042zm.138-.047zm.156-.051.107-.031c-.038.01-.075.02-.107.031zm.138-.042zm.145-.046c.031-.011.069-.026.106-.036-.037.01-.075.025-.106.036zm.144-.047c.031-.01.069-.026.1-.036-.037.01-.069.026-.1.036zm.138-.046c.037-.011.069-.026.106-.036-.037.01-.069.025-.106.036zm.144-.047c.038-.01.075-.025.107-.036-.032.011-.069.026-.107.036zm.132-.046c.044-.011.088-.026.125-.036-.037.01-.081.025-.125.036zm.144-.047c.038-.01.081-.026.119-.036-.038.01-.081.026-.119.036zm.144-.046zm.132-.042c.476-.16.947-.315 1.411-.475-.464.16-.935.315-1.411.475zm1.411-.475c.05-.015.094-.031.138-.047-.044.016-.088.032-.138.047zm.144-.047.276-.093-.276.093zm.282-.093c.038-.015.088-.031.126-.046-.038.015-.088.031-.126.046zm.144-.051zm.138-.047.126-.046-.126.046zm.132-.046c.05-.016.088-.031.132-.047l-.132.047zm.144-.047c.038-.015.088-.031.126-.046-.038.015-.088.031-.126.046zm.132-.052c.044-.015.094-.031.132-.046-.044.021-.088.031-.132.046zm.138-.046c38.601-13.385 52.998-32.694 59.613-42.802-6.615 10.108-21.019 29.417-59.613 42.802z"/><path fill="#F5B992" d="M0 810.63h177.622s23.684-38.693 81.315-52.12c.063-.01.113-.026.17-.036l.044-.016a.514.514 0 0 0 .112-.026c.026-.005.057-.01.076-.015.031-.005.062-.016.094-.021a.233.233 0 0 0 .069-.021c.031-.005.069-.01.094-.02l.075-.016c.031-.01.063-.015.088-.02a.603.603 0 0 0 .081-.021.412.412 0 0 0 .082-.021l.081-.015c.025-.01.057-.016.082-.021.031-.01.056-.015.081-.021a.365.365 0 0 0 .082-.02c.031-.005.063-.01.094-.021l.063-.015c.031-.006.062-.016.087-.021.032-.005.063-.016.088-.021.025-.005.057-.01.082-.021l.075-.015c.025-.01.056-.015.082-.021.025-.005.056-.015.081-.02.031-.006.056-.016.088-.021l.069-.015c.031-.011.062-.016.088-.026l.081-.016c.025-.005.057-.015.088-.02.019-.006.044-.016.069-.021a.488.488 0 0 0 .088-.021c.018-.005.05-.01.069-.015.037-.011.062-.016.1-.026.019-.005.038-.01.056-.01a.497.497 0 0 1 .101-.026c.018-.006.044-.011.062-.016.032-.01.069-.015.101-.026.025-.005.05-.01.075-.02l.075-.016c.025-.01.063-.015.088-.021.025-.01.056-.015.082-.02.018-.005.037-.011.062-.016.044-.015.094-.026.144-.036.038-.01.069-.021.107-.026.025-.01.044-.01.063-.015a.614.614 0 0 1 .1-.026c.025-.01.063-.016.088-.026a.494.494 0 0 0 .063-.015c.031-.006.069-.016.1-.021.019-.005.038-.016.063-.021.037-.005.069-.015.094-.02l.062-.016c.032-.01.063-.016.101-.026.012-.005.044-.01.056-.015.038-.011.075-.016.107-.026.018-.005.031-.01.056-.016a.654.654 0 0 0 .094-.025c.025 0 .044-.011.063-.016.031-.005.056-.015.094-.021a1.3 1.3 0 0 1 .069-.015c.025-.01.056-.016.088-.026a1.3 1.3 0 0 1 .069-.015c.025-.011.056-.016.081-.026l.075-.016c.032-.01.063-.015.094-.026l.063-.015c.032-.006.063-.016.088-.021a.454.454 0 0 1 .069-.021c.025-.005.056-.015.088-.02l.069-.021c.031-.005.062-.015.094-.021l.05-.015c.038-.01.075-.021.107-.026.018-.005.025-.01.043-.015.038-.011.069-.016.113-.026l.051-.016a.641.641 0 0 0 .1-.026c.019-.005.037-.01.063-.015.031-.01.062-.016.094-.026.012-.005.031-.005.037-.01.289-.073.577-.15.859-.228.013 0 .013-.005.025-.005.038-.01.076-.02.107-.031.012 0 .031-.005.056-.01l.094-.031c.025-.005.032-.005.057-.011l.1-.03a.172.172 0 0 0 .05-.011l.107-.031c.012-.005.031-.005.044-.01.037-.011.063-.016.1-.026.019-.005.038-.01.063-.021l.088-.02c.025-.006.037-.011.062-.021a.45.45 0 0 0 .088-.021c.019-.005.044-.015.069-.02.025-.006.057-.016.082-.021.025-.005.05-.016.075-.021l.075-.021c.025-.005.05-.015.082-.02.025-.005.05-.016.069-.021.031-.01.056-.015.081-.02.025-.011.057-.016.082-.021.018-.01.044-.016.062-.021.032-.01.057-.015.088-.026a1.3 1.3 0 0 0 .069-.015c.025-.011.05-.016.075-.026a.45.45 0 0 0 .088-.021c.025-.005.044-.015.069-.02.025-.006.05-.016.075-.021.025-.005.05-.015.076-.021.025-.005.056-.015.075-.02.031-.006.056-.016.081-.021a.362.362 0 0 1 .076-.021c.018-.01.05-.015.075-.02a.187.187 0 0 1 .063-.021c.163-.046.319-.093.489-.14a.185.185 0 0 0 .05-.01c.025-.01.05-.015.075-.026a.316.316 0 0 0 .075-.02.716.716 0 0 1 .069-.016c.032-.01.057-.015.088-.026a.353.353 0 0 1 .056-.015.44.44 0 0 1 .095-.026c.012-.005.031-.016.056-.021a.489.489 0 0 0 .088-.026.819.819 0 0 0 .062-.015l.088-.026.063-.015c.031-.011.056-.021.088-.026.025-.011.044-.016.062-.021.032-.01.057-.016.082-.026l.075-.015c.025-.011.05-.016.082-.026.019-.005.044-.016.069-.021.025-.005.05-.015.075-.02.025-.011.05-.016.069-.021.031-.011.056-.016.088-.026a.378.378 0 0 0 .062-.021.467.467 0 0 0 .082-.02c.019-.005.044-.016.069-.021a.586.586 0 0 0 .088-.026c.018-.005.031-.01.056-.015a.55.55 0 0 1 .094-.026c.013-.006.032-.016.057-.021.031-.005.056-.015.087-.026.025-.005.038-.01.057-.015.031-.011.063-.016.088-.026.018-.005.043-.016.062-.021.025-.005.057-.015.088-.02a.22.22 0 0 1 .057-.021l.1-.031c.019-.005.031-.01.05-.016.201-.056.395-.113.589-.175.013 0 .019-.006.026-.006.043-.015.081-.025.119-.036l.05-.015c.037-.011.063-.021.1-.031.019-.005.032-.01.05-.016.032-.01.063-.015.094-.026l.051-.015.094-.031c.025-.005.037-.01.056-.016l.094-.031c.019 0 .031-.01.05-.01l.094-.031c.019-.005.032-.01.05-.016.038-.01.063-.02.101-.03.019-.006.025-.011.044-.016.037-.01.069-.021.1-.031a.18.18 0 0 0 .05-.015c.032-.006.063-.016.094-.026l.057-.016c.025-.01.056-.02.087-.031.019-.005.032-.01.057-.015a.69.69 0 0 1 .088-.026c.012-.005.037-.016.056-.021.031-.005.057-.015.088-.026.012-.005.038-.01.056-.015l.094-.031a.218.218 0 0 0 .044-.016l.107-.031.044-.015a4.44 4.44 0 0 0 .1-.031c.019-.005.025-.005.038-.01l.106-.037a.102.102 0 0 0 .038-.01c.044-.01.081-.026.125-.036.007-.005.013-.005.019-.011a.664.664 0 0 0 .119-.036c.013-.005.019-.005.025-.01.295-.088.577-.181.859-.274.013 0 .019-.005.032-.005l.119-.042a1.571 1.571 0 0 1 .282-.087 1.052 1.052 0 0 1 .144-.047c.007-.005.019-.005.032-.01.031-.011.069-.026.106-.036.013-.006.019-.006.038-.011.031-.01.063-.026.1-.036.019-.005.025-.005.038-.01.037-.011.069-.026.106-.036.013-.006.026-.006.038-.011.038-.01.075-.025.107-.036.012-.005.025-.005.025-.01.044-.011.088-.026.125-.036.006-.006.013-.006.019-.011.038-.01.081-.026.119-.036l.025-.01c.038-.011.088-.026.132-.042.476-.16.947-.315 1.411-.475.05-.015.094-.031.138-.047h.006l.276-.093h.006c.038-.015.088-.031.126-.046.006 0 .012-.005.018-.005.038-.016.082-.031.119-.042.007-.005.013-.005.019-.005l.126-.046h.006l.132-.047h.012c.038-.015.088-.031.126-.046.006 0 .006 0 .006-.006.044-.015.088-.025.132-.046h.006c38.594-13.385 52.998-32.694 59.613-42.802-15.846 7.431-120.361 29.592-162.887 29.592-4.114 0-7.65-.207-10.466-.656-27.746-4.409-97.668.176-110.34-79.305C27.865 765.528.815 809.323.019 810.599l-.007.006c0 .005 0 .01-.006.015v.005H0v.005z"/><path fill="#9CE3EC" d="M285.432 607.968c-1.101-28.203 7.775-62.984 20.521-97.011v-.92c-12.911 34.167-21.844 69.201-20.521 97.931z"/><path fill="#292726" d="M305.951 510.957c4.872-13.018 10.318-25.933 15.99-38.327v-.553c-5.672 12.27-11.118 25.061-15.99 37.96v.92z"/><path fill="#FDF3EC" d="M321.94 472.63a694.715 694.715 0 0 1 21.001-42.053h-.087c-6.908 12.647-14.074 26.694-20.914 41.501v.552z"/><path fill="#F1A26F" d="M342.856 430.577h.087c6.061-11.178 11.904-21.204 17.127-29.603-5.264 8.466-11.139 18.487-17.214 29.603z"/><path fill="#F5B992" d="m273.154 661.897 20.522-20.259c-5.188-9.416-7.745-20.864-8.246-33.67-1.323-28.73 7.61-63.764 20.521-97.931 4.872-12.899 10.318-25.691 15.991-37.96 6.84-14.806 14.006-28.853 20.914-41.5 6.075-11.116 11.95-21.137 17.214-29.603-17.979 21.789-37.059 47.294-56.258 76.778-82.499 126.691-30.658 184.145-30.658 184.145z"/><path fill="#fff" d="M566.382 389.426c0 20.957 16.986 37.95 37.94 37.95 20.953 0 37.939-16.993 37.939-37.95 0-20.962-16.986-37.955-37.939-37.955-20.954 0-37.94 16.993-37.94 37.955z"/><path stroke="#00080C" stroke-width="2" d="M596.398 389.448H611.3a5.599 5.599 0 0 1 5.604 5.604v.297a5.6 5.6 0 0 1-5.604 5.605h-14.902a5.6 5.6 0 0 1-5.605-5.605v-.297a5.6 5.6 0 0 1 5.605-5.604z"/><path fill="#00080C" stroke="#00080C" stroke-width=".007" d="M596.859 394.063h14.309c.626 0 1.121.495 1.121 1.121 0 .593-.495 1.121-1.121 1.121h-14.309c-.593 0-1.121-.528-1.121-1.121 0-.626.528-1.121 1.121-1.121zm-.201 14.276h14.605c.594 0 1.088.494 1.088 1.088 0 .626-.494 1.088-1.088 1.088h-14.605a1.077 1.077 0 0 1-1.088-1.088c0-.594.495-1.088 1.088-1.088z"/><path fill="#00080C" stroke="#00080C" stroke-width=".007" d="M596.101 407.119h.956c.33 0 .594.263.594.56v1.616a.591.591 0 0 1-.594.593h-.956a.591.591 0 0 1-.593-.593v-1.616c0-.297.264-.56.593-.56zm14.602 0h.989c.33 0 .593.263.593.56v1.418a.59.59 0 0 1-.593.593h-.989a.59.59 0 0 1-.594-.593v-1.418c0-.297.264-.56.594-.56zm13.652-15.496h.033c.659 0 1.187.528 1.187 1.187v9.396c0 .66-.528 1.187-1.187 1.187h-.033c-.66 0-1.187-.527-1.187-1.187v-9.396c0-.659.527-1.187 1.187-1.187z"/><path fill="#00080C" stroke="#00080C" stroke-width=".007" d="M624.355 396.239h1.22c.659 0 1.187.528 1.187 1.187v.165c0 .659-.528 1.187-1.187 1.187h-1.22c-.66 0-1.187-.528-1.187-1.187v-.165c0-.659.527-1.187 1.187-1.187zm-40.785-4.682c.659 0 1.187.528 1.187 1.187v9.462c0 .66-.528 1.187-1.187 1.187-.66 0-1.187-.527-1.187-1.187v-9.462c0-.659.527-1.187 1.187-1.187z"/><path fill="#00080C" stroke="#00080C" stroke-width=".007" d="M582.384 396.305h1.121c.66 0 1.187.527 1.187 1.154 0 .659-.527 1.187-1.187 1.187h-1.121c-.626 0-1.154-.528-1.154-1.187 0-.627.528-1.154 1.154-1.154zm4.22 19.188h34.716c.33 0 .594.264.594.593v1.055c0 .33-.264.594-.594.594h-34.716a.59.59 0 0 1-.593-.594v-1.055a.59.59 0 0 1 .593-.593z"/><path fill="#00080C" stroke="#00080C" stroke-width=".007" d="M620.135 392.645h1.187c.329 0 .593.264.593.561v23.935c0 .33-.264.594-.593.594h-1.187c-.297 0-.561-.264-.561-.594v-23.935c0-.297.264-.561.561-.561zm-33.531 1.814h1.154a.59.59 0 0 1 .594.593v22.089c0 .33-.264.594-.594.594h-1.154a.59.59 0 0 1-.593-.594v-22.089a.59.59 0 0 1 .593-.593z"/><path fill="#00080C" stroke="#00080C" d="M603.385 366.144h1.154c.03 0 .056.012.074.029a.071.071 0 0 1 .017.024l.003.006v12.662c0 .053-.04.093-.094.093h-1.154a.091.091 0 0 1-.093-.093v-12.662l.002-.006a.078.078 0 0 1 .018-.024.107.107 0 0 1 .073-.029z"/><path stroke="#00080C" stroke-width="2" d="M607.571 364.193a3.637 3.637 0 0 1-3.626 3.627c-2.011 0-3.66-1.615-3.66-3.627a3.672 3.672 0 0 1 3.66-3.659c1.978 0 3.626 1.648 3.626 3.659zm-20.406 30.497s.462-15.529 16.781-16.122c16.353-.594 16.979 15.001 16.979 15.001"/><path fill="#F8FAFB" d="M290.732 95.632h257.591c8.359 0 15.134 6.775 15.134 15.137v107.357c0 8.362-6.775 15.138-15.134 15.138h-26.749c1.552 11.819 3.585 28.771 2.47 28.771-1.187 0-14.168-17.83-22.018-28.771H290.732c-8.36 0-15.138-6.776-15.138-15.138V110.769c0-8.362 6.778-15.137 15.138-15.137z"/><path fill="#fff" d="M296.002 164.828c0 20.961 16.987 37.954 37.938 37.954 20.953 0 37.939-16.993 37.939-37.954 0-20.957-16.986-37.95-37.939-37.95-20.951 0-37.938 16.993-37.938 37.95z"/><path fill="#000" d="M353.513 165.376s3.762-15.442-5.2-21.226c-8.962-5.783-18.531-7.106-25.071-3.772-9.065 4.62-12.79 17.101-9.889 24.006l24.061-6.047 16.099 7.039z"/><path fill="#F7C29E" d="M327.762 194.627h11.14v-11.121h-11.14v11.121z"/><path fill="#F19A5E" d="M327.762 190.173v-6.667h11.14v5.674c-2.398 1.287-5.949 2.026-11.14.993z"/><path fill="#F7C29E" d="M310.194 163.588c1.163-.569 2.512-.471 3.733.15-.419-10.978 8.545-20.213 19.836-19.82 11.291-.393 20.255 8.842 19.836 19.82 1.221-.621 2.57-.719 3.732-.15 2.23 1.101 2.924 4.248 1.548 7.034-1.375 2.78-4.297 4.15-6.527 3.049a3.516 3.516 0 0 1-.836-.574c-1.277 9.075-8.859 15.882-17.753 15.753-8.895.129-16.476-6.678-17.754-15.753a3.49 3.49 0 0 1-.835.574c-2.23 1.101-5.153-.269-6.528-3.049-1.374-2.786-.682-5.933 1.548-7.034z"/><path fill="#fff" d="M326.477 176.56c.489 2.196 3.008 3.927 6.095 4.02 3.087.099 5.707-1.478 6.33-3.643l-12.425-.377z"/><path fill="#000" d="M353.6 163.738s-14.579-4.419-20.96-11.794c0 0 1.806 8.884 3.154 10.305-.426.284-14.562-6.594-16.483-12.936-1.919-6.346 14.454-8.625 14.454-8.625s5.611 2.387 5.895 2.532c.283.14 5.546.755 6.149 2.098.786 1.747 4.501 1.902 4.501 1.902l2.345 4.884 1.642 5.132-.697 6.502z"/><path fill="#000" d="M365.543 143.649c-3.221 1.297-6.94 1.897-10.796.708-8.507-2.615-11.878-1.597-13.009-.956-.681.388-1.49.538-2.233.289-.839-.279-1.618-1.038-1.375-2.956 0 0-.337-8.088 6.592-12.693 8.645 2.605 15.988 8.212 20.821 15.608z"/><path fill="#7FBF43" d="m347.237 143.117.003-.005a.717.717 0 0 0-.176-1.034c-1.422-.935-5.077-3.039-9.466-3.266a.722.722 0 0 0-.073 1.442c4.012.212 7.452 2.191 8.748 3.033.315.202.736.13.964-.17z"/><path d="M388.014 133.163h144.729a3.134 3.134 0 0 0 3.136-3.132v-.326a3.138 3.138 0 0 0-3.136-3.137H388.014a3.138 3.138 0 0 0-3.136 3.137v.326a3.134 3.134 0 0 0 3.136 3.132zm115.337 17.401h29.392a3.134 3.134 0 0 0 3.136-3.132v-.326a3.138 3.138 0 0 0-3.136-3.137h-29.392a3.138 3.138 0 0 0-3.136 3.137v.326a3.134 3.134 0 0 0 3.136 3.132zm-115.337 0h95.612a3.134 3.134 0 0 0 3.136-3.132v-.326a3.139 3.139 0 0 0-3.136-3.137h-95.612a3.139 3.139 0 0 0-3.136 3.137v.326a3.134 3.134 0 0 0 3.136 3.132zm72.992 17.406h71.737a3.138 3.138 0 0 0 3.136-3.137v-.326a3.138 3.138 0 0 0-3.136-3.137h-71.737a3.138 3.138 0 0 0-3.136 3.137v.326a3.138 3.138 0 0 0 3.136 3.137zm-72.99 0h55.313a3.138 3.138 0 0 0 3.136-3.137v-.326a3.138 3.138 0 0 0-3.136-3.137h-55.313a3.139 3.139 0 0 0-3.136 3.137v.326a3.139 3.139 0 0 0 3.136 3.137zm-.002 17.401h144.729a3.138 3.138 0 0 0 3.136-3.137v-.326a3.134 3.134 0 0 0-3.136-3.132H388.014a3.134 3.134 0 0 0-3.136 3.132v.326a3.138 3.138 0 0 0 3.136 3.137zM511.792 363.547h44.559a3.131 3.131 0 0 0 3.133-3.132v-.326a3.136 3.136 0 0 0-3.133-3.137h-44.559a3.136 3.136 0 0 0-3.133 3.137v.326a3.132 3.132 0 0 0 3.133 3.132zm16.494 17.401h28.065a3.131 3.131 0 0 0 3.133-3.132v-.325a3.136 3.136 0 0 0-3.133-3.138h-28.065a3.137 3.137 0 0 0-3.134 3.138v.325a3.133 3.133 0 0 0 3.134 3.132zm-48.172 0h35.984a3.131 3.131 0 0 0 3.132-3.132v-.325a3.136 3.136 0 0 0-3.132-3.138h-35.984a3.134 3.134 0 0 0-3.131 3.138v.325a3.13 3.13 0 0 0 3.131 3.132zm-62.871 0h50.689a3.13 3.13 0 0 0 3.13-3.132v-.325c0-1.732-1.4-3.138-3.13-3.138h-50.689a3.134 3.134 0 0 0-3.131 3.138v.325a3.13 3.13 0 0 0 3.131 3.132zm.002-17.401h79.858a3.13 3.13 0 0 0 3.131-3.132v-.326c0-1.731-1.4-3.137-3.131-3.137h-79.858a3.134 3.134 0 0 0-3.131 3.137v.326a3.13 3.13 0 0 0 3.131 3.132zm0 51.511h139.106a3.131 3.131 0 0 0 3.133-3.132v-.326a3.136 3.136 0 0 0-3.133-3.137H417.245a3.134 3.134 0 0 0-3.131 3.137v.326a3.13 3.13 0 0 0 3.131 3.132zm70.275-16.709h68.831a3.13 3.13 0 0 0 3.133-3.132v-.325a3.135 3.135 0 0 0-3.133-3.137H487.52a3.137 3.137 0 0 0-3.136 3.137v.325a3.133 3.133 0 0 0 3.136 3.132zm-70.276 0h53.024c1.73 0 3.13-1.4 3.13-3.132v-.325c0-1.732-1.4-3.137-3.13-3.137h-53.024a3.133 3.133 0 0 0-3.131 3.137v.325c0 1.732 1.4 3.132 3.131 3.132z" fill="#00080C" opacity=".6"/><path fill="#015077" d="m843.903 633.775-12.137 25.353 23.285-7.62 67.167-10.694-45.872-10.413s-24.49-1.871-26.076-1.159c-1.592.716-6.367 4.533-6.367 4.533z"/><path fill="#08C" d="m829.385 611.358 92.836 29.456-78.316-7.039-14.52-22.417zm35.618 58.76-17.924-27.395 75.141-1.909-57.217 29.304z"/><path fill="#292929" d="M829.864 644.474c3.976-.181 6.681.381 6.711.386l.359-1.703c-.115-.024-2.949-.611-7.148-.422l.078 1.739zm-23.722 9.646c2.991-3.532 6.558-6.298 10.61-8.218l.747 1.573c-3.828 1.815-7.204 4.428-10.03 7.766l-1.327-1.121zm-10.21 24.309c.794-4.667 1.958-8.962 3.459-12.763l1.62.642c-1.46 3.686-2.59 7.864-3.363 12.41l-.019.1-1.71-.309.013-.08zm-2.201 13.062 1.714.297c-.885 5.066-1.676 9.181-2.498 12.956l-1.698-.372c.812-3.746 1.601-7.84 2.482-12.881zm-5.717 25.563 1.665.502c-1.357 4.523-2.832 8.597-4.504 12.458l-1.594-.691c1.641-3.795 3.093-7.811 4.433-12.269zm-18.453 34.008a66.835 66.835 0 0 0 3.937-4.554 70.013 70.013 0 0 0 4.021-5.68l1.467.932a71.935 71.935 0 0 1-4.124 5.823 68.362 68.362 0 0 1-4.039 4.676l-1.262-1.197zm-21.103 14.845c4.036-1.832 7.836-3.984 11.288-6.394l.994 1.423c-3.539 2.475-7.43 4.677-11.56 6.553l-.722-1.582zm-24.977 7.153c4.465-.694 8.752-1.614 12.747-2.735l.47 1.677c-4.063 1.139-8.421 2.075-12.951 2.779l-.266-1.721zM198.969 68.669c-5.016-2.023-8.734-2.518-8.771-2.523l.303-2.34c.164.022 4.058.542 9.35 2.675l-.882 2.188zm23.849 23.877c-2.124-5.555-5.272-10.422-9.358-14.468l1.662-1.677c4.326 4.284 7.657 9.431 9.9 15.3l-2.204.845zm4.33 34.997-2.331-.373.023-.14c1.054-6.171 1.482-12.031 1.274-17.403l2.359-.095c.215 5.538-.224 11.565-1.306 17.908l-.019.103zm-5.65 35.232-2.342-.29c.646-5.199 1.482-10.831 2.631-17.716l2.327.386c-1.141 6.858-1.972 12.458-2.616 17.62zm-1.395 35.412-2.355.166c-.406-5.696-.461-11.578-.168-17.989l2.36.11c-.289 6.319-.236 12.111.163 17.713zm6.027 35.117a91.503 91.503 0 0 1-3.073-7.804 97.708 97.708 0 0 1-2.664-9.312l2.298-.539a95.584 95.584 0 0 0 2.6 9.087 89.48 89.48 0 0 0 2.993 7.602l-2.154.966zm20.881 29.255c-4.453-4.265-8.444-8.837-11.865-13.599l1.916-1.378c3.338 4.646 7.233 9.106 11.581 13.268l-1.632 1.709zm29.299 20.778c-5.488-2.94-10.65-6.1-15.34-9.385l1.354-1.933c4.615 3.232 9.695 6.341 15.101 9.237l-1.115 2.081zm25.098 11.226a239.395 239.395 0 0 1-8.825-3.499l.917-2.176c2.812 1.185 5.75 2.35 8.734 3.464l-.826 2.211z"/><path fill="#015077" d="m165.879 48.085 6.948 27.505-21.516-12.19-64.31-23.987 47.457-1.144s24.597 3.042 26.027 4.063c1.431 1.025 5.394 5.753 5.394 5.753z"/><path fill="#08C" d="M184.716 28.808 87.003 39.412l78.877 8.673 18.836-19.277zm-46.96 51.016 23.196-23.519-73.95-16.893 50.754 40.412z"/><path fill="#292929" d="M835.116 513.693c-2.04-4.409-4.17-7.019-4.191-7.046l1.638-1.345c.093.115 2.323 2.85 4.477 7.501l-1.924.89zm.933 30.298c2.025-4.943 2.957-10.065 2.769-15.227l2.119-.076c.199 5.465-.785 10.883-2.926 16.106l-1.962-.803zm-18.686 25.575-1.297-1.676.101-.078c4.485-3.392 8.369-6.966 11.536-10.611l1.603 1.388c-3.265 3.758-7.258 7.434-11.867 10.922l-.076.055zm-25.364 19.594-1.355-1.631c3.62-3.007 7.63-6.18 12.616-9.981l1.287 1.684c-4.964 3.788-8.952 6.944-12.548 9.928zm-22.689 22.326-1.644-1.339c3.237-3.979 6.818-7.864 10.952-11.881l1.478 1.523c-4.076 3.959-7.603 7.784-10.786 11.697zm-17.648 26.697a82.091 82.091 0 0 1 2.787-6.998 87.799 87.799 0 0 1 3.982-7.735l1.836 1.061a85.892 85.892 0 0 0-3.886 7.548 80.227 80.227 0 0 0-2.715 6.817l-2.004-.693zm-4.318 31.995c-.293-5.53-.095-10.978.593-16.199l2.103.276c-.672 5.093-.865 10.409-.577 15.807l-2.119.116zm6.405 31.62c-1.785-5.299-3.221-10.542-4.272-15.577l2.075-.433c1.034 4.954 2.448 10.113 4.206 15.333l-2.009.677zm9.531 22.783a213.517 213.517 0 0 1-3.626-7.717l1.938-.861a204.47 204.47 0 0 0 3.588 7.639l-1.9.939z"/><path fill="#278B32" d="m826.111 479.869-12.364 22.28-6.591-21.212-27.354-55.25 31.774 28.433s14.233 17.117 14.541 18.665c.308 1.551-.006 7.084-.006 7.084z"/><path fill="#43D854" d="m850.298 478.83-70.495-53.143 46.309 54.182 24.186-1.039zm-62.117 4.525 29.649-1.134-38.028-56.534 8.379 57.668z"/><path fill="#278B32" d="m164.896 250.887 15.514 22.279-23.381-3.642-65.69.255 42.107-17.062s23.053-5.593 24.676-5.161c1.629.434 6.774 3.331 6.774 3.331z"/><path fill="#43D854" d="m175.252 227.259-83.911 42.52 73.557-18.892 10.354-23.628z"/><path fill="#43D854" d="m150.439 288.812 12.824-28.902-71.924 9.869 59.1 19.033z"/><path fill="#292929" d="M179.946 258.901c-3.818.445-6.309 1.402-6.336 1.411l-.608-1.567c.106-.041 2.717-1.041 6.749-1.514l.195 1.67zm24.115 5.505c-3.401-2.902-7.232-4.984-11.392-6.184l-.468 1.615c3.932 1.136 7.556 3.101 10.769 5.844l1.091-1.275zm13.514 21.583c-1.483-4.325-3.261-8.238-5.283-11.627l-1.444.863c1.965 3.287 3.692 7.094 5.136 11.307l.033.092 1.582-.561-.024-.074zm4.13 12.109-1.588.55c1.631 4.691 3.026 8.491 4.397 11.961l1.561-.618c-1.358-3.445-2.747-7.225-4.37-11.893zm9.426 23.478-1.509.738c1.997 4.1 4.037 7.754 6.231 11.174l1.412-.907c-2.154-3.362-4.163-6.964-6.134-11.005zm22.88 29.547a64.43 64.43 0 0 1-4.461-3.729 67.148 67.148 0 0 1-4.716-4.789l-1.254 1.118a69.483 69.483 0 0 0 4.837 4.908 65.914 65.914 0 0 0 4.578 3.829l1.016-1.337zm22.426 10.868c-4.132-1.118-8.09-2.578-11.755-4.339l-.726 1.511c3.758 1.809 7.81 3.302 12.039 4.448l.442-1.62zm24.922 2.933c-4.365.033-8.594-.177-12.577-.624l-.187 1.671c4.05.454 8.35.668 12.778.635l-.014-1.682z"/><defs><radialGradient id="a" cx="0" cy="0" r="1" gradientTransform="matrix(458.0003 -222.49969 130.19299 267.9933 376.498 512.5)" gradientUnits="userSpaceOnUse"><stop offset=".023" stop-color="#43D854"/><stop offset=".951" stop-color="#43D854" stop-opacity="0"/></radialGradient><radialGradient id="b" cx="0" cy="0" r="1" gradientTransform="matrix(-171.99897 260.0001 -152.13621 -100.64331 522.998 106)" gradientUnits="userSpaceOnUse"><stop offset=".235" stop-color="#08C"/><stop offset="1" stop-color="#08C" stop-opacity="0"/></radialGradient></defs></svg>