<svg width="370" height="537" fill="none" xmlns="http://www.w3.org/2000/svg"><path fill-rule="evenodd" clip-rule="evenodd" d="m305.345 170.712-47.787 4.879 3.213-13.956-218.774 25.132 60.442 18.734-20.12 14.055s101.642 11.556 147.612 1.699c45.971-9.876 75.414-50.543 75.414-50.543z" fill="url(#a)"/><path d="M122.66 175.951c23.588-1.691 41.411-21.232 39.809-43.647-1.602-22.414-22.022-39.213-45.61-37.522-23.588 1.69-41.411 21.232-39.81 43.646 1.603 22.415 22.023 39.214 45.611 37.523z" fill="#fff"/><path d="m75.795 169.652-.619-.799c-8.783-11.657-12.396-26.132-10.2-40.787 2.176-14.615 10.18-27.93 21.937-36.487 9.721-6.898 21.059-10.537 32.816-10.537 17.746 0 34.034 8.137 44.693 22.312 17.786 25.252 12.656 59.421-11.657 77.854-8.443 6.098-18.444 9.697-29.003 10.437-1.218.08-2.456.14-3.673.14-8.224 0-16.628-1.9-24.932-5.658l-.12-.06-.998-.56-22.735 7.877 4.491-23.732zm14.093-45.684c1.097 5.818 3.453 10.716 6.826 14.135l.12.12.12.14c7.306 9.477 16.667 16.614 27.047 20.633 5.789 1.859 10.28 2.779 13.534 2.779 1.197 0 2.056-.12 2.874-.24.419-.06.819-.12 1.198-.16 3.234-.76 5.689-2.799 7.745-6.438.519-.92.519-2.139.279-3.159-.579-.3-1.437-.64-2.016-.879l-10.599-4.399c-3.314 3.839-4.112 5.058-4.272 5.438-.778 1.9-2.475 3.039-4.531 3.039-.838 0-1.697-.18-2.575-.56-4.451-1.539-8.803-3.878-13.514-7.297l-.219-.16c-3.733-3.259-7.406-7.118-10.3-10.876l-.12-.14-.1-.16c-1.437-2.42-.758-5.359 1.537-7.078.12-.2.28-.46.379-.66.34-.6.719-1.279 1.218-1.859l-.998-1.68.659-.759-.08-.06-.06-.9c-.479-1.22-2.635-5.578-3.813-7.997l-1.397-2.879s-.16-.44-.18-.54c-.08 0-3.513.26-3.513.26-.459.04-1.058.46-1.716 1.199-2.535 2.999-3.793 6.938-3.534 11.137z" fill="#43D854"/><path d="M119.729 84.041c16.088 0 31.898 7.297 42.297 21.113 16.728 23.752 11.857 56.281-11.078 73.675-8.084 5.838-17.646 9.137-27.407 9.837a50.34 50.34 0 0 1-3.473.12c-7.984 0-16.049-1.94-23.714-5.398l-2.036-1.16-19.143 6.618 3.813-19.974-1.437-1.859c-17.327-23.052-11.857-56.261 11.118-73.015 9.462-6.698 20.321-9.957 31.06-9.957zm17.825 80.753c2.156 0 3.393-.34 4.531-.42 4.511-.98 7.565-3.819 9.901-7.937 1.158-2.06.978-4.659.18-6.578-.699-.6-2.036-1.16-3.394-1.72l-10.779-4.478c-.499-.22-.918-.34-1.297-.34-.619 0-1.158.34-1.917 1.22-1.197 1.399-4.231 4.898-4.79 6.258-.36.859-.998 1.199-1.777 1.199-.439 0-.938-.12-1.437-.32-4.691-1.639-8.783-3.958-12.915-6.957-3.493-3.039-7.006-6.718-9.901-10.457-.738-1.259-.179-2.619 1.058-3.359.599-.7 1.158-2.059 1.757-2.759.599-.7 1.158-2.059.419-3.319.599-.7.519-1.999-.18-2.619-.04-.66-3.852-8.257-5.389-11.436-.679-2.079-1.657-2.419-2.715-2.419-.24 0-.479.02-.718.04l-3.254.24c-1.297.1-2.555.839-3.753 2.239-3.014 3.499-4.65 8.217-4.272 13.435 1.078 5.838 3.434 11.577 7.666 15.855 7.206 9.337 16.907 17.174 28.344 21.613 7.546 2.439 11.837 3.019 14.632 3.019zm-17.825-86.751c-12.376 0-24.313 3.819-34.513 11.076-12.476 9.077-20.9 23.112-23.195 38.527-2.296 15.355 1.477 30.53 10.6 42.786l-3.294 17.314-1.936 10.177 9.78-3.379 16.588-5.738.18.08c8.703 3.938 17.506 5.918 26.169 5.918 1.297 0 2.615-.04 3.892-.14 11.099-.8 21.638-4.579 30.481-10.957l.06-.04.06-.039c25.61-19.414 31.039-55.402 12.356-81.913l-.06-.08-.06-.08c-11.258-14.935-28.425-23.512-47.108-23.512zm-23.814 36.568.878-.06c.24.48.5 1.019.779 1.599.938 1.92 2.535 5.138 3.313 6.878l-1.018 1.179 1.118 1.9c-.1.18-.199.34-.279.5-.02.06-.06.1-.08.16-2.376 2.079-3.413 5.198-2.775 8.137-2.954-3.559-4.331-7.957-4.97-11.276-.16-3.339.838-6.438 2.854-8.777.06-.12.12-.2.18-.24zm39.523 38.667c.22-.36.799-1.2 2.455-3.159l8.564 3.559c.04.02.099.04.139.06-1.936 3.318-3.852 4.278-5.489 4.698-.359.04-.719.08-1.118.14-.738.1-1.457.2-2.435.2-1.836 0-4.232-.36-7.166-1.08 2.236-.62 4.072-2.199 5.05-4.418z" fill="#fff"/><path fill-rule="evenodd" clip-rule="evenodd" d="m82.319 219.556 20.12-14.055-60.442-18.734 61.361 289.063 20.24 7.997-41.28-264.271z" fill="url(#b)"/><path fill-rule="evenodd" clip-rule="evenodd" d="m103.358 475.83 16.308-20.193-37.347-236.081 20.12-14.055-60.442-18.734 61.361 289.063z" fill="#D65410"/><path d="M309.696 79.882 246.06 116.69l-63.676-36.808v73.636l31.838 18.393v36.828l95.494-55.221V79.882h-.02z" fill="#EF6C00"/><path d="m246.06 116.71-63.676-36.808 63.676-36.807 63.636 36.807-63.636 36.808z" fill="#FF9800"/><path d="m244.922 115.591-62.139-35.948-.399.24 63.676 36.807 63.636-36.807-1.497-.88-63.277 36.588z" fill="#FF9800"/><path d="M246.06 117.17v-.46l-63.277-36.608-.399.24 63.676 36.828z" fill="#FF9800"/><path d="M191.186 226.153c-23.654 0-42.896-17.074-42.896-38.047 0-20.973 19.242-38.067 42.896-38.067s42.897 17.074 42.897 38.047c0 20.973-19.243 38.067-42.897 38.067z" fill="#fff"/><path d="M191.188 153.038c22.037 0 39.902 15.695 39.902 35.048 0 19.354-17.865 35.048-39.902 35.048-22.037 0-39.902-15.694-39.902-35.048 0-19.353 17.865-35.048 39.902-35.048zm0-5.998c-25.311 0-45.891 18.414-45.891 41.046 0 22.633 20.58 41.046 45.891 41.046s45.891-18.413 45.891-41.046c0-22.632-20.58-41.046-45.891-41.046z" fill="#fff"/><path d="M191.027 243.588c-31.878 0-57.827-25.972-57.827-57.921 0-31.929 25.929-57.92 57.827-57.92 31.878 0 57.828 25.971 57.828 57.92-.02 31.949-25.95 57.921-57.828 57.921zm14.851-32.829c.04-.14.1-.32.16-.56l8.982-42.446c.08-.36.1-.66.1-.86l-7.525 2.899c1.337.18 2.415.98 2.874 2.2.2.54.699 2.399-1.217 4.078l-24.453 22.153-.439 6.398 5.689-5.478 15.57 11.496c.1.06.179.1.259.12zm-32.097-20.973 28.345-17.874-38.266 14.775 9.921 3.099z" fill="#08C"/><path d="M191.029 130.766c30.281 0 54.833 24.571 54.833 54.921 0 30.33-24.532 54.922-54.833 54.922-30.281 0-54.833-24.572-54.833-54.922 0-30.35 24.532-54.921 54.833-54.921zm-16.827 62.299 31.399-19.794c.539-.36 1.058-.52 1.457-.52.679 0 .958.44.259 1.06l-25.43 23.012-.978 13.976c1.417 0 2.036-.62 2.755-1.36l6.607-6.378 13.713 10.117c.818.46 1.557.7 2.216.7 1.337 0 2.295-1 2.754-3.019l9.003-42.466c.639-3.019-.639-4.559-2.475-4.559-.42 0-.879.08-1.338.24l-52.857 20.414c-3.633 1.419-3.553 3.438-.619 4.358l13.534 4.219zm16.827-68.297c-33.535 0-60.821 27.33-60.821 60.919s27.286 60.92 60.821 60.92 60.822-27.331 60.822-60.92-27.287-60.919-60.822-60.919zm.3 71.596 18.044-16.315-5.429 25.631-10.08-7.437-2.535-1.879zm-18.365-9.957 1.497-.58-1.097.7-.4-.12z" fill="#fff"/><path fill-rule="evenodd" clip-rule="evenodd" d="m319.898 449.158-14.551-278.446s-53.915 43.405-81.721 47.344c-55.632 7.857-141.305 1.519-141.305 1.519L123.6 483.847l196.298-34.689z" fill="url(#c)"/><path opacity=".6" fill-rule="evenodd" clip-rule="evenodd" d="M303.41 172.231s-31.419 79.334-69.624 117.241c0 0 9.062-18.074 10.419-32.609.899-9.477-5.09-42.806-5.09-42.806s28.605-13.955 64.295-41.826z" fill="#FAD165"/><path opacity=".8" fill-rule="evenodd" clip-rule="evenodd" d="M166.796 250.105c-46.609-15.294-84.475-30.549-84.475-30.549l84.475 30.549z" fill="url(#d)"/><path fill-rule="evenodd" clip-rule="evenodd" d="m102.442 205.5 1.676 15.935-21.797-1.879 20.121-14.056z" fill="url(#e)"/><path opacity=".5" fill-rule="evenodd" clip-rule="evenodd" d="m123.599 483.827 70.762-64.818 72.718-24.952 52.818 55.102-196.298 34.668z" fill="url(#f)"/><defs><linearGradient id="a" x1="183.473" y1="230.21" x2="170.55" y2="162.353" gradientUnits="userSpaceOnUse"><stop stop-color="#93221B"/><stop offset=".998" stop-color="#A63333"/></linearGradient><linearGradient id="b" x1="126.759" y1="483.307" x2="69.305" y2="181.636" gradientUnits="userSpaceOnUse"><stop stop-color="#FF691B"/><stop offset=".998" stop-color="#FE6A3B"/></linearGradient><linearGradient id="c" x1="240.524" y1="464.369" x2="188.839" y2="192.985" gradientUnits="userSpaceOnUse"><stop stop-color="#FF8647"/><stop offset="1" stop-color="#FFB934"/></linearGradient><linearGradient id="d" x1="128.866" y1="257.404" x2="120.294" y2="212.394" gradientUnits="userSpaceOnUse"><stop offset=".396" stop-color="#fff"/><stop offset="1" stop-color="#FAD165"/></linearGradient><linearGradient id="e" x1="94.457" y1="223.356" x2="91.47" y2="207.67" gradientUnits="userSpaceOnUse"><stop stop-color="#FF8647"/><stop offset="1" stop-color="#E68434"/></linearGradient><linearGradient id="f" x1="214.548" y1="493.829" x2="222.224" y2="394.21" gradientUnits="userSpaceOnUse"><stop stop-color="#FF6A1D"/><stop offset="1" stop-color="#FF6A1D" stop-opacity="0"/></linearGradient></defs></svg>