<svg viewBox="120 0 450 420" fill="none" xmlns="http://www.w3.org/2000/svg">
    <g clip-path="url(#a)">
        <path d="m524.451 292.358-4.967 10.375 9.529-3.118 27.487-4.377-18.772-4.261s-10.022-.765-10.671-.474c-.652.293-2.606 1.855-2.606 1.855"
              fill="#278B32"/>
        <path d="m518.509 283.184 37.991 12.054-32.049-2.88-5.942-9.174Zm14.576 24.046-7.335-11.21 30.75-.782-23.415 11.992"
              fill="#43D854"/>
        <path d="M518.705 296.736c1.627-.074 2.735.156 2.746.158l.148-.697c-.048-.01-1.207-.25-2.926-.173l.032.712m-9.707 3.948a12.9 12.9 0 0 1 4.342-3.363l.305.643a12.206 12.206 0 0 0-4.104 3.179l-.543-.459Zm-4.179 9.948c.326-1.91.802-3.668 1.416-5.223l.663.262c-.598 1.509-1.06 3.219-1.376 5.079l-.008.041-.7-.127.005-.032Zm-.9 5.345.701.121a129.276 129.276 0 0 1-1.022 5.302l-.695-.152c.333-1.533.655-3.208 1.016-5.271Zm-2.34 10.461.682.205a46.243 46.243 0 0 1-1.843 5.099l-.653-.283a45.52 45.52 0 0 0 1.814-5.021Zm-7.551 13.917a27.266 27.266 0 0 0 3.256-4.188l.601.382a29.458 29.458 0 0 1-1.688 2.382 27.955 27.955 0 0 1-1.653 1.914l-.516-.49Zm-8.636 6.075a29.05 29.05 0 0 0 4.619-2.617l.407.583a29.71 29.71 0 0 1-4.731 2.682l-.295-.648Zm-10.222 2.927a44.87 44.87 0 0 0 5.217-1.119l.192.686a45.721 45.721 0 0 1-5.3 1.137l-.109-.704ZM260.525 61.1c-2.053-.827-3.574-1.03-3.59-1.032l.125-.957c.067.009 1.66.222 3.826 1.094l-.361.896m9.76 9.771c-.87-2.273-2.158-4.265-3.83-5.92l.68-.687c1.77 1.753 3.134 3.86 4.052 6.262l-.902.345Zm1.771 14.322-.953-.153.009-.057c.431-2.525.607-4.923.522-7.121l.965-.04c.088 2.267-.092 4.733-.535 7.329l-.008.042Zm-2.311 14.418-.959-.119c.264-2.127.606-4.432 1.077-7.25l.952.159a176.244 176.244 0 0 0-1.07 7.21Zm-.571 14.491-.964.069c-.166-2.331-.189-4.738-.069-7.362l.966.045c-.119 2.586-.097 4.956.067 7.248Zm2.466 14.371a37.47 37.47 0 0 1-1.258-3.193 40.196 40.196 0 0 1-1.09-3.811l.941-.22c.297 1.27.655 2.521 1.064 3.718.362 1.06.774 2.106 1.224 3.111l-.881.395Zm8.545 11.972a40.35 40.35 0 0 1-4.856-5.564l.785-.565a39.24 39.24 0 0 0 4.739 5.43l-.668.699Zm11.99 8.503a62.196 62.196 0 0 1-6.278-3.84l.555-.791a61.19 61.19 0 0 0 6.179 3.78l-.456.851m10.271 4.595a97.402 97.402 0 0 1-3.611-1.432l.375-.89c1.15.484 2.353.961 3.574 1.417l-.338.905Z"
              fill="#292929"/>
        <path d="m246.983 52.678 2.844 11.256-8.805-4.989-26.317-9.816 19.42-.468s10.066 1.245 10.651 1.662c.586.42 2.207 2.355 2.207 2.355Z"
              fill="#278B32"/>
        <path d="m254.691 44.79-39.986 4.34 32.278 3.548 7.708-7.888Z" fill="#43D854"/>
        <path d="m235.475 65.666 9.492-9.624-30.262-6.913 20.77 16.537Z" fill="#43D854"/>
        <path d="M520.857 243.217c-.835-1.804-1.707-2.872-1.716-2.883l.671-.55c.038.047.95 1.166 1.832 3.069l-.787.364m.381 12.399c.829-2.022 1.21-4.118 1.133-6.231l.868-.031c.081 2.236-.322 4.454-1.198 6.591l-.803-.329Zm-7.647 10.467-.53-.687.041-.031c1.835-1.389 3.425-2.851 4.721-4.342l.656.568c-1.336 1.538-2.971 3.042-4.857 4.469l-.031.023Zm-10.379 8.018-.555-.667a155.99 155.99 0 0 1 5.163-4.085l.527.689a157.79 157.79 0 0 0-5.135 4.063Zm-9.285 9.136-.673-.548a56.119 56.119 0 0 1 4.482-4.862l.604.624a55.297 55.297 0 0 0-4.413 4.786Zm-7.222 10.926c.331-.96.715-1.925 1.14-2.864a36.2 36.2 0 0 1 1.629-3.166l.752.434a34.879 34.879 0 0 0-1.59 3.089 32.645 32.645 0 0 0-1.111 2.79l-.82-.283Zm-1.767 13.093a36.165 36.165 0 0 1 .242-6.629l.861.113a35.215 35.215 0 0 0-.236 6.468l-.867.048Zm2.621 12.94a55.742 55.742 0 0 1-1.749-6.375l.85-.177a54.81 54.81 0 0 0 1.721 6.275l-.822.277m3.899 9.322a87.491 87.491 0 0 1-1.484-3.158l.793-.352a84.95 84.95 0 0 0 1.469 3.126l-.778.384Z"
              fill="#292929"/>
        <path d="m517.171 229.375-5.06 9.118-2.697-8.68-11.194-22.61 13.002 11.635s5.825 7.005 5.951 7.638c.126.635-.002 2.899-.002 2.899Z"
              fill="#278B32"/>
        <path d="m527.068 228.95-28.848-21.747 18.951 22.173 9.897-.426Z" fill="#43D854"/>
        <path d="m501.649 230.802 12.133-.464-15.562-23.135 3.429 23.599Z" fill="#43D854"/>
        <path d="m246.582 135.669 6.349 9.118-9.569-1.491-26.882.105 17.232-6.982s9.434-2.289 10.098-2.112c.666.177 2.772 1.362 2.772 1.362"
              fill="#278B32"/>
        <path d="m250.819 126-34.339 17.401 30.102-7.732 4.237-9.669Z" fill="#43D854"/>
        <path d="m240.665 151.189 5.248-11.827-29.433 4.038 24.185 7.789" fill="#43D854"/>
        <path d="M252.74 138.949c-1.562.182-2.582.574-2.593.577l-.249-.641c.044-.017 1.112-.426 2.762-.62l.08.684m9.868 2.253a12.469 12.469 0 0 0-4.662-2.531l-.191.661a11.798 11.798 0 0 1 4.407 2.392l.446-.522Zm5.53 8.832c-.607-1.77-1.334-3.371-2.162-4.758l-.591.354c.805 1.345 1.511 2.902 2.102 4.626l.014.038.647-.229-.01-.031Zm1.69 4.956-.649.225a124.159 124.159 0 0 0 1.799 4.895l.639-.253a127.007 127.007 0 0 1-1.789-4.867Zm3.858 9.608-.618.301a44.498 44.498 0 0 0 2.55 4.573l.578-.371a44.019 44.019 0 0 1-2.51-4.503Zm9.363 12.091a26.44 26.44 0 0 1-3.756-3.486l-.513.458a28.471 28.471 0 0 0 1.98 2.008 26.79 26.79 0 0 0 1.873 1.567l.416-.547Zm9.177 4.447a28.06 28.06 0 0 1-4.81-1.775l-.297.618a28.698 28.698 0 0 0 4.927 1.821l.18-.664Zm10.199 1.201a43.518 43.518 0 0 1-5.147-.256l-.076.684c1.657.186 3.417.274 5.229.26l-.006-.688Z"
              fill="#292929"/>
        <path d="M266 353.5s-79.5-30-78.338-23.5l-2.162 9.358 27.568 16.254L248.203 363l16.216-5.418L266 353.5Z"
              fill="#CBE1FD"/>
        <path d="M414.001 360.275s89.664-31.186 88.177-23.961l2.141 10.515-31.262 17.349-39.456 7.227-17.953-6.524-1.647-4.606Z"
              fill="#CADAF1"/>
        <path d="M507.894 364.732h-86.091l-7.142-19.233c-2.53-6.812-7.706-12.29-14.326-15.287-6.235-2.821-14.626-7.944-22.761-17.078-15.83-17.774-24.23-36.842-24.23-36.842l53.354-.26s-4.802-29.855 21.716-69.506a22.445 22.445 0 0 0 3.687-14.424l-2.514-28.917s-18.02-20.143-6.964-45.135c0 0 10.572-14.642 14.766-9.283 0 0 31.935 76.071 34.842 87.381 2.908 11.311 6.785 18.421 2.908 53.969-1.026 9.41-1.395 17.258-1.382 23.711a84.18 84.18 0 0 0 8.086 35.814l26.051 55.09Z"
              fill="#F7C29E"/>
        <path d="m421.803 364.732-7.142-19.233c-2.53-6.812-7.706-12.29-14.326-15.287l-.033-.015.033.015c6.62 2.997 11.796 8.475 14.326 15.287l7.142 19.233Zm-21.518-34.543-.016-.006.016.006Zm-.035-.015-.015-.006.015.006Zm-.034-.015-.013-.006.013.006Zm-.037-.017Zm73.578-56.388v-.002.002Zm0-.072-.001-.036a.433.433 0 0 1 .001.036Zm-.001-.051c0-.968.009-1.973.026-3.003l-.001.004v.002c-.017 1.03-.025 2.031-.025 2.997Z"
              fill="#9CE3EC"/>
        <path d="M421.803 364.732h86.091l-26.051-55.09a84.18 84.18 0 0 1-8.086-35.814v-.197c-.001-.966.007-1.967.024-2.997-.037.286-3.802 29.203-15.418 33.232-11.674 4.048-22.774 2.646-30.765 11.52-4.436 4.926-10.929 7.938-19.886 7.938-7.18 0-15.944-1.935-26.493-6.373 6.874 6.724 13.675 10.78 18.96 13.191.008.002.016.007.024.011l.013.006a.048.048 0 0 1 .019.009l.015.006c.007.002.012.006.019.009l.016.006c.006.004.012.006.017.008l.033.015c6.62 2.997 11.796 8.475 14.326 15.287l7.142 19.233Z"
              fill="#F5B992"/>
        <path d="M300.669 151.156a84.269 84.269 0 0 1-3.303-1.223l.322-.814c1.052.414 2.152.823 3.268 1.21l-.287.827"
              fill="#292929"/>
        <path d="M305.208 58.05s-18.233-12.21-22.399-4.165c-4.163 8.043 23.693 36.504 23.693 36.504l-1.294-32.34Zm0 53.192s-18.233-12.208-22.399-4.165c-4.163 8.044 23.693 36.504 23.693 36.504l-1.294-32.339Zm0 36.241s-18.233-12.207-22.399-4.164c-4.163 8.043 23.693 36.504 23.693 36.504l-1.294-32.34Z"
              fill="#F19C61"/>
        <path d="M317.487 36h100.025C424.96 36 431 42.262 431 49.99v212.02c0 7.789-6.103 13.99-13.488 13.99H317.487C310.04 276 304 269.74 304 262.01V49.99c0-7.796 6.11-13.99 13.487-13.99"
              fill="#292929"/>
        <path d="m353.344 276.292 53.354-.26H353.34l.004.26" fill="#9CE3EC"/>
        <path d="M409.067 285.766c19.644-.002 28.055-9.354 29.573-16.598.859-4.098-3.031-16.792-7.23-28.695v22.054c0 7.519-6.109 13.504-13.499 13.504h-11.213l-53.354.261s18.633 4.997 45.593 8.734c3.667.508 7.037.74 10.13.74"
              fill="#F5B992"/>
        <path d="M353.34 276.031h64.571c7.39 0 13.499-5.985 13.499-13.504v-22.054a525.58 525.58 0 0 0-3.945-10.782h-2.599v27.936h-68.224c-.053.112-.11.222-.173.33l-3.332 5.746c.095 6.43.181 11.19.203 12.328Zm14.582-14.618a5.603 5.603 0 0 1 0 11.205 5.602 5.602 0 0 1-5.599-5.603 5.601 5.601 0 0 1 5.599-5.602Z"
              fill="#292726"/>
        <path d="M424.866 257.628H310.849V62.773h114.017v194.855Z" fill="#fff"/>
        <path d="M424.866 257.628H310.849V62.773h114.017v194.855Z" fill="url(#b)"/>
        <path d="M424.866 257.628H310.849V62.773h114.017v194.855Z" fill="url(#c)"/>
        <path d="M431.41 199.928c.682-2.53.921-5.178.691-7.826l-.691-7.948v15.774" fill="#79CBF3"/>
        <path d="M431.41 229.692h6.172a6.195 6.195 0 0 0 6.193-6.195v-40.878a6.193 6.193 0 0 0-6.193-6.194h-6.172v7.73l.691 7.948a22.556 22.556 0 0 1-.691 7.825v29.764"
              fill="#BFA596"/>
        <path d="M427.465 229.692h3.945v-53.267h-6.544v46.503c.762 1.95 1.649 4.249 2.599 6.764" fill="#202327"/>
        <path d="M424.866 229.692h2.599a641.979 641.979 0 0 0-2.599-6.764v6.764Z" fill="#202124"/>
        <path d="M350.242 241.981c.506 0 6.225-7.886 9.379-12.289h65.245v-53.267H339.87a269.763 269.763 0 0 1-7.504 11.729v3.196c4.29.535 13.297 2.028 13.707 5.141.518 3.951-.567 10.81-13.707 12.544v14.462a6.196 6.196 0 0 0 6.195 6.195h12.76c-.641 4.841-1.552 12.289-1.079 12.289Z"
              fill="#C5D9F3"/>
        <path d="M303.115 140.137h.133a231.162 231.162 0 0 1-6.326-7.136v.941a6.193 6.193 0 0 0 6.193 6.195"
              fill="#79CBF3"/>
        <path d="M296.922 104.923a92.011 92.011 0 0 1 7.383-4.896V88.08a236.156 236.156 0 0 1-3.499-3.822 6.197 6.197 0 0 0-3.884 5.75v14.915Z"
              fill="#C5D9F3"/>
        <path d="M304.305 110.663v-10.636a92.553 92.553 0 0 0-7.383 4.896v1.794c3.18 1.408 5.998 3.083 7.383 3.946Z"
              fill="#79CBF3"/>
        <path d="M304.305 88.079v-4.266h-1.19c-.816 0-1.596.156-2.309.444a236.156 236.156 0 0 0 3.499 3.822Zm-1.057 52.058h1.057v-29.474c-1.385-.863-4.203-2.538-7.383-3.947v26.285a231.162 231.162 0 0 0 6.326 7.136"
              fill="#BA855C"/>
        <path d="M304.305 140.137h6.544V83.814h-6.544v56.323Z" fill="#202327"/>
        <path d="M398.594 151.911c.456 0-.376-6.937-1.011-11.774h10.947a6.194 6.194 0 0 0 6.193-6.195V90.008a6.194 6.194 0 0 0-6.193-6.194h-97.681v56.323h78.735c3.212 4.475 8.524 11.774 9.01 11.774"
              fill="#C5D9F3"/>
        <path d="M344.35 48.442h46.829a.98.98 0 0 0 .98-.98v-.481a.981.981 0 0 0-.98-.981H344.35a.98.98 0 0 0-.979.981v.48a.98.98 0 0 0 .979.981Z"
              fill="#fff"/>
        <path d="M433.679 180.636s-.688 2.559-2.243 3.817l-1.849-21.268s-13.256-14.817-10.053-34.803c1.096-6.842 4.498-13.138 9.701-17.715 2.97-2.61 6.232-4.355 8.154-1.899 0 0 15.018 35.772 25.394 61.902l-29.104 9.966"
              fill="#F7C29E"/>
        <path d="M342.648 165.822h99.022a6.194 6.194 0 0 1 6.193 6.195v40.875a6.194 6.194 0 0 1-6.193 6.195h-77.96c-3.154 4.405-8.876 12.292-9.381 12.292-.471 0 .438-7.449 1.081-12.292h-12.762a6.194 6.194 0 0 1-6.193-6.195v-40.875a6.194 6.194 0 0 1 6.193-6.195Z"
              fill="#F8FAFB"/>
        <path d="M367.922 272.618a5.603 5.603 0 0 0 0-11.205 5.602 5.602 0 0 0-5.599 5.603 5.601 5.601 0 0 0 5.599 5.602Z"
              fill="#2F425B"/>
        <path d="M369.592 264.863c.266 0 .484.216.484.482v3.342a.484.484 0 0 1-.484.482h-3.338a.484.484 0 0 1-.485-.482v-3.342c0-.266.218-.482.485-.482h3.338Zm-3.338 4.486h3.338a.663.663 0 0 0 .664-.662v-3.342a.663.663 0 0 0-.664-.662h-3.338a.663.663 0 0 0-.664.662v3.342c0 .366.298.662.664.662Z"
              fill="#3E82D7"/>
        <path d="M310.849 257.628h114.017v-11.527H310.849v11.527Zm0-184.514h114.017V62.772H310.849v10.342Z"
              fill="#8ABBFA"/>
        <path d="M434.689 129.779c-4.149-1.91-6.316-12.711-7.091-17.564 3.33-3.35 7.506-6.366 9.791-3.448 0 0 3.307 7.878 7.889 18.94-3.133 1.744-7.487 3.5-10.589 2.072Z"
              fill="#FFD3B6"/>
        <path d="M330.133 191.107s15.401 1.292 15.94 5.385c.537 4.094-.647 11.31-15.185 12.712H315.83s4.504-12.497 4.29-12.926c-.216-.431 10.013-5.171 10.013-5.171"
              fill="#F3AA78"/>
        <path d="M354.843 252.169c2.084 1.108 2.809 3.745 1.625 5.788-7.085 12.225-35.265 60.811-37.802 64.764-2.908 4.524-10.016 15.19-33.6 20.682-23.585 5.495-33.276 21.329-33.276 21.329h-72.689s17.124-27.145 31.339-97.596c0 0 10.983-58.493 31.658-56.554 0 0 12.599-13.25 24.877-10.663 0 0 23.259-13.897 36.505-13.897l31.816-37.612c3.151-3.723 8.7-4.452 12.572-1.489 1.245.953 2.194 2.213 2.456 3.876.971 6.14-7.106 21.653-20.029 40.396-12.923 18.742-44.906 78.206-31.013 104.383 0 0 14.213-10.666 26.492-27.793 10.279-14.343 22.373-19.167 29.069-15.614Z"
              fill="#F7C29E"/>
        <path d="M303.362 186.037c-4.22 3.615-8.178 7.536-11.914 11.656-5.046 5.494-11.419 13.639-15.161 19.929-4.717 7.778-7.831 14.599-9.303 23.163l.095.021c1.694-8.048 6.123-16.713 9.98-22.7 2.886-4.68 8.23-12.116 14.964-19.912 3.385-3.902 7.675-8.515 11.407-12.087l-.068-.07m-36.18 13.781c-3.435 1.758-6.497 4.211-9.204 6.984-2.738 2.76-5.015 5.89-6.975 9.308a45.428 45.428 0 0 0-4.367 10.779c-.834 3.515-1.374 5.899-1.463 11.461l.098.009a56.474 56.474 0 0 1 2.096-11.254c1.091-3.546 2.623-7.358 4.479-10.519a49.761 49.761 0 0 1 6.693-9.268c2.433-2.663 5.616-5.539 8.693-7.415l-.05-.085m-24.816 10.494c-3.038 2.297-6.113 6.366-7.605 9.116-1.876 3.227-3.361 6.975-4.341 11.078-.72 2.624-.9 5.173-1.013 7.842l.095.013c.449-2.587.729-4.516 1.65-7.646 1.411-4.748 2.519-7.191 4.411-10.852 1.131-2.256 4.065-6.725 6.846-9.481l-.043-.07"
              fill="#F19C61"/>
        <path d="M340.17 267.214c-.645-3.271 3.167-8.459 6.626-12.374 2.159-2.445 5.567-3.359 8.567-2.337 1.675 1.241 2.186 3.593 1.106 5.454-1.903 3.285-5.332 9.196-9.375 16.161-3.028-1.542-6.328-3.877-6.924-6.904Zm-3.055-104.041c-1.838-.368-10.176-3.143-9.665-4.664l8.225-9.722a9.355 9.355 0 0 1 6.269-3.276l.038-.005c.067-.006.217-.016.429-.016 1.101.002 3.818.315 4.415 3.301.589 2.95-4.292 10.12-6.445 13.1a3.24 3.24 0 0 1-3.266 1.282"
              fill="#FFD3B6"/>
        <path d="M483.089 313.917c-9.109 5.599-38.437 22.338-68.761 25.906-1.776.21-3.026 1.84-2.501 3.247l5.298 14.193c.35.939 1.406 1.487 2.591 1.343 8.937-1.085 45.81-6.637 71.755-26.714.883-.683 1.255-1.719.925-2.603l-5.406-14.486c-.509-1.364-2.418-1.797-3.901-.886Z"
              fill="#292929"/>
        <path d="m485.75 327.489.101-.036c.532-.199.802-.791.603-1.324l-1.631-4.37a1.026 1.026 0 0 0-1.322-.603l-.1.036a1.03 1.03 0 0 0-.604 1.324l1.631 4.37c.198.533.791.801 1.322.603Zm-5.454 3.362.1-.035c.532-.199.802-.791.603-1.324l-1.631-4.37a1.028 1.028 0 0 0-1.322-.603l-.1.036a1.03 1.03 0 0 0-.604 1.324l1.631 4.37c.199.533.791.801 1.323.602Zm-5.464 3.342.101-.038a1.03 1.03 0 0 0 .603-1.324l-1.631-4.369a1.027 1.027 0 0 0-1.322-.603l-.101.038a1.026 1.026 0 0 0-.603 1.322l1.631 4.369c.198.533.79.804 1.322.605Zm-5.622 2.716.1-.038c.532-.199.802-.791.604-1.322l-1.631-4.37a1.029 1.029 0 0 0-1.323-.605l-.1.038a1.027 1.027 0 0 0-.603 1.322l1.63 4.372a1.03 1.03 0 0 0 1.323.603m-5.531 3.157.1-.038c.532-.199.802-.791.603-1.322l-1.631-4.37a1.027 1.027 0 0 0-1.322-.605l-.1.038a1.028 1.028 0 0 0-.604 1.322l1.631 4.372a1.03 1.03 0 0 0 1.323.603m-5.776 2.504.1-.038a1.03 1.03 0 0 0 .604-1.324l-1.631-4.369a1.029 1.029 0 0 0-1.323-.603l-.1.038a1.026 1.026 0 0 0-.603 1.322l1.63 4.369c.199.533.791.804 1.323.605Zm-5.889 2.2.1-.038a1.03 1.03 0 0 0 .604-1.324l-1.631-4.37a1.029 1.029 0 0 0-1.322-.603l-.101.036a1.03 1.03 0 0 0-.603 1.324l1.631 4.37c.198.533.79.801 1.322.605Zm-6.003 1.894.101-.038c.532-.199.802-.791.603-1.324l-1.631-4.369a1.027 1.027 0 0 0-1.322-.603l-.1.036a1.03 1.03 0 0 0-.604 1.324l1.631 4.369c.198.533.791.802 1.322.605m-6.246 1.24.1-.036a1.03 1.03 0 0 0 .604-1.324l-1.631-4.37a1.029 1.029 0 0 0-1.323-.602l-.1.036a1.028 1.028 0 0 0-.603 1.324l1.63 4.369c.199.533.791.802 1.323.603Zm-6.082 1.683.1-.038c.532-.199.802-.791.604-1.322l-1.631-4.372a1.029 1.029 0 0 0-1.323-.602l-.1.038a1.028 1.028 0 0 0-.604 1.322l1.631 4.369c.199.533.791.804 1.323.605Zm-6.315 1.058.101-.036c.532-.199.802-.791.603-1.324l-1.631-4.37a1.026 1.026 0 0 0-1.322-.602l-.101.035a1.029 1.029 0 0 0-.603 1.324l1.631 4.37c.198.533.79.801 1.322.603m-6.323 1.036.1-.038c.532-.196.802-.789.604-1.322l-1.631-4.369a1.028 1.028 0 0 0-1.323-.605l-.1.038a1.029 1.029 0 0 0-.603 1.324l1.63 4.37c.199.53.791.801 1.323.602Z"
              fill="#141414"/>
        <path d="m465.089 346.783-.025-.066c.096-.012.192-.036.286-.069l7.177-2.68c.708-.267 1.052-1.104.766-1.87l-6.471-17.338c-.285-.766-1.094-1.174-1.803-.909l-7.176 2.681a1.336 1.336 0 0 0-.819.941c-.564.246-1.131.493-1.705.736-.192-1.457.556-2.874 1.891-3.371l7.177-2.681c1.573-.586 3.368.319 4.003 2.017l6.471 17.338c.634 1.701-.129 3.562-1.702 4.148l-7.177 2.682c-1.076.401-2.257.103-3.098-.669.734-.289 1.469-.586 2.205-.89Z"
              fill="#7FBF43"/>
        <path d="m466.663 333.026 3.122-1.168c.56-.207 1.196.112 1.422.717.226.605-.045 1.265-.605 1.474l-3.121 1.166-.818-2.189Z"
              fill="#fff"/>
        <path d="M251.79 364.732s9.691-15.834 33.276-21.329l.069-.015c-.023.004-.043.011-.069.015-23.585 5.495-33.276 21.329-33.276 21.329Zm-72.689 0v-.002.002Zm.003-.002v-.002.002Zm0-.002c.003-.002.003-.004.003-.006 0 .002 0 .004-.003.006Zm.005-.009c.326-.522 11.396-18.444 23.038-61.959-11.645 43.517-22.712 61.439-23.038 61.959Zm106.044-21.337Zm.077-.017.039-.009-.039.009Zm.067-.017c.013-.002.026-.004.038-.008-.01.004-.025.006-.038.008Zm.069-.015c.013-.004.026-.006.036-.008-.01.002-.023.004-.036.008Zm.069-.017c.011-.002.024-.004.034-.008a.21.21 0 0 1-.034.008Zm.067-.015c.01-.004.023-.006.034-.008-.011.002-.024.004-.034.008Zm.067-.016c.013-.003.023-.005.033-.009-.01.004-.02.006-.033.009Zm.072-.017.025-.007-.025.007Zm.061-.015c.013-.002.023-.007.036-.009-.01.002-.023.007-.036.009Zm.07-.017.03-.007-.03.007Zm.064-.015.033-.008-.033.008Zm.069-.017.028-.006-.028.006Zm.064-.017.034-.006-.034.006Zm.069-.014c.008-.003.018-.007.029-.009-.011.002-.021.006-.029.009Zm.065-.017c.007-.003.02-.005.028-.007-.008.002-.021.004-.028.007Zm.069-.017Zm.064-.015.026-.007-.026.007Zm.067-.017c.01-.002.02-.004.031-.009-.011.005-.021.007-.031.009Zm.061-.015a.233.233 0 0 1 .036-.008c-.01.002-.025.004-.036.008Zm.07-.017.025-.006a.313.313 0 0 0-.025.006Zm.084-.021a.471.471 0 0 1 .044-.011l-.044.011Zm.07-.017c.015-.004.028-.008.041-.01a.273.273 0 0 0-.041.01Zm.077-.021Zm.066-.015.026-.008c-.01.002-.018.006-.026.008Zm.064-.017.026-.006-.026.006Zm.067-.017.023-.006-.023.006Zm.067-.017.023-.006-.023.006Zm.061-.017.026-.006c-.008.002-.015.006-.026.006Zm.065-.014Zm.064-.017.028-.007a.38.38 0 0 0-.028.007Zm.061-.017Zm.07-.017Zm.061-.015.028-.008a.147.147 0 0 0-.028.008Zm.064-.017.029-.008-.029.008Zm.067-.017.021-.006-.021.006Zm.064-.017.018-.006-.018.006Zm.064-.017.021-.006-.021.006Zm.062-.016Zm.064-.017c.005-.002.013-.002.016-.005-.003.003-.011.003-.016.005Zm.367-.098.01-.002-.01.002Zm.054-.015c.008 0 .013-.002.023-.004l-.023.004Zm.062-.016c.007 0 .015-.003.023-.005l-.023.005Zm.064-.017Zm.064-.017c.005 0 .015-.004.018-.004l-.018.004Zm.059-.015Zm.061-.017a.088.088 0 0 0 .026-.008c-.01.004-.015.006-.026.008Zm.062-.017.028-.008-.028.008Zm.062-.017c.01-.004.02-.006.03-.008l-.03.008Zm.061-.017a.154.154 0 0 1 .034-.008c-.013.002-.024.006-.034.008Zm.062-.017a.198.198 0 0 1 .033-.008l-.033.008Zm.067-.017a.082.082 0 0 1 .025-.008c-.008.002-.018.004-.025.008Zm.061-.019.028-.006-.028.006Zm.059-.017Zm.064-.016c.011-.003.021-.005.031-.009l-.031.009Zm.062-.017c.01-.003.02-.007.031-.009l-.031.009Zm.064-.017c.01-.005.021-.007.031-.009a.094.094 0 0 0-.031.009Zm.062-.017Zm.225-.066Zm.052-.015Zm.059-.014.036-.011-.036.011Zm.059-.017Zm.061-.019Zm.062-.017c.01-.005.023-.007.036-.011l-.036.011Zm.061-.017a.292.292 0 0 1 .036-.011c-.012.002-.023.007-.036.011Zm.062-.019c.013-.002.023-.007.033-.011l-.033.011Zm.064-.017c.011-.004.021-.009.034-.011l-.034.011Zm.062-.019c.01-.002.02-.007.031-.009-.011.002-.021.007-.031.009Zm.059-.017.036-.011-.036.011Zm.061-.019c.013-.002.021-.006.034-.009a.143.143 0 0 1-.034.009Zm.062-.017.036-.011a.165.165 0 0 1-.036.011Zm.059-.017Zm.062-.019Zm.059-.017.036-.01-.036.01Zm.061-.019.036-.008-.036.008Zm.059-.017.041-.013-.041.013Zm.062-.019Zm.251-.074a.477.477 0 0 0 .049-.015l-.049.015Zm.07-.021c.015-.004.025-.009.041-.013-.016.004-.026.009-.041.013Zm.061-.019c.013-.002.026-.009.039-.011-.013.005-.026.007-.039.011Zm.059-.017.039-.013-.039.013Zm.062-.019.038-.013-.038.013Zm.059-.017Zm.059-.019.041-.013-.041.013Zm.059-.019.041-.013-.041.013Zm.061-.019Zm.062-.017.036-.013-.036.013Zm.059-.019.036-.011c-.01.002-.023.007-.036.011Zm.059-.019.036-.011c-.013.005-.023.009-.036.011Zm.059-.017c.013-.004.028-.008.039-.013l-.039.013Zm.057-.019.043-.013a.703.703 0 0 1-.043.013Zm.061-.019.041-.013-.041.013Zm.057-.017a.245.245 0 0 0 .043-.015l-.043.015Zm.059-.019a.491.491 0 0 1 .051-.015c-.018.004-.033.011-.051.015Zm.059-.019.048-.015a.3.3 0 0 1-.048.015Zm.059-.019Zm.364-.114.049-.017-.049.017Zm.056-.019.047-.015-.047.015Zm.065-.021a.703.703 0 0 1 .043-.013c-.015.004-.031.008-.043.013Zm.056-.017a.207.207 0 0 1 .046-.015c-.015.004-.031.008-.046.015Zm.059-.019c.013-.005.028-.011.044-.015-.016.004-.031.01-.044.015Zm.059-.019.041-.015c-.015.004-.028.01-.041.015Zm.057-.02.043-.014-.043.014Zm.059-.019.043-.014-.043.014Zm.053-.019.052-.014-.052.014Zm.059-.019.049-.014-.049.014Zm.059-.019Zm.054-.017c.195-.065.388-.129.578-.194-.19.065-.383.129-.578.194Zm.578-.194.056-.019-.056.019Zm.059-.019c.038-.013.074-.026.113-.038-.039.012-.075.025-.113.038Zm.115-.038c.016-.007.036-.013.052-.019-.016.006-.036.012-.052.019Zm.059-.021Zm.057-.019.051-.019-.051.019Zm.054-.019.053-.019a1.123 1.123 0 0 0-.053.019Zm.059-.019c.015-.007.036-.013.051-.02-.015.007-.036.013-.051.02Zm.053-.022c.018-.006.039-.012.054-.019-.018.009-.036.013-.054.019Zm.057-.019c15.796-5.477 21.688-13.379 24.395-17.516-2.707 4.137-8.601 12.039-24.395 17.516Z"
              fill="#9CE3EC"/>
        <path d="M179.101 364.732h72.689s9.691-15.834 33.276-21.329c.026-.004.046-.011.069-.015l.018-.006a.173.173 0 0 0 .046-.011l.031-.006.039-.009a.115.115 0 0 0 .028-.008c.013-.002.028-.004.038-.008a.446.446 0 0 1 .031-.007c.013-.004.026-.006.036-.008.013-.002.021-.005.033-.009a.21.21 0 0 0 .034-.008.236.236 0 0 0 .033-.007c.01-.004.023-.006.034-.008.012-.004.023-.006.033-.008.013-.003.023-.005.033-.009a.27.27 0 0 0 .039-.008l.025-.007.036-.008c.013-.002.026-.007.036-.009.011-.002.023-.004.034-.008l.03-.007c.011-.004.023-.006.034-.008l.033-.008c.013-.002.023-.007.036-.009l.028-.006c.013-.004.026-.006.036-.011l.034-.006.035-.008c.008-.003.018-.007.029-.009a.233.233 0 0 0 .036-.008c.007-.003.02-.005.028-.007l.041-.01a.064.064 0 0 1 .023-.005c.013-.004.026-.008.041-.01l.026-.007.041-.01c.01-.002.02-.004.031-.009l.03-.006c.011-.004.026-.006.036-.008.011-.005.023-.007.034-.009a.313.313 0 0 1 .025-.006c.018-.007.039-.011.059-.015l.044-.011c.01-.004.018-.004.026-.006a.273.273 0 0 1 .041-.01c.01-.005.025-.007.036-.011l.025-.006.041-.009c.008-.002.016-.006.026-.008.015-.002.028-.007.038-.009l.026-.006.041-.011.023-.006c.016-.004.031-.006.044-.011l.023-.006a.166.166 0 0 0 .038-.011c.011 0 .018-.004.026-.006.013-.002.023-.006.039-.008a.38.38 0 0 1 .028-.007c.01-.004.023-.006.036-.01a.38.38 0 0 1 .028-.007l.033-.01a.282.282 0 0 0 .031-.007l.039-.01a.313.313 0 0 1 .025-.006l.036-.009a.147.147 0 0 1 .028-.008l.036-.009.029-.008c.012-.002.025-.007.038-.009l.021-.006c.015-.004.03-.009.043-.011l.018-.006.046-.011.021-.006a.306.306 0 0 0 .041-.01.138.138 0 0 1 .026-.007l.038-.01c.005-.002.013-.002.016-.005.118-.029.236-.061.351-.093l.01-.002a.388.388 0 0 0 .044-.013l.023-.004.039-.012.023-.005.041-.012a.05.05 0 0 0 .02-.005l.044-.012.018-.004.041-.011a.135.135 0 0 0 .026-.009l.035-.008a.112.112 0 0 0 .026-.008l.036-.009.028-.008.034-.009.03-.008.031-.009c.01-.002.021-.006.034-.008.01-.002.02-.007.028-.009l.033-.008a.189.189 0 0 1 .034-.009c.007-.004.017-.006.025-.008l.036-.011.028-.006c.011-.004.021-.006.031-.011a.233.233 0 0 0 .036-.008l.028-.008.031-.009.031-.008.031-.009.033-.008a.094.094 0 0 1 .031-.009c.007-.004.02-.006.031-.008a.081.081 0 0 1 .025-.009l.2-.057a.071.071 0 0 0 .021-.004c.01-.004.02-.006.031-.011a.14.14 0 0 0 .031-.008.323.323 0 0 1 .028-.006l.036-.011a.12.12 0 0 1 .023-.006.14.14 0 0 1 .038-.011c.005-.002.013-.006.023-.008a.215.215 0 0 0 .036-.011l.026-.006.036-.011a.313.313 0 0 0 .025-.006c.013-.004.024-.009.036-.011a.238.238 0 0 1 .026-.008l.033-.011.031-.006.034-.011.028-.008c.01-.002.02-.007.031-.009.01-.004.02-.006.028-.008l.036-.011.025-.008a.143.143 0 0 0 .034-.009l.028-.008a.165.165 0 0 0 .036-.011l.023-.006a.569.569 0 0 1 .039-.011c.005-.002.012-.006.023-.008a.184.184 0 0 0 .036-.011l.023-.006.036-.01a.25.25 0 0 1 .025-.009l.036-.008c.008-.005.016-.007.023-.009l.041-.013.021-.006c.082-.023.161-.046.241-.072l.01-.002.049-.015.021-.006c.015-.004.025-.009.041-.013l.02-.006c.013-.004.026-.006.039-.011l.02-.006.039-.013.023-.006.038-.013c.008 0 .013-.004.021-.004a.568.568 0 0 0 .038-.013l.021-.006.041-.013.018-.006.041-.013a.076.076 0 0 0 .02-.006.19.19 0 0 0 .039-.011l.023-.006.036-.013.023-.006c.013-.004.026-.009.036-.011a.2.2 0 0 1 .023-.008c.013-.002.023-.006.036-.011l.023-.006.039-.013.018-.006a.703.703 0 0 0 .043-.013l.018-.006.041-.013.016-.004.043-.015a.047.047 0 0 0 .016-.004c.018-.004.033-.011.051-.015l.008-.004a.3.3 0 0 0 .048-.015l.011-.004c.12-.036.236-.074.351-.112l.013-.002.049-.017.007-.002.047-.015.018-.006c.012-.005.028-.009.043-.013a.033.033 0 0 1 .013-.004c.015-.007.031-.011.046-.015.003-.002.008-.002.013-.004.013-.005.028-.011.044-.015l.015-.004c.013-.005.026-.011.041-.015.008-.002.01-.002.016-.005l.043-.014c.005-.002.01-.002.016-.005l.043-.014c.005-.002.01-.002.01-.005l.052-.014c.002-.003.005-.003.007-.005l.049-.014.01-.005a.472.472 0 0 0 .054-.017c.195-.065.388-.129.578-.194l.056-.019h.003c.038-.013.074-.026.113-.038h.002c.016-.007.036-.013.052-.019l.007-.002a.358.358 0 0 1 .049-.017c.003-.002.005-.002.008-.002l.051-.019h.003l.053-.019h.006c.015-.007.036-.013.051-.02.002 0 .002 0 .002-.002.018-.006.036-.01.054-.019h.003c15.794-5.477 21.688-13.379 24.395-17.516-6.484 3.042-49.255 12.111-66.658 12.111-1.683 0-3.13-.085-4.282-.269-11.355-1.804-39.969.072-45.155-32.454-11.642 43.515-22.712 61.437-23.038 61.959l-.002.003c0 .002 0 .004-.003.006v.002h-.003v.002Z"
              fill="#F5B992"/>
        <path d="M295.907 281.797c-.45-11.541 3.182-25.775 8.398-39.7v-.376c-5.283 13.982-8.939 28.319-8.398 40.076Z"
              fill="#9CE3EC"/>
        <path d="M304.305 242.097c1.994-5.327 4.223-10.612 6.544-15.684v-.226c-2.321 5.021-4.55 10.255-6.544 15.534v.376Z"
              fill="#292726"/>
        <path d="M310.849 226.413a283.774 283.774 0 0 1 8.595-17.209h-.036a284.925 284.925 0 0 0-8.559 16.983v.226Z"
              fill="#FDF3EC"/>
        <path d="M319.408 209.204h.036c2.48-4.574 4.871-8.677 7.008-12.114a252.48 252.48 0 0 0-7.044 12.114Z"
              fill="#F1A26F"/>
        <path d="m290.884 303.866 8.398-8.29c-2.123-3.854-3.17-8.538-3.375-13.779-.541-11.757 3.115-26.094 8.398-40.076 1.994-5.279 4.222-10.514 6.544-15.535a284.885 284.885 0 0 1 8.559-16.982 252.06 252.06 0 0 1 7.044-12.115c-7.357 8.917-15.165 19.354-23.022 31.42-33.761 51.845-12.546 75.357-12.546 75.357"
              fill="#F5B992"/>
        <path d="M426.712 207.892c8.638 0 15.648-7.01 15.648-15.648s-7.01-15.648-15.648-15.648-15.648 7.01-15.648 15.648 7.01 15.648 15.648 15.648Z"
              fill="#fff"/>
        <path d="M426.712 206.829c7.95 0 14.46-6.51 14.46-14.584 0-8.075-6.448-14.584-14.46-14.584-7.949 0-14.459 6.509-14.459 14.584.063 8.012 6.51 14.584 14.459 14.584Z"
              fill="#88CF6D"/>
        <path d="M434.974 184.984c1.94 0 3.505-1.627 3.505-3.568 0-1.94-1.565-3.567-3.505-3.567s-3.505 1.627-3.505 3.567c0 1.941 1.565 3.568 3.505 3.568Z"
              fill="#DA2434"/>
        <path d="M434.973 183.606a.627.627 0 0 0 0-1.252.628.628 0 0 0-.626.626c0 .375.313.626.626.626Zm.315-1.501h-.689l-.188-2.942h1.064l-.187 2.942Zm-1.441 8.386c0 .187-.125.313-.313.313h-.063v1.189a.47.47 0 0 1-.125.25c-.063.063-.125.125-.25.125-.188 0-.313-.125-.313-.313v-3.129c0-.063.062-.188.125-.251.062-.062.125-.125.25-.125.188 0 .313.125.313.313v1.189h.063c.062 0 .188.063.25.126a.56.56 0 0 1 .063.313Zm-14.02.062c0 .188.125.313.313.313h.062v1.19c0 .062.063.187.125.25.063.063.126.125.251.125.187 0 .313-.125.313-.313v-3.129a.475.475 0 0 0-.126-.251c-.062-.062-.125-.125-.25-.125-.188 0-.313.125-.313.313v1.189h-.062a.48.48 0 0 0-.251.125c0 .126-.062.188-.062.313Zm9.576 3.069v.563a.47.47 0 0 1-.125.25c-.062.063-.125.125-.25.125h-4.444c-.188 0-.313-.125-.313-.313v-.563a.47.47 0 0 1 .125-.25c.062-.063.125-.125.25-.125.188 0 .313.125.313.313v.187h3.756v-.187c0-.063.062-.188.125-.251.063-.062.125-.125.25-.125.188.063.313.188.313.376Zm-.313-4.195h-4.444c-.188 0-.313.126-.313.313 0 .188.125.313.313.313h4.444c.187 0 .313-.125.313-.313.062-.187-.126-.313-.313-.313Z"
              fill="#fff"/>
        <path d="M429.09 187.926h-4.444c-.501 0-1.002.188-1.315.564-.313.313-.563.813-.563 1.314 0 1.064.876 1.878 1.878 1.878h4.444c.5 0 1.001-.188 1.314-.563.313-.313.563-.814.563-1.315a1.844 1.844 0 0 0-1.877-1.878Zm.813 2.754c-.187.251-.5.376-.876.376h-4.194a1.188 1.188 0 0 1-1.189-1.189c0-.313.125-.626.376-.877.187-.25.5-.375.876-.375h4.194c.688 0 1.189.563 1.189 1.189a2.194 2.194 0 0 1-.376.876Z"
              fill="#fff"/>
        <path d="M431.719 187.112a5.528 5.528 0 0 0-4.506-2.879v-3.005a1.07 1.07 0 0 0 .751-1.001c0-.626-.501-1.064-1.064-1.064-.626 0-1.064.501-1.064 1.064 0 .501.313.876.751 1.001v2.942a5.527 5.527 0 0 0-4.507 2.88c-.438.813-.689 1.69-.689 2.628v6.948h11.079v-6.885c-.062-.939-.313-1.878-.751-2.629Zm-5.258-6.885c0-.25.188-.376.376-.376.25 0 .376.188.376.376 0 .25-.188.375-.376.375s-.376-.125-.376-.375ZM431.719 196h-9.702v-6.259a4.889 4.889 0 0 1 4.883-4.882 4.889 4.889 0 0 1 4.882 4.882l-.063 6.259Zm-7.574 3.253h-1.752v2.129h.563v-.814h1.189a.562.562 0 0 0 .564-.563v-.251c0-.25-.251-.501-.564-.501Zm0 .752c0 .062-.062.125-.125.125h-.939c-.062 0-.125-.063-.125-.125v-.126c0-.062.063-.125.125-.125h.939c.063 0 .125.063.125.125v.126Zm3.006-.752h-1.753v2.129h.563v-.814h1.19a.561.561 0 0 0 .563-.563v-.251c-.063-.25-.313-.501-.563-.501Zm0 .752c0 .062-.063.125-.126.125h-.938c-.063 0-.126-.063-.126-.125v-.126c0-.062.063-.125.126-.125h.938c.063 0 .126.063.126.125v.126Zm-6.635-.752h-.564l-1.189 2.129h.563l.251-.376h1.439l.251.376h.563l-1.314-2.129Zm-.689 1.19.438-.751.439.751h-.877Zm11.204.125v.563c0 .063 0 .125-.062.188-.063.062-.125.062-.188.062h-2.003a.269.269 0 0 1-.25-.25v-.25c0-.063 0-.126.062-.188 0 0 .063-.063.125-.063l1.69-.939v-.313h-1.189v.564l-.563-.125v-.689c0-.063 0-.125.062-.188.063-.062.126-.062.188-.062h1.753c.125 0 .25.125.25.25v.751c0 .063-.062.125-.062.125l-.063.063-1.502.814h1.252v-.376l.125.063h.375Zm3.067-.251v-1.502h-.564l-1.752 1.502v.563h1.752v.564h.564v-.564h.563v-.563h-.563Zm-1.69 0 1.126-.939v.939h-1.126Z"
              fill="#fff"/>
        <path d="M427 207.406c8.509 0 15.406-6.897 15.406-15.406s-6.897-15.406-15.406-15.406-15.406 6.897-15.406 15.406 6.897 15.406 15.406 15.406Z"
              fill="#fff"/>
        <path d="M427 206.343c7.848 0 14.21-6.422 14.21-14.343 0-7.922-6.362-14.344-14.21-14.344-7.849 0-14.211 6.422-14.211 14.344 0 7.921 6.362 14.343 14.211 14.343Z"
              fill="#88CF6D"/>
        <path d="M435.142 184.875c1.908 0 3.456-1.578 3.456-3.524s-1.548-3.524-3.456-3.524c-1.909 0-3.457 1.578-3.457 3.524s1.548 3.524 3.457 3.524Z"
              fill="#DA2434"/>
        <path d="M435.131 183.538a.621.621 0 1 0 0-1.242.621.621 0 0 0 0 1.242Zm.323-1.529h-.67l-.191-2.869h1.052l-.191 2.869Zm-.618 11.492a.377.377 0 0 1-.377.377h-.075v1.357a.372.372 0 0 1-.111.266.377.377 0 0 1-.643-.266v-3.467c0-.104.042-.198.111-.266a.377.377 0 0 1 .643.266v1.357h.075c.105 0 .199.041.266.11a.373.373 0 0 1 .111.266Zm-15.672.076c0 .208.169.377.377.377h.075v1.356a.377.377 0 0 0 .754 0v-3.466a.377.377 0 0 0-.754 0v1.356h-.075a.377.377 0 0 0-.377.377Zm10.712 3.466v.603a.377.377 0 0 1-.376.377h-4.974a.377.377 0 0 1-.376-.377v-.603a.377.377 0 0 1 .753 0v.226h4.22v-.226c0-.104.041-.198.111-.266a.376.376 0 0 1 .642.266Zm-.358-4.747h-4.989a.368.368 0 0 0-.369.369v.015c0 .205.165.369.369.369h4.989a.367.367 0 0 0 .369-.369v-.015a.37.37 0 0 0-.369-.369Z"
              fill="#fff"/>
        <path d="M429.51 190.64h-4.973a2.108 2.108 0 0 0-2.11 2.11 2.11 2.11 0 0 0 2.11 2.109h4.973a2.106 2.106 0 0 0 2.11-2.109 2.11 2.11 0 0 0-2.11-2.11Zm.869 3.068a1.346 1.346 0 0 1-.958.398h-4.672a1.357 1.357 0 0 1 0-2.713h4.672c.749 0 1.357.608 1.357 1.357 0 .372-.153.713-.399.958Z"
              fill="#fff"/>
        <path d="M432.425 189.715a6.177 6.177 0 0 0-5.035-3.206v-3.314a1.206 1.206 0 1 0-.754 0v3.313a6.166 6.166 0 0 0-5.062 3.207 6.133 6.133 0 0 0-.754 2.959v7.762h12.357v-7.762a6.132 6.132 0 0 0-.752-2.959Zm-5.863-7.666a.452.452 0 1 1 .903 0 .452.452 0 0 1-.903 0Zm5.863 17.631h-10.85v-7.007a5.427 5.427 0 0 1 10.851 0v7.007h-.001Z"
              fill="#fff"/>
        <path d="M425 54H311v22.8h114V54Z" fill="#F7F7F7"/>
        <path d="m412.339 65.55.093.029.077-.052.694-.47 1.324.726.003.001.002.001a.203.203 0 0 1 .07.059.165.165 0 0 1 .02.165.189.189 0 0 1-.055.07l-.002.002-.002.002-.632.531a.633.633 0 0 1-.251.126.696.696 0 0 1-.29.01c-1.21-.213-2.326-.71-3.22-1.437-.872-.734-1.477-1.668-1.739-2.688a.42.42 0 0 1 .012-.243.476.476 0 0 1 .151-.206l.001-.001.656-.538.001-.002.002-.001a.223.223 0 0 1 .08-.044.244.244 0 0 1 .182.016.21.21 0 0 1 .068.057l.002.003.882 1.113-.565.578-.063.065.036.078c.214.467.547.887.976 1.231.419.362.927.641 1.487.818Zm-11.496-.206-.279-.272v.891a.785.785 0 0 1-.24.563.827.827 0 0 1-.578.234H396.8a.831.831 0 0 1-.579-.234.788.788 0 0 1-.239-.563v-2.551c0-.212.086-.415.239-.564a.832.832 0 0 1 .579-.234h2.946c.217 0 .425.084.578.234.154.15.24.352.24.563v.891l.279-.272.798-.778h.001c.205-.2.558-.059.558.225v2.42c0 .284-.353.426-.558.225l-.799-.778Z"
              stroke="#1280FE" stroke-width=".5"/>
        <path d="M342.36 65.796c-.35 0-.667-.077-.95-.23a1.74 1.74 0 0 1-.66-.64c-.16-.273-.24-.58-.24-.92 0-.34.08-.645.24-.915.16-.273.381-.487.665-.64.283-.157.6-.235.95-.235.273 0 .523.047.75.14.226.09.42.225.58.405l-.325.315a1.305 1.305 0 0 0-.985-.415c-.26 0-.495.058-.705.175-.21.117-.375.278-.495.485a1.348 1.348 0 0 0-.175.685c0 .253.058.483.175.69.12.203.285.363.495.48.21.117.445.175.705.175.39 0 .718-.14.985-.42l.325.315c-.16.18-.355.317-.585.41a1.96 1.96 0 0 1-.75.14Zm3.393-2.715c.337 0 .603.098.8.295.2.193.3.478.3.855v1.525h-.48v-1.47c0-.257-.062-.45-.185-.58-.123-.13-.3-.195-.53-.195-.26 0-.465.076-.615.23-.15.15-.225.367-.225.65v1.365h-.48v-3.71h.48v1.435c.1-.127.23-.225.39-.295.163-.07.345-.105.545-.105Zm2.953 0c.367 0 .647.09.84.27.197.18.295.448.295.805v1.6h-.455v-.35a.773.773 0 0 1-.345.285 1.315 1.315 0 0 1-.525.095c-.296 0-.535-.072-.715-.215a.694.694 0 0 1-.265-.565c0-.234.085-.42.255-.56.17-.144.44-.215.81-.215h.76v-.095c0-.207-.06-.365-.18-.475-.12-.11-.296-.165-.53-.165-.156 0-.31.026-.46.08a1.15 1.15 0 0 0-.38.205l-.2-.36c.137-.11.3-.194.49-.25a2 2 0 0 1 .605-.09Zm-.11 2.335c.184 0 .342-.04.475-.12a.71.71 0 0 0 .29-.35v-.37h-.74c-.406 0-.61.137-.61.41 0 .133.052.238.155.315.104.076.247.115.43.115Zm3.623.185a.741.741 0 0 1-.26.14 1.14 1.14 0 0 1-.32.045c-.266 0-.473-.072-.62-.215-.146-.144-.22-.349-.22-.615V63.5h-.45v-.395h.45v-.58h.48v.58h.76v.395h-.76v1.435c0 .143.035.253.105.33a.41.41 0 0 0 .31.115.577.577 0 0 0 .375-.125l.15.345Zm2.881-.72h-1.86l-.385.875h-.515l1.585-3.5h.495l1.59 3.5h-.525l-.385-.875Zm-.175-.4-.755-1.715-.755 1.715h1.51Zm2.942-1.4c.257 0 .487.056.69.17.203.113.362.272.475.475.117.203.175.438.175.705 0 .267-.058.503-.175.71a1.206 1.206 0 0 1-.475.475c-.203.113-.433.17-.69.17a1.25 1.25 0 0 1-.525-.11 1.09 1.09 0 0 1-.4-.32v1.37h-.48v-3.62h.46v.42a.998.998 0 0 1 .405-.33c.163-.077.343-.115.54-.115Zm-.04 2.285a.846.846 0 0 0 .775-.445.988.988 0 0 0 .12-.49.96.96 0 0 0-.12-.485.803.803 0 0 0-.32-.33.895.895 0 0 0-.455-.115.884.884 0 0 0-.775.445.99.99 0 0 0-.115.485c0 .183.038.347.115.49a.846.846 0 0 0 .775.445Zm3.448-2.285c.257 0 .487.056.69.17.203.113.362.272.475.475.117.203.175.438.175.705 0 .267-.058.503-.175.71a1.206 1.206 0 0 1-.475.475c-.203.113-.433.17-.69.17a1.25 1.25 0 0 1-.525-.11 1.09 1.09 0 0 1-.4-.32v1.37h-.48v-3.62h.46v.42a.998.998 0 0 1 .405-.33c.163-.077.343-.115.54-.115Zm-.04 2.285a.846.846 0 0 0 .775-.445.988.988 0 0 0 .12-.49.96.96 0 0 0-.12-.485.803.803 0 0 0-.32-.33.895.895 0 0 0-.455-.115.884.884 0 0 0-.775.445.99.99 0 0 0-.115.485c0 .183.038.347.115.49a.846.846 0 0 0 .775.445Z"
              fill="#00080C"/>
        <path d="m368.225 61.885 1.064.884 1.011-.943.341 1.34 1.373-.168-.512 1.284 1.209.67-1.169.74.584 1.253-1.38-.09-.264 1.357-1.063-.884-1.012.943-.341-1.34-1.372.169.512-1.285-1.21-.67 1.17-.739-.585-1.253 1.38.09.264-1.358Z"
              fill="#43D854"/>
        <g clip-path="url(#d)">
            <path d="M370.135 64.203a.214.214 0 0 1 .299.002.216.216 0 0 1 .007.299l-1.144 1.431a.213.213 0 0 1-.238.053.223.223 0 0 1-.072-.047l-.758-.76a.221.221 0 0 1-.069-.153.222.222 0 0 1 .063-.156.223.223 0 0 1 .156-.063.22.22 0 0 1 .154.069l.6.6.996-1.269a.183.183 0 0 1 .006-.006Z"
                  fill="#fff"/>
        </g>
        <path d="M330.625 69.815a5.41 5.41 0 0 0 5.407-5.407A5.41 5.41 0 0 0 330.625 59a5.41 5.41 0 0 0-5.407 5.408 5.41 5.41 0 0 0 5.407 5.407Z"
              fill="#fff"/>
        <path d="M330.626 69.447c2.746 0 4.996-2.25 4.996-5.04s-2.228-5.04-4.996-5.04c-2.747 0-4.996 2.25-4.996 5.04.021 2.769 2.249 5.04 4.996 5.04Z"
              fill="#88CF6D"/>
        <path d="M333.48 61.897c.671 0 1.211-.562 1.211-1.233 0-.67-.54-1.233-1.211-1.233-.67 0-1.211.563-1.211 1.233 0 .671.541 1.233 1.211 1.233Z"
              fill="#DA2434"/>
        <path d="M333.48 61.422a.216.216 0 1 0 0-.433.216.216 0 0 0 0 .433Zm.109-.519h-.238l-.065-1.017h.367l-.064 1.017Zm-.498 2.898c0 .065-.043.108-.108.108h-.022v.411a.168.168 0 0 1-.043.087c-.022.021-.043.043-.087.043-.065 0-.108-.043-.108-.108V63.26a.17.17 0 0 1 .043-.086c.022-.022.044-.043.087-.043.065 0 .108.043.108.108v.41h.022c.021 0 .065.022.086.044.022.043.022.065.022.108Zm-4.845.023c0 .065.044.108.108.108h.022v.411a.17.17 0 0 0 .043.087c.022.021.044.043.087.043.065 0 .108-.043.108-.108v-1.082a.168.168 0 0 0-.043-.086c-.022-.022-.044-.043-.087-.043-.065 0-.108.043-.108.108v.41h-.022a.166.166 0 0 0-.086.044c0 .043-.022.065-.022.108Zm3.309 1.059v.195a.16.16 0 0 1-.043.087c-.021.021-.043.043-.086.043h-1.536c-.065 0-.108-.043-.108-.108v-.195a.17.17 0 0 1 .043-.087c.022-.021.043-.043.087-.043.065 0 .108.043.108.108v.065h1.298v-.065a.16.16 0 0 1 .043-.086c.021-.022.043-.043.086-.043.065.021.108.064.108.13Zm-.108-1.449h-1.536a.103.103 0 0 0-.108.108c0 .065.044.108.108.108h1.536c.065 0 .108-.043.108-.108.022-.065-.043-.108-.108-.108Z"
              fill="#fff"/>
        <path d="M331.447 62.916h-1.536a.588.588 0 0 0-.454.195.674.674 0 0 0-.194.454.65.65 0 0 0 .648.649h1.536a.588.588 0 0 0 .454-.195.676.676 0 0 0 .195-.454.637.637 0 0 0-.649-.649Zm.281.952c-.065.086-.173.13-.303.13h-1.449a.41.41 0 0 1-.411-.411.43.43 0 0 1 .13-.303c.065-.087.173-.13.303-.13h1.449a.41.41 0 0 1 .411.41.763.763 0 0 1-.13.304Z"
              fill="#fff"/>
        <path d="M332.356 62.633a1.911 1.911 0 0 0-1.558-.995V60.6a.365.365 0 0 0-.108-.714.364.364 0 0 0-.367.368.35.35 0 0 0 .259.346v1.017a1.91 1.91 0 0 0-1.557.995 1.901 1.901 0 0 0-.238.908v2.401h3.828v-2.38a2.123 2.123 0 0 0-.259-.908Zm-1.817-2.38c0-.086.065-.129.13-.129.086 0 .129.065.129.13 0 .086-.064.13-.129.13s-.13-.044-.13-.13Zm1.817 5.452h-3.353v-2.163c0-.93.757-1.688 1.687-1.688s1.687.758 1.687 1.688l-.021 2.163Zm-2.617 1.125h-.606v.735h.195v-.281h.411a.193.193 0 0 0 .194-.195v-.086c0-.087-.086-.173-.194-.173Zm0 .26c0 .02-.022.042-.044.042h-.324a.045.045 0 0 1-.043-.043v-.043c0-.022.021-.043.043-.043h.324c.022 0 .044.021.044.043v.043Zm1.038-.26h-.606v.735h.195v-.281h.411a.194.194 0 0 0 .195-.195v-.086c-.022-.087-.108-.173-.195-.173Zm0 .26c0 .02-.022.042-.043.042h-.325c-.021 0-.043-.021-.043-.043v-.043c0-.022.022-.043.043-.043h.325c.021 0 .043.021.043.043v.043Zm-2.293-.26h-.194l-.411.735h.195l.086-.13h.498l.086.13h.195l-.455-.735Zm-.237.41.151-.259.151.26h-.302Zm3.871.045v.195c0 .021 0 .043-.022.065-.021.021-.043.021-.065.021h-.692a.092.092 0 0 1-.086-.086v-.087c0-.021 0-.043.021-.064 0 0 .022-.022.044-.022l.584-.325v-.108h-.411v.195l-.195-.043v-.238c0-.022 0-.044.022-.065.021-.022.043-.022.065-.022h.605c.043 0 .087.043.087.087v.259c0 .022-.022.044-.022.044l-.022.021-.519.281h.433v-.13l.043.022h.13Zm1.059-.087v-.519h-.194l-.606.52v.194h.606v.195h.194v-.195h.195v-.195h-.195Zm-.583 0 .389-.324v.325h-.389Z"
              fill="#fff"/>
        <path d="M330.5 70.39a5.891 5.891 0 1 0 0-11.782 5.891 5.891 0 0 0 0 11.783Z" fill="#fff"/>
        <path d="M330.5 69.984c3.001 0 5.433-2.455 5.433-5.484s-2.432-5.484-5.433-5.484-5.434 2.455-5.434 5.484 2.433 5.484 5.434 5.484Z"
              fill="#88CF6D"/>
        <path d="M333.613 61.776c.73 0 1.321-.604 1.321-1.348 0-.744-.591-1.347-1.321-1.347s-1.322.603-1.322 1.347c0 .745.592 1.348 1.322 1.348Z"
              fill="#DA2434"/>
        <path d="M333.609 61.264a.237.237 0 1 0 0-.474.237.237 0 0 0 0 .474Zm.123-.584h-.256l-.073-1.097h.402l-.073 1.097Zm-.236 4.394c0 .08-.065.144-.144.144h-.029v.519a.144.144 0 0 1-.288 0V64.41a.14.14 0 0 1 .042-.101.144.144 0 0 1 .246.102v.518h.029a.144.144 0 0 1 .144.144Zm-5.992.029c0 .08.065.144.144.144h.029v.519a.144.144 0 0 0 .288 0V64.44a.142.142 0 0 0-.042-.102.144.144 0 0 0-.246.102v.519h-.029a.144.144 0 0 0-.144.144Zm4.096 1.325v.23c0 .04-.016.077-.042.102a.146.146 0 0 1-.102.043h-1.902a.145.145 0 0 1-.144-.144v-.23a.14.14 0 0 1 .043-.103.144.144 0 0 1 .245.102v.087h1.614v-.087a.143.143 0 0 1 .144-.144c.08 0 .144.065.144.144Zm-.137-1.815h-1.908a.14.14 0 0 0-.141.141v.006a.14.14 0 0 0 .141.141h1.908a.14.14 0 0 0 .141-.14v-.007a.142.142 0 0 0-.141-.14Z"
              fill="#fff"/>
        <path d="M331.46 63.98h-1.902a.805.805 0 0 0-.806.807c0 .445.361.806.806.806h1.902a.805.805 0 0 0 .807-.806.808.808 0 0 0-.807-.807Zm.332 1.173a.514.514 0 0 1-.366.152h-1.787a.518.518 0 0 1 0-1.037h1.787a.518.518 0 0 1 .366.885Z"
              fill="#fff"/>
        <path d="M332.574 63.627a2.362 2.362 0 0 0-1.925-1.227v-1.267a.46.46 0 0 0-.144-.899.46.46 0 0 0-.144.9V62.4a2.36 2.36 0 0 0-2.224 2.358v2.967h4.725v-2.967c0-.41-.104-.796-.288-1.131Zm-2.241-2.932a.172.172 0 1 1 .345 0 .172.172 0 1 1-.345 0Zm2.241 6.742h-4.148v-2.68a2.075 2.075 0 0 1 4.149 0v2.68h-.001Z"
              fill="#fff"/>
        <path fill-rule="evenodd" clip-rule="evenodd"
              d="m319.425 64.433 2.396-1.748a.38.38 0 0 1 .501.051.306.306 0 0 1-.056.457l-2.048 1.494 2.048 1.494a.306.306 0 0 1 .056.457.38.38 0 0 1-.501.05l-2.396-1.747a.314.314 0 0 1-.134-.254c0-.099.049-.192.134-.254Z"
              fill="#1280FE"/>
        <path d="M298.077 72.134H403.49a6.194 6.194 0 0 1 6.194 6.195v43.934a6.193 6.193 0 0 1-6.194 6.194h-10.946c.635 4.837 1.467 11.774 1.011 11.774-.486 0-5.798-7.296-9.011-11.774h-86.467a6.194 6.194 0 0 1-6.195-6.194V78.329a6.195 6.195 0 0 1 6.195-6.195"
              fill="#F8FAFB"/>
        <path d="M300.233 100.452c0 8.578 6.952 15.532 15.526 15.532s15.525-6.954 15.525-15.532c0-8.576-6.951-15.53-15.525-15.53-8.574 0-15.526 6.954-15.526 15.53Z"
              fill="#fff"/>
        <path d="M323.769 100.676s1.54-6.319-2.128-8.686c-3.668-2.366-7.584-2.908-10.26-1.544-3.71 1.891-5.234 6.999-4.047 9.824l9.847-2.474 6.588 2.88"
              fill="#000"/>
        <path d="M313.231 112.647h4.558v-4.551h-4.558v4.551Z" fill="#F7C29E"/>
        <path d="M313.231 110.824v-2.728h4.558v2.322c-.981.527-2.434.829-4.558.406Z" fill="#F19A5E"/>
        <path d="M306.042 99.945c.476-.233 1.028-.193 1.528.061-.172-4.492 3.497-8.272 8.117-8.111a7.825 7.825 0 0 1 8.118 8.111c.499-.254 1.052-.294 1.527-.061.913.45 1.197 1.738.634 2.878-.563 1.138-1.759 1.698-2.672 1.248a1.468 1.468 0 0 1-.341-.235c-.523 3.714-3.626 6.499-7.266 6.446-3.64.053-6.742-2.732-7.265-6.446a1.453 1.453 0 0 1-.342.235c-.912.45-2.108-.11-2.671-1.248-.563-1.14-.279-2.428.633-2.878Z"
              fill="#F7C29E"/>
        <path d="M312.705 105.253c.2.899 1.23 1.608 2.494 1.646 1.263.04 2.335-.605 2.59-1.491l-5.084-.155Z"
              fill="#fff"/>
        <path d="M323.805 100.006s-5.967-1.808-8.578-4.826c0 0 .739 3.635 1.291 4.217-.174.116-5.959-2.699-6.745-5.294-.786-2.597 5.914-3.53 5.914-3.53s2.296.977 2.413 1.037c.116.057 2.269.308 2.516.858.322.715 1.842.778 1.842.778l.96 2 .672 2.1-.285 2.66Z"
              fill="#000"/>
        <path d="M328.692 91.785c-1.318.531-2.84.777-4.418.29-3.481-1.07-4.86-.653-5.323-.391-.279.159-.61.22-.914.118-.343-.114-.662-.425-.563-1.21 0 0-.138-3.31 2.698-5.194a15.564 15.564 0 0 1 8.52 6.388Z"
              fill="#000"/>
        <path d="m321.201 91.567.001-.002a.293.293 0 0 0-.072-.423c-.582-.382-2.078-1.243-3.874-1.336a.296.296 0 0 0-.03.59c1.642.087 3.05.897 3.58 1.241a.297.297 0 0 0 .395-.07"
              fill="#7FBF43"/>
        <path d="M337.887 87.493h59.228c.708 0 1.283-.573 1.283-1.281v-.134c0-.708-.575-1.283-1.283-1.283h-59.228c-.708 0-1.283.575-1.283 1.283v.134c0 .708.575 1.281 1.283 1.281Zm47.2 7.121h12.028c.708 0 1.283-.573 1.283-1.281V93.2c0-.709-.575-1.284-1.283-1.284h-12.028c-.709 0-1.284.575-1.284 1.284v.133c0 .708.575 1.281 1.284 1.281Zm-47.2 0h39.127c.709 0 1.284-.573 1.284-1.281V93.2c0-.709-.575-1.284-1.284-1.284h-39.127c-.708 0-1.283.575-1.283 1.284v.133c0 .708.575 1.281 1.283 1.281Zm29.871 7.123h29.357c.708 0 1.283-.575 1.283-1.283v-.134c0-.708-.575-1.283-1.283-1.283h-29.357c-.708 0-1.283.575-1.283 1.283v.134c0 .708.575 1.283 1.283 1.283Zm-29.871 0h22.636c.708 0 1.283-.575 1.283-1.283v-.134c0-.708-.575-1.283-1.283-1.283h-22.636c-.708 0-1.283.575-1.283 1.283v.134c0 .708.575 1.283 1.283 1.283Zm0 7.122h59.228c.708 0 1.283-.576 1.283-1.284v-.134c0-.708-.575-1.281-1.283-1.281h-59.228c-.708 0-1.283.573-1.283 1.281v.134c0 .708.575 1.284 1.283 1.284Zm50.654 72.914h18.234c.708 0 1.282-.573 1.282-1.282v-.133c0-.708-.574-1.284-1.282-1.284h-18.234c-.709 0-1.283.576-1.283 1.284v.133c0 .709.574 1.282 1.283 1.282Zm6.749 7.121h11.485c.708 0 1.282-.573 1.282-1.282v-.133c0-.708-.574-1.284-1.282-1.284H395.29c-.708 0-1.282.576-1.282 1.284v.133c0 .709.574 1.282 1.282 1.282m-19.712 0h14.725c.708 0 1.282-.573 1.282-1.282v-.133c0-.708-.574-1.284-1.282-1.284h-14.725c-.709 0-1.282.576-1.282 1.284v.133a1.28 1.28 0 0 0 1.282 1.282Zm-25.729 0h20.743a1.28 1.28 0 0 0 1.281-1.282v-.133c0-.708-.573-1.284-1.281-1.284h-20.743c-.708 0-1.281.576-1.281 1.284v.133a1.28 1.28 0 0 0 1.281 1.282Zm0-7.121h32.68a1.28 1.28 0 0 0 1.282-1.282v-.133c0-.708-.573-1.284-1.282-1.284h-32.68c-.708 0-1.281.576-1.281 1.284v.133a1.28 1.28 0 0 0 1.281 1.282Zm0 21.079h56.926c.708 0 1.282-.573 1.282-1.281v-.133c0-.709-.574-1.284-1.282-1.284h-56.926c-.708 0-1.281.575-1.281 1.284v.133a1.28 1.28 0 0 0 1.281 1.281m28.758-6.837h28.168c.708 0 1.282-.573 1.282-1.281v-.134c0-.708-.574-1.283-1.282-1.283h-28.168c-.708 0-1.283.575-1.283 1.283v.134c0 .708.575 1.281 1.283 1.281Zm-28.758 0h21.699a1.28 1.28 0 0 0 1.281-1.281v-.134c0-.708-.573-1.283-1.281-1.283h-21.699c-.708 0-1.281.575-1.281 1.283v.134a1.28 1.28 0 0 0 1.281 1.281Z"
              opacity=".6" fill="#00080C"/>
        <path d="m132 422.767 32.5-74.5 102.528 18.821c.538.099.897.613.805 1.153L257 431.267l-125-8.5Z"
              fill="#19354A"/>
        <path d="M262.5 371.267c-20.8 4.4-66.333-5.667-92-16.001-16.8-10 3-10.499 18-8l74 17.001c8.667 2.5 5 5.942 0 7Z"
              fill="#678FAD"/>
        <path d="M187.5 331.5c3-11.501-13 25.216-13 25.216s11.5 4.5 22.5 7c3.55.807 10 3 22.5 5 5.101.816 10.325 1.809 17 2.5 14.5 1.5 22.5.5 22.5.5s11-25 5.5-16.5-80-12.216-77-23.716Z"
              fill="#DCEAFF"/>
        <path d="M176.279 353.078c39.774 16.273 82.702 16.807 83.623 15.975.922-.831-.749 2.968-.989 2.979-38.541 1.793-84.791-15.021-84.991-15.158-.201-.137 1.823-4.014 2.357-3.796Z"
              fill="#CADAF1"/>
        <path d="m132 422.767 29.5-64.5 102.55 18.825a1 1 0 0 1 .809 1.13L257 431.267l-125-8.5Zm429.638 18.777-34.125-84.152-115.17 18.049a1 1 0 0 0-.835 1.131l10.277 70.82 139.853-5.848Z"
              fill="#19354A"/>
        <path d="M417.392 380.221c23.102 5.52 74.249-4.395 103.216-15.187 19.055-10.679-3.044-11.814-19.87-9.46l-83.142 16.829c-9.752 2.539-5.757 6.491-.204 7.818Z"
              fill="#678FAD"/>
        <path d="M502.315 337.995c-3.015-12.932 13.784 28.541 13.784 28.541s-12.975 4.69-25.333 7.162c-3.988.797-11.256 3.059-25.275 4.928-5.721.763-11.585 1.72-19.059 2.296-16.238 1.253-25.144-.098-25.144-.098s-11.556-28.241-5.661-18.588c5.895 9.654 89.703-11.31 86.688-24.241Z"
              fill="#DCEAFF"/>
        <path d="m561.638 441.543-31.066-72.896-115.192 18.052a1 1 0 0 0-.838 1.108l7.243 59.584 139.853-5.848ZM429.5 372.519a3.548 3.548 0 0 1 3.593-3.519 3.547 3.547 0 0 1 3.519 3.593 3.546 3.546 0 0 1-3.593 3.518c-1.953-.037-3.537-1.639-3.519-3.592Z"
              fill="#19354A"/>
        <path d="M260 411.003c-96-7-100-50.5-100-51 0-.499-24 54-24 54h123.5s.611-2.991.5-3Zm177.133 21.961c96.202-3.181 101.927-46.488 101.947-46.987.02-.499 21.836 54.911 21.836 54.911l-123.403-4.907s-.492-3.013-.38-3.017Z"
              fill="#0C293F"/>
        <path d="M514 362c-45.016 17.458-93 16.5-94 15.5-1-1.001.733 3.478 1 3.5 43 3.501 95.271-14.348 95.5-14.5.229-.153-1.896-4.734-2.5-4.5Z"
              fill="#CADAF1"/>
    </g>
    <defs>
        <radialGradient id="b" cx="0" cy="0" r="1" gradientUnits="userSpaceOnUse"
                        gradientTransform="matrix(187.42608 -91.05368 53.27899 109.67015 333.18 242.73)">
            <stop offset=".023" stop-color="#43D854"/>
            <stop offset=".951" stop-color="#43D854" stop-opacity="0"/>
        </radialGradient>
        <radialGradient id="c" cx="0" cy="0" r="1" gradientUnits="userSpaceOnUse"
                        gradientTransform="rotate(123.486 176.038 143.838) scale(127.574 74.6486)">
            <stop offset=".235" stop-color="#08C"/>
            <stop offset="1" stop-color="#08C" stop-opacity="0"/>
        </radialGradient>
        <clipPath id="a">
            <path fill="#fff" d="M0 0h730v420H0z"/>
        </clipPath>
        <clipPath id="d">
            <path fill="#fff" transform="translate(367.887 63.865)" d="M0 0h2.791v2.507H0z"/>
        </clipPath>
    </defs>
</svg>