<svg width="730" height="420" fill="none" xmlns="http://www.w3.org/2000/svg"><g clip-path="url(#a)"><path d="M80.4 89.278c3.518-21.931 27.535-34.342 48.958-25.554 9.999 4.088 19.023 5.981 26.243 7.106C239.474 84.484 311.208-4.667 430.16 14.649c104.133 16.909 121 86.781 126.714 98.862 5.814 12.097 23.744 85.541 41.268 103.745 17.524 18.204 81.448 69.524 103.879 128.391.084.11.055.3.124.506 9.135 24.584-12.451 49.344-39.123 44.992L82.701 296.817c-19.453-3.226-32.794-20.972-29.793-39.578l27.491-167.96Z" fill="#F8FAFB"/><g clip-path="url(#b)"><path d="M325.409 131.377c.649-1.249-14.101-5.712-14.324 6.538 0 0-27.619-.67-14.437-16.021 4.566-5.31 4.096-9.705 3.962-13.789-.134-4.083 2.842-15.975 13.071-14.77 0 0 2.686-1.094 6.021.647 7.587 3.927 24.597 41.925 5.707 37.395Z" fill="#163560"/><path d="M272.859 146.55s-2.82 1.651-4.14 1.071c-1.321-.581-4.074-1.094-3.626-1.495.425-.38 1.947.29 2.238.089.291-.223-1.858-1.807-2.507-2.187-.649-.379-2.26-1.115-2.059-1.428.224-.312 3.716-.312 5.618.848 1.903 1.16 4.723 1.607 4.723 1.607l-.247 1.495Z" fill="#FFB27D"/><path d="m263.012 150.186 3.111-1.026a1.39 1.39 0 0 0 .895-1.763l-2.171-6.515a1.396 1.396 0 0 0-1.768-.892l-3.111 1.026a1.39 1.39 0 0 0-.896 1.763l2.171 6.515a1.397 1.397 0 0 0 1.769.892Z" fill="#1C468A"/><path d="M277.736 147.598c-1.321-.58-4.073-1.093-3.626-1.495.425-.379 1.947.29 2.238.09.269-.201 2.708 2.008 1.388 1.405Z" fill="#FFB27D"/><path d="M306 146.195s-1.236 1.956-3.456 4.23c-2.67 2.729-6.828 5.868-11.998 6.482-2.473.295-4.918-.137-7.138-.933-6.294-2.274-11.042-7.482-11.042-7.482-1.124-2.456.702-4.116.702-4.116s16.269 2.32 17.478 1.819c3.454-.695 8.268-17.626 9.954-19.695 1.686-2.069 5-2.5 5-2.5l.5 22.195Z" fill="#F99746"/><path d="M303.497 150.12c-2.126 2.677-5.438 5.756-9.557 6.359-1.969.29-3.916-.134-5.685-.915.202.022 5.215.647 7.207-2.923 2.037-3.637 4.253-9.416 7.274-7.497 1.321.826 1.254 2.901.761 4.976Z" fill="#ED7D2B"/><path d="M343.426 254.631s3.089 2.811 2.484 4.819c-.604 2.008-3.402 3.325-3.782 5.779-.381 2.454-1.88 3.771-3.245 3.771h-6.469s-1.007-1.718 1.41-2.231c2.418-.514 3.335-3.392 3.179-6.069-.157-2.678.223-6.225.223-6.225l5.126-1.183 1.074 1.339Z" fill="#233862"/><path d="M317.889 256.304s1.119 11.937-.247 12.584l-17.39-.044s0-2.008 2.798-2.455c2.797-.446 7.699-2.075 8.527-5.712.828-3.592 6.312-4.373 6.312-4.373Z" fill="#1B3051"/><path d="M330.288 170.736c-3.581-8.01-5.774-10.286-5.349-12.785.313-1.852-.94-34.45-.94-34.45-.425-.134-1.276-.245-1.746-.357-1.477-.335-2.686-1.361-3.178-2.767-.604-1.695-1.097-4.217-1.074-7.363l-.448.089-7.699 1.518s.179 2.409.179 4.685v.067a4.407 4.407 0 0 1-3.201 4.262c-.962.29-1.813.513-1.813.513s-2.82 8.055-3.379 16.333c-.538 8.278 5.147 11.87-.045 28.403-5.327 16.913 30.663 6.27 28.693 1.852Z" fill="#FFB27D"/><path d="M309.809 114.643s.179 2.41.179 4.685c4.32-.111 6.603-4.038 7.52-6.225l-7.699 1.54Z" fill="#E8945B"/><path d="M308.376 116.807s10.206.179 10.206-6.158c0-6.337 1.321-10.576-5.192-10.956-6.513-.379-7.789 2.031-8.304 4.151-.514 2.097.627 12.74 3.29 12.963Z" fill="#FFB27D"/><path d="M308.757 99.515s2.798 7.43 7.073 8.524c4.297 1.093 6.154-.045 6.154-.045s-3.29-2.611-3.961-7.14c-.022 0-7.162-4.864-9.266-1.339Z" fill="#163560"/><path d="M309.451 100.118s-2.082.78-2.932 2.275c-.828 1.473-1.545 3.414-1.388 5.824 0 0-2.104-5.043.269-7.921 2.506-3.012 4.051-.178 4.051-.178Z" fill="#163560"/><path d="M328.9 137.937s-.044 4.819-.291 9.193c-.179 2.9-.447 5.6-.85 6.559-1.052 2.41-2.216 2.789-2.216 2.789l-9.132 2.232-3.2.781-10.117-3.013s-4.61-12.829-2.753-20.058c1.858-7.23 4.678-12.228 4.678-12.228s8.259 8.055 19.025-.691l4.856 14.436Z" fill="#F99746"/><path d="M328.587 147.13c-.179 2.9-.448 5.6-.85 6.56-1.052 2.409-2.216 2.789-2.216 2.789l-9.132 2.231-3.961-1.16s13.227-2.009 11.772-13.343l4.387 2.923Z" fill="#ED7D2B"/><path d="M303.699 158.42s-5.014 15.551-5.327 20.839c-.314 5.288 9.579 75.238 9.982 77.67.381 2.298 3.245 3.771 3.245 3.771s1.321.781 3.201.245c2.619-.736 3.424-1.606 3.424-1.606s3.895-49.869 1.478-67.696c-2.418-17.828-2.44-33.223-2.44-33.223h-13.563Z" fill="#163560"/><path d="M324.939 157.951s7.654 10.219 8.348 17.136c.716 6.917 1.119 31.193 2.641 37.931 1.522 6.738 7.095 19.702 7.095 40.742 0 0-.582 1.205-2.372 1.852-.582.201-1.343.402-2.082.581a3.282 3.282 0 0 1-3.67-1.741c-3.783-7.564-15.779-31.996-16.406-37.061-.425-3.592-4.23-27.332-12.511-41.255-1.992-3.347 1.208-16.645 1.208-16.645l17.749-1.54Z" fill="#17467F"/><path d="M302.893 156.01s2.014 1.584 6.021 1.673c4.767.09 16.607-1.204 16.607-1.204s.515 1.472.515 3.012c0 0-14.459 3.637-22.83.535 0 0-1.096-2.03-.313-4.016Z" fill="#233862"/><path d="M309.943 159.334c0-1.361-.985-2.454-2.171-2.454-1.208 0-2.171 1.093-2.171 2.454 0 1.362.985 2.455 2.171 2.455s2.171-1.093 2.171-2.455Zm-.716 0c0 .96-.649 1.741-1.455 1.741s-1.455-.781-1.455-1.741c0-.959.649-1.74 1.455-1.74s1.455.781 1.455 1.74Z" fill="#336FAA"/><path d="m343.98 182.532-22.731 4.886-2.751-12.715 22.732-4.887 2.75 12.716Z" fill="#D16218"/><path d="M318.493 174.73s6.356 5.31 13.429 3.458c7.073-1.852 9.311-8.344 9.311-8.344l-22.74 4.886Z" fill="#E27A2D"/><path d="M322.947 173.882a1.25 1.25 0 0 0-1.253-1.249 1.25 1.25 0 1 0 0 2.499 1.25 1.25 0 0 0 1.253-1.25Zm-.425 0a.85.85 0 0 1-.851.848.848.848 0 1 1 0-1.696c.47 0 .851.402.851.848Z" fill="#0C2442"/><path d="M340.181 175.489s0 1.852.358 2.722c.358.892 1.41 2.075 1.746 2.075.358 0-.314-1.852-.157-1.807.179.044 1.03 3.079 1.634 3.146.604.067 1.164-3.414.85-4.775-.313-1.361-1.701-3.012-1.701-3.012l-2.73 1.651Z" fill="#FFB27D"/><path d="M323.999 123.501s5.64.758 8.684 6.738c2.328 4.596 6.893 18.676 8.55 23.227 1.589 4.373.828 13.254 2.036 20.037a1.14 1.14 0 0 1-.693 1.249l-2.082.826a.997.997 0 0 1-1.209-.402c-1.835-3.079-5.953-14.525-8.46-21.687-2.954-8.368-11.638-14.481-11.638-14.481l4.812-15.507Z" fill="#F99746"/><path d="M321.268 172.923c-.022-.201-1.32-20.885-1.074-32.509.134-6.114 1.074-10.398 1.858-12.942.85-2.766 2.104-3.904 2.126-3.949l.425.134c-.022.045-3.514 5.266-3.76 16.779-.246 11.602 1.052 32.264 1.074 32.464l-.649.023Z" fill="#0C2442"/></g><g clip-path="url(#c)"><path d="M235.5 202.096c-.473 2.544-1.529 5.549-3.018 6.525C230.793 209.715 230 211 230 211l-1.392-.659-1.946-.716s.021-.197.046-.533c.025-.337.084-.79.189-1.306 0 0 .416-.791-.054-1.595-.471-.805-.653-2.185-.229-3.088.419-.93.608-3.038.966-3.045.855-.009.103 2.999.54 3.449.401.402.775.171.824.135l.027-.005c2.131-1.419 3.975-7.382 5.338-6.843.503.19 1.395 4.243 1.191 5.302Z" fill="#FFB27D"/><path d="M195 206s13.754 13.504 18.464 16.401C218.174 225.298 227 209 227 209s1.675-.039 3 2c0 0-5.769 20.099-14.571 22.423-8.823 2.327-25.348-18.54-25.348-18.54L195 206Z" fill="#FFB27D"/><path d="M191.662 175.496s-10.013-11.909-15.31-4.302c0 0-3.952 1.626-5.375 8.289-1.45 6.793 3.109 11.961 5.454 10.702 1.502-.814 2.662 1.809 2.662 1.809l12.569-16.498Z" fill="#233862"/><path d="M152.004 250.121c.29.656 1.476 1.259 3.215 1.679 3.9.97 10.461 1.075 15.257-.682 5.138-1.889 8.88-28.801 10.461-42.598.554-4.827.843-8.027.843-8.027s-2.951-4.59-14.387-3.043c-11.436 1.522-12.596 5.351-13.597 12.224-1.001 6.846-2.688 38.27-1.792 40.447Z" fill="#466AA5"/><path d="M155.245 251.8c3.9.97 10.461 1.075 15.257-.682 5.139-1.889 8.88-28.801 10.462-42.598-1.344-4.748-2.425-7.869-2.425-7.869s-14.361-1.705-17.154 2.57c-2.503 3.83-5.534 40.815-6.14 48.579Z" fill="#0E2847"/><path d="M177.459 169.987s-1.344-5.325-9.249-3.672c0 0 3.794-.472 4.822.97 0 0-3.004-1.364-4.875-.209-1.871 1.127-2.187 4.983-1.897 6.137.29 1.155 2.345 4.643 3.715 4.643 1.37 0 3.004-1.206 3.004-1.206l4.48-6.663Z" fill="#233862"/><path d="M165.627 253.452c3.927-8.734 5.824-11.2 5.877-13.954.052-2.177-1.028-4.512-3.136-10.256a21.245 21.245 0 0 1-1.054-4.145c-1.423-9.495-.106-21.823 4.69-23.371 1.265-.42 3.558-.393 4.137-.525 1.107-.288 3.004-4.301 3.004-10.754l.501.105 8.459 1.652s-.185 2.65-.211 5.115c0 2.073.132 4.04.606 4.276.606.052.975.079.975.079s7.062 9.705 7.642 18.754c.606 9.024-5.666 12.958.052 31.005 5.85 18.466-33.702 6.846-31.542 2.019Z" fill="#FFB27D"/><path d="M188.131 192.204s-.185 2.649-.211 5.115c-4.743-.131-7.246-4.407-8.274-6.794l8.485 1.679Z" fill="#E8945B"/><path d="M178.776 189.634s-2.477-3.883-3.083-7.214c-.421-2.36.791-11.174 9.724-9.889 0 0 2.582.263 5.033 1.889 1.923 1.285 4.743 4.092 1.607 11.777l-.817 2.597-12.464.84Z" fill="#233862"/><path d="M189.712 194.565s-11.199.184-11.225-6.741c0-6.925-1.45-11.542 5.691-11.961 7.168-.42 8.538 2.229 9.118 4.538.579 2.308-.685 13.928-3.584 14.164Z" fill="#FFB27D"/><path d="M189.29 175.705s-3.056 8.106-7.773 9.312c-4.717 1.207-6.746-.052-6.746-.052s3.61-2.833 4.374-7.817c-.026 0 7.826-5.325 10.145-1.443Z" fill="#233862"/><path d="M188.526 176.361s2.293 1.81 2.846 3.567c.553 1.758.817 5.378 1.871 5.273 0 0 2.319-5.509-.29-8.63-2.74-3.331-4.427-.21-4.427-.21Z" fill="#233862"/><path d="M175.562 337.285c2.819 11.121 7.062 19.646 7.062 19.646l3.689-.262s-1.818-8.551-1.713-20.092c.079-8.079 1.08-17.601 4.295-26.729 11.067-31.293 9.276-54.087 9.276-54.087l-20.791 2.413-.975.105c-.079 9.469-.343 22.322-.554 32.368-.184 9.05-.368 15.817-.368 15.817-3.979 8.525-2.53 20.591.079 30.821Z" fill="#E58638"/><path d="M163.625 335.501c1.185 12.643 6.456 20.827 6.456 20.827l1.765 1.285s1.66-8.918 2.846-19.515c1.133-10.073 2.661-20.748 4.427-24.001 6.93-12.905 9.012-61.615 9.012-61.615l-21.081-1.049c-2.108 3.541-3.056 9.338-3.267 15.921-.554 16.631 3.399 38.297 3.979 41.445.052.236-.027.472-.132.708-4.19 8.21-4.796 17.627-4.005 25.994Z" fill="#EE9849"/><path d="M188.948 176.624s-2.187 8.498-8.116 11.226c0 0 5.955-5.22 6.456-10.833.5-5.613 1.66-.393 1.66-.393Z" fill="#233862"/><path d="M162.992 259.774c-.026.708 0 1.259.132 1.678.448 1.391 2.003 2.046 5.718 1.653 2.266-.236 3.294-4.013 3.742-7.24 1.37 4.617 3.294 7.214 5.744 7.738 3.611.787 21.819 2.991 23.031-5.587 1.318-9.443-2.609-26.151-2.819-35.148.527-3.201.711-5.981.658-8.342-.158-6.426-2.055-10.02-3.504-11.462-.422-.315-.817-.499-2.504-.787-.843-.131-2.029-.315-3.689-.525 0 0-.685-.079-.659-.052.317.55 1.977 4.406 1.924 6.033-.105 3.2-6.298 3.514-9.091 1.337-2.82-2.229-7.299-7.711-7.299-7.711s-5.191.55-7.721 2.387l.026.026c-.316.21-.527.446-.658.682-1.002 1.915-1.66 9.469-2.082 18.44-.132 2.859.685 14.348.606 17.338-.422 12.722-1.423 17.102-1.555 19.542Z" fill="#9FC1F4"/><path d="M180.489 359.974h2.372c.79-.131 1.37-.341 2.187-.446 1.238-.157 1.792.341 1.924.446l.026.026h10.013c.264-.367 0-1.18-.237-1.783a1.33 1.33 0 0 0-.949-.84c-1.054-.314-3.162-.577-5.085-2.308-1.081-.97-5.218-3.567-5.218-3.567h-.026c-.079 0-.527.131-2.398 1.705-.975.813-2.635-1.154-2.635-1.154s-.316.262-.553.734a2.458 2.458 0 0 0-.211 1.521c.158.892-.343 2.571-.712 3.673-.237.682-.421 1.154-.421 1.154s-.106.603 1.923.839Z" fill="#142644"/><path d="M167.894 359.974h2.371c.791-.131 1.37-.341 2.187-.446 1.239-.157 1.792.341 1.924.446l.026.026h10.013c.264-.367 0-1.18-.237-1.783a1.33 1.33 0 0 0-.948-.84c-1.054-.314-3.162-.577-5.086-2.308-1.08-.97-5.217-3.567-5.217-3.567h-.027c-.079 0-.527.131-2.398 1.705-.975.813-2.635-1.154-2.635-1.154s-.316.262-.553.734a2.466 2.466 0 0 0-.211 1.521c.158.892-.343 2.571-.711 3.673-.238.682-.422 1.154-.422 1.154s-.105.603 1.924.839Z" fill="#233862"/><path d="M166.655 203.719s-18.34 18.598-17.655 24.946c.711 6.374 15.942 21.456 15.942 21.456l1.344-3.934s-8.617-17.286-7.879-18.231c.738-.944 10.699-7.082 11.621-8.761.975-1.626-3.373-15.476-3.373-15.476Z" fill="#FFB27D"/><path d="M166.312 246.213s5.455-.551 5.956 0c.5.55 2.503 4.852.922 4.983-1.581.132-3.426-1.547-4.163-1.18-.738.367-2.082 1.705-3.584.787-.474-.289-.685-.813-1.423-1.417-1.08-.918 2.292-3.173 2.292-3.173Z" fill="#FFB27D"/><path d="M166.312 246.213s2.109-.63 2.715-1.102c.579-.472.764.866-.475 1.285-1.238.42-2.24-.183-2.24-.183Z" fill="#FFB27D"/><path d="M194.35 202.46s1.713.158 4.848 3.017c3.136 2.859 10.488 8.997 10.488 8.997s-1.818 7.869-11.173 8.367l-4.163-20.381Z" fill="#9FC1F4"/><path d="m189.501 201.699.027.027c.5.787 8.274 13.089 9.011 21.089.501-2.912.686-5.508.659-7.738 0-.393-.079-.787-.184-1.18-1.081-3.227-3.399-9.338-5.824-11.699-.342-.289-3.689-.499-3.689-.499Z" fill="#466AA5"/><path d="M166.971 203.457s-2.266 1.39-5.085 4.355c-2.846 2.964-7.51 9.154-7.51 9.154s2.845 8.184 12.411 8.997c9.591.813 4.4-9.128 4.4-9.128l-4.216-13.378Z" fill="#9FC1F4"/><path d="M168.71 200.362s6.272 3.751 7.036 18.466c.764 14.689-11.225 21.378-11.225 21.378l-.106-4.512s10.014-8.761 7.194-20.486c-2.82-11.699-7.062-14.217-7.062-14.217l4.163-.629Z" fill="#466AA5"/><path d="m230.024 208.758-5.085-1.574c-.712-.21-1.107-.97-.87-1.652l3.294-10.598a1.304 1.304 0 0 1 1.66-.865l5.086 1.574c.711.21 1.106.97.869 1.652l-3.294 10.597c-.21.682-.948 1.076-1.66.866Z" fill="#163560"/><path d="m229.787 207.997-4.216-1.311a1.16 1.16 0 0 1-.764-1.443l3.004-9.679a1.168 1.168 0 0 1 1.449-.761l4.216 1.312c.606.184.949.839.764 1.443l-3.004 9.679a1.167 1.167 0 0 1-1.449.76Z" fill="#08C"/></g><g clip-path="url(#d)"><path d="m226.977 154.302 20.805 15.012c1.656 1.195 2.042 3.528.844 5.188l-6.574 9.111a3.422 3.422 0 0 1-4.769.766l-.533-.384-2.047 4.947-3.246-8.767-15.403-11.115a3.716 3.716 0 0 1-.843-5.175l6.279-8.702a3.937 3.937 0 0 1 5.487-.881Z" fill="#43D854"/><path d="m221.652 160.512 21.691 15.652a.67.67 0 0 0 .929-.149.671.671 0 0 0-.151-.929l-21.691-15.651a.67.67 0 0 0-.929.149.67.67 0 0 0 .151.928Zm-1.731 2.4 21.69 15.652a.67.67 0 0 0 .929-.149.67.67 0 0 0-.151-.929l-21.691-15.651a.669.669 0 0 0-.929.149.67.67 0 0 0 .152.928Zm-1.732 2.401 21.69 15.651a.67.67 0 0 0 .929-.149.67.67 0 0 0-.151-.929l-21.691-15.651a.669.669 0 0 0-.928.149.67.67 0 0 0 .151.929Zm13.227-1.816 9.211 6.646a.79.79 0 0 0 1.102-.177.791.791 0 0 0-.179-1.102l-9.211-6.646a.79.79 0 0 0-1.102.177.792.792 0 0 0 .179 1.102Zm-7.914-5.711 5.545 4.001c.281.203.67.134.867-.139l.192-.266a.623.623 0 0 0-.141-.867l-5.545-4.001a.622.622 0 0 0-.867.139l-.192.266a.618.618 0 0 0 .141.867Z" fill="#E9FFEC"/></g><g clip-path="url(#e)"><path d="M149.931 88.284c-.814 2.199-2.219 4.719-3.699 5.361-1.677.717-2.367 1.73-2.367 1.73l-1.357-.791-1.627-.939s.049-.173.123-.47a9.87 9.87 0 0 1 .37-1.136s.493-.642.197-1.433c-.296-.79-.246-2.05.272-2.791.517-.766 1.011-2.62 1.331-2.57.765.124-.37 2.693-.049 3.163.296.42.666.271.715.247h.025c2.12-.94 4.685-5.98 5.819-5.287.42.247.592 4.002.247 4.916Z" fill="#FFB27D"/><path d="m142.582 91.348 2.664 1.877a.456.456 0 0 0 .592-.098l6.806-9.685a.458.458 0 0 0-.099-.593l-2.663-1.877a.456.456 0 0 0-.592.098l-6.806 9.685a.457.457 0 0 0 .098.593Z" fill="#2B478B"/><path d="m145.024 93.053 1.553 1.087c.148.098.346.074.444-.075l6.905-9.857c.099-.148.074-.346-.074-.445l-1.554-1.087c-.148-.099-.345-.074-.443.074l-6.905 9.858c-.099.148-.074.346.074.445Z" fill="#233862"/><path d="M104.507 77.414s13.514 23.618 18.421 27.942l17.978-13.415s2.613.79 3.748 3.433c0 0-10.925 22.285-21.652 23.224-10.751.939-25.819-26.707-25.819-26.707l7.324-14.477Z" fill="#94B0ED"/><path d="M73.929 238h-7.817c-.987-.544-1.85-1.754-2.146-3.582-.37-2.52-3.206-3.904-3.822-5.954-.617-2.051 2.515-4.966 2.515-4.966l.518-.667.542-.692 5.18 1.21s.122 1.236.196 2.817a43.75 43.75 0 0 1 .025 3.607c-.148 2.742.764 5.707 3.206 6.25 1.85.371 1.775 1.458 1.603 1.977Zm45.3 0h-17.854c-.863-1.038-.542-4.917-.419-6.177.025-.247.05-.395.05-.395s6.091-4.892 6.929-1.136c.025.123.049.222.099.346 1.06 3.508 5.795 5.089 8.507 5.534 1.801.271 2.442 1.186 2.688 1.828Z" fill="#233862"/><path d="M115.826 138.165s-.937 11.562-2.022 25.471c-1.479 18.9-3.255 42.099-3.428 46.496-.296 7.634-1.529 19.839-1.529 19.839s-2.885 2.89-8.68 1.68c0 0-5.154-17.442-6.633-35.873-.025-.296-.05-.617-.074-.914-1.381-18.776-3.502-58.33-3.502-58.33l25.868 1.631Z" fill="#2B478B"/><path d="M115.826 138.165s-.937 11.562-2.022 25.471l-20.27 32.142c-.025-.296-.05-.617-.074-.914-1.381-18.776-3.502-58.33-3.502-58.33l25.868 1.631Z" fill="#233862"/><path d="M111.609 139.548s-16.694 41.901-27.668 61.591c-10.974 19.691-14.402 25.2-14.402 25.2s-6.288-2.52-6.855-4.225c0 0 4.192-38.022 11.54-47.286 4.144-5.238 9.026-20.951 9.248-26.46.222-5.485 1.48-16.38 1.48-16.38l26.657 7.56Z" fill="#2B478B"/><path d="M107.442 78.451c-6.51 2.05-17.805-3.508-17.805-3.508s6.017-4.521 5.697-13.91l5.03 4.077 3.428 2.767s-.025 1.63-.394 4.497c-.05.32-.099.667-.148 1.037-.124.865.246 1.73.986 2.199 2.071 1.359 3.206 2.841 3.206 2.841Z" fill="#FFB27D"/><path d="M103.817 67.853s-.025 1.63-.395 4.496c-3.797-.642-8.088-6.794-8.088-6.794 1.923-.568 3.625-.667 5.055-.445l3.428 2.743Z" fill="#ED975D"/><path d="M105.814 67.704s-10.776 1.804-11.787-4.94c-1.011-6.745-3.083-11.044 3.748-12.477 6.831-1.433 8.557.939 9.445 3.113.888 2.174 1.356 13.662-1.406 14.304Z" fill="#FFB27D"/><path d="M116.541 139.128a1.01 1.01 0 0 1-.69.272c-2.441-.025-9.593 1.334-15.635.716-5.104-.494-9.592-2.001-14.45-4.175-.642-.296-2.121-1.087-2.097-1.804.025-.79.1-1.927.198-3.359.345-5.016.937-13.613.37-23.545a138.424 138.424 0 0 1-.173-5.485c-.05-13.464 2.614-25.298 7.965-29.325.469-.321 3.255 1.038 5.845 2.322 2.392 1.186 4.759 1.31 7.028.84l2.244 2.001c2.737 2.545 5.746 6.029 7.053 11.29 1.109 4.473 1.775 12.551 2.12 20.926.173 3.805.296 7.635.321 11.266v.124c.025.37.025.741.025 1.112.172 9.289.049 16.7-.124 16.824Z" fill="#AEC3FF"/><path d="M83.891 130.753c.346-5.015.938-13.613.37-23.544a138.807 138.807 0 0 1-.172-5.485c2.22-5.41 4.044-9.363 4.044-9.363h5.623s4.142 28.213-9.865 38.392Z" fill="#94B0ED"/><path d="m55.089 162.722 23.97 3.434c3.13.445 6.04-1.754 6.485-4.867l1.48-10.401c.443-3.138-1.752-6.053-4.859-6.498l-23.97-3.434c-3.131-.444-6.041 1.754-6.485 4.867l-1.48 10.401c-.443 3.138 1.751 6.053 4.859 6.498Z" fill="#D16218"/><path d="M83.522 147.479a5.818 5.818 0 0 0-3.97-3.484c-.173-.049-.37-.074-.543-.099l-4.784-.691.32-2.249a1.813 1.813 0 0 0-.37-1.408 1.897 1.897 0 0 0-1.257-.741l-1.258-.173-5.006-.716-.912-.124a1.894 1.894 0 0 0-2.146 1.606l-.32 2.248-8.237-1.186c-3.132-.444-6.066 1.754-6.51 4.892l-1.504 10.525c-.444 3.137 1.75 6.077 4.882 6.522l23.945 3.409c.42.05.839.074 1.258.05a5.992 5.992 0 0 0 1.874-.47c1.751-.766 3.107-2.421 3.379-4.471l1.504-10.525a5.293 5.293 0 0 0-.346-2.915Zm-18.717-7.906a.707.707 0 0 1 .591-.593c.074 0 .148-.025.222 0l1.06.148 3.946.568 2.146.297c.394.049.666.42.592.79l-.321 2.249-8.557-1.236.32-2.223Z" fill="#E27A2D"/><path d="M73.337 131.717s-1.258 1.68-1.307 2.347c-.345 4.545 1.726 5.188-3.625 7.708 0 0-2.293.864-2.343-.914-.05-1.779 1.603-1.804 1.282-4.324-.345-2.89-.32-2.915 1.579-4.422l1.257-2.075 3.157 1.68Z" fill="#FFB27D"/><path d="M70.131 133.001c2.022.396 4.217.247 4.217.247s6.017-18.603 6.781-20.308c.765-1.704 17.854-21.815 17.854-21.815l-7.102-17.837s-18.47 30.907-20.344 35.255c-3.107 7.189-4.168 23.272-4.168 23.272s1.184.89 2.762 1.186Z" fill="#AEC3FF"/><path d="M94.002 62.12s1.11-.172.937-1.704c-.172-1.532-.172-3.508 1.06-3.137 1.234.37 1.308 1.358 1.8.79.519-.568.519-3.014 4.193-3.187 3.674-.173 5.179 1.112 6.88.37 1.702-.765 1.8-3.36 1.8-3.36s-.493.94-1.233 1.211c0 0 2.861-3.903-.444-6.596-3.304-2.693-6.682-.939-8.606-.815-4.217.247-6.954.519-8.31 3.285-1.332 2.768-.765 10.476 1.923 13.144Z" fill="#2B478B"/><path d="M71.34 133.718s1.208 1.26 1.282 1.803c.246 1.68.814 2.421.518 2.594-.592.371-1.357-.864-1.727-2.001-.345-1.112-.073-2.396-.073-2.396Z" fill="#FFB27D"/></g><g clip-path="url(#f)"><path d="M226.842 106h31.578c2.514 0 4.58 2.05 4.58 4.57v13.829c0 2.312-1.891 4.199-4.208 4.199h-.809l1.519 6.413-9.553-6.413h-23.38c-2.514 0-4.569-2.05-4.569-4.559v-13.207c0-2.662 2.175-4.832 4.842-4.832Z" fill="#43D854"/><path d="M226.001 116.034h32.922c.448 0 .82-.371.82-.818a.825.825 0 0 0-.82-.818h-32.922a.825.825 0 0 0-.82.818c0 .447.371.818.82.818Zm0 3.642h32.922c.448 0 .82-.37.82-.817a.825.825 0 0 0-.82-.818h-32.922c-.449 0-.82.37-.82.818 0 .447.371.817.82.817Zm0 3.643h32.922c.448 0 .82-.371.82-.818a.825.825 0 0 0-.82-.818h-32.922a.825.825 0 0 0-.82.818c0 .447.371.818.82.818Zm11.777-11.946h13.98a.973.973 0 0 0 .972-.97.973.973 0 0 0-.972-.971h-13.98a.974.974 0 0 0-.973.971c0 .534.437.97.973.97Zm-12.013 0h8.417a.766.766 0 0 0 .765-.763v-.404a.766.766 0 0 0-.765-.763h-8.417a.766.766 0 0 0-.765.763v.404a.76.76 0 0 0 .765.763Z" fill="#E9FFEC"/></g><g clip-path="url(#g)"><path d="m196.203 66.823-28.394-13.819c-2.26-1.1-5.015-.16-6.118 2.105l-6.052 12.434c-1.012 2.08-.137 4.603 1.947 5.618l.727.353-4.173 5.102 11.397-1.586 21.022 10.232c2.26 1.1 5.005.156 6.103-2.1l5.78-11.875c1.165-2.393.159-5.297-2.239-6.464Z" fill="#43D854"/><path d="m192.569 76.213-29.603-14.407a.824.824 0 0 1-.379-1.094.825.825 0 0 1 1.095-.377l29.602 14.408a.826.826 0 0 1 .38 1.094.825.825 0 0 1-1.095.376Zm-1.595 3.276L161.372 65.08a.824.824 0 0 1-.379-1.094.825.825 0 0 1 1.095-.377l29.602 14.408a.824.824 0 0 1 .379 1.094.824.824 0 0 1-1.095.377Zm-1.594 3.275-29.602-14.407a.824.824 0 0 1-.379-1.094.825.825 0 0 1 1.095-.377l29.602 14.407a.825.825 0 0 1 .379 1.095.824.824 0 0 1-1.095.376Zm-11.898-19.076-12.57-6.118a.973.973 0 0 1-.45-1.298.974.974 0 0 1 1.299-.447l12.571 6.117a.974.974 0 0 1 .449 1.299.973.973 0 0 1-1.299.447Zm10.801 5.257-7.567-3.683a.765.765 0 0 1-.354-1.022l.176-.362a.766.766 0 0 1 1.022-.352l7.568 3.683a.767.767 0 0 1 .354 1.021l-.177.363a.76.76 0 0 1-1.022.352Z" fill="#E9FFEC"/></g><g clip-path="url(#h)"><path d="M578.345 235.284s-17.631 35.279-35.557 59.652c-7.13 9.69-14.296 17.648-20.431 20.983-5.988 3.242-11.073 8.29-15.273 13.89-10.87 14.48-15.9 32.626-15.9 32.626l-45.819-69.305s1.566-67.757 7.057-79.087c8.014-16.525 11.883-49.888 14.978-56.539 2.284-4.937 8.806-30.378 9.433-32.257.276-.811 2.45-2.045 5.269-2.045 2.266 0 6.098 2.192 7.074 6.687 4.901 22.715-.995 37.692-.939 38.374 1.731 17.465-3.464 30.415.184 33.842.129.129.387.074.737-.166 6.319-4.053 45.524-61.199 50.351-62.433 5.122-1.327 38.836 95.778 38.836 95.778Z" fill="#FFB27D"/><path d="M504.983 348.71s-.626 30.803-2.413 72.29H387c26.419-56.336 49.393-103.737 49.393-103.737s65.79 1.99 68.59 31.447Z" fill="#F99746"/><path d="m618.398 115.87-14.186 20.799-13.928 20.412c-.848 1.031-1.824 1.381-2.893 1.271-3.334-.313-7.48-5.14-10.704-7.811l-.331-.277c-4.256-3.518-4.846-9.856-1.327-14.111l21.279-25.718 6.32-7.627c3.518-4.255 9.856-4.845 14.112-1.326l.331.276c4.238 3.5 4.846 9.856 1.327 14.112Z" fill="#FFB27D"/><path d="m604.212 136.668-13.928 20.412c-.848 1.032-1.824 1.382-2.893 1.272l8.917-47.899c.019.258 1.548 21.757 7.904 26.215Zm-61.424 158.267c-7.13 9.691-14.296 17.649-20.431 20.984-5.988 3.242-11.073 8.29-15.273 13.89-4.827-2.247-10.336-4.9-15.715-7.498-6.559-3.187-6.799-12.49-.387-15.935.055-.037.129-.074.184-.111 6.006-3.445 12.178-15.585 12.178-15.585l39.444 4.255Z" fill="#EFA26F"/><path d="m476.538 126.279-3.722 14.995s3.243 1.327 5.325.295c2.1-1.031 3.795-14.48-1.603-15.29Z" fill="#FFC197"/><path d="M583.301 302.01h-79.828c-7.849 0-14.278-6.43-14.278-14.278V112.277c0-7.848 6.429-14.277 14.278-14.277h79.828c7.849 0 14.278 6.429 14.278 14.277v175.455c0 7.848-6.429 14.278-14.278 14.278Z" fill="#2B478B"/><path d="M592.2 113.622v171.384c0 5.821-4.717 10.574-10.501 10.574h-76.642c-5.766 0-10.501-4.753-10.501-10.574V113.622c0-5.821 4.716-10.574 10.501-10.574h76.66c5.766 0 10.483 4.771 10.483 10.574Z" fill="#C0D8FB"/><path d="m581.698 103.048-75.701 192.551h-.94c-5.766 0-10.501-4.753-10.501-10.575V113.622c0-5.821 4.716-10.574 10.501-10.574h76.641Z" fill="#CBE1FD"/><path d="M559.406 109.422h-32.038a4.765 4.765 0 0 1-4.753-4.753v-.737a4.765 4.765 0 0 1 4.753-4.753h32.038a4.765 4.765 0 0 1 4.753 4.753v.737c-.018 2.634-2.155 4.753-4.753 4.753Z" fill="#2B478B"/><path d="M577.295 248.198h-46.463c-4.533 0-8.217-3.685-8.217-8.217v-18.183c0-4.531 3.684-8.216 8.217-8.216h46.463c4.533 0 8.217 3.685 8.217 8.216v18.183c0 4.532-3.684 8.217-8.217 8.217Z" fill="#F99746"/><path d="M546.584 222.388h-15.716a.991.991 0 0 1-.995-.995v-.479c0-.552.443-.995.995-.995h15.716c.552 0 .994.443.994.995v.479c-.018.534-.46.995-.994.995Zm.184 6.282h-16.102a.799.799 0 0 1-.793-.792c0-.442.369-.792.793-.792h16.102c.442 0 .792.368.792.792 0 .424-.35.792-.792.792Zm-7.13 3.777h-9.157a.614.614 0 0 1-.608-.608v-.369c0-.331.277-.608.608-.608h9.157c.332 0 .608.277.608.608v.369a.614.614 0 0 1-.608.608Zm18.663 0h-14.794a.78.78 0 0 1-.774-.774v-.055c0-.424.35-.774.774-.774h14.794c.424 0 .774.35.774.774v.055a.78.78 0 0 1-.774.774Zm13.836-3.777h-21.113a.798.798 0 0 1-.793-.792c0-.442.369-.792.793-.792h21.113c.442 0 .792.368.792.792 0 .424-.35.792-.792.792Zm-25.369 7.572h-16.102a.8.8 0 0 1-.793-.792c0-.443.369-.793.793-.793h16.102c.442 0 .792.369.792.793 0 .423-.35.792-.792.792Zm25.369 0h-21.113a.799.799 0 0 1-.793-.792c0-.443.369-.793.793-.793h21.113c.442 0 .792.369.792.793 0 .423-.35.792-.792.792Zm-25.369 3.942h-16.102a.799.799 0 0 1-.793-.792c0-.442.369-.792.793-.792h16.102c.442 0 .792.368.792.792 0 .424-.35.792-.792.792Zm25.369 0h-21.113a.798.798 0 0 1-.793-.792c0-.442.369-.792.793-.792h21.113c.442 0 .792.368.792.792 0 .424-.35.792-.792.792Zm-10.244-17.796H550.6a.857.857 0 0 1-.848-.847v-.756c0-.46.387-.847.848-.847h11.293c.461 0 .848.387.848.847v.756c0 .46-.369.847-.848.847Z" fill="#ED7D2B"/><path d="M509 237a7 7 0 1 0 0-14 7 7 0 0 0 0 14Z" fill="#fff"/><mask id="i" style="mask-type:alpha" maskUnits="userSpaceOnUse" x="502" y="223" width="14" height="14"><path d="M509 237a7 7 0 1 0 0-14 7 7 0 0 0 0 14Z" fill="#fff"/></mask><g mask="url(#i)" fill="#F99746"><path d="M509.052 231.659a2.748 2.748 0 1 0 0-5.495 2.748 2.748 0 0 0 0 5.495Zm-4.148 5.445h8.659c.518 0 .83-.674.57-1.193-.726-1.348-2.281-3.318-4.977-3.266-2.593.103-4.097 1.866-4.875 3.163-.259.57.052 1.296.623 1.296Z"/></g><path d="M577.77 174h-46.54c-4.539 0-8.23-2.661-8.23-5.934v-13.132c0-3.273 3.691-5.934 8.23-5.934h46.54c4.539 0 8.23 2.661 8.23 5.934v13.132c0 3.273-3.691 5.934-8.23 5.934Z" fill="#F99746"/><path d="M546.584 154.469h-15.716a.992.992 0 0 1-.995-.995v-.479c0-.553.443-.995.995-.995h15.716a.99.99 0 0 1 .994.995v.479c-.018.534-.46.995-.994.995Zm.184 6.282h-16.102a.8.8 0 0 1-.793-.793c0-.442.369-.792.793-.792h16.102c.442 0 .792.369.792.792 0 .424-.35.793-.792.793Zm-7.13 3.776h-9.157a.614.614 0 0 1-.608-.608v-.368c0-.332.277-.608.608-.608h9.157c.332 0 .608.276.608.608v.368a.613.613 0 0 1-.608.608Zm18.663 0h-14.794a.778.778 0 0 1-.774-.774v-.055c0-.424.35-.774.774-.774h14.794c.424 0 .774.35.774.774v.055c0 .424-.35.774-.774.774Zm13.836-3.776h-21.113a.799.799 0 0 1-.793-.793c0-.442.369-.792.793-.792h21.113c.442 0 .792.369.792.792 0 .424-.35.793-.792.793Zm-25.369 7.571h-16.102a.799.799 0 0 1-.793-.792c0-.442.369-.792.793-.792h16.102c.442 0 .792.368.792.792 0 .424-.35.792-.792.792Zm25.369 0h-21.113a.798.798 0 0 1-.793-.792c0-.442.369-.792.793-.792h21.113c.442 0 .792.368.792.792 0 .424-.35.792-.792.792Zm-10.244-13.853H550.6a.858.858 0 0 1-.848-.848v-.755c0-.461.387-.847.848-.847h11.293c.461 0 .848.386.848.847v.755a.846.846 0 0 1-.848.848Z" fill="#ED7D2B"/><path d="M509 167a7 7 0 1 0 0-14 7 7 0 0 0 0 14Z" fill="#fff"/><mask id="j" style="mask-type:alpha" maskUnits="userSpaceOnUse" x="502" y="153" width="14" height="14"><path d="M509 167a7 7 0 1 0 0-14 7 7 0 0 0 0 14Z" fill="#fff"/></mask><g mask="url(#j)" fill="#F99746"><path d="M509.052 161.659a2.748 2.748 0 1 0 0-5.495 2.748 2.748 0 0 0 0 5.495Zm-4.148 5.445h8.659c.518 0 .83-.674.57-1.193-.726-1.348-2.281-3.318-4.977-3.266-2.593.103-4.097 1.866-4.875 3.163-.259.57.052 1.296.623 1.296Z"/></g><path d="M560.051 203.068h-42.669a5.724 5.724 0 0 1-5.729-5.729v-8.088a5.724 5.724 0 0 1 5.729-5.729h42.651a5.724 5.724 0 0 1 5.729 5.729v8.088a5.696 5.696 0 0 1-5.711 5.729Z" fill="#88CF6D"/><path d="M533.891 189.547h-14.352a.905.905 0 0 1-.903-.903v-.424c0-.497.406-.902.903-.902h14.352c.497 0 .903.405.903.902v.424a.917.917 0 0 1-.903.903Zm.165 5.728h-14.702a.738.738 0 0 1-.737-.737c0-.405.331-.736.737-.736h14.702c.405 0 .737.331.737.736a.739.739 0 0 1-.737.737Zm-6.504 3.464h-8.364a.555.555 0 0 1-.553-.553v-.35c0-.313.258-.553.553-.553h8.364c.313 0 .553.258.553.553v.35c0 .295-.24.553-.553.553Zm17.042 0h-13.523a.7.7 0 0 1-.7-.7v-.056a.7.7 0 0 1 .7-.7h13.523a.7.7 0 0 1 .7.7v.056c.018.386-.313.7-.7.7Zm12.638-3.464h-19.289a.739.739 0 0 1-.737-.737c0-.405.332-.736.737-.736h19.289c.405 0 .737.331.737.736a.739.739 0 0 1-.737.737Zm-9.359-5.729h-10.317a.778.778 0 0 1-.774-.774v-.7c0-.424.35-.774.774-.774h10.317c.424 0 .774.35.774.774v.7a.767.767 0 0 1-.774.774ZM578 200c3.864 0 7-3.136 7-7s-3.136-7-7-7-7 3.136-7 7 3.136 7 7 7Z" fill="#fff"/><path d="M578 199.524c3.556 0 6.468-2.912 6.468-6.524s-2.884-6.524-6.468-6.524c-3.556 0-6.468 2.912-6.468 6.524.028 3.584 2.912 6.524 6.468 6.524Z" fill="#88CF6D"/><path d="M581.696 189.752c.868 0 1.568-.728 1.568-1.596 0-.868-.7-1.596-1.568-1.596-.868 0-1.568.728-1.568 1.596 0 .868.7 1.596 1.568 1.596Z" fill="#DA2434"/><path d="M581.696 189.136a.28.28 0 0 0 0-.56.28.28 0 0 0 0 .56Zm.14-.672h-.308l-.084-1.316h.476l-.084 1.316Zm-.644 3.752c0 .084-.056.14-.14.14h-.028v.532a.212.212 0 0 1-.056.112c-.028.028-.056.056-.112.056-.084 0-.14-.056-.14-.14v-1.4c0-.028.028-.084.056-.112.028-.028.056-.056.112-.056.084 0 .14.056.14.14v.532h.028c.028 0 .084.028.112.056.028.056.028.084.028.14Zm-6.272.028c0 .084.056.14.14.14h.028v.532c0 .028.028.084.056.112.028.028.056.056.112.056.084 0 .14-.056.14-.14v-1.4a.212.212 0 0 0-.056-.112c-.028-.028-.056-.056-.112-.056-.084 0-.14.056-.14.14v.532h-.028a.212.212 0 0 0-.112.056c0 .056-.028.084-.028.14Zm4.284 1.372v.252a.212.212 0 0 1-.056.112c-.028.028-.056.056-.112.056h-1.988c-.084 0-.14-.056-.14-.14v-.252c0-.028.028-.084.056-.112.028-.028.056-.056.112-.056.084 0 .14.056.14.14v.084h1.68v-.084c0-.028.028-.084.056-.112.028-.028.056-.056.112-.056.084.028.14.084.14.168Zm-.14-1.876h-1.988c-.084 0-.14.056-.14.14 0 .084.056.14.14.14h1.988c.084 0 .14-.056.14-.14.028-.084-.056-.14-.14-.14Z" fill="#fff"/><path d="M579.064 191.068h-1.988a.763.763 0 0 0-.588.252.873.873 0 0 0-.252.588c0 .476.392.84.84.84h1.988a.763.763 0 0 0 .588-.252.873.873 0 0 0 .252-.588.825.825 0 0 0-.84-.84Zm.364 1.232c-.084.112-.224.168-.392.168h-1.876a.532.532 0 0 1-.532-.532c0-.14.056-.28.168-.392.084-.112.224-.168.392-.168h1.876c.308 0 .532.252.532.532a.982.982 0 0 1-.168.392Z" fill="#fff"/><path d="M580.24 190.704a2.473 2.473 0 0 0-2.016-1.288v-1.344a.472.472 0 0 0-.14-.924.472.472 0 0 0-.476.476c0 .224.14.392.336.448v1.316a2.473 2.473 0 0 0-2.016 1.288 2.455 2.455 0 0 0-.308 1.176v3.108h4.956v-3.08c-.028-.42-.14-.84-.336-1.176Zm-2.352-3.08c0-.112.084-.168.168-.168.112 0 .168.084.168.168 0 .112-.084.168-.168.168s-.168-.056-.168-.168Zm2.352 7.056h-4.34v-2.8c0-1.204.98-2.184 2.184-2.184 1.204 0 2.184.98 2.184 2.184l-.028 2.8Zm-3.388 1.456h-.784v.952h.252v-.364h.532c.14 0 .252-.112.252-.252v-.112c0-.112-.112-.224-.252-.224Zm0 .336a.06.06 0 0 1-.056.056h-.42a.06.06 0 0 1-.056-.056v-.056a.06.06 0 0 1 .056-.056h.42a.06.06 0 0 1 .056.056v.056Zm1.344-.336h-.784v.952h.252v-.364h.532c.14 0 .252-.112.252-.252v-.112c-.028-.112-.14-.224-.252-.224Zm0 .336a.06.06 0 0 1-.056.056h-.42a.06.06 0 0 1-.056-.056v-.056a.06.06 0 0 1 .056-.056h.42a.06.06 0 0 1 .056.056v.056Zm-2.968-.336h-.252l-.532.952h.252l.112-.168h.644l.112.168h.252l-.588-.952Zm-.308.532.196-.336.196.336h-.392Zm5.012.056v.252c0 .028 0 .056-.028.084-.028.028-.056.028-.084.028h-.896a.12.12 0 0 1-.112-.112v-.112c0-.028 0-.056.028-.084 0 0 .028-.028.056-.028l.756-.42v-.14h-.532v.252l-.252-.056v-.308c0-.028 0-.056.028-.084.028-.028.056-.028.084-.028h.784a.12.12 0 0 1 .112.112v.336c0 .028-.028.056-.028.056l-.028.028-.672.364h.56v-.168l.056.028h.168Zm1.372-.112v-.672h-.252l-.784.672v.252h.784v.252h.252v-.252h.252v-.252h-.252Zm-.756 0 .504-.42v.42h-.504Z" fill="#fff"/><path d="m611.342 194.405-2.119.81L595 200.613a6.454 6.454 0 0 1-1.013.313c-4.716 1.216-9.728-1.29-11.496-5.932l-.203-.553c-1.898-4.974.626-10.611 5.619-12.508l13.265-5.048.958-.369 2.119-.81c4.974-1.898 10.612.626 12.491 5.619l.203.552c1.897 5.011-.627 10.648-5.601 12.528Z" fill="#FFB27D"/><path d="M599.772 194.736c-2.377.903-6.669 2.506-8.972 2.819-.645.092-1.843-.258-2.966-1.493-.664-.736-1.309-1.786-1.788-3.223-.221-.682-.405-1.364-.479-2.064a8.429 8.429 0 0 1 .074-2.45c.129-.737.627-1.4 1.363-1.75h.019c2.45-1.161 5.748-2.598 8.622-3.39 1.99-.552 4.016.332 4.643 2.082l.295.811 1.529 4.181c.626 1.769-.387 3.74-2.34 4.477Z" fill="#FFD3B6"/><path d="M599.772 194.736c-2.377.903-6.669 2.506-8.972 2.819-.645.092-1.843-.258-2.967-1.492-.11-.277-.221-.571-.331-.885-.221-.681-.405-1.363-.479-2.063a8.392 8.392 0 0 1 .074-2.45 2.42 2.42 0 0 1 1.363-1.75h.018c2.451-1.161 5.748-2.598 8.622-3.39 1.272-.35 2.561-.111 3.501.553l1.529 4.182c.608 1.768-.405 3.739-2.358 4.476Z" fill="#FFC197"/><path d="m604.875 214.411-10.98 2.985c-3.335.902-6.798-1.069-7.72-4.403l-.331-1.235c-.903-3.334 1.068-6.798 4.403-7.719l10.98-2.984c3.335-.903 6.799 1.068 7.72 4.403l.331 1.234c.922 3.335-1.068 6.816-4.403 7.719Z" fill="#FFB27D"/><path d="M598.943 213.877c-2.008.534-5.656 1.492-7.572 1.584-.7.037-2.082-.552-2.985-2.376a7.6 7.6 0 0 1-.553-1.548c-.128-.534-.239-1.068-.239-1.621a6.457 6.457 0 0 1 .239-1.879c.166-.553.627-1.032 1.235-1.253h.018c2.082-.737 4.901-1.621 7.333-2.045 1.676-.294 3.261.516 3.666 1.898l.276.995.848 2.966c.368 1.381-.627 2.837-2.266 3.279Z" fill="#FFD3B6"/><path d="M598.943 213.877c-2.008.534-5.656 1.492-7.572 1.584-.7.037-2.082-.553-2.985-2.377a6.978 6.978 0 0 1-.221-1.51 6.503 6.503 0 0 1 .24-1.879c.165-.553.626-1.032 1.234-1.253h.018c2.082-.737 4.901-1.621 7.333-2.045 1.382-.239 2.727.276 3.353 1.234l.847 2.966c.387 1.382-.607 2.837-2.247 3.28Z" fill="#FFC197"/><path d="M425.136 340.605s22.588 21.627 37.805 29.973l11.533-8.18v12.067s22.68 4.016 29.828 0v-32.884l-63.69-31.908-15.476 30.932Z" fill="#ED7D2B"/><path d="M509.11 371.867c-8.769 1.806-27.672-5.084-27.672-5.084l3.059-29.458-21.371 24.465c-10.87-4.053-27.875-14.609-37.971-21.167-5.03-3.279-8.346-5.564-8.346-5.564 14.26-22.936 28.593-44.398 28.593-44.398 4.201 8.419 14.168 15.733 24.964 21.573 17.944 9.727 38.21 15.401 38.21 15.401-.037 17.501.534 44.232.534 44.232Z" fill="#DCEAFF"/><path d="M610.992 173.385a.937.937 0 0 1-.24.073l-14.388 3.685c-6.32 1.621-12.86-1.806-14.536-7.609l-.848-2.966c-1.603-5.582 1.842-11.403 7.719-13.301l4.754-1.216 9.635-2.468c6.319-1.621 12.86 1.805 14.536 7.608l.848 2.966c1.584 5.509-1.751 11.256-7.48 13.228Z" fill="#FFB27D"/><path d="m604.396 169.368-6.982 3.151c-.019 0-.019 0-.037.018a6.825 6.825 0 0 1-.848.166c-.11.018-.239.037-.35.037h-.147c-.774-.019-1.29-.848-.958-1.566a6.835 6.835 0 0 0 .387-4.735l-.166-.608v-.018l-.534-1.99a7.397 7.397 0 0 0-2.543-3.869l-.442-.331c-1.382-.958-1.032-3.132.59-3.574.018 0 .037 0 .037-.019l7.664-1.16c1.897-.516 3.721.939 4.237 2.837l.608 2.266 1.308 4.827c.516 1.915.074 4.052-1.824 4.568Z" fill="#FFD3B6"/><path d="m604.396 169.369-6.982 3.15c-.019 0-.019 0-.037.018-.166.037-.682.111-1.345.221-.774-.018-1.29-.847-.958-1.566a6.833 6.833 0 0 0 .387-4.734l-.166-.608v-.019l-.534-1.989a7.397 7.397 0 0 0-2.543-3.869c.24-.368.608-.645 1.106-.774.018 0 .037 0 .037-.018l7.664-1.161c1.603-.442 3.15.535 3.905 1.972l1.309 4.826c.497 1.898.055 4.035-1.843 4.551Z" fill="#FFC197"/><path d="M489.195 248.198s-3.132-27.394-6.025-32.737c-2.892-5.342-5.343-16.046-.884-23.986 4.458-7.958 5.987-23.249 5.987-23.249 1.732 17.465-3.463 30.416.185 33.842.129.129.387.074.737-.166v46.296Z" fill="#EFA26F"/><path d="M708.654 421h-84.766c-4.071-2.727-25.166-17.114-33.899-27.855-1.842-2.266-8.622-21.886-13.817-37.784-3.243-9.948-5.896-18.441-6.338-20.394-.148-.681-.258-2.026-.313-3.85v-.018c-.221-6.503.073-19.068.387-29.034v-.184c.018-.442.036-.866.036-1.29v-.147c.056-1.732.111-3.372.166-4.845.129-3.703.24-6.503.295-7.59l.018-.516c.129-.074 4.219-2.248 9.654 1.676 1.308.958 2.524 3.243 3.648 6.227.719 1.916 1.382 4.108 1.99 6.411 2.376 8.88 4.09 19.509 4.993 22.346 1.473 4.606 18.791 24.815 19.878 26.068l.056.055V318.35l-13.081-35.002-5.38-14.37-2.689-7.221s-4.146-6.798-7.609-14.978c-1.529-3.574-2.911-7.424-3.777-11.072a33.319 33.319 0 0 1-.516-2.579c-.516-3.095-.553-5.95.166-8.271 1.271-4.145 4.108-4.938 6.301-4.845.221 0 .442.018.663.055.221.018.424.073.626.129.387.11.756.258 1.087.46.553.332 1.05.774 1.419 1.327 0 0 1.842 2.413 4.329 5.655 1.64 2.137 3.538 4.624 5.38 7.038 3.261 4.292 6.282 8.29 7.13 9.45 4.495 6.338 16.618 26.989 16.618 26.989l14.186.59a9.404 9.404 0 0 1 6.024 2.524c5.048 4.716 15.918 14.903 17.263 16.414 0 .497 8.456 4.569 14.978 8.18 4.661 1.971 13.541 8.971 13.541 8.971 1.843 1.621 3.243 3.243 3.943 4.79 3.04 6.614 11.294 64.184 15.236 92.646 1.271 9.156 2.101 15.291 2.174 15.77Z" fill="#FFB27D"/><path d="M621.309 271.134s13.136 21.443 14.886 22.42c1.732.958 8.512 2.321 9.285 0 .774-2.34-24.171-22.42-24.171-22.42Zm66.066 36.734a.256.256 0 0 0-.073-.055s-8.881-7.001-13.542-8.972c-5.987-3.316-13.615-7.019-14.812-7.995 1.4 1.584 11.183 12.675 14.941 13.504 3.316.736 10.833 2.781 13.486 3.518Zm-76.715 42.408V318.35s7.591 12.693 8.162 19.639c.571 6.963-3.151 18.238-8.162 12.287Z" fill="#EFA26F"/><path d="M583.136 233.147c-1.106-1.898-3.096-5.343-3.777-7.277-.185-.553-.166-1.64.497-2.8.405-.7 1.032-1.419 1.99-2.064.442-.294.903-.571 1.4-.755a5.903 5.903 0 0 1 1.787-.332c.553 0 1.124.314 1.529.885 1.308 1.916 2.985 4.532 4.109 6.89.792 1.639.534 3.518-.608 4.347l-.535.387-2.726 1.99c-1.124.847-2.764.276-3.666-1.271Z" fill="#FFD3B6"/><path d="M583.136 233.147c-1.106-1.898-3.096-5.343-3.777-7.277-.185-.553-.166-1.64.497-2.801a6.69 6.69 0 0 1 .571-.423c.442-.295.903-.571 1.4-.756a5.914 5.914 0 0 1 1.788-.331c.552 0 1.123.313 1.529.884 1.308 1.916 2.984 4.532 4.108 6.89.498 1.05.59 2.192.276 3.095l-2.726 1.99c-1.124.847-2.764.276-3.666-1.271Z" fill="#FFC197"/><path d="M558.172 282.316H509a6.852 6.852 0 0 1-6.854-6.853v-10.39A6.852 6.852 0 0 1 509 258.22h49.172a6.851 6.851 0 0 1 6.853 6.853v10.39c.019 3.777-3.058 6.853-6.853 6.853Z" fill="#88CF6D"/><path d="M524.366 265.055h-14.352a.904.904 0 0 1-.903-.902v-.424c0-.498.406-.903.903-.903h14.352c.497 0 .903.405.903.903v.424a.904.904 0 0 1-.903.902Zm.165 5.729h-14.702a.739.739 0 0 1-.737-.737c0-.406.331-.737.737-.737h14.702c.405 0 .737.331.737.737a.74.74 0 0 1-.737.737Zm-6.504 3.463h-8.364a.555.555 0 0 1-.553-.553v-.35c0-.313.258-.552.553-.552h8.364c.313 0 .553.257.553.552v.35c0 .295-.24.553-.553.553Zm17.06 0h-13.523a.7.7 0 0 1-.7-.7v-.055a.7.7 0 0 1 .7-.7h13.523a.7.7 0 0 1 .7.7v.055c0 .387-.331.7-.7.7Zm12.62-3.463h-19.271a.738.738 0 0 1 0-1.474h19.29c.405 0 .737.331.737.737a.768.768 0 0 1-.756.737Zm-23.176 6.926h-14.702a.738.738 0 0 1-.737-.737c0-.405.331-.736.737-.736h14.702c.405 0 .737.331.737.736a.739.739 0 0 1-.737.737Zm23.176 0h-19.271a.738.738 0 0 1-.736-.737c0-.405.331-.736.736-.736h19.29c.405 0 .737.331.737.736a.768.768 0 0 1-.756.737Zm-9.359-12.656h-10.317a.778.778 0 0 1-.774-.774v-.7c0-.423.35-.773.774-.773h10.317c.424 0 .774.35.774.773v.7c.018.424-.332.774-.774.774ZM578 277c3.864 0 7-3.136 7-7s-3.136-7-7-7-7 3.136-7 7 3.136 7 7 7Z" fill="#fff"/><path d="M578 276.524c3.556 0 6.468-2.912 6.468-6.524s-2.884-6.524-6.468-6.524c-3.556 0-6.468 2.912-6.468 6.524.028 3.584 2.912 6.524 6.468 6.524Z" fill="#88CF6D"/><path d="M581.696 266.752c.868 0 1.568-.728 1.568-1.596 0-.868-.7-1.596-1.568-1.596-.868 0-1.568.728-1.568 1.596 0 .868.7 1.596 1.568 1.596Z" fill="#DA2434"/><path d="M581.696 266.136a.28.28 0 0 0 0-.56.28.28 0 0 0 0 .56Zm.14-.672h-.308l-.084-1.316h.476l-.084 1.316Zm-.644 3.752c0 .084-.056.14-.14.14h-.028v.532a.212.212 0 0 1-.056.112c-.028.028-.056.056-.112.056-.084 0-.14-.056-.14-.14v-1.4c0-.028.028-.084.056-.112.028-.028.056-.056.112-.056.084 0 .14.056.14.14v.532h.028c.028 0 .084.028.112.056.028.056.028.084.028.14Zm-6.272.028c0 .084.056.14.14.14h.028v.532c0 .028.028.084.056.112.028.028.056.056.112.056.084 0 .14-.056.14-.14v-1.4a.212.212 0 0 0-.056-.112c-.028-.028-.056-.056-.112-.056-.084 0-.14.056-.14.14v.532h-.028a.212.212 0 0 0-.112.056c0 .056-.028.084-.028.14Zm4.284 1.372v.252a.212.212 0 0 1-.056.112c-.028.028-.056.056-.112.056h-1.988c-.084 0-.14-.056-.14-.14v-.252c0-.028.028-.084.056-.112.028-.028.056-.056.112-.056.084 0 .14.056.14.14v.084h1.68v-.084c0-.028.028-.084.056-.112.028-.028.056-.056.112-.056.084.028.14.084.14.168Zm-.14-1.876h-1.988c-.084 0-.14.056-.14.14 0 .084.056.14.14.14h1.988c.084 0 .14-.056.14-.14.028-.084-.056-.14-.14-.14Z" fill="#fff"/><path d="M579.064 268.068h-1.988a.763.763 0 0 0-.588.252.873.873 0 0 0-.252.588c0 .476.392.84.84.84h1.988a.763.763 0 0 0 .588-.252.873.873 0 0 0 .252-.588.825.825 0 0 0-.84-.84Zm.364 1.232c-.084.112-.224.168-.392.168h-1.876a.532.532 0 0 1-.532-.532c0-.14.056-.28.168-.392.084-.112.224-.168.392-.168h1.876c.308 0 .532.252.532.532a.982.982 0 0 1-.168.392Z" fill="#fff"/><path d="M580.24 267.704a2.473 2.473 0 0 0-2.016-1.288v-1.344a.472.472 0 0 0-.14-.924.472.472 0 0 0-.476.476c0 .224.14.392.336.448v1.316a2.473 2.473 0 0 0-2.016 1.288 2.455 2.455 0 0 0-.308 1.176v3.108h4.956v-3.08c-.028-.42-.14-.84-.336-1.176Zm-2.352-3.08c0-.112.084-.168.168-.168.112 0 .168.084.168.168 0 .112-.084.168-.168.168s-.168-.056-.168-.168Zm2.352 7.056h-4.34v-2.8c0-1.204.98-2.184 2.184-2.184 1.204 0 2.184.98 2.184 2.184l-.028 2.8Zm-3.388 1.456h-.784v.952h.252v-.364h.532c.14 0 .252-.112.252-.252v-.112c0-.112-.112-.224-.252-.224Zm0 .336a.06.06 0 0 1-.056.056h-.42a.06.06 0 0 1-.056-.056v-.056a.06.06 0 0 1 .056-.056h.42a.06.06 0 0 1 .056.056v.056Zm1.344-.336h-.784v.952h.252v-.364h.532c.14 0 .252-.112.252-.252v-.112c-.028-.112-.14-.224-.252-.224Zm0 .336a.06.06 0 0 1-.056.056h-.42a.06.06 0 0 1-.056-.056v-.056a.06.06 0 0 1 .056-.056h.42a.06.06 0 0 1 .056.056v.056Zm-2.968-.336h-.252l-.532.952h.252l.112-.168h.644l.112.168h.252l-.588-.952Zm-.308.532.196-.336.196.336h-.392Zm5.012.056v.252c0 .028 0 .056-.028.084-.028.028-.056.028-.084.028h-.896a.12.12 0 0 1-.112-.112v-.112c0-.028 0-.056.028-.084 0 0 .028-.028.056-.028l.756-.42v-.14h-.532v.252l-.252-.056v-.308c0-.028 0-.056.028-.084.028-.028.056-.028.084-.028h.784a.12.12 0 0 1 .112.112v.336c0 .028-.028.056-.028.056l-.028.028-.672.364h.56v-.168l.056.028h.168Zm1.372-.112v-.672h-.252l-.784.672v.252h.784v.252h.252v-.252h.252v-.252h-.252Zm-.756 0 .504-.42v.42h-.504Z" fill="#fff"/><path d="M558.172 138.522H509a6.853 6.853 0 0 1-6.854-6.853v-10.391a6.852 6.852 0 0 1 6.854-6.853h49.172a6.852 6.852 0 0 1 6.853 6.853v10.391c.019 3.776-3.058 6.853-6.853 6.853Z" fill="#88CF6D"/><path d="M524.366 121.261h-14.352a.905.905 0 0 1-.903-.903v-.424c0-.497.406-.902.903-.902h14.352c.497 0 .903.405.903.902v.424a.905.905 0 0 1-.903.903Zm.165 5.728h-14.702a.738.738 0 0 1-.737-.737c0-.405.331-.737.737-.737h14.702a.74.74 0 0 1 .737.737.739.739 0 0 1-.737.737Zm-6.504 3.463h-8.364a.554.554 0 0 1-.553-.552v-.35c0-.313.258-.553.553-.553h8.364c.313 0 .553.258.553.553v.35c0 .295-.24.552-.553.552Zm17.06 0h-13.523a.7.7 0 0 1-.7-.7v-.055a.7.7 0 0 1 .7-.7h13.523a.7.7 0 0 1 .7.7v.055c0 .387-.331.7-.7.7Zm12.62-3.463h-19.271a.738.738 0 0 1 0-1.474h19.29a.74.74 0 0 1 .737.737.768.768 0 0 1-.756.737Zm-23.176 6.927h-14.702a.739.739 0 0 1-.737-.737c0-.405.331-.737.737-.737h14.702a.74.74 0 0 1 .737.737.74.74 0 0 1-.737.737Zm23.176 0h-19.271a.739.739 0 0 1-.736-.737c0-.405.331-.737.736-.737h19.29a.74.74 0 0 1 .737.737.768.768 0 0 1-.756.737Zm-9.359-12.656h-10.317a.778.778 0 0 1-.774-.774v-.7c0-.424.35-.774.774-.774h10.317c.424 0 .774.35.774.774v.7c.018.424-.332.774-.774.774Z" fill="#fff"/><path d="m666.059 407.902-25.313 13.116h-16.858c-4.071-2.726-25.166-17.114-33.899-27.854-1.842-2.266-8.622-21.886-13.817-37.785.7 2.119 15.217 33.032 19.344 36.55 4.127 3.519 25.848 23.986 31.836 23.765 5.803-.202 36.718-7.313 38.634-7.756.018-.036.055-.036.073-.036Z" fill="#EFA26F"/><path d="M717 421h-91.288c4.569-1.806 22.09-8.493 40.255-13.08.037 0 .055-.019.092-.019 15.587-3.942 31.652-6.337 40.366-2.744l.055.092L717 421Z" fill="#D2E3FC"/><path d="M569.944 300.444s.019 0 0 0c1.548-.571 3.704-.94 4.754.811 1.639 2.726-4.44 26.823-5.196 29.844l.442-30.655Z" fill="#EFA26F"/><path d="m570.423 287.493-.515 14.572s3.058.497 4.808-.811c1.732-1.307.811-13.945-4.293-13.761Z" fill="#FFC197"/><path d="M509.11 371.867c-8.769 1.806-27.672-5.084-27.672-5.084l3.059-29.458-21.372 24.465c-10.869-4.053-27.874-14.609-37.97-21.167 25.885-2.819 45.211-28.371 45.211-28.371 17.944 9.727 38.21 15.402 38.21 15.402-.037 17.482.534 44.213.534 44.213Z" fill="#CBE1FD"/><path d="M448.903 345.118a3.546 3.546 0 0 1 3.592-3.519 3.547 3.547 0 0 1 3.519 3.593 3.545 3.545 0 0 1-3.593 3.518c-1.952-.037-3.537-1.639-3.518-3.592Z" fill="#F99746"/><path d="M578 133c3.864 0 7-3.136 7-7s-3.136-7-7-7-7 3.136-7 7 3.136 7 7 7Z" fill="#fff"/><path d="M578 132.524c3.556 0 6.468-2.912 6.468-6.524s-2.884-6.524-6.468-6.524c-3.556 0-6.468 2.912-6.468 6.524.028 3.584 2.912 6.524 6.468 6.524Z" fill="#88CF6D"/><path d="M581.696 122.752c.868 0 1.568-.728 1.568-1.596 0-.868-.7-1.596-1.568-1.596-.868 0-1.568.728-1.568 1.596 0 .868.7 1.596 1.568 1.596Z" fill="#DA2434"/><path d="M581.696 122.136a.28.28 0 0 0 0-.56.28.28 0 0 0 0 .56Zm.14-.672h-.308l-.084-1.316h.476l-.084 1.316Zm-.644 3.752c0 .084-.056.14-.14.14h-.028v.532a.212.212 0 0 1-.056.112c-.028.028-.056.056-.112.056-.084 0-.14-.056-.14-.14v-1.4c0-.028.028-.084.056-.112.028-.028.056-.056.112-.056.084 0 .14.056.14.14v.532h.028c.028 0 .084.028.112.056a.252.252 0 0 1 .028.14Zm-6.272.028c0 .084.056.14.14.14h.028v.532c0 .028.028.084.056.112.028.028.056.056.112.056.084 0 .14-.056.14-.14v-1.4a.212.212 0 0 0-.056-.112c-.028-.028-.056-.056-.112-.056-.084 0-.14.056-.14.14v.532h-.028a.212.212 0 0 0-.112.056c0 .056-.028.084-.028.14Zm4.284 1.372v.252a.212.212 0 0 1-.056.112c-.028.028-.056.056-.112.056h-1.988c-.084 0-.14-.056-.14-.14v-.252c0-.028.028-.084.056-.112.028-.028.056-.056.112-.056.084 0 .14.056.14.14v.084h1.68v-.084c0-.028.028-.084.056-.112.028-.028.056-.056.112-.056.084.028.14.084.14.168Zm-.14-1.876h-1.988c-.084 0-.14.056-.14.14 0 .084.056.14.14.14h1.988c.084 0 .14-.056.14-.14.028-.084-.056-.14-.14-.14Z" fill="#fff"/><path d="M579.064 124.068h-1.988a.763.763 0 0 0-.588.252.873.873 0 0 0-.252.588c0 .476.392.84.84.84h1.988a.763.763 0 0 0 .588-.252.873.873 0 0 0 .252-.588.825.825 0 0 0-.84-.84Zm.364 1.232c-.084.112-.224.168-.392.168h-1.876a.532.532 0 0 1-.532-.532c0-.14.056-.28.168-.392.084-.112.224-.168.392-.168h1.876c.308 0 .532.252.532.532a.982.982 0 0 1-.168.392Z" fill="#fff"/><path d="M580.24 123.704a2.473 2.473 0 0 0-2.016-1.288v-1.344a.472.472 0 0 0-.14-.924.472.472 0 0 0-.476.476c0 .224.14.392.336.448v1.316a2.473 2.473 0 0 0-2.016 1.288 2.455 2.455 0 0 0-.308 1.176v3.108h4.956v-3.08c-.028-.42-.14-.84-.336-1.176Zm-2.352-3.08c0-.112.084-.168.168-.168.112 0 .168.084.168.168 0 .112-.084.168-.168.168s-.168-.056-.168-.168Zm2.352 7.056h-4.34v-2.8c0-1.204.98-2.184 2.184-2.184 1.204 0 2.184.98 2.184 2.184l-.028 2.8Zm-3.388 1.456h-.784v.952h.252v-.364h.532c.14 0 .252-.112.252-.252v-.112c0-.112-.112-.224-.252-.224Zm0 .336a.06.06 0 0 1-.056.056h-.42a.06.06 0 0 1-.056-.056v-.056a.06.06 0 0 1 .056-.056h.42a.06.06 0 0 1 .056.056v.056Zm1.344-.336h-.784v.952h.252v-.364h.532c.14 0 .252-.112.252-.252v-.112c-.028-.112-.14-.224-.252-.224Zm0 .336a.06.06 0 0 1-.056.056h-.42a.06.06 0 0 1-.056-.056v-.056a.06.06 0 0 1 .056-.056h.42a.06.06 0 0 1 .056.056v.056Zm-2.968-.336h-.252l-.532.952h.252l.112-.168h.644l.112.168h.252l-.588-.952Zm-.308.532.196-.336.196.336h-.392Zm5.012.056v.252c0 .028 0 .056-.028.084-.028.028-.056.028-.084.028h-.896a.12.12 0 0 1-.112-.112v-.112c0-.028 0-.056.028-.084 0 0 .028-.028.056-.028l.756-.42v-.14h-.532v.252l-.252-.056v-.308c0-.028 0-.056.028-.084.028-.028.056-.028.084-.028h.784a.12.12 0 0 1 .112.112v.336c0 .028-.028.056-.028.056l-.028.028-.672.364h.56v-.168l.056.028h.168Zm1.372-.112v-.672h-.252l-.784.672v.252h.784v.252h.252v-.252h.252v-.252h-.252Zm-.756 0 .504-.42v.42h-.504Z" fill="#fff"/></g></g><defs><clipPath id="a"><path fill="#fff" d="M0 0h730v420H0z"/></clipPath><clipPath id="b"><path fill="#fff" transform="matrix(-1 0 0 1 346 93)" d="M0 0h89v176H0z"/></clipPath><clipPath id="c"><path fill="#fff" transform="translate(149 166)" d="M0 0h99v194H0z"/></clipPath><clipPath id="d"><path fill="#fff" transform="rotate(35.813 -123.313 422.29)" d="M0 0h33.31v23.561H0z"/></clipPath><clipPath id="e"><path fill="#fff" transform="translate(47 45)" d="M0 0h107v193H0z"/></clipPath><clipPath id="f"><path fill="#fff" transform="translate(222 106)" d="M0 0h41v29H0z"/></clipPath><clipPath id="g"><path fill="#fff" transform="scale(-1 1) rotate(-25.952 49.316 469.65)" d="M0 0h41v29H0z"/></clipPath><clipPath id="h"><path fill="#fff" transform="translate(387 98)" d="M0 0h330v323H0z"/></clipPath></defs></svg>