<svg width="65" height="65" viewBox="0 0 65 65" fill="none" xmlns="http://www.w3.org/2000/svg">
    <circle cx="32.5" cy="32.5" r="32.5" fill="white"/>
    <path d="M33.7625 38.5002L34.3216 36.2621L34.9631 33.6643C35.0158 33.4528 35.2036 33.3047 35.4209 33.3047H36.7439C36.9675 33.3047 37.1596 33.4612 37.2039 33.6791L38.6555 40.603C38.7167 40.897 38.4931 41.172 38.1956 41.172H37.4908C37.2693 41.172 37.0794 41.0176 37.0308 40.8018L36.4295 38.0665L35.9062 35.6338H35.826L35.2226 38.0898L34.5368 40.8166C34.4841 41.0261 34.2963 41.1741 34.0811 41.1741H33.3574C33.1421 41.1741 32.9544 41.0282 32.9016 40.8187L32.1716 37.9312L31.6019 35.6359H31.5343L31.0448 37.9544L30.4097 40.806C30.3612 41.0218 30.1713 41.1762 29.9497 41.1762H29.2471C28.9475 41.1762 28.7238 40.8991 28.7871 40.6051L30.2599 33.6812C30.3063 33.4633 30.4983 33.3068 30.7199 33.3068H32.0217C32.2391 33.3068 32.4269 33.4549 32.4796 33.6664L33.121 36.2769L33.6907 38.5044H33.7625V38.5002Z"
          fill="#424249"/>
    <path d="M40.1185 33.3047H44.5874C44.8469 33.3047 45.0579 33.5162 45.0579 33.7764V34.2376C45.0579 34.4978 44.8469 34.7093 44.5874 34.7093H41.6799C41.4203 34.7093 41.2093 34.9209 41.2093 35.1811V36.04C41.2093 36.3002 41.4203 36.5117 41.6799 36.5117H44.0304C44.2899 36.5117 44.5009 36.7232 44.5009 36.9834V37.4446C44.5009 37.7048 44.2899 37.9163 44.0304 37.9163H41.6799C41.4203 37.9163 41.2093 38.1279 41.2093 38.3881V39.2935C41.2093 39.5537 41.4203 39.7652 41.6799 39.7652H44.5874C44.8469 39.7652 45.0579 39.9768 45.0579 40.237V40.6982C45.0579 40.9584 44.8469 41.1699 44.5874 41.1699H40.1185C39.8589 41.1699 39.6479 40.9584 39.6479 40.6982V33.7743C39.6479 33.5162 39.8589 33.3047 40.1185 33.3047Z"
          fill="#424249"/>
    <path d="M47.7819 36.2155V40.7003C47.7819 40.9605 47.5709 41.172 47.3114 41.172H46.6932C46.4337 41.172 46.2227 40.9605 46.2227 40.7003V33.7764C46.2227 33.5162 46.4337 33.3047 46.6932 33.3047H47.3853C47.5414 33.3047 47.687 33.383 47.7756 33.512L49.4573 35.9998L50.949 38.2844H50.9954V33.7785C50.9954 33.5183 51.2064 33.3068 51.466 33.3068H52.0842C52.3437 33.3068 52.5547 33.5183 52.5547 33.7785V40.7024C52.5547 40.9626 52.3437 41.1741 52.0842 41.1741H51.3858C51.2296 41.1741 51.0819 41.0959 50.9954 40.9647L49.1471 38.2041L47.8516 36.2177H47.7819V36.2155Z"
          fill="#424249"/>
    <path d="M59.6586 38.9003C59.6586 39.2811 59.5826 39.6175 59.4307 39.9115C59.2788 40.2056 59.0678 40.4488 58.7977 40.6435C58.5276 40.8381 58.2111 40.984 57.8461 41.0835C57.4811 41.1829 57.0865 41.2316 56.6624 41.2316C56.0927 41.2316 55.5568 41.1512 55.0567 40.9925C54.6917 40.8762 54.3309 40.6942 53.9764 40.4488C53.7569 40.2965 53.7126 39.9856 53.8751 39.7719L54.1895 39.3615C54.3372 39.169 54.6073 39.1203 54.8119 39.2515C55.0461 39.4017 55.2846 39.5223 55.5293 39.6154C55.8986 39.7571 56.2636 39.8269 56.6286 39.8269C56.8797 39.8269 57.0907 39.8015 57.2658 39.7529C57.441 39.7042 57.5802 39.6344 57.6878 39.5477C57.7933 39.4609 57.8714 39.3615 57.922 39.2515C57.9706 39.1415 57.9959 39.0294 57.9959 38.9151C57.9959 38.7396 57.9516 38.5957 57.8651 38.4815C57.7786 38.3672 57.652 38.2699 57.4895 38.1895C57.327 38.1092 57.1329 38.0372 56.9092 37.9717C56.6856 37.9061 56.4366 37.8363 56.1623 37.7601C55.8585 37.684 55.5673 37.5909 55.2909 37.4809C55.0145 37.3709 54.7697 37.2291 54.5566 37.0578C54.3435 36.8864 54.1747 36.677 54.0502 36.4295C53.9257 36.182 53.8624 35.8837 53.8624 35.5325C53.8624 35.1898 53.9257 34.8746 54.0544 34.5848C54.1832 34.295 54.3625 34.0454 54.5925 33.836C54.8225 33.6265 55.101 33.4636 55.4301 33.3452C55.7593 33.2267 56.1243 33.1675 56.5273 33.1675C57.0063 33.159 57.4832 33.2056 57.9621 33.305C58.2934 33.3748 58.6183 33.489 58.9348 33.654C59.169 33.7746 59.2577 34.0708 59.1311 34.3014L58.8926 34.7414C58.7703 34.9656 58.496 35.046 58.266 34.936C58.0465 34.8302 57.8355 34.7519 57.6309 34.6991C57.3038 34.6144 56.981 34.5743 56.6624 34.5743C56.5105 34.5743 56.3607 34.5933 56.213 34.6314C56.0653 34.6694 55.9323 34.7244 55.8142 34.7964C55.696 34.8683 55.6011 34.9635 55.5293 35.082C55.4576 35.2004 55.4217 35.3379 55.4217 35.4987C55.4217 35.6595 55.4618 35.7949 55.542 35.9049C55.6222 36.0149 55.7382 36.1101 55.8901 36.1905C56.042 36.2708 56.2277 36.3406 56.4429 36.402C56.6603 36.4633 56.905 36.5247 57.1793 36.5839C58.0085 36.7659 58.6289 37.0451 59.0403 37.4174C59.4539 37.7876 59.6586 38.2826 59.6586 38.9003Z"
          fill="#424249"/>
    <path d="M34.426 18.0039H34.4576C36.0865 18.0039 37.2892 19.3176 36.9073 20.6863L34.158 30.5569H34.1264C32.4975 30.5569 31.2948 29.2433 31.6767 27.8746L34.426 18.0039Z"
          fill="#424249"/>
    <path d="M28.6954 20.2759H28.727C30.3433 20.2759 31.5228 21.5938 31.1134 22.9435L28.7967 30.5569H28.765C27.1488 30.5569 25.9693 29.239 26.3786 27.8894L28.6954 20.2759Z"
          fill="#424249"/>
    <path d="M9.62666 35.9768L9.06752 38.215L8.42608 40.8127C8.37333 41.0243 8.18554 41.1723 7.96822 41.1723H6.64737C6.42371 41.1723 6.2317 41.0158 6.18739 40.7979L4.73572 33.8741C4.67453 33.58 4.89819 33.305 5.1957 33.305H5.90043C6.12198 33.305 6.31188 33.4594 6.36041 33.6752L6.96175 36.4105L7.48503 38.8432H7.56521L8.16866 36.3872L8.85441 33.6604C8.90716 33.451 9.09495 33.3029 9.31017 33.3029H10.0339C10.2491 33.3029 10.4369 33.4489 10.4896 33.6583L11.2197 36.5459L11.7894 38.8411H11.8569L12.3464 36.5226L12.9815 33.671C13.0301 33.4552 13.22 33.3008 13.4415 33.3008H14.1441C14.4438 33.3008 14.6674 33.5779 14.6041 33.872L13.1313 40.7958C13.0849 41.0137 12.8929 41.1702 12.6714 41.1702H11.3737C11.1564 41.1702 10.9686 41.0221 10.9159 40.8106L10.2744 38.2001L9.70684 35.9768H9.62666Z"
          fill="url(#paint0_linear)"/>
    <path d="M15.9969 33.3047H20.4658C20.7254 33.3047 20.9364 33.5162 20.9364 33.7764V34.2376C20.9364 34.4978 20.7254 34.7093 20.4658 34.7093H17.5562C17.2966 34.7093 17.0856 34.9209 17.0856 35.1811V36.04C17.0856 36.3002 17.2966 36.5117 17.5562 36.5117H19.9067C20.1662 36.5117 20.3772 36.7232 20.3772 36.9834V37.4446C20.3772 37.7048 20.1662 37.9163 19.9067 37.9163H17.5562C17.2966 37.9163 17.0856 38.1279 17.0856 38.3881V39.2935C17.0856 39.5537 17.2966 39.7652 17.5562 39.7652H20.4637C20.7232 39.7652 20.9342 39.9768 20.9342 40.237V40.6982C20.9342 40.9584 20.7232 41.1699 20.4637 41.1699H15.9969C15.7374 41.1699 15.5264 40.9584 15.5264 40.6982V33.7743C15.5264 33.5162 15.7374 33.3047 15.9969 33.3047Z"
          fill="url(#paint1_linear)"/>
    <path d="M28.0322 38.8345C28.0322 39.1539 27.9837 39.4543 27.8845 39.7356C27.7853 40.017 27.6418 40.2645 27.452 40.476C27.2621 40.6897 27.0257 40.8589 26.7451 40.9837C26.4645 41.1086 26.1374 41.172 25.7661 41.172H22.5589C22.2994 41.172 22.0884 40.9605 22.0884 40.7003V33.7764C22.0884 33.5162 22.2994 33.3047 22.5589 33.3047H25.6184C26.0129 33.3047 26.3526 33.3618 26.6375 33.476C26.9223 33.5903 27.1566 33.7468 27.3443 33.9457C27.53 34.1445 27.6693 34.373 27.76 34.6332C27.8507 34.8934 27.8972 35.162 27.8972 35.4455C27.8972 35.7353 27.8191 36.0336 27.6629 36.3382C27.5912 36.48 27.4984 36.609 27.3865 36.7211C27.2009 36.9073 27.2304 37.2035 27.414 37.3917C27.4161 37.3938 27.4161 37.3938 27.4182 37.396C27.5553 37.5356 27.6693 37.6879 27.76 37.8529C27.8507 38.0158 27.9204 38.1829 27.9647 38.3543C28.009 38.5214 28.0322 38.6821 28.0322 38.8345ZM26.2893 35.5999C26.2893 35.3101 26.205 35.0901 26.034 34.9378C25.8631 34.7855 25.5952 34.7093 25.2301 34.7093H24.1182C23.8587 34.7093 23.6477 34.9209 23.6477 35.1811V35.9617C23.6477 36.2219 23.8587 36.4334 24.1182 36.4334H25.2534C25.5804 36.4334 25.8336 36.3573 26.0172 36.205C26.1986 36.0526 26.2893 35.8496 26.2893 35.5999ZM26.3801 38.7795C26.3801 38.4769 26.2851 38.2337 26.0952 38.0475C25.9053 37.8614 25.6437 37.7683 25.3103 37.7683H24.1182C23.8587 37.7683 23.6477 37.9798 23.6477 38.24V39.2935C23.6477 39.5537 23.8587 39.7653 24.1182 39.7653H25.3209C25.669 39.7653 25.9349 39.6764 26.1121 39.4987C26.2915 39.3231 26.3801 39.082 26.3801 38.7795Z"
          fill="url(#paint2_linear)"/>
    <path d="M34.4365 18.0039L36.8503 28.725C37.0909 29.789 38.1691 30.5569 39.4266 30.5569H40.4922L38.0784 19.8359C37.8378 18.7718 36.7596 18.0039 35.5021 18.0039H34.4365Z"
          fill="url(#paint3_linear)"/>
    <path d="M29.8697 20.2759H28.686L30.5407 28.7842C30.7644 29.8123 31.8046 30.5569 33.0178 30.5569H34.1572L32.2941 22.0105C32.0747 21.0036 31.0555 20.2759 29.8697 20.2759Z"
          fill="url(#paint4_linear)"/>
    <path d="M26.4383 22.2241H26.4066C24.7777 22.2241 23.7544 24.1555 24.1384 25.52L25.1005 28.9322C25.3685 29.8863 26.3602 30.5569 27.4975 30.5569H28.7888L26.4383 22.2241Z"
          fill="url(#paint5_linear)"/>
    <defs>
        <linearGradient id="paint0_linear" x1="9.67087" y1="33.3042" x2="9.67087" y2="41.1719"
                        gradientUnits="userSpaceOnUse">
            <stop stop-color="#F10064"/>
            <stop offset="1" stop-color="#7F0003"/>
        </linearGradient>
        <linearGradient id="paint1_linear" x1="18.231" y1="33.3039" x2="18.231" y2="41.1715"
                        gradientUnits="userSpaceOnUse">
            <stop stop-color="#F10064"/>
            <stop offset="1" stop-color="#7F0003"/>
        </linearGradient>
        <linearGradient id="paint2_linear" x1="25.0588" y1="33.3039" x2="25.0588" y2="41.1716"
                        gradientUnits="userSpaceOnUse">
            <stop stop-color="#F10064"/>
            <stop offset="1" stop-color="#7F0003"/>
        </linearGradient>
        <linearGradient id="paint3_linear" x1="37.4643" y1="18.0042" x2="37.4643" y2="30.5572"
                        gradientUnits="userSpaceOnUse">
            <stop stop-color="#F10064"/>
            <stop offset="1" stop-color="#7F0003"/>
        </linearGradient>
        <linearGradient id="paint4_linear" x1="31.4211" y1="20.2761" x2="31.4211" y2="30.5572"
                        gradientUnits="userSpaceOnUse">
            <stop stop-color="#F10064"/>
            <stop offset="1" stop-color="#7F0003"/>
        </linearGradient>
        <linearGradient id="paint5_linear" x1="26.4233" y1="22.2247" x2="26.4233" y2="30.5571"
                        gradientUnits="userSpaceOnUse">
            <stop stop-color="#F10064"/>
            <stop offset="1" stop-color="#7F0003"/>
        </linearGradient>
    </defs>
</svg>
