<svg width="94" height="94" fill="none" xmlns="http://www.w3.org/2000/svg"><path d="M86.97 21.737C72.91-.001 44.2-6.463 21.937 7.049.259 20.562-6.772 49.937 7.29 71.675l1.171 1.762-4.687 17.626 17.577-4.7 1.758 1.174C30.725 91.65 38.928 94 47.129 94c8.79 0 17.578-2.35 25.194-7.05 21.678-14.1 28.122-42.888 14.647-65.213zM74.667 66.975c-2.344 3.525-5.273 5.875-9.375 6.462-2.343 0-5.273 1.175-16.99-3.525-9.96-4.7-18.163-12.337-24.022-21.15-3.515-4.112-5.273-9.4-5.858-14.688 0-4.7 1.757-8.812 4.687-11.75 1.171-1.175 2.343-1.762 3.515-1.762h2.93c1.171 0 2.343 0 2.929 2.35 1.172 2.938 4.1 9.988 4.1 10.575.587.587.587 1.763 0 2.35.587 1.175 0 2.35-.585 2.938-.586.587-1.172 1.762-1.758 2.35-1.171.587-1.757 1.762-1.171 2.937 2.343 3.525 5.273 7.05 8.202 9.988 3.515 2.937 7.03 5.287 11.132 7.05 1.172.587 2.343.587 2.93-.588.585-1.175 3.515-4.112 4.686-5.287 1.172-1.175 1.758-1.175 2.93-.588l9.374 4.7c1.172.588 2.344 1.175 2.93 1.763.585 1.762.585 4.112-.587 5.875z" fill="#43D854"/></svg>